G04 #@! TF.GenerationSoftware,KiCad,Pcbnew,5.1.5+dfsg1-2build2*
G04 #@! TF.CreationDate,2023-05-02T16:03:32+02:00*
G04 #@! TF.ProjectId,main,6d61696e-2e6b-4696-9361-645f70636258,rev?*
G04 #@! TF.SameCoordinates,Original*
G04 #@! TF.FileFunction,Copper,L4,Bot*
G04 #@! TF.FilePolarity,Positive*
%FSLAX46Y46*%
G04 Gerber Fmt 4.6, Leading zero omitted, Abs format (unit mm)*
G04 Created by KiCad (PCBNEW 5.1.5+dfsg1-2build2) date 2023-05-02 16:03:32*
%MOMM*%
%LPD*%
G04 APERTURE LIST*
%ADD10C,0.150000*%
%ADD11O,1.700000X2.000000*%
%ADD12R,1.800000X1.800000*%
%ADD13C,1.800000*%
%ADD14R,1.700000X1.700000*%
%ADD15O,1.700000X1.700000*%
%ADD16C,0.620000*%
%ADD17C,0.800000*%
%ADD18C,0.400000*%
%ADD19C,0.200000*%
G04 APERTURE END LIST*
D10*
X171100000Y-100000000D02*
G75*
G03X171100000Y-100000000I-1100000J0D01*
G01*
X101100000Y-100000000D02*
G75*
G03X101100000Y-100000000I-1100000J0D01*
G01*
X97000000Y-93000000D02*
X97000000Y-107000000D01*
X104500000Y-85500000D02*
X104500000Y-93000000D01*
X104500000Y-114500000D02*
X104500000Y-107000000D01*
X104500000Y-107000000D02*
X97000000Y-107000000D01*
X104500000Y-93000000D02*
X97000000Y-93000000D01*
X104500000Y-114500000D02*
X173000000Y-109000000D01*
X173000000Y-91000000D02*
X173000000Y-109000000D01*
X104500000Y-85500000D02*
X173000000Y-91000000D01*
G04 #@! TA.AperFunction,SMDPad,CuDef*
G36*
X163749009Y-92002408D02*
G01*
X163797545Y-92009607D01*
X163845142Y-92021530D01*
X163891342Y-92038060D01*
X163935698Y-92059039D01*
X163977785Y-92084265D01*
X164017197Y-92113495D01*
X164053553Y-92146447D01*
X164086505Y-92182803D01*
X164115735Y-92222215D01*
X164140961Y-92264302D01*
X164161940Y-92308658D01*
X164178470Y-92354858D01*
X164190393Y-92402455D01*
X164197592Y-92450991D01*
X164200000Y-92500000D01*
X164200000Y-93500000D01*
X164197592Y-93549009D01*
X164190393Y-93597545D01*
X164178470Y-93645142D01*
X164161940Y-93691342D01*
X164140961Y-93735698D01*
X164115735Y-93777785D01*
X164086505Y-93817197D01*
X164053553Y-93853553D01*
X164017197Y-93886505D01*
X163977785Y-93915735D01*
X163935698Y-93940961D01*
X163891342Y-93961940D01*
X163845142Y-93978470D01*
X163797545Y-93990393D01*
X163749009Y-93997592D01*
X163700000Y-94000000D01*
X161700000Y-94000000D01*
X161650991Y-93997592D01*
X161602455Y-93990393D01*
X161554858Y-93978470D01*
X161508658Y-93961940D01*
X161464302Y-93940961D01*
X161422215Y-93915735D01*
X161382803Y-93886505D01*
X161346447Y-93853553D01*
X161313495Y-93817197D01*
X161284265Y-93777785D01*
X161259039Y-93735698D01*
X161238060Y-93691342D01*
X161221530Y-93645142D01*
X161209607Y-93597545D01*
X161202408Y-93549009D01*
X161200000Y-93500000D01*
X161200000Y-92500000D01*
X161202408Y-92450991D01*
X161209607Y-92402455D01*
X161221530Y-92354858D01*
X161238060Y-92308658D01*
X161259039Y-92264302D01*
X161284265Y-92222215D01*
X161313495Y-92182803D01*
X161346447Y-92146447D01*
X161382803Y-92113495D01*
X161422215Y-92084265D01*
X161464302Y-92059039D01*
X161508658Y-92038060D01*
X161554858Y-92021530D01*
X161602455Y-92009607D01*
X161650991Y-92002408D01*
X161700000Y-92000000D01*
X163700000Y-92000000D01*
X163749009Y-92002408D01*
G37*
G04 #@! TD.AperFunction*
G04 #@! TA.AperFunction,SMDPad,CuDef*
G36*
X163749009Y-95502408D02*
G01*
X163797545Y-95509607D01*
X163845142Y-95521530D01*
X163891342Y-95538060D01*
X163935698Y-95559039D01*
X163977785Y-95584265D01*
X164017197Y-95613495D01*
X164053553Y-95646447D01*
X164086505Y-95682803D01*
X164115735Y-95722215D01*
X164140961Y-95764302D01*
X164161940Y-95808658D01*
X164178470Y-95854858D01*
X164190393Y-95902455D01*
X164197592Y-95950991D01*
X164200000Y-96000000D01*
X164200000Y-97000000D01*
X164197592Y-97049009D01*
X164190393Y-97097545D01*
X164178470Y-97145142D01*
X164161940Y-97191342D01*
X164140961Y-97235698D01*
X164115735Y-97277785D01*
X164086505Y-97317197D01*
X164053553Y-97353553D01*
X164017197Y-97386505D01*
X163977785Y-97415735D01*
X163935698Y-97440961D01*
X163891342Y-97461940D01*
X163845142Y-97478470D01*
X163797545Y-97490393D01*
X163749009Y-97497592D01*
X163700000Y-97500000D01*
X161700000Y-97500000D01*
X161650991Y-97497592D01*
X161602455Y-97490393D01*
X161554858Y-97478470D01*
X161508658Y-97461940D01*
X161464302Y-97440961D01*
X161422215Y-97415735D01*
X161382803Y-97386505D01*
X161346447Y-97353553D01*
X161313495Y-97317197D01*
X161284265Y-97277785D01*
X161259039Y-97235698D01*
X161238060Y-97191342D01*
X161221530Y-97145142D01*
X161209607Y-97097545D01*
X161202408Y-97049009D01*
X161200000Y-97000000D01*
X161200000Y-96000000D01*
X161202408Y-95950991D01*
X161209607Y-95902455D01*
X161221530Y-95854858D01*
X161238060Y-95808658D01*
X161259039Y-95764302D01*
X161284265Y-95722215D01*
X161313495Y-95682803D01*
X161346447Y-95646447D01*
X161382803Y-95613495D01*
X161422215Y-95584265D01*
X161464302Y-95559039D01*
X161508658Y-95538060D01*
X161554858Y-95521530D01*
X161602455Y-95509607D01*
X161650991Y-95502408D01*
X161700000Y-95500000D01*
X163700000Y-95500000D01*
X163749009Y-95502408D01*
G37*
G04 #@! TD.AperFunction*
G04 #@! TA.AperFunction,SMDPad,CuDef*
G36*
X163749009Y-99002408D02*
G01*
X163797545Y-99009607D01*
X163845142Y-99021530D01*
X163891342Y-99038060D01*
X163935698Y-99059039D01*
X163977785Y-99084265D01*
X164017197Y-99113495D01*
X164053553Y-99146447D01*
X164086505Y-99182803D01*
X164115735Y-99222215D01*
X164140961Y-99264302D01*
X164161940Y-99308658D01*
X164178470Y-99354858D01*
X164190393Y-99402455D01*
X164197592Y-99450991D01*
X164200000Y-99500000D01*
X164200000Y-100500000D01*
X164197592Y-100549009D01*
X164190393Y-100597545D01*
X164178470Y-100645142D01*
X164161940Y-100691342D01*
X164140961Y-100735698D01*
X164115735Y-100777785D01*
X164086505Y-100817197D01*
X164053553Y-100853553D01*
X164017197Y-100886505D01*
X163977785Y-100915735D01*
X163935698Y-100940961D01*
X163891342Y-100961940D01*
X163845142Y-100978470D01*
X163797545Y-100990393D01*
X163749009Y-100997592D01*
X163700000Y-101000000D01*
X161700000Y-101000000D01*
X161650991Y-100997592D01*
X161602455Y-100990393D01*
X161554858Y-100978470D01*
X161508658Y-100961940D01*
X161464302Y-100940961D01*
X161422215Y-100915735D01*
X161382803Y-100886505D01*
X161346447Y-100853553D01*
X161313495Y-100817197D01*
X161284265Y-100777785D01*
X161259039Y-100735698D01*
X161238060Y-100691342D01*
X161221530Y-100645142D01*
X161209607Y-100597545D01*
X161202408Y-100549009D01*
X161200000Y-100500000D01*
X161200000Y-99500000D01*
X161202408Y-99450991D01*
X161209607Y-99402455D01*
X161221530Y-99354858D01*
X161238060Y-99308658D01*
X161259039Y-99264302D01*
X161284265Y-99222215D01*
X161313495Y-99182803D01*
X161346447Y-99146447D01*
X161382803Y-99113495D01*
X161422215Y-99084265D01*
X161464302Y-99059039D01*
X161508658Y-99038060D01*
X161554858Y-99021530D01*
X161602455Y-99009607D01*
X161650991Y-99002408D01*
X161700000Y-99000000D01*
X163700000Y-99000000D01*
X163749009Y-99002408D01*
G37*
G04 #@! TD.AperFunction*
G04 #@! TA.AperFunction,SMDPad,CuDef*
G36*
X163749009Y-106002408D02*
G01*
X163797545Y-106009607D01*
X163845142Y-106021530D01*
X163891342Y-106038060D01*
X163935698Y-106059039D01*
X163977785Y-106084265D01*
X164017197Y-106113495D01*
X164053553Y-106146447D01*
X164086505Y-106182803D01*
X164115735Y-106222215D01*
X164140961Y-106264302D01*
X164161940Y-106308658D01*
X164178470Y-106354858D01*
X164190393Y-106402455D01*
X164197592Y-106450991D01*
X164200000Y-106500000D01*
X164200000Y-107500000D01*
X164197592Y-107549009D01*
X164190393Y-107597545D01*
X164178470Y-107645142D01*
X164161940Y-107691342D01*
X164140961Y-107735698D01*
X164115735Y-107777785D01*
X164086505Y-107817197D01*
X164053553Y-107853553D01*
X164017197Y-107886505D01*
X163977785Y-107915735D01*
X163935698Y-107940961D01*
X163891342Y-107961940D01*
X163845142Y-107978470D01*
X163797545Y-107990393D01*
X163749009Y-107997592D01*
X163700000Y-108000000D01*
X161700000Y-108000000D01*
X161650991Y-107997592D01*
X161602455Y-107990393D01*
X161554858Y-107978470D01*
X161508658Y-107961940D01*
X161464302Y-107940961D01*
X161422215Y-107915735D01*
X161382803Y-107886505D01*
X161346447Y-107853553D01*
X161313495Y-107817197D01*
X161284265Y-107777785D01*
X161259039Y-107735698D01*
X161238060Y-107691342D01*
X161221530Y-107645142D01*
X161209607Y-107597545D01*
X161202408Y-107549009D01*
X161200000Y-107500000D01*
X161200000Y-106500000D01*
X161202408Y-106450991D01*
X161209607Y-106402455D01*
X161221530Y-106354858D01*
X161238060Y-106308658D01*
X161259039Y-106264302D01*
X161284265Y-106222215D01*
X161313495Y-106182803D01*
X161346447Y-106146447D01*
X161382803Y-106113495D01*
X161422215Y-106084265D01*
X161464302Y-106059039D01*
X161508658Y-106038060D01*
X161554858Y-106021530D01*
X161602455Y-106009607D01*
X161650991Y-106002408D01*
X161700000Y-106000000D01*
X163700000Y-106000000D01*
X163749009Y-106002408D01*
G37*
G04 #@! TD.AperFunction*
G04 #@! TA.AperFunction,SMDPad,CuDef*
G36*
X149749009Y-92002408D02*
G01*
X149797545Y-92009607D01*
X149845142Y-92021530D01*
X149891342Y-92038060D01*
X149935698Y-92059039D01*
X149977785Y-92084265D01*
X150017197Y-92113495D01*
X150053553Y-92146447D01*
X150086505Y-92182803D01*
X150115735Y-92222215D01*
X150140961Y-92264302D01*
X150161940Y-92308658D01*
X150178470Y-92354858D01*
X150190393Y-92402455D01*
X150197592Y-92450991D01*
X150200000Y-92500000D01*
X150200000Y-93500000D01*
X150197592Y-93549009D01*
X150190393Y-93597545D01*
X150178470Y-93645142D01*
X150161940Y-93691342D01*
X150140961Y-93735698D01*
X150115735Y-93777785D01*
X150086505Y-93817197D01*
X150053553Y-93853553D01*
X150017197Y-93886505D01*
X149977785Y-93915735D01*
X149935698Y-93940961D01*
X149891342Y-93961940D01*
X149845142Y-93978470D01*
X149797545Y-93990393D01*
X149749009Y-93997592D01*
X149700000Y-94000000D01*
X147700000Y-94000000D01*
X147650991Y-93997592D01*
X147602455Y-93990393D01*
X147554858Y-93978470D01*
X147508658Y-93961940D01*
X147464302Y-93940961D01*
X147422215Y-93915735D01*
X147382803Y-93886505D01*
X147346447Y-93853553D01*
X147313495Y-93817197D01*
X147284265Y-93777785D01*
X147259039Y-93735698D01*
X147238060Y-93691342D01*
X147221530Y-93645142D01*
X147209607Y-93597545D01*
X147202408Y-93549009D01*
X147200000Y-93500000D01*
X147200000Y-92500000D01*
X147202408Y-92450991D01*
X147209607Y-92402455D01*
X147221530Y-92354858D01*
X147238060Y-92308658D01*
X147259039Y-92264302D01*
X147284265Y-92222215D01*
X147313495Y-92182803D01*
X147346447Y-92146447D01*
X147382803Y-92113495D01*
X147422215Y-92084265D01*
X147464302Y-92059039D01*
X147508658Y-92038060D01*
X147554858Y-92021530D01*
X147602455Y-92009607D01*
X147650991Y-92002408D01*
X147700000Y-92000000D01*
X149700000Y-92000000D01*
X149749009Y-92002408D01*
G37*
G04 #@! TD.AperFunction*
G04 #@! TA.AperFunction,SMDPad,CuDef*
G36*
X149749009Y-95502408D02*
G01*
X149797545Y-95509607D01*
X149845142Y-95521530D01*
X149891342Y-95538060D01*
X149935698Y-95559039D01*
X149977785Y-95584265D01*
X150017197Y-95613495D01*
X150053553Y-95646447D01*
X150086505Y-95682803D01*
X150115735Y-95722215D01*
X150140961Y-95764302D01*
X150161940Y-95808658D01*
X150178470Y-95854858D01*
X150190393Y-95902455D01*
X150197592Y-95950991D01*
X150200000Y-96000000D01*
X150200000Y-97000000D01*
X150197592Y-97049009D01*
X150190393Y-97097545D01*
X150178470Y-97145142D01*
X150161940Y-97191342D01*
X150140961Y-97235698D01*
X150115735Y-97277785D01*
X150086505Y-97317197D01*
X150053553Y-97353553D01*
X150017197Y-97386505D01*
X149977785Y-97415735D01*
X149935698Y-97440961D01*
X149891342Y-97461940D01*
X149845142Y-97478470D01*
X149797545Y-97490393D01*
X149749009Y-97497592D01*
X149700000Y-97500000D01*
X147700000Y-97500000D01*
X147650991Y-97497592D01*
X147602455Y-97490393D01*
X147554858Y-97478470D01*
X147508658Y-97461940D01*
X147464302Y-97440961D01*
X147422215Y-97415735D01*
X147382803Y-97386505D01*
X147346447Y-97353553D01*
X147313495Y-97317197D01*
X147284265Y-97277785D01*
X147259039Y-97235698D01*
X147238060Y-97191342D01*
X147221530Y-97145142D01*
X147209607Y-97097545D01*
X147202408Y-97049009D01*
X147200000Y-97000000D01*
X147200000Y-96000000D01*
X147202408Y-95950991D01*
X147209607Y-95902455D01*
X147221530Y-95854858D01*
X147238060Y-95808658D01*
X147259039Y-95764302D01*
X147284265Y-95722215D01*
X147313495Y-95682803D01*
X147346447Y-95646447D01*
X147382803Y-95613495D01*
X147422215Y-95584265D01*
X147464302Y-95559039D01*
X147508658Y-95538060D01*
X147554858Y-95521530D01*
X147602455Y-95509607D01*
X147650991Y-95502408D01*
X147700000Y-95500000D01*
X149700000Y-95500000D01*
X149749009Y-95502408D01*
G37*
G04 #@! TD.AperFunction*
G04 #@! TA.AperFunction,SMDPad,CuDef*
G36*
X149749009Y-99002408D02*
G01*
X149797545Y-99009607D01*
X149845142Y-99021530D01*
X149891342Y-99038060D01*
X149935698Y-99059039D01*
X149977785Y-99084265D01*
X150017197Y-99113495D01*
X150053553Y-99146447D01*
X150086505Y-99182803D01*
X150115735Y-99222215D01*
X150140961Y-99264302D01*
X150161940Y-99308658D01*
X150178470Y-99354858D01*
X150190393Y-99402455D01*
X150197592Y-99450991D01*
X150200000Y-99500000D01*
X150200000Y-100500000D01*
X150197592Y-100549009D01*
X150190393Y-100597545D01*
X150178470Y-100645142D01*
X150161940Y-100691342D01*
X150140961Y-100735698D01*
X150115735Y-100777785D01*
X150086505Y-100817197D01*
X150053553Y-100853553D01*
X150017197Y-100886505D01*
X149977785Y-100915735D01*
X149935698Y-100940961D01*
X149891342Y-100961940D01*
X149845142Y-100978470D01*
X149797545Y-100990393D01*
X149749009Y-100997592D01*
X149700000Y-101000000D01*
X147700000Y-101000000D01*
X147650991Y-100997592D01*
X147602455Y-100990393D01*
X147554858Y-100978470D01*
X147508658Y-100961940D01*
X147464302Y-100940961D01*
X147422215Y-100915735D01*
X147382803Y-100886505D01*
X147346447Y-100853553D01*
X147313495Y-100817197D01*
X147284265Y-100777785D01*
X147259039Y-100735698D01*
X147238060Y-100691342D01*
X147221530Y-100645142D01*
X147209607Y-100597545D01*
X147202408Y-100549009D01*
X147200000Y-100500000D01*
X147200000Y-99500000D01*
X147202408Y-99450991D01*
X147209607Y-99402455D01*
X147221530Y-99354858D01*
X147238060Y-99308658D01*
X147259039Y-99264302D01*
X147284265Y-99222215D01*
X147313495Y-99182803D01*
X147346447Y-99146447D01*
X147382803Y-99113495D01*
X147422215Y-99084265D01*
X147464302Y-99059039D01*
X147508658Y-99038060D01*
X147554858Y-99021530D01*
X147602455Y-99009607D01*
X147650991Y-99002408D01*
X147700000Y-99000000D01*
X149700000Y-99000000D01*
X149749009Y-99002408D01*
G37*
G04 #@! TD.AperFunction*
G04 #@! TA.AperFunction,SMDPad,CuDef*
G36*
X149749009Y-106002408D02*
G01*
X149797545Y-106009607D01*
X149845142Y-106021530D01*
X149891342Y-106038060D01*
X149935698Y-106059039D01*
X149977785Y-106084265D01*
X150017197Y-106113495D01*
X150053553Y-106146447D01*
X150086505Y-106182803D01*
X150115735Y-106222215D01*
X150140961Y-106264302D01*
X150161940Y-106308658D01*
X150178470Y-106354858D01*
X150190393Y-106402455D01*
X150197592Y-106450991D01*
X150200000Y-106500000D01*
X150200000Y-107500000D01*
X150197592Y-107549009D01*
X150190393Y-107597545D01*
X150178470Y-107645142D01*
X150161940Y-107691342D01*
X150140961Y-107735698D01*
X150115735Y-107777785D01*
X150086505Y-107817197D01*
X150053553Y-107853553D01*
X150017197Y-107886505D01*
X149977785Y-107915735D01*
X149935698Y-107940961D01*
X149891342Y-107961940D01*
X149845142Y-107978470D01*
X149797545Y-107990393D01*
X149749009Y-107997592D01*
X149700000Y-108000000D01*
X147700000Y-108000000D01*
X147650991Y-107997592D01*
X147602455Y-107990393D01*
X147554858Y-107978470D01*
X147508658Y-107961940D01*
X147464302Y-107940961D01*
X147422215Y-107915735D01*
X147382803Y-107886505D01*
X147346447Y-107853553D01*
X147313495Y-107817197D01*
X147284265Y-107777785D01*
X147259039Y-107735698D01*
X147238060Y-107691342D01*
X147221530Y-107645142D01*
X147209607Y-107597545D01*
X147202408Y-107549009D01*
X147200000Y-107500000D01*
X147200000Y-106500000D01*
X147202408Y-106450991D01*
X147209607Y-106402455D01*
X147221530Y-106354858D01*
X147238060Y-106308658D01*
X147259039Y-106264302D01*
X147284265Y-106222215D01*
X147313495Y-106182803D01*
X147346447Y-106146447D01*
X147382803Y-106113495D01*
X147422215Y-106084265D01*
X147464302Y-106059039D01*
X147508658Y-106038060D01*
X147554858Y-106021530D01*
X147602455Y-106009607D01*
X147650991Y-106002408D01*
X147700000Y-106000000D01*
X149700000Y-106000000D01*
X149749009Y-106002408D01*
G37*
G04 #@! TD.AperFunction*
G04 #@! TA.AperFunction,SMDPad,CuDef*
G36*
X135868612Y-104603371D02*
G01*
X135936563Y-104613450D01*
X136003199Y-104630142D01*
X136067878Y-104653284D01*
X136129978Y-104682655D01*
X136188899Y-104717971D01*
X136244075Y-104758893D01*
X136294975Y-104805025D01*
X136341107Y-104855925D01*
X136382029Y-104911101D01*
X136417345Y-104970022D01*
X136446716Y-105032122D01*
X136469858Y-105096801D01*
X136486550Y-105163437D01*
X136496629Y-105231388D01*
X136500000Y-105300000D01*
X136500000Y-106700000D01*
X136496629Y-106768612D01*
X136486550Y-106836563D01*
X136469858Y-106903199D01*
X136446716Y-106967878D01*
X136417345Y-107029978D01*
X136382029Y-107088899D01*
X136341107Y-107144075D01*
X136294975Y-107194975D01*
X136244075Y-107241107D01*
X136188899Y-107282029D01*
X136129978Y-107317345D01*
X136067878Y-107346716D01*
X136003199Y-107369858D01*
X135936563Y-107386550D01*
X135868612Y-107396629D01*
X135800000Y-107400000D01*
X131200000Y-107400000D01*
X131131388Y-107396629D01*
X131063437Y-107386550D01*
X130996801Y-107369858D01*
X130932122Y-107346716D01*
X130870022Y-107317345D01*
X130811101Y-107282029D01*
X130755925Y-107241107D01*
X130705025Y-107194975D01*
X130658893Y-107144075D01*
X130617971Y-107088899D01*
X130582655Y-107029978D01*
X130553284Y-106967878D01*
X130530142Y-106903199D01*
X130513450Y-106836563D01*
X130503371Y-106768612D01*
X130500000Y-106700000D01*
X130500000Y-105300000D01*
X130503371Y-105231388D01*
X130513450Y-105163437D01*
X130530142Y-105096801D01*
X130553284Y-105032122D01*
X130582655Y-104970022D01*
X130617971Y-104911101D01*
X130658893Y-104855925D01*
X130705025Y-104805025D01*
X130755925Y-104758893D01*
X130811101Y-104717971D01*
X130870022Y-104682655D01*
X130932122Y-104653284D01*
X130996801Y-104630142D01*
X131063437Y-104613450D01*
X131131388Y-104603371D01*
X131200000Y-104600000D01*
X135800000Y-104600000D01*
X135868612Y-104603371D01*
G37*
G04 #@! TD.AperFunction*
G04 #@! TA.AperFunction,SMDPad,CuDef*
G36*
X135868612Y-92603371D02*
G01*
X135936563Y-92613450D01*
X136003199Y-92630142D01*
X136067878Y-92653284D01*
X136129978Y-92682655D01*
X136188899Y-92717971D01*
X136244075Y-92758893D01*
X136294975Y-92805025D01*
X136341107Y-92855925D01*
X136382029Y-92911101D01*
X136417345Y-92970022D01*
X136446716Y-93032122D01*
X136469858Y-93096801D01*
X136486550Y-93163437D01*
X136496629Y-93231388D01*
X136500000Y-93300000D01*
X136500000Y-94700000D01*
X136496629Y-94768612D01*
X136486550Y-94836563D01*
X136469858Y-94903199D01*
X136446716Y-94967878D01*
X136417345Y-95029978D01*
X136382029Y-95088899D01*
X136341107Y-95144075D01*
X136294975Y-95194975D01*
X136244075Y-95241107D01*
X136188899Y-95282029D01*
X136129978Y-95317345D01*
X136067878Y-95346716D01*
X136003199Y-95369858D01*
X135936563Y-95386550D01*
X135868612Y-95396629D01*
X135800000Y-95400000D01*
X131200000Y-95400000D01*
X131131388Y-95396629D01*
X131063437Y-95386550D01*
X130996801Y-95369858D01*
X130932122Y-95346716D01*
X130870022Y-95317345D01*
X130811101Y-95282029D01*
X130755925Y-95241107D01*
X130705025Y-95194975D01*
X130658893Y-95144075D01*
X130617971Y-95088899D01*
X130582655Y-95029978D01*
X130553284Y-94967878D01*
X130530142Y-94903199D01*
X130513450Y-94836563D01*
X130503371Y-94768612D01*
X130500000Y-94700000D01*
X130500000Y-93300000D01*
X130503371Y-93231388D01*
X130513450Y-93163437D01*
X130530142Y-93096801D01*
X130553284Y-93032122D01*
X130582655Y-92970022D01*
X130617971Y-92911101D01*
X130658893Y-92855925D01*
X130705025Y-92805025D01*
X130755925Y-92758893D01*
X130811101Y-92717971D01*
X130870022Y-92682655D01*
X130932122Y-92653284D01*
X130996801Y-92630142D01*
X131063437Y-92613450D01*
X131131388Y-92603371D01*
X131200000Y-92600000D01*
X135800000Y-92600000D01*
X135868612Y-92603371D01*
G37*
G04 #@! TD.AperFunction*
D11*
X107550000Y-111200000D03*
G04 #@! TA.AperFunction,ComponentPad*
D10*
G36*
X110674594Y-110201203D02*
G01*
X110698853Y-110204802D01*
X110722642Y-110210761D01*
X110745733Y-110219023D01*
X110767902Y-110229508D01*
X110788937Y-110242116D01*
X110808635Y-110256725D01*
X110826806Y-110273194D01*
X110843275Y-110291365D01*
X110857884Y-110311063D01*
X110870492Y-110332098D01*
X110880977Y-110354267D01*
X110889239Y-110377358D01*
X110895198Y-110401147D01*
X110898797Y-110425406D01*
X110900000Y-110449900D01*
X110900000Y-111950100D01*
X110898797Y-111974594D01*
X110895198Y-111998853D01*
X110889239Y-112022642D01*
X110880977Y-112045733D01*
X110870492Y-112067902D01*
X110857884Y-112088937D01*
X110843275Y-112108635D01*
X110826806Y-112126806D01*
X110808635Y-112143275D01*
X110788937Y-112157884D01*
X110767902Y-112170492D01*
X110745733Y-112180977D01*
X110722642Y-112189239D01*
X110698853Y-112195198D01*
X110674594Y-112198797D01*
X110650100Y-112200000D01*
X109449900Y-112200000D01*
X109425406Y-112198797D01*
X109401147Y-112195198D01*
X109377358Y-112189239D01*
X109354267Y-112180977D01*
X109332098Y-112170492D01*
X109311063Y-112157884D01*
X109291365Y-112143275D01*
X109273194Y-112126806D01*
X109256725Y-112108635D01*
X109242116Y-112088937D01*
X109229508Y-112067902D01*
X109219023Y-112045733D01*
X109210761Y-112022642D01*
X109204802Y-111998853D01*
X109201203Y-111974594D01*
X109200000Y-111950100D01*
X109200000Y-110449900D01*
X109201203Y-110425406D01*
X109204802Y-110401147D01*
X109210761Y-110377358D01*
X109219023Y-110354267D01*
X109229508Y-110332098D01*
X109242116Y-110311063D01*
X109256725Y-110291365D01*
X109273194Y-110273194D01*
X109291365Y-110256725D01*
X109311063Y-110242116D01*
X109332098Y-110229508D01*
X109354267Y-110219023D01*
X109377358Y-110210761D01*
X109401147Y-110204802D01*
X109425406Y-110201203D01*
X109449900Y-110200000D01*
X110650100Y-110200000D01*
X110674594Y-110201203D01*
G37*
G04 #@! TD.AperFunction*
D12*
X128720000Y-110000000D03*
D13*
X131260000Y-110000000D03*
D14*
X104500000Y-97460000D03*
D15*
X104500000Y-100000000D03*
X104500000Y-102540000D03*
D14*
X107610000Y-90900000D03*
D15*
X110150000Y-90900000D03*
X107610000Y-93440000D03*
X110150000Y-93440000D03*
X107610000Y-95980000D03*
X110150000Y-95980000D03*
X107610000Y-98520000D03*
X110150000Y-98520000D03*
X107610000Y-101060000D03*
X110150000Y-101060000D03*
X107610000Y-103600000D03*
X110150000Y-103600000D03*
X107610000Y-106140000D03*
X110150000Y-106140000D03*
D16*
X115200000Y-104100000D03*
X127900000Y-104050000D03*
X134300000Y-104050000D03*
X136850000Y-104050000D03*
X169000000Y-95275000D03*
X170250000Y-91550000D03*
X139900000Y-97150000D03*
X139900000Y-96350000D03*
X129146500Y-88570000D03*
X142150000Y-89450000D03*
X138800000Y-93700000D03*
X144500000Y-95000000D03*
X166750000Y-96600000D03*
X168100000Y-95500000D03*
X146550000Y-105850000D03*
X171500000Y-107300000D03*
X143900000Y-106500000D03*
X140400000Y-110000000D03*
X143900000Y-110000000D03*
X138050000Y-104650000D03*
X114319276Y-89120339D03*
X112300000Y-87500000D03*
X122500000Y-106550000D03*
X126875000Y-106525000D03*
X137475000Y-109200000D03*
X146900000Y-108300000D03*
X164500000Y-108300000D03*
X164400000Y-91800000D03*
X147000000Y-91800000D03*
X164500000Y-101700000D03*
X141200000Y-94650000D03*
X140400000Y-94650000D03*
X116954500Y-87109500D03*
X117780000Y-87300000D03*
X140400000Y-98950000D03*
X141200000Y-98950000D03*
X130300000Y-104600000D03*
X129500000Y-104600000D03*
X116475000Y-87969500D03*
X124100000Y-104050000D03*
X138800000Y-90400000D03*
X168800000Y-107550000D03*
X116475000Y-104075000D03*
X145600000Y-105960000D03*
X119000000Y-87950000D03*
X165450000Y-93350000D03*
X131400000Y-89800000D03*
X170250000Y-94475000D03*
X120300000Y-87950000D03*
X167850000Y-92650000D03*
X131100000Y-88900000D03*
X121550000Y-87950000D03*
X122850000Y-87950000D03*
X146350000Y-97700000D03*
X126600000Y-104050000D03*
X165500000Y-103300000D03*
X142150000Y-93350000D03*
X132900000Y-108550000D03*
X133700000Y-108550000D03*
X117766888Y-104066888D03*
X143700000Y-97650000D03*
X125450000Y-104049999D03*
X145200000Y-92300000D03*
X124100000Y-87950000D03*
X138800000Y-91300000D03*
X167850000Y-91800000D03*
X171525000Y-95275000D03*
X168042169Y-96491213D03*
X146500000Y-95300000D03*
X143750000Y-99500000D03*
X142950000Y-99500000D03*
X136775000Y-107550000D03*
X137075000Y-108225000D03*
X165150000Y-104150000D03*
X165150000Y-104950000D03*
X122825000Y-104075000D03*
X111437598Y-88537598D03*
X138750000Y-96500000D03*
X110925000Y-87675000D03*
X143200000Y-94000000D03*
X120275000Y-104075000D03*
X112200000Y-108300000D03*
X112200000Y-109100000D03*
D17*
X139900000Y-95911594D02*
X139588416Y-95600010D01*
X139900000Y-96350000D02*
X139900000Y-95911594D01*
X139588416Y-95600010D02*
X136700010Y-95600010D01*
X136700010Y-95600010D02*
X136300000Y-95200000D01*
X139900000Y-96350000D02*
X139900000Y-97099990D01*
X133500000Y-94000000D02*
X135200000Y-94000000D01*
X136300000Y-95100000D02*
X136300000Y-95200000D01*
X135200000Y-94000000D02*
X136300000Y-95100000D01*
D18*
X148500000Y-107000000D02*
X147700000Y-107000000D01*
X148700000Y-107000000D02*
X148200000Y-107000000D01*
X148200000Y-107000000D02*
X146900000Y-108300000D01*
X162700000Y-107000000D02*
X163200000Y-107000000D01*
X163200000Y-107000000D02*
X164500000Y-108300000D01*
X162700000Y-93000000D02*
X163200000Y-93000000D01*
X163200000Y-93000000D02*
X164400000Y-91800000D01*
X148700000Y-93000000D02*
X148200000Y-93000000D01*
X148200000Y-93000000D02*
X147000000Y-91800000D01*
D17*
X140400000Y-94650000D02*
X141200000Y-94650000D01*
X139200000Y-92400000D02*
X140400000Y-93600000D01*
X136400000Y-91000000D02*
X137800000Y-92400000D01*
X137800000Y-92400000D02*
X139200000Y-92400000D01*
X119900000Y-91000000D02*
X136400000Y-91000000D01*
X117780000Y-88880000D02*
X119900000Y-91000000D01*
X117780000Y-87236500D02*
X117780000Y-88880000D01*
X117081500Y-87236500D02*
X117780000Y-87236500D01*
X116973548Y-87128548D02*
X117081500Y-87236500D01*
X141200000Y-94650000D02*
X140650000Y-94100000D01*
X140600000Y-94100000D02*
X140400000Y-94650000D01*
X140650000Y-94100000D02*
X140600000Y-94100000D01*
X140400000Y-93600000D02*
X140600000Y-94100000D01*
X133500000Y-106000000D02*
X131700000Y-106000000D01*
X131700000Y-106000000D02*
X130300000Y-104600000D01*
X130200000Y-105300000D02*
X130400000Y-105300000D01*
X129500000Y-104600000D02*
X130200000Y-105300000D01*
X129500000Y-104600000D02*
X130300000Y-104600000D01*
D19*
X139050000Y-97750000D02*
X138000000Y-98800000D01*
X141000000Y-97750000D02*
X139050000Y-97750000D01*
X129350000Y-98800000D02*
X124100000Y-104050000D01*
X141850010Y-96899990D02*
X141000000Y-97750000D01*
X141850010Y-94200010D02*
X141850010Y-96899990D01*
X141450000Y-93800000D02*
X141850010Y-94200010D01*
X138000000Y-98800000D02*
X129350000Y-98800000D01*
X141450000Y-93050000D02*
X138800000Y-90400000D01*
X141450000Y-93800000D02*
X141450000Y-93050000D01*
X117450010Y-105050010D02*
X127849990Y-105050010D01*
X116475000Y-104075000D02*
X117450010Y-105050010D01*
X127849990Y-105050010D02*
X129900000Y-103000000D01*
X142640000Y-103000000D02*
X145600000Y-105960000D01*
X129900000Y-103000000D02*
X142640000Y-103000000D01*
X162500000Y-96300000D02*
X162500000Y-96500000D01*
X119000000Y-87950000D02*
X120889999Y-89839999D01*
X131360001Y-89839999D02*
X131400000Y-89800000D01*
X120889999Y-89839999D02*
X131360001Y-89839999D01*
X162700000Y-96500000D02*
X163100000Y-96500000D01*
X165450000Y-94150000D02*
X165450000Y-93350000D01*
X163100000Y-96500000D02*
X165450000Y-94150000D01*
X167850000Y-93088406D02*
X167850000Y-92650000D01*
X169236594Y-94475000D02*
X167850000Y-93088406D01*
X170250000Y-94475000D02*
X169236594Y-94475000D01*
X121839989Y-89489989D02*
X120300000Y-87950000D01*
X130510011Y-89489989D02*
X131100000Y-88900000D01*
X121839989Y-89489989D02*
X130510011Y-89489989D01*
X162700000Y-100000000D02*
X163200000Y-100000000D01*
X163300000Y-100000000D02*
X162700000Y-100000000D01*
X165600000Y-97700000D02*
X163300000Y-100000000D01*
X165600000Y-95700000D02*
X165600000Y-97700000D01*
X167850000Y-93450000D02*
X165600000Y-95700000D01*
X167850000Y-93088406D02*
X167850000Y-93450000D01*
X110460000Y-98500000D02*
X110440000Y-98520000D01*
X126600000Y-103850000D02*
X126600000Y-104050000D01*
X146350000Y-97700000D02*
X145600000Y-98450000D01*
X145600000Y-98450000D02*
X143100000Y-98450000D01*
X126909999Y-103740001D02*
X126600000Y-104050000D01*
X130789989Y-99860011D02*
X126909999Y-103740001D01*
X141689989Y-99860011D02*
X130789989Y-99860011D01*
X143100000Y-98450000D02*
X141689989Y-99860011D01*
X125450001Y-104049999D02*
X125450000Y-104049999D01*
X141468801Y-98389999D02*
X139510001Y-98389999D01*
X142100000Y-98400000D02*
X141478802Y-98400000D01*
X130200000Y-99300000D02*
X125450001Y-104049999D01*
X138600000Y-99300000D02*
X130200000Y-99300000D01*
X142850000Y-97650000D02*
X142100000Y-98400000D01*
X139510001Y-98389999D02*
X138600000Y-99300000D01*
X141478802Y-98400000D02*
X141468801Y-98389999D01*
X143700000Y-97650000D02*
X142850000Y-97650000D01*
X169450000Y-93900000D02*
X168450000Y-92900000D01*
X171525000Y-95275000D02*
X171525000Y-94921198D01*
X171525000Y-94921198D02*
X170503802Y-93900000D01*
X170503802Y-93900000D02*
X169450000Y-93900000D01*
X168450000Y-92900000D02*
X168450000Y-92400000D01*
X168450000Y-92400000D02*
X167850000Y-91800000D01*
D18*
X148700000Y-96500000D02*
X148200000Y-96500000D01*
X147000000Y-95300000D02*
X146500000Y-95300000D01*
X148200000Y-96500000D02*
X147000000Y-95300000D01*
D19*
X122825000Y-104075000D02*
X116150000Y-97400000D01*
X116150000Y-97400000D02*
X113975000Y-95225000D01*
X113975000Y-95225000D02*
X113975000Y-91075000D01*
X113975000Y-91075000D02*
X111575000Y-88675000D01*
X111575000Y-88675000D02*
X111437598Y-88537598D01*
X119700000Y-96500000D02*
X138750000Y-96500000D01*
X117175000Y-96500000D02*
X114675000Y-94000000D01*
X119700000Y-96500000D02*
X117175000Y-96500000D01*
X114675000Y-90703802D02*
X111646198Y-87675000D01*
X114675000Y-94000000D02*
X114675000Y-90703802D01*
X111646198Y-87675000D02*
X110925000Y-87675000D01*
X146300000Y-102200000D02*
X148500000Y-100000000D01*
X128944988Y-102200000D02*
X146300000Y-102200000D01*
X127160001Y-103984987D02*
X128944988Y-102200000D01*
X127160001Y-104339999D02*
X127160001Y-103984987D01*
X126800000Y-104700000D02*
X127160001Y-104339999D01*
X120900000Y-104700000D02*
X126800000Y-104700000D01*
X120275000Y-104075000D02*
X120900000Y-104700000D01*
M02*
