G04 #@! TF.GenerationSoftware,KiCad,Pcbnew,5.1.5+dfsg1-2build2*
G04 #@! TF.CreationDate,2023-01-25T20:05:03+01:00*
G04 #@! TF.ProjectId,main,6d61696e-2e6b-4696-9361-645f70636258,rev?*
G04 #@! TF.SameCoordinates,Original*
G04 #@! TF.FileFunction,Copper,L3,Inr*
G04 #@! TF.FilePolarity,Positive*
%FSLAX46Y46*%
G04 Gerber Fmt 4.6, Leading zero omitted, Abs format (unit mm)*
G04 Created by KiCad (PCBNEW 5.1.5+dfsg1-2build2) date 2023-01-25 20:05:03*
%MOMM*%
%LPD*%
G04 APERTURE LIST*
%ADD10C,0.150000*%
%ADD11R,1.800000X1.800000*%
%ADD12C,1.800000*%
%ADD13O,1.200000X1.750000*%
%ADD14R,1.700000X1.700000*%
%ADD15O,1.700000X1.700000*%
%ADD16C,0.620000*%
%ADD17C,0.800000*%
%ADD18C,0.200000*%
%ADD19C,0.400000*%
G04 APERTURE END LIST*
D10*
X171100000Y-100000000D02*
G75*
G03X171100000Y-100000000I-1100000J0D01*
G01*
X101100000Y-100000000D02*
G75*
G03X101100000Y-100000000I-1100000J0D01*
G01*
X97000000Y-93000000D02*
X97000000Y-107000000D01*
X104500000Y-85500000D02*
X104500000Y-93000000D01*
X104500000Y-114500000D02*
X104500000Y-107000000D01*
X104500000Y-107000000D02*
X97000000Y-107000000D01*
X104500000Y-93000000D02*
X97000000Y-93000000D01*
X104500000Y-114500000D02*
X173000000Y-109000000D01*
X173000000Y-91000000D02*
X173000000Y-109000000D01*
X104500000Y-85500000D02*
X173000000Y-91000000D01*
D11*
X128720000Y-110000000D03*
D12*
X131260000Y-110000000D03*
G04 #@! TA.AperFunction,ViaPad*
D10*
G36*
X110374505Y-110526204D02*
G01*
X110398773Y-110529804D01*
X110422572Y-110535765D01*
X110445671Y-110544030D01*
X110467850Y-110554520D01*
X110488893Y-110567132D01*
X110508599Y-110581747D01*
X110526777Y-110598223D01*
X110543253Y-110616401D01*
X110557868Y-110636107D01*
X110570480Y-110657150D01*
X110580970Y-110679329D01*
X110589235Y-110702428D01*
X110595196Y-110726227D01*
X110598796Y-110750495D01*
X110600000Y-110774999D01*
X110600000Y-112025001D01*
X110598796Y-112049505D01*
X110595196Y-112073773D01*
X110589235Y-112097572D01*
X110580970Y-112120671D01*
X110570480Y-112142850D01*
X110557868Y-112163893D01*
X110543253Y-112183599D01*
X110526777Y-112201777D01*
X110508599Y-112218253D01*
X110488893Y-112232868D01*
X110467850Y-112245480D01*
X110445671Y-112255970D01*
X110422572Y-112264235D01*
X110398773Y-112270196D01*
X110374505Y-112273796D01*
X110350001Y-112275000D01*
X109649999Y-112275000D01*
X109625495Y-112273796D01*
X109601227Y-112270196D01*
X109577428Y-112264235D01*
X109554329Y-112255970D01*
X109532150Y-112245480D01*
X109511107Y-112232868D01*
X109491401Y-112218253D01*
X109473223Y-112201777D01*
X109456747Y-112183599D01*
X109442132Y-112163893D01*
X109429520Y-112142850D01*
X109419030Y-112120671D01*
X109410765Y-112097572D01*
X109404804Y-112073773D01*
X109401204Y-112049505D01*
X109400000Y-112025001D01*
X109400000Y-110774999D01*
X109401204Y-110750495D01*
X109404804Y-110726227D01*
X109410765Y-110702428D01*
X109419030Y-110679329D01*
X109429520Y-110657150D01*
X109442132Y-110636107D01*
X109456747Y-110616401D01*
X109473223Y-110598223D01*
X109491401Y-110581747D01*
X109511107Y-110567132D01*
X109532150Y-110554520D01*
X109554329Y-110544030D01*
X109577428Y-110535765D01*
X109601227Y-110529804D01*
X109625495Y-110526204D01*
X109649999Y-110525000D01*
X110350001Y-110525000D01*
X110374505Y-110526204D01*
G37*
G04 #@! TD.AperFunction*
D13*
X108000000Y-111400000D03*
D14*
X104500000Y-97460000D03*
D15*
X104500000Y-100000000D03*
X104500000Y-102540000D03*
D14*
X107610000Y-90900000D03*
D15*
X110150000Y-90900000D03*
X107610000Y-93440000D03*
X110150000Y-93440000D03*
X107610000Y-95980000D03*
X110150000Y-95980000D03*
X107610000Y-98520000D03*
X110150000Y-98520000D03*
X107610000Y-101060000D03*
X110150000Y-101060000D03*
X107610000Y-103600000D03*
X110150000Y-103600000D03*
X107610000Y-106140000D03*
X110150000Y-106140000D03*
D16*
X115200000Y-104100000D03*
X127900000Y-104050000D03*
X134300000Y-104050000D03*
X136850000Y-104050000D03*
X115200000Y-87950000D03*
X108400000Y-87800000D03*
X122000000Y-107000000D03*
X121750000Y-105000000D03*
X169000000Y-95275000D03*
X170250000Y-91550000D03*
X139900000Y-97150000D03*
X139900000Y-96350000D03*
X129146500Y-88570000D03*
X145200000Y-92300000D03*
X142150000Y-89250000D03*
X138800000Y-93700000D03*
X127100000Y-108300000D03*
X144500000Y-95000000D03*
X137900000Y-109900000D03*
X166750000Y-96600000D03*
X168100000Y-95500000D03*
X164600000Y-99800000D03*
X146550000Y-105850000D03*
X171500000Y-107300000D03*
X143900000Y-106500000D03*
X140400000Y-110000000D03*
X143900000Y-110000000D03*
X138050000Y-104650000D03*
X141200000Y-94650000D03*
X140400000Y-94650000D03*
X116954500Y-87109500D03*
X117780000Y-87300000D03*
X140400000Y-98950000D03*
X141200000Y-98950000D03*
X129500000Y-104600000D03*
X130300000Y-104600000D03*
X116475000Y-87969500D03*
X124100000Y-104050000D03*
X138800000Y-90400000D03*
X116450000Y-104550000D03*
X168800000Y-107550000D03*
X119000000Y-87950000D03*
X165450000Y-93350000D03*
X170250000Y-94475000D03*
X120300000Y-87950000D03*
X167850000Y-92650000D03*
X121550000Y-87950000D03*
X122850000Y-87950000D03*
X146350000Y-97700000D03*
X126600000Y-104050000D03*
X165500000Y-103300000D03*
X142150000Y-93350000D03*
X132900000Y-108550000D03*
X133700000Y-108550000D03*
X117272000Y-104191000D03*
X143700000Y-97650000D03*
X125450000Y-104049999D03*
X171525000Y-95275000D03*
X124100000Y-87950000D03*
X138800000Y-91300000D03*
X167850000Y-91800000D03*
X143750000Y-99500000D03*
X142950000Y-99500000D03*
X136450000Y-108100000D03*
X136650000Y-108850000D03*
X165150000Y-104150000D03*
X165150000Y-104950000D03*
X125200000Y-104900000D03*
X144200000Y-93500000D03*
X138750000Y-96500000D03*
D17*
X117490999Y-105559001D02*
X114109001Y-105559001D01*
X119860001Y-103189999D02*
X117490999Y-105559001D01*
X112150000Y-103600000D02*
X110440000Y-103600000D01*
X114109001Y-105559001D02*
X112150000Y-103600000D01*
X129500000Y-104161594D02*
X129500000Y-104600000D01*
X129500000Y-103800000D02*
X129500000Y-104161594D01*
X128889999Y-103189999D02*
X129500000Y-103800000D01*
X119860001Y-103189999D02*
X128889999Y-103189999D01*
X129500000Y-103800000D02*
X130300000Y-104600000D01*
X140400000Y-98950000D02*
X140090001Y-99259999D01*
X130138406Y-104800000D02*
X130350000Y-104800000D01*
X129938406Y-104600000D02*
X130138406Y-104800000D01*
X129500000Y-104600000D02*
X129938406Y-104600000D01*
X140890001Y-99259999D02*
X141200000Y-98950000D01*
X140090001Y-99259999D02*
X140890001Y-99259999D01*
X130738406Y-104600000D02*
X132288406Y-106150000D01*
X130300000Y-104600000D02*
X130738406Y-104600000D01*
X140090001Y-103882801D02*
X140090001Y-99259999D01*
X137822802Y-106150000D02*
X140090001Y-103882801D01*
X132288406Y-106150000D02*
X137822802Y-106150000D01*
D18*
X104500000Y-102540000D02*
X103310000Y-101350000D01*
X103310000Y-101350000D02*
X103310000Y-96499998D01*
X103310000Y-96499998D02*
X104929999Y-94879999D01*
X104929999Y-94879999D02*
X104929999Y-94870001D01*
X104929999Y-94870001D02*
X105100000Y-94700000D01*
X105100000Y-94700000D02*
X112400000Y-94700000D01*
X116475000Y-90625000D02*
X116475000Y-87969500D01*
X112400000Y-94700000D02*
X116475000Y-90625000D01*
X114775000Y-94725000D02*
X121550000Y-87950000D01*
X113520000Y-95980000D02*
X114775000Y-94725000D01*
X110150000Y-95980000D02*
X113520000Y-95980000D01*
X113550000Y-97250000D02*
X122850000Y-87950000D01*
X112280000Y-98520000D02*
X113550000Y-97250000D01*
X110150000Y-98520000D02*
X112280000Y-98520000D01*
D17*
X132900000Y-108550000D02*
X133209999Y-108859999D01*
X133390001Y-108859999D02*
X133700000Y-108550000D01*
X133209999Y-108859999D02*
X133390001Y-108859999D01*
X132900000Y-108550000D02*
X133100000Y-108550000D01*
X133261594Y-108550000D02*
X133700000Y-108550000D01*
X133259991Y-108548397D02*
X133261594Y-108550000D01*
X107610000Y-107760000D02*
X107610000Y-106140000D01*
X108000000Y-108150000D02*
X108000000Y-111400000D01*
X107610000Y-107760000D02*
X108000000Y-108150000D01*
X125354999Y-109425001D02*
X109275001Y-109425001D01*
X109275001Y-109425001D02*
X108000000Y-109425001D01*
X131956001Y-111450001D02*
X127379999Y-111450001D01*
X133200000Y-110206002D02*
X131956001Y-111450001D01*
X127379999Y-111450001D02*
X125354999Y-109425001D01*
X133209999Y-108959999D02*
X133200000Y-108969998D01*
X133200000Y-108969998D02*
X133200000Y-110206002D01*
X133209999Y-108859999D02*
X133209999Y-108959999D01*
D18*
X115381000Y-102300000D02*
X117272000Y-104191000D01*
X114141000Y-101060000D02*
X115381000Y-102300000D01*
X110150000Y-101060000D02*
X114141000Y-101060000D01*
D19*
X124100000Y-90250000D02*
X124100000Y-87950000D01*
X114500000Y-99850000D02*
X124100000Y-90250000D01*
X105852081Y-99850000D02*
X114500000Y-99850000D01*
X105702081Y-100000000D02*
X105852081Y-99850000D01*
X104500000Y-100000000D02*
X105702081Y-100000000D01*
X125150000Y-91300000D02*
X124100000Y-90250000D01*
X138800000Y-91300000D02*
X125150000Y-91300000D01*
X171215001Y-95584999D02*
X171525000Y-95275000D01*
X170639999Y-96160001D02*
X171215001Y-95584999D01*
X167783199Y-96160001D02*
X170639999Y-96160001D01*
X166523198Y-94900000D02*
X167783199Y-96160001D01*
X143223198Y-91300000D02*
X146823198Y-94900000D01*
X146823198Y-94900000D02*
X166523198Y-94900000D01*
X138800000Y-91300000D02*
X143223198Y-91300000D01*
D17*
X123670997Y-107860001D02*
X124090999Y-107439999D01*
X121587199Y-107860001D02*
X123670997Y-107860001D01*
X121302197Y-107574999D02*
X121587199Y-107860001D01*
X111874999Y-107574999D02*
X121302197Y-107574999D01*
X110440000Y-106140000D02*
X111874999Y-107574999D01*
X141410001Y-107439999D02*
X143750000Y-105100000D01*
X143750000Y-100300000D02*
X142950000Y-99500000D01*
X143750000Y-100500000D02*
X143750000Y-100300000D01*
X143750000Y-105100000D02*
X143750000Y-100500000D01*
X143750000Y-100500000D02*
X143750000Y-99500000D01*
X131260000Y-108727208D02*
X131260000Y-110000000D01*
X131260001Y-107439999D02*
X131260000Y-108727208D01*
X124090999Y-107439999D02*
X131260001Y-107439999D01*
X131260001Y-107439999D02*
X136039999Y-107439999D01*
X136039999Y-107439999D02*
X136639999Y-107439999D01*
X136639999Y-107439999D02*
X141410001Y-107439999D01*
X136900000Y-107650000D02*
X136900000Y-107450000D01*
X136450000Y-108100000D02*
X136900000Y-107650000D01*
X136639999Y-107439999D02*
X136900000Y-107450000D01*
X136639999Y-108401593D02*
X136639999Y-107439999D01*
X136650000Y-108411594D02*
X136639999Y-108401593D01*
X136650000Y-108850000D02*
X136650000Y-108411594D01*
X146027198Y-105100000D02*
X146627198Y-104500000D01*
X143750000Y-105100000D02*
X146027198Y-105100000D01*
X146627198Y-104500000D02*
X164200000Y-104500000D01*
X164550000Y-104150000D02*
X165150000Y-104150000D01*
X164200000Y-104500000D02*
X164550000Y-104150000D01*
X164650000Y-104950000D02*
X165150000Y-104950000D01*
X164200000Y-104500000D02*
X164650000Y-104950000D01*
X136650000Y-108850000D02*
X135800000Y-108000000D01*
X165150000Y-104150000D02*
X165459999Y-104459999D01*
X165459999Y-104640001D02*
X165150000Y-104950000D01*
X165459999Y-104459999D02*
X165459999Y-104640001D01*
D18*
X138750000Y-96500000D02*
X139800000Y-95450000D01*
X142250000Y-95450000D02*
X144200000Y-93500000D01*
X139800000Y-95450000D02*
X142250000Y-95450000D01*
M02*
