G04 #@! TF.GenerationSoftware,KiCad,Pcbnew,5.1.5+dfsg1-2build2*
G04 #@! TF.CreationDate,2023-05-02T16:03:32+02:00*
G04 #@! TF.ProjectId,main,6d61696e-2e6b-4696-9361-645f70636258,rev?*
G04 #@! TF.SameCoordinates,Original*
G04 #@! TF.FileFunction,Copper,L3,Inr*
G04 #@! TF.FilePolarity,Positive*
%FSLAX46Y46*%
G04 Gerber Fmt 4.6, Leading zero omitted, Abs format (unit mm)*
G04 Created by KiCad (PCBNEW 5.1.5+dfsg1-2build2) date 2023-05-02 16:03:32*
%MOMM*%
%LPD*%
G04 APERTURE LIST*
%ADD10C,0.150000*%
%ADD11O,1.700000X2.000000*%
%ADD12R,1.800000X1.800000*%
%ADD13C,1.800000*%
%ADD14R,1.700000X1.700000*%
%ADD15O,1.700000X1.700000*%
%ADD16C,0.620000*%
%ADD17C,0.800000*%
%ADD18C,0.200000*%
%ADD19C,0.400000*%
G04 APERTURE END LIST*
D10*
X171100000Y-100000000D02*
G75*
G03X171100000Y-100000000I-1100000J0D01*
G01*
X101100000Y-100000000D02*
G75*
G03X101100000Y-100000000I-1100000J0D01*
G01*
X97000000Y-93000000D02*
X97000000Y-107000000D01*
X104500000Y-85500000D02*
X104500000Y-93000000D01*
X104500000Y-114500000D02*
X104500000Y-107000000D01*
X104500000Y-107000000D02*
X97000000Y-107000000D01*
X104500000Y-93000000D02*
X97000000Y-93000000D01*
X104500000Y-114500000D02*
X173000000Y-109000000D01*
X173000000Y-91000000D02*
X173000000Y-109000000D01*
X104500000Y-85500000D02*
X173000000Y-91000000D01*
D11*
X107550000Y-111200000D03*
G04 #@! TA.AperFunction,ViaPad*
D10*
G36*
X110674594Y-110201203D02*
G01*
X110698853Y-110204802D01*
X110722642Y-110210761D01*
X110745733Y-110219023D01*
X110767902Y-110229508D01*
X110788937Y-110242116D01*
X110808635Y-110256725D01*
X110826806Y-110273194D01*
X110843275Y-110291365D01*
X110857884Y-110311063D01*
X110870492Y-110332098D01*
X110880977Y-110354267D01*
X110889239Y-110377358D01*
X110895198Y-110401147D01*
X110898797Y-110425406D01*
X110900000Y-110449900D01*
X110900000Y-111950100D01*
X110898797Y-111974594D01*
X110895198Y-111998853D01*
X110889239Y-112022642D01*
X110880977Y-112045733D01*
X110870492Y-112067902D01*
X110857884Y-112088937D01*
X110843275Y-112108635D01*
X110826806Y-112126806D01*
X110808635Y-112143275D01*
X110788937Y-112157884D01*
X110767902Y-112170492D01*
X110745733Y-112180977D01*
X110722642Y-112189239D01*
X110698853Y-112195198D01*
X110674594Y-112198797D01*
X110650100Y-112200000D01*
X109449900Y-112200000D01*
X109425406Y-112198797D01*
X109401147Y-112195198D01*
X109377358Y-112189239D01*
X109354267Y-112180977D01*
X109332098Y-112170492D01*
X109311063Y-112157884D01*
X109291365Y-112143275D01*
X109273194Y-112126806D01*
X109256725Y-112108635D01*
X109242116Y-112088937D01*
X109229508Y-112067902D01*
X109219023Y-112045733D01*
X109210761Y-112022642D01*
X109204802Y-111998853D01*
X109201203Y-111974594D01*
X109200000Y-111950100D01*
X109200000Y-110449900D01*
X109201203Y-110425406D01*
X109204802Y-110401147D01*
X109210761Y-110377358D01*
X109219023Y-110354267D01*
X109229508Y-110332098D01*
X109242116Y-110311063D01*
X109256725Y-110291365D01*
X109273194Y-110273194D01*
X109291365Y-110256725D01*
X109311063Y-110242116D01*
X109332098Y-110229508D01*
X109354267Y-110219023D01*
X109377358Y-110210761D01*
X109401147Y-110204802D01*
X109425406Y-110201203D01*
X109449900Y-110200000D01*
X110650100Y-110200000D01*
X110674594Y-110201203D01*
G37*
G04 #@! TD.AperFunction*
D12*
X128720000Y-110000000D03*
D13*
X131260000Y-110000000D03*
D14*
X104500000Y-97460000D03*
D15*
X104500000Y-100000000D03*
X104500000Y-102540000D03*
D14*
X107610000Y-90900000D03*
D15*
X110150000Y-90900000D03*
X107610000Y-93440000D03*
X110150000Y-93440000D03*
X107610000Y-95980000D03*
X110150000Y-95980000D03*
X107610000Y-98520000D03*
X110150000Y-98520000D03*
X107610000Y-101060000D03*
X110150000Y-101060000D03*
X107610000Y-103600000D03*
X110150000Y-103600000D03*
X107610000Y-106140000D03*
X110150000Y-106140000D03*
D16*
X115200000Y-104100000D03*
X127900000Y-104050000D03*
X134300000Y-104050000D03*
X136850000Y-104050000D03*
X169000000Y-95275000D03*
X170250000Y-91550000D03*
X139900000Y-97150000D03*
X139900000Y-96350000D03*
X129146500Y-88570000D03*
X142150000Y-89450000D03*
X138800000Y-93700000D03*
X144500000Y-95000000D03*
X166750000Y-96600000D03*
X168100000Y-95500000D03*
X146550000Y-105850000D03*
X171500000Y-107300000D03*
X143900000Y-106500000D03*
X140400000Y-110000000D03*
X143900000Y-110000000D03*
X138050000Y-104650000D03*
X114319276Y-89120339D03*
X112300000Y-87500000D03*
X122500000Y-106550000D03*
X126875000Y-106525000D03*
X137475000Y-109200000D03*
X146900000Y-108300000D03*
X164500000Y-108300000D03*
X164400000Y-91800000D03*
X147000000Y-91800000D03*
X164500000Y-101700000D03*
X141200000Y-94650000D03*
X140400000Y-94650000D03*
X116954500Y-87109500D03*
X117780000Y-87300000D03*
X140400000Y-98950000D03*
X141200000Y-98950000D03*
X130300000Y-104600000D03*
X129500000Y-104600000D03*
X116475000Y-87969500D03*
X124100000Y-104050000D03*
X138800000Y-90400000D03*
X168800000Y-107550000D03*
X116475000Y-104075000D03*
X145600000Y-105960000D03*
X119000000Y-87950000D03*
X165450000Y-93350000D03*
X131400000Y-89800000D03*
X170250000Y-94475000D03*
X120300000Y-87950000D03*
X167850000Y-92650000D03*
X131100000Y-88900000D03*
X121550000Y-87950000D03*
X122850000Y-87950000D03*
X146350000Y-97700000D03*
X126600000Y-104050000D03*
X165500000Y-103300000D03*
X142150000Y-93350000D03*
X132900000Y-108550000D03*
X133700000Y-108550000D03*
X117766888Y-104066888D03*
X143700000Y-97650000D03*
X125450000Y-104049999D03*
X145200000Y-92300000D03*
X124100000Y-87950000D03*
X138800000Y-91300000D03*
X167850000Y-91800000D03*
X171525000Y-95275000D03*
X168042169Y-96491213D03*
X146500000Y-95300000D03*
X143750000Y-99500000D03*
X142950000Y-99500000D03*
X136775000Y-107550000D03*
X137075000Y-108225000D03*
X165150000Y-104150000D03*
X165150000Y-104950000D03*
X122825000Y-104075000D03*
X111437598Y-88537598D03*
X138750000Y-96500000D03*
X110925000Y-87675000D03*
X143200000Y-94000000D03*
X120275000Y-104075000D03*
X112200000Y-108300000D03*
X112200000Y-109100000D03*
D17*
X117490999Y-105559001D02*
X114109001Y-105559001D01*
X119860001Y-103189999D02*
X117490999Y-105559001D01*
X112150000Y-103600000D02*
X110440000Y-103600000D01*
X114109001Y-105559001D02*
X112150000Y-103600000D01*
X129500000Y-104161594D02*
X129500000Y-104600000D01*
X129500000Y-103800000D02*
X129500000Y-104161594D01*
X128889999Y-103189999D02*
X129500000Y-103800000D01*
X119860001Y-103189999D02*
X128889999Y-103189999D01*
X129500000Y-103800000D02*
X130300000Y-104600000D01*
X140400000Y-98950000D02*
X140090001Y-99259999D01*
X130138406Y-104800000D02*
X130350000Y-104800000D01*
X129938406Y-104600000D02*
X130138406Y-104800000D01*
X129500000Y-104600000D02*
X129938406Y-104600000D01*
X140890001Y-99259999D02*
X141200000Y-98950000D01*
X140090001Y-99259999D02*
X140890001Y-99259999D01*
X130738406Y-104600000D02*
X132288406Y-106150000D01*
X130300000Y-104600000D02*
X130738406Y-104600000D01*
X140090001Y-103882801D02*
X140090001Y-99259999D01*
X137822802Y-106150000D02*
X140090001Y-103882801D01*
X132288406Y-106150000D02*
X137822802Y-106150000D01*
D18*
X104500000Y-102540000D02*
X103310000Y-101350000D01*
X103310000Y-101350000D02*
X103310000Y-96499998D01*
X103310000Y-96499998D02*
X104929999Y-94879999D01*
X104929999Y-94879999D02*
X104929999Y-94870001D01*
X104929999Y-94870001D02*
X105100000Y-94700000D01*
X105100000Y-94700000D02*
X112400000Y-94700000D01*
X116475000Y-90625000D02*
X116475000Y-87969500D01*
X112400000Y-94700000D02*
X116475000Y-90625000D01*
X168800000Y-107550000D02*
X147250000Y-107550000D01*
X145660000Y-105960000D02*
X145600000Y-105960000D01*
X147250000Y-107550000D02*
X145660000Y-105960000D01*
X131400000Y-89800000D02*
X139400000Y-89800000D01*
X139400000Y-89800000D02*
X140200000Y-90600000D01*
X165450000Y-93350000D02*
X147850000Y-93350000D01*
X147078802Y-93350000D02*
X147850000Y-93350000D01*
X144328802Y-90600000D02*
X147078802Y-93350000D01*
X140200000Y-90600000D02*
X144328802Y-90600000D01*
X167411594Y-92650000D02*
X167850000Y-92650000D01*
X146950000Y-92650000D02*
X167411594Y-92650000D01*
X144549990Y-90249990D02*
X146950000Y-92650000D01*
X140344978Y-90249990D02*
X144549990Y-90249990D01*
X139494988Y-89400000D02*
X140344978Y-90249990D01*
X132038406Y-89400000D02*
X139494988Y-89400000D01*
X131538406Y-88900000D02*
X132038406Y-89400000D01*
X131100000Y-88900000D02*
X131538406Y-88900000D01*
X114775000Y-94725000D02*
X121550000Y-87950000D01*
X113520000Y-95980000D02*
X114775000Y-94725000D01*
X110150000Y-95980000D02*
X113520000Y-95980000D01*
X113550000Y-97250000D02*
X122850000Y-87950000D01*
X112280000Y-98520000D02*
X113550000Y-97250000D01*
X110150000Y-98520000D02*
X112280000Y-98520000D01*
X153628802Y-103300000D02*
X165500000Y-103300000D01*
X143678802Y-93350000D02*
X153628802Y-103300000D01*
X142150000Y-93350000D02*
X143678802Y-93350000D01*
D17*
X132900000Y-108550000D02*
X133209999Y-108859999D01*
X133390001Y-108859999D02*
X133700000Y-108550000D01*
X133209999Y-108859999D02*
X133390001Y-108859999D01*
X132900000Y-108550000D02*
X133100000Y-108550000D01*
X133261594Y-108550000D02*
X133700000Y-108550000D01*
X133259991Y-108548397D02*
X133261594Y-108550000D01*
X107610000Y-111140000D02*
X107550000Y-111200000D01*
X131956001Y-111450001D02*
X126400001Y-111450001D01*
X133200000Y-110206002D02*
X131956001Y-111450001D01*
X126400001Y-111450001D02*
X124599990Y-109649990D01*
X133200000Y-108969998D02*
X133200000Y-110206002D01*
X133209999Y-108959999D02*
X133200000Y-108969998D01*
X133209999Y-108859999D02*
X133209999Y-108959999D01*
D18*
X114760000Y-101060000D02*
X117766888Y-104066888D01*
X110150000Y-101060000D02*
X114760000Y-101060000D01*
D19*
X124100000Y-90250000D02*
X124100000Y-87950000D01*
X114500000Y-99850000D02*
X124100000Y-90250000D01*
X105852081Y-99850000D02*
X114500000Y-99850000D01*
X105702081Y-100000000D02*
X105852081Y-99850000D01*
X104500000Y-100000000D02*
X105702081Y-100000000D01*
X125150000Y-91300000D02*
X124100000Y-90250000D01*
X138800000Y-91300000D02*
X125150000Y-91300000D01*
X138800000Y-91300000D02*
X143223198Y-91300000D01*
D18*
X145200000Y-92300000D02*
X144750000Y-92750000D01*
X144750000Y-92750000D02*
X144750000Y-92850000D01*
D19*
X143223198Y-91300000D02*
X144750000Y-92850000D01*
X146823198Y-94900000D02*
X166523198Y-94900000D01*
X166523198Y-94900000D02*
X167783199Y-96160001D01*
X167783199Y-96160001D02*
X170639999Y-96160001D01*
X170639999Y-96160001D02*
X171215001Y-95584999D01*
X171215001Y-95584999D02*
X171525000Y-95275000D01*
D18*
X167783199Y-96232243D02*
X168042169Y-96491213D01*
X167783199Y-96160001D02*
X167783199Y-96232243D01*
D19*
X146509845Y-95290155D02*
X146500000Y-95300000D01*
X146509845Y-94590155D02*
X146509845Y-95290155D01*
X144750000Y-92850000D02*
X146509845Y-94590155D01*
X146509845Y-94590155D02*
X146823198Y-94900000D01*
D17*
X141410001Y-107439999D02*
X143750000Y-105100000D01*
X143750000Y-100300000D02*
X142950000Y-99500000D01*
X143750000Y-100500000D02*
X143750000Y-100300000D01*
X143750000Y-105100000D02*
X143750000Y-100500000D01*
X143750000Y-100500000D02*
X143750000Y-99500000D01*
X131260000Y-108727208D02*
X131260000Y-110000000D01*
X131260001Y-107439999D02*
X131260000Y-108727208D01*
X131260001Y-107439999D02*
X136039999Y-107439999D01*
X136039999Y-107439999D02*
X136639999Y-107439999D01*
X136639999Y-107439999D02*
X141410001Y-107439999D01*
X136639999Y-107439999D02*
X136900000Y-107450000D01*
X146027198Y-105100000D02*
X146627198Y-104500000D01*
X143750000Y-105100000D02*
X146027198Y-105100000D01*
X146627198Y-104500000D02*
X164200000Y-104500000D01*
X164550000Y-104150000D02*
X165150000Y-104150000D01*
X164200000Y-104500000D02*
X164550000Y-104150000D01*
X164650000Y-104950000D02*
X165150000Y-104950000D01*
X164200000Y-104500000D02*
X164650000Y-104950000D01*
X112090000Y-106140000D02*
X110150000Y-106140000D01*
X113389999Y-107439999D02*
X112090000Y-106140000D01*
X131260001Y-107439999D02*
X113389999Y-107439999D01*
X137075000Y-107786594D02*
X137403298Y-107458296D01*
X137075000Y-108225000D02*
X137075000Y-107786594D01*
X136775000Y-107550000D02*
X136775000Y-107875000D01*
X136765001Y-107915001D02*
X137075000Y-108225000D01*
X136765001Y-107884999D02*
X136765001Y-107915001D01*
X136775000Y-107875000D02*
X136765001Y-107884999D01*
D18*
X111437598Y-88537598D02*
X108037402Y-88537598D01*
X107610000Y-88965000D02*
X107610000Y-90900000D01*
X108037402Y-88537598D02*
X107610000Y-88965000D01*
X138750000Y-96500000D02*
X139800000Y-95450000D01*
X106950000Y-87675000D02*
X110925000Y-87675000D01*
X105750000Y-88875000D02*
X106950000Y-87675000D01*
X105750000Y-92782081D02*
X105750000Y-88875000D01*
X106407919Y-93440000D02*
X105750000Y-92782081D01*
X107610000Y-93440000D02*
X106407919Y-93440000D01*
X141750000Y-95450000D02*
X143200000Y-94000000D01*
X139800000Y-95450000D02*
X141750000Y-95450000D01*
D17*
X112509999Y-108609999D02*
X112590001Y-108609999D01*
X112200000Y-108300000D02*
X112509999Y-108609999D01*
X112590001Y-108709999D02*
X112200000Y-109100000D01*
X112590001Y-108609999D02*
X112590001Y-108709999D01*
X113629992Y-109649990D02*
X112590001Y-108609999D01*
X124599990Y-109649990D02*
X113629992Y-109649990D01*
M02*
