G04 #@! TF.GenerationSoftware,KiCad,Pcbnew,5.1.5+dfsg1-2build2*
G04 #@! TF.CreationDate,2022-04-26T17:08:19+02:00*
G04 #@! TF.ProjectId,main,6d61696e-2e6b-4696-9361-645f70636258,rev?*
G04 #@! TF.SameCoordinates,Original*
G04 #@! TF.FileFunction,Soldermask,Bot*
G04 #@! TF.FilePolarity,Negative*
%FSLAX46Y46*%
G04 Gerber Fmt 4.6, Leading zero omitted, Abs format (unit mm)*
G04 Created by KiCad (PCBNEW 5.1.5+dfsg1-2build2) date 2022-04-26 17:08:19*
%MOMM*%
%LPD*%
G04 APERTURE LIST*
%ADD10C,0.150000*%
%ADD11C,1.800000*%
%ADD12R,1.800000X1.800000*%
%ADD13O,1.200000X1.750000*%
%ADD14R,1.700000X1.700000*%
%ADD15O,1.700000X1.700000*%
%ADD16C,0.750000*%
G04 APERTURE END LIST*
D10*
X171100000Y-100000000D02*
G75*
G03X171100000Y-100000000I-1100000J0D01*
G01*
X101100000Y-100000000D02*
G75*
G03X101100000Y-100000000I-1100000J0D01*
G01*
X97000000Y-93000000D02*
X97000000Y-107000000D01*
X104500000Y-85500000D02*
X104500000Y-93000000D01*
X104500000Y-114500000D02*
X104500000Y-107000000D01*
X104500000Y-107000000D02*
X97000000Y-107000000D01*
X104500000Y-93000000D02*
X97000000Y-93000000D01*
X104500000Y-114500000D02*
X173000000Y-109000000D01*
X173000000Y-91000000D02*
X173000000Y-109000000D01*
X104500000Y-85500000D02*
X173000000Y-91000000D01*
D11*
X131260000Y-110000000D03*
D12*
X128720000Y-110000000D03*
D10*
G36*
X135868612Y-104603371D02*
G01*
X135936563Y-104613450D01*
X136003199Y-104630142D01*
X136067878Y-104653284D01*
X136129978Y-104682655D01*
X136188899Y-104717971D01*
X136244075Y-104758893D01*
X136294975Y-104805025D01*
X136341107Y-104855925D01*
X136382029Y-104911101D01*
X136417345Y-104970022D01*
X136446716Y-105032122D01*
X136469858Y-105096801D01*
X136486550Y-105163437D01*
X136496629Y-105231388D01*
X136500000Y-105300000D01*
X136500000Y-106700000D01*
X136496629Y-106768612D01*
X136486550Y-106836563D01*
X136469858Y-106903199D01*
X136446716Y-106967878D01*
X136417345Y-107029978D01*
X136382029Y-107088899D01*
X136341107Y-107144075D01*
X136294975Y-107194975D01*
X136244075Y-107241107D01*
X136188899Y-107282029D01*
X136129978Y-107317345D01*
X136067878Y-107346716D01*
X136003199Y-107369858D01*
X135936563Y-107386550D01*
X135868612Y-107396629D01*
X135800000Y-107400000D01*
X131200000Y-107400000D01*
X131131388Y-107396629D01*
X131063437Y-107386550D01*
X130996801Y-107369858D01*
X130932122Y-107346716D01*
X130870022Y-107317345D01*
X130811101Y-107282029D01*
X130755925Y-107241107D01*
X130705025Y-107194975D01*
X130658893Y-107144075D01*
X130617971Y-107088899D01*
X130582655Y-107029978D01*
X130553284Y-106967878D01*
X130530142Y-106903199D01*
X130513450Y-106836563D01*
X130503371Y-106768612D01*
X130500000Y-106700000D01*
X130500000Y-105300000D01*
X130503371Y-105231388D01*
X130513450Y-105163437D01*
X130530142Y-105096801D01*
X130553284Y-105032122D01*
X130582655Y-104970022D01*
X130617971Y-104911101D01*
X130658893Y-104855925D01*
X130705025Y-104805025D01*
X130755925Y-104758893D01*
X130811101Y-104717971D01*
X130870022Y-104682655D01*
X130932122Y-104653284D01*
X130996801Y-104630142D01*
X131063437Y-104613450D01*
X131131388Y-104603371D01*
X131200000Y-104600000D01*
X135800000Y-104600000D01*
X135868612Y-104603371D01*
G37*
G36*
X135868612Y-92603371D02*
G01*
X135936563Y-92613450D01*
X136003199Y-92630142D01*
X136067878Y-92653284D01*
X136129978Y-92682655D01*
X136188899Y-92717971D01*
X136244075Y-92758893D01*
X136294975Y-92805025D01*
X136341107Y-92855925D01*
X136382029Y-92911101D01*
X136417345Y-92970022D01*
X136446716Y-93032122D01*
X136469858Y-93096801D01*
X136486550Y-93163437D01*
X136496629Y-93231388D01*
X136500000Y-93300000D01*
X136500000Y-94700000D01*
X136496629Y-94768612D01*
X136486550Y-94836563D01*
X136469858Y-94903199D01*
X136446716Y-94967878D01*
X136417345Y-95029978D01*
X136382029Y-95088899D01*
X136341107Y-95144075D01*
X136294975Y-95194975D01*
X136244075Y-95241107D01*
X136188899Y-95282029D01*
X136129978Y-95317345D01*
X136067878Y-95346716D01*
X136003199Y-95369858D01*
X135936563Y-95386550D01*
X135868612Y-95396629D01*
X135800000Y-95400000D01*
X131200000Y-95400000D01*
X131131388Y-95396629D01*
X131063437Y-95386550D01*
X130996801Y-95369858D01*
X130932122Y-95346716D01*
X130870022Y-95317345D01*
X130811101Y-95282029D01*
X130755925Y-95241107D01*
X130705025Y-95194975D01*
X130658893Y-95144075D01*
X130617971Y-95088899D01*
X130582655Y-95029978D01*
X130553284Y-94967878D01*
X130530142Y-94903199D01*
X130513450Y-94836563D01*
X130503371Y-94768612D01*
X130500000Y-94700000D01*
X130500000Y-93300000D01*
X130503371Y-93231388D01*
X130513450Y-93163437D01*
X130530142Y-93096801D01*
X130553284Y-93032122D01*
X130582655Y-92970022D01*
X130617971Y-92911101D01*
X130658893Y-92855925D01*
X130705025Y-92805025D01*
X130755925Y-92758893D01*
X130811101Y-92717971D01*
X130870022Y-92682655D01*
X130932122Y-92653284D01*
X130996801Y-92630142D01*
X131063437Y-92613450D01*
X131131388Y-92603371D01*
X131200000Y-92600000D01*
X135800000Y-92600000D01*
X135868612Y-92603371D01*
G37*
G36*
X110374505Y-110526204D02*
G01*
X110398773Y-110529804D01*
X110422572Y-110535765D01*
X110445671Y-110544030D01*
X110467850Y-110554520D01*
X110488893Y-110567132D01*
X110508599Y-110581747D01*
X110526777Y-110598223D01*
X110543253Y-110616401D01*
X110557868Y-110636107D01*
X110570480Y-110657150D01*
X110580970Y-110679329D01*
X110589235Y-110702428D01*
X110595196Y-110726227D01*
X110598796Y-110750495D01*
X110600000Y-110774999D01*
X110600000Y-112025001D01*
X110598796Y-112049505D01*
X110595196Y-112073773D01*
X110589235Y-112097572D01*
X110580970Y-112120671D01*
X110570480Y-112142850D01*
X110557868Y-112163893D01*
X110543253Y-112183599D01*
X110526777Y-112201777D01*
X110508599Y-112218253D01*
X110488893Y-112232868D01*
X110467850Y-112245480D01*
X110445671Y-112255970D01*
X110422572Y-112264235D01*
X110398773Y-112270196D01*
X110374505Y-112273796D01*
X110350001Y-112275000D01*
X109649999Y-112275000D01*
X109625495Y-112273796D01*
X109601227Y-112270196D01*
X109577428Y-112264235D01*
X109554329Y-112255970D01*
X109532150Y-112245480D01*
X109511107Y-112232868D01*
X109491401Y-112218253D01*
X109473223Y-112201777D01*
X109456747Y-112183599D01*
X109442132Y-112163893D01*
X109429520Y-112142850D01*
X109419030Y-112120671D01*
X109410765Y-112097572D01*
X109404804Y-112073773D01*
X109401204Y-112049505D01*
X109400000Y-112025001D01*
X109400000Y-110774999D01*
X109401204Y-110750495D01*
X109404804Y-110726227D01*
X109410765Y-110702428D01*
X109419030Y-110679329D01*
X109429520Y-110657150D01*
X109442132Y-110636107D01*
X109456747Y-110616401D01*
X109473223Y-110598223D01*
X109491401Y-110581747D01*
X109511107Y-110567132D01*
X109532150Y-110554520D01*
X109554329Y-110544030D01*
X109577428Y-110535765D01*
X109601227Y-110529804D01*
X109625495Y-110526204D01*
X109649999Y-110525000D01*
X110350001Y-110525000D01*
X110374505Y-110526204D01*
G37*
D13*
X108000000Y-111400000D03*
D14*
X104500000Y-97460000D03*
D15*
X104500000Y-100000000D03*
X104500000Y-102540000D03*
D16*
X124400000Y-108500000D03*
X115600000Y-108500000D03*
D14*
X107900000Y-90900000D03*
D15*
X110440000Y-90900000D03*
X107900000Y-93440000D03*
X110440000Y-93440000D03*
X107900000Y-95980000D03*
X110440000Y-95980000D03*
X107900000Y-98520000D03*
X110440000Y-98520000D03*
X107900000Y-101060000D03*
X110440000Y-101060000D03*
X107900000Y-103600000D03*
X110440000Y-103600000D03*
X107900000Y-106140000D03*
X110440000Y-106140000D03*
M02*
