G04 #@! TF.GenerationSoftware,KiCad,Pcbnew,5.1.5+dfsg1-2build2*
G04 #@! TF.CreationDate,2023-05-02T16:03:32+02:00*
G04 #@! TF.ProjectId,main,6d61696e-2e6b-4696-9361-645f70636258,rev?*
G04 #@! TF.SameCoordinates,Original*
G04 #@! TF.FileFunction,Copper,L1,Top*
G04 #@! TF.FilePolarity,Positive*
%FSLAX46Y46*%
G04 Gerber Fmt 4.6, Leading zero omitted, Abs format (unit mm)*
G04 Created by KiCad (PCBNEW 5.1.5+dfsg1-2build2) date 2023-05-02 16:03:32*
%MOMM*%
%LPD*%
G04 APERTURE LIST*
%ADD10C,0.150000*%
%ADD11R,1.500000X3.500000*%
%ADD12R,1.650000X1.800000*%
%ADD13R,1.650000X2.000000*%
%ADD14O,1.700000X2.000000*%
%ADD15R,0.890000X2.600000*%
%ADD16O,2.500000X1.000000*%
%ADD17R,1.800000X1.800000*%
%ADD18C,1.800000*%
%ADD19R,1.060000X0.650000*%
%ADD20R,0.800000X0.900000*%
%ADD21R,0.900000X0.800000*%
%ADD22C,0.300000*%
%ADD23R,1.700000X1.700000*%
%ADD24O,1.700000X1.700000*%
%ADD25C,0.620000*%
%ADD26C,0.400000*%
%ADD27C,0.300000*%
%ADD28C,0.200000*%
%ADD29C,0.125000*%
%ADD30C,0.800000*%
%ADD31C,0.500000*%
%ADD32C,0.100000*%
%ADD33C,0.600000*%
G04 APERTURE END LIST*
D10*
X171100000Y-100000000D02*
G75*
G03X171100000Y-100000000I-1100000J0D01*
G01*
X101100000Y-100000000D02*
G75*
G03X101100000Y-100000000I-1100000J0D01*
G01*
X97000000Y-93000000D02*
X97000000Y-107000000D01*
X104500000Y-85500000D02*
X104500000Y-93000000D01*
X104500000Y-114500000D02*
X104500000Y-107000000D01*
X104500000Y-107000000D02*
X97000000Y-107000000D01*
X104500000Y-93000000D02*
X97000000Y-93000000D01*
X104500000Y-114500000D02*
X173000000Y-109000000D01*
X173000000Y-91000000D02*
X173000000Y-109000000D01*
X104500000Y-85500000D02*
X173000000Y-91000000D01*
G04 #@! TA.AperFunction,SMDPad,CuDef*
G36*
X109652691Y-108026053D02*
G01*
X109673926Y-108029203D01*
X109694750Y-108034419D01*
X109714962Y-108041651D01*
X109734368Y-108050830D01*
X109752781Y-108061866D01*
X109770024Y-108074654D01*
X109785930Y-108089070D01*
X109800346Y-108104976D01*
X109813134Y-108122219D01*
X109824170Y-108140632D01*
X109833349Y-108160038D01*
X109840581Y-108180250D01*
X109845797Y-108201074D01*
X109848947Y-108222309D01*
X109850000Y-108243750D01*
X109850000Y-108756250D01*
X109848947Y-108777691D01*
X109845797Y-108798926D01*
X109840581Y-108819750D01*
X109833349Y-108839962D01*
X109824170Y-108859368D01*
X109813134Y-108877781D01*
X109800346Y-108895024D01*
X109785930Y-108910930D01*
X109770024Y-108925346D01*
X109752781Y-108938134D01*
X109734368Y-108949170D01*
X109714962Y-108958349D01*
X109694750Y-108965581D01*
X109673926Y-108970797D01*
X109652691Y-108973947D01*
X109631250Y-108975000D01*
X109193750Y-108975000D01*
X109172309Y-108973947D01*
X109151074Y-108970797D01*
X109130250Y-108965581D01*
X109110038Y-108958349D01*
X109090632Y-108949170D01*
X109072219Y-108938134D01*
X109054976Y-108925346D01*
X109039070Y-108910930D01*
X109024654Y-108895024D01*
X109011866Y-108877781D01*
X109000830Y-108859368D01*
X108991651Y-108839962D01*
X108984419Y-108819750D01*
X108979203Y-108798926D01*
X108976053Y-108777691D01*
X108975000Y-108756250D01*
X108975000Y-108243750D01*
X108976053Y-108222309D01*
X108979203Y-108201074D01*
X108984419Y-108180250D01*
X108991651Y-108160038D01*
X109000830Y-108140632D01*
X109011866Y-108122219D01*
X109024654Y-108104976D01*
X109039070Y-108089070D01*
X109054976Y-108074654D01*
X109072219Y-108061866D01*
X109090632Y-108050830D01*
X109110038Y-108041651D01*
X109130250Y-108034419D01*
X109151074Y-108029203D01*
X109172309Y-108026053D01*
X109193750Y-108025000D01*
X109631250Y-108025000D01*
X109652691Y-108026053D01*
G37*
G04 #@! TD.AperFunction*
G04 #@! TA.AperFunction,SMDPad,CuDef*
G36*
X111227691Y-108026053D02*
G01*
X111248926Y-108029203D01*
X111269750Y-108034419D01*
X111289962Y-108041651D01*
X111309368Y-108050830D01*
X111327781Y-108061866D01*
X111345024Y-108074654D01*
X111360930Y-108089070D01*
X111375346Y-108104976D01*
X111388134Y-108122219D01*
X111399170Y-108140632D01*
X111408349Y-108160038D01*
X111415581Y-108180250D01*
X111420797Y-108201074D01*
X111423947Y-108222309D01*
X111425000Y-108243750D01*
X111425000Y-108756250D01*
X111423947Y-108777691D01*
X111420797Y-108798926D01*
X111415581Y-108819750D01*
X111408349Y-108839962D01*
X111399170Y-108859368D01*
X111388134Y-108877781D01*
X111375346Y-108895024D01*
X111360930Y-108910930D01*
X111345024Y-108925346D01*
X111327781Y-108938134D01*
X111309368Y-108949170D01*
X111289962Y-108958349D01*
X111269750Y-108965581D01*
X111248926Y-108970797D01*
X111227691Y-108973947D01*
X111206250Y-108975000D01*
X110768750Y-108975000D01*
X110747309Y-108973947D01*
X110726074Y-108970797D01*
X110705250Y-108965581D01*
X110685038Y-108958349D01*
X110665632Y-108949170D01*
X110647219Y-108938134D01*
X110629976Y-108925346D01*
X110614070Y-108910930D01*
X110599654Y-108895024D01*
X110586866Y-108877781D01*
X110575830Y-108859368D01*
X110566651Y-108839962D01*
X110559419Y-108819750D01*
X110554203Y-108798926D01*
X110551053Y-108777691D01*
X110550000Y-108756250D01*
X110550000Y-108243750D01*
X110551053Y-108222309D01*
X110554203Y-108201074D01*
X110559419Y-108180250D01*
X110566651Y-108160038D01*
X110575830Y-108140632D01*
X110586866Y-108122219D01*
X110599654Y-108104976D01*
X110614070Y-108089070D01*
X110629976Y-108074654D01*
X110647219Y-108061866D01*
X110665632Y-108050830D01*
X110685038Y-108041651D01*
X110705250Y-108034419D01*
X110726074Y-108029203D01*
X110747309Y-108026053D01*
X110768750Y-108025000D01*
X111206250Y-108025000D01*
X111227691Y-108026053D01*
G37*
G04 #@! TD.AperFunction*
D11*
X122000000Y-109250000D03*
X118000000Y-109250000D03*
D12*
X115225000Y-106900000D03*
X124775000Y-106900000D03*
D13*
X115225000Y-110800000D03*
X124775000Y-110800000D03*
G04 #@! TA.AperFunction,SMDPad,CuDef*
D10*
G36*
X168327691Y-93876053D02*
G01*
X168348926Y-93879203D01*
X168369750Y-93884419D01*
X168389962Y-93891651D01*
X168409368Y-93900830D01*
X168427781Y-93911866D01*
X168445024Y-93924654D01*
X168460930Y-93939070D01*
X168475346Y-93954976D01*
X168488134Y-93972219D01*
X168499170Y-93990632D01*
X168508349Y-94010038D01*
X168515581Y-94030250D01*
X168520797Y-94051074D01*
X168523947Y-94072309D01*
X168525000Y-94093750D01*
X168525000Y-94606250D01*
X168523947Y-94627691D01*
X168520797Y-94648926D01*
X168515581Y-94669750D01*
X168508349Y-94689962D01*
X168499170Y-94709368D01*
X168488134Y-94727781D01*
X168475346Y-94745024D01*
X168460930Y-94760930D01*
X168445024Y-94775346D01*
X168427781Y-94788134D01*
X168409368Y-94799170D01*
X168389962Y-94808349D01*
X168369750Y-94815581D01*
X168348926Y-94820797D01*
X168327691Y-94823947D01*
X168306250Y-94825000D01*
X167868750Y-94825000D01*
X167847309Y-94823947D01*
X167826074Y-94820797D01*
X167805250Y-94815581D01*
X167785038Y-94808349D01*
X167765632Y-94799170D01*
X167747219Y-94788134D01*
X167729976Y-94775346D01*
X167714070Y-94760930D01*
X167699654Y-94745024D01*
X167686866Y-94727781D01*
X167675830Y-94709368D01*
X167666651Y-94689962D01*
X167659419Y-94669750D01*
X167654203Y-94648926D01*
X167651053Y-94627691D01*
X167650000Y-94606250D01*
X167650000Y-94093750D01*
X167651053Y-94072309D01*
X167654203Y-94051074D01*
X167659419Y-94030250D01*
X167666651Y-94010038D01*
X167675830Y-93990632D01*
X167686866Y-93972219D01*
X167699654Y-93954976D01*
X167714070Y-93939070D01*
X167729976Y-93924654D01*
X167747219Y-93911866D01*
X167765632Y-93900830D01*
X167785038Y-93891651D01*
X167805250Y-93884419D01*
X167826074Y-93879203D01*
X167847309Y-93876053D01*
X167868750Y-93875000D01*
X168306250Y-93875000D01*
X168327691Y-93876053D01*
G37*
G04 #@! TD.AperFunction*
G04 #@! TA.AperFunction,SMDPad,CuDef*
G36*
X166752691Y-93876053D02*
G01*
X166773926Y-93879203D01*
X166794750Y-93884419D01*
X166814962Y-93891651D01*
X166834368Y-93900830D01*
X166852781Y-93911866D01*
X166870024Y-93924654D01*
X166885930Y-93939070D01*
X166900346Y-93954976D01*
X166913134Y-93972219D01*
X166924170Y-93990632D01*
X166933349Y-94010038D01*
X166940581Y-94030250D01*
X166945797Y-94051074D01*
X166948947Y-94072309D01*
X166950000Y-94093750D01*
X166950000Y-94606250D01*
X166948947Y-94627691D01*
X166945797Y-94648926D01*
X166940581Y-94669750D01*
X166933349Y-94689962D01*
X166924170Y-94709368D01*
X166913134Y-94727781D01*
X166900346Y-94745024D01*
X166885930Y-94760930D01*
X166870024Y-94775346D01*
X166852781Y-94788134D01*
X166834368Y-94799170D01*
X166814962Y-94808349D01*
X166794750Y-94815581D01*
X166773926Y-94820797D01*
X166752691Y-94823947D01*
X166731250Y-94825000D01*
X166293750Y-94825000D01*
X166272309Y-94823947D01*
X166251074Y-94820797D01*
X166230250Y-94815581D01*
X166210038Y-94808349D01*
X166190632Y-94799170D01*
X166172219Y-94788134D01*
X166154976Y-94775346D01*
X166139070Y-94760930D01*
X166124654Y-94745024D01*
X166111866Y-94727781D01*
X166100830Y-94709368D01*
X166091651Y-94689962D01*
X166084419Y-94669750D01*
X166079203Y-94648926D01*
X166076053Y-94627691D01*
X166075000Y-94606250D01*
X166075000Y-94093750D01*
X166076053Y-94072309D01*
X166079203Y-94051074D01*
X166084419Y-94030250D01*
X166091651Y-94010038D01*
X166100830Y-93990632D01*
X166111866Y-93972219D01*
X166124654Y-93954976D01*
X166139070Y-93939070D01*
X166154976Y-93924654D01*
X166172219Y-93911866D01*
X166190632Y-93900830D01*
X166210038Y-93891651D01*
X166230250Y-93884419D01*
X166251074Y-93879203D01*
X166272309Y-93876053D01*
X166293750Y-93875000D01*
X166731250Y-93875000D01*
X166752691Y-93876053D01*
G37*
G04 #@! TD.AperFunction*
G04 #@! TA.AperFunction,SMDPad,CuDef*
G36*
X113602691Y-87026053D02*
G01*
X113623926Y-87029203D01*
X113644750Y-87034419D01*
X113664962Y-87041651D01*
X113684368Y-87050830D01*
X113702781Y-87061866D01*
X113720024Y-87074654D01*
X113735930Y-87089070D01*
X113750346Y-87104976D01*
X113763134Y-87122219D01*
X113774170Y-87140632D01*
X113783349Y-87160038D01*
X113790581Y-87180250D01*
X113795797Y-87201074D01*
X113798947Y-87222309D01*
X113800000Y-87243750D01*
X113800000Y-87756250D01*
X113798947Y-87777691D01*
X113795797Y-87798926D01*
X113790581Y-87819750D01*
X113783349Y-87839962D01*
X113774170Y-87859368D01*
X113763134Y-87877781D01*
X113750346Y-87895024D01*
X113735930Y-87910930D01*
X113720024Y-87925346D01*
X113702781Y-87938134D01*
X113684368Y-87949170D01*
X113664962Y-87958349D01*
X113644750Y-87965581D01*
X113623926Y-87970797D01*
X113602691Y-87973947D01*
X113581250Y-87975000D01*
X113143750Y-87975000D01*
X113122309Y-87973947D01*
X113101074Y-87970797D01*
X113080250Y-87965581D01*
X113060038Y-87958349D01*
X113040632Y-87949170D01*
X113022219Y-87938134D01*
X113004976Y-87925346D01*
X112989070Y-87910930D01*
X112974654Y-87895024D01*
X112961866Y-87877781D01*
X112950830Y-87859368D01*
X112941651Y-87839962D01*
X112934419Y-87819750D01*
X112929203Y-87798926D01*
X112926053Y-87777691D01*
X112925000Y-87756250D01*
X112925000Y-87243750D01*
X112926053Y-87222309D01*
X112929203Y-87201074D01*
X112934419Y-87180250D01*
X112941651Y-87160038D01*
X112950830Y-87140632D01*
X112961866Y-87122219D01*
X112974654Y-87104976D01*
X112989070Y-87089070D01*
X113004976Y-87074654D01*
X113022219Y-87061866D01*
X113040632Y-87050830D01*
X113060038Y-87041651D01*
X113080250Y-87034419D01*
X113101074Y-87029203D01*
X113122309Y-87026053D01*
X113143750Y-87025000D01*
X113581250Y-87025000D01*
X113602691Y-87026053D01*
G37*
G04 #@! TD.AperFunction*
G04 #@! TA.AperFunction,SMDPad,CuDef*
G36*
X115177691Y-87026053D02*
G01*
X115198926Y-87029203D01*
X115219750Y-87034419D01*
X115239962Y-87041651D01*
X115259368Y-87050830D01*
X115277781Y-87061866D01*
X115295024Y-87074654D01*
X115310930Y-87089070D01*
X115325346Y-87104976D01*
X115338134Y-87122219D01*
X115349170Y-87140632D01*
X115358349Y-87160038D01*
X115365581Y-87180250D01*
X115370797Y-87201074D01*
X115373947Y-87222309D01*
X115375000Y-87243750D01*
X115375000Y-87756250D01*
X115373947Y-87777691D01*
X115370797Y-87798926D01*
X115365581Y-87819750D01*
X115358349Y-87839962D01*
X115349170Y-87859368D01*
X115338134Y-87877781D01*
X115325346Y-87895024D01*
X115310930Y-87910930D01*
X115295024Y-87925346D01*
X115277781Y-87938134D01*
X115259368Y-87949170D01*
X115239962Y-87958349D01*
X115219750Y-87965581D01*
X115198926Y-87970797D01*
X115177691Y-87973947D01*
X115156250Y-87975000D01*
X114718750Y-87975000D01*
X114697309Y-87973947D01*
X114676074Y-87970797D01*
X114655250Y-87965581D01*
X114635038Y-87958349D01*
X114615632Y-87949170D01*
X114597219Y-87938134D01*
X114579976Y-87925346D01*
X114564070Y-87910930D01*
X114549654Y-87895024D01*
X114536866Y-87877781D01*
X114525830Y-87859368D01*
X114516651Y-87839962D01*
X114509419Y-87819750D01*
X114504203Y-87798926D01*
X114501053Y-87777691D01*
X114500000Y-87756250D01*
X114500000Y-87243750D01*
X114501053Y-87222309D01*
X114504203Y-87201074D01*
X114509419Y-87180250D01*
X114516651Y-87160038D01*
X114525830Y-87140632D01*
X114536866Y-87122219D01*
X114549654Y-87104976D01*
X114564070Y-87089070D01*
X114579976Y-87074654D01*
X114597219Y-87061866D01*
X114615632Y-87050830D01*
X114635038Y-87041651D01*
X114655250Y-87034419D01*
X114676074Y-87029203D01*
X114697309Y-87026053D01*
X114718750Y-87025000D01*
X115156250Y-87025000D01*
X115177691Y-87026053D01*
G37*
G04 #@! TD.AperFunction*
D14*
X107550000Y-111200000D03*
G04 #@! TA.AperFunction,ComponentPad*
D10*
G36*
X110674594Y-110201203D02*
G01*
X110698853Y-110204802D01*
X110722642Y-110210761D01*
X110745733Y-110219023D01*
X110767902Y-110229508D01*
X110788937Y-110242116D01*
X110808635Y-110256725D01*
X110826806Y-110273194D01*
X110843275Y-110291365D01*
X110857884Y-110311063D01*
X110870492Y-110332098D01*
X110880977Y-110354267D01*
X110889239Y-110377358D01*
X110895198Y-110401147D01*
X110898797Y-110425406D01*
X110900000Y-110449900D01*
X110900000Y-111950100D01*
X110898797Y-111974594D01*
X110895198Y-111998853D01*
X110889239Y-112022642D01*
X110880977Y-112045733D01*
X110870492Y-112067902D01*
X110857884Y-112088937D01*
X110843275Y-112108635D01*
X110826806Y-112126806D01*
X110808635Y-112143275D01*
X110788937Y-112157884D01*
X110767902Y-112170492D01*
X110745733Y-112180977D01*
X110722642Y-112189239D01*
X110698853Y-112195198D01*
X110674594Y-112198797D01*
X110650100Y-112200000D01*
X109449900Y-112200000D01*
X109425406Y-112198797D01*
X109401147Y-112195198D01*
X109377358Y-112189239D01*
X109354267Y-112180977D01*
X109332098Y-112170492D01*
X109311063Y-112157884D01*
X109291365Y-112143275D01*
X109273194Y-112126806D01*
X109256725Y-112108635D01*
X109242116Y-112088937D01*
X109229508Y-112067902D01*
X109219023Y-112045733D01*
X109210761Y-112022642D01*
X109204802Y-111998853D01*
X109201203Y-111974594D01*
X109200000Y-111950100D01*
X109200000Y-110449900D01*
X109201203Y-110425406D01*
X109204802Y-110401147D01*
X109210761Y-110377358D01*
X109219023Y-110354267D01*
X109229508Y-110332098D01*
X109242116Y-110311063D01*
X109256725Y-110291365D01*
X109273194Y-110273194D01*
X109291365Y-110256725D01*
X109311063Y-110242116D01*
X109332098Y-110229508D01*
X109354267Y-110219023D01*
X109377358Y-110210761D01*
X109401147Y-110204802D01*
X109425406Y-110201203D01*
X109449900Y-110200000D01*
X110650100Y-110200000D01*
X110674594Y-110201203D01*
G37*
G04 #@! TD.AperFunction*
D15*
X136825000Y-102250000D03*
X135555000Y-102250000D03*
X134285000Y-102250000D03*
X127905000Y-102250000D03*
X126635000Y-102250000D03*
X125365000Y-102250000D03*
X124095000Y-102250000D03*
X122825000Y-102250000D03*
X121555000Y-102250000D03*
X120285000Y-102250000D03*
X119015000Y-102250000D03*
X117745000Y-102250000D03*
X116475000Y-102250000D03*
X115205000Y-102250000D03*
X115205000Y-89750000D03*
X116475000Y-89750000D03*
X117745000Y-89750000D03*
X119015000Y-89750000D03*
X120285000Y-89750000D03*
X121555000Y-89750000D03*
X122825000Y-89750000D03*
X124095000Y-89750000D03*
X125365000Y-89750000D03*
X126635000Y-89750000D03*
X127905000Y-89750000D03*
D16*
X163750000Y-105850000D03*
X163750000Y-103310000D03*
X163750000Y-100770000D03*
X163750000Y-98230000D03*
X163750000Y-95690000D03*
X163750000Y-93150000D03*
X148250000Y-105850000D03*
X148250000Y-103310000D03*
X148250000Y-100770000D03*
X148250000Y-98230000D03*
X148250000Y-95690000D03*
X148250000Y-93150000D03*
D17*
X128720000Y-110000000D03*
D18*
X131260000Y-110000000D03*
G04 #@! TA.AperFunction,SMDPad,CuDef*
D10*
G36*
X137558094Y-105318683D02*
G01*
X137381317Y-105141906D01*
X137635876Y-104887347D01*
X137812653Y-105064124D01*
X137558094Y-105318683D01*
G37*
G04 #@! TD.AperFunction*
G04 #@! TA.AperFunction,SMDPad,CuDef*
G36*
X136964124Y-105912653D02*
G01*
X136787347Y-105735876D01*
X137041906Y-105481317D01*
X137218683Y-105658094D01*
X136964124Y-105912653D01*
G37*
G04 #@! TD.AperFunction*
G04 #@! TA.AperFunction,SMDPad,CuDef*
G36*
X169896588Y-93575152D02*
G01*
X169899645Y-93575605D01*
X169902644Y-93576356D01*
X169905555Y-93577398D01*
X169908349Y-93578719D01*
X169911000Y-93580309D01*
X169913483Y-93582150D01*
X169915774Y-93584226D01*
X169917850Y-93586517D01*
X169919691Y-93589000D01*
X169921281Y-93591651D01*
X169922602Y-93594445D01*
X169923644Y-93597356D01*
X169924395Y-93600355D01*
X169924848Y-93603412D01*
X169925000Y-93606500D01*
X169925000Y-93943500D01*
X169924848Y-93946588D01*
X169924395Y-93949645D01*
X169923644Y-93952644D01*
X169922602Y-93955555D01*
X169921281Y-93958349D01*
X169919691Y-93961000D01*
X169917850Y-93963483D01*
X169915774Y-93965774D01*
X169913483Y-93967850D01*
X169911000Y-93969691D01*
X169908349Y-93971281D01*
X169905555Y-93972602D01*
X169902644Y-93973644D01*
X169899645Y-93974395D01*
X169896588Y-93974848D01*
X169893500Y-93975000D01*
X169606500Y-93975000D01*
X169603412Y-93974848D01*
X169600355Y-93974395D01*
X169597356Y-93973644D01*
X169594445Y-93972602D01*
X169591651Y-93971281D01*
X169589000Y-93969691D01*
X169586517Y-93967850D01*
X169584226Y-93965774D01*
X169582150Y-93963483D01*
X169580309Y-93961000D01*
X169578719Y-93958349D01*
X169577398Y-93955555D01*
X169576356Y-93952644D01*
X169575605Y-93949645D01*
X169575152Y-93946588D01*
X169575000Y-93943500D01*
X169575000Y-93606500D01*
X169575152Y-93603412D01*
X169575605Y-93600355D01*
X169576356Y-93597356D01*
X169577398Y-93594445D01*
X169578719Y-93591651D01*
X169580309Y-93589000D01*
X169582150Y-93586517D01*
X169584226Y-93584226D01*
X169586517Y-93582150D01*
X169589000Y-93580309D01*
X169591651Y-93578719D01*
X169594445Y-93577398D01*
X169597356Y-93576356D01*
X169600355Y-93575605D01*
X169603412Y-93575152D01*
X169606500Y-93575000D01*
X169893500Y-93575000D01*
X169896588Y-93575152D01*
G37*
G04 #@! TD.AperFunction*
G04 #@! TA.AperFunction,SMDPad,CuDef*
G36*
X170396588Y-93565152D02*
G01*
X170399645Y-93565605D01*
X170402644Y-93566356D01*
X170405555Y-93567398D01*
X170408349Y-93568719D01*
X170411000Y-93570309D01*
X170413483Y-93572150D01*
X170415774Y-93574226D01*
X170417850Y-93576517D01*
X170419691Y-93579000D01*
X170421281Y-93581651D01*
X170422602Y-93584445D01*
X170423644Y-93587356D01*
X170424395Y-93590355D01*
X170424848Y-93593412D01*
X170425000Y-93596500D01*
X170425000Y-93933500D01*
X170424848Y-93936588D01*
X170424395Y-93939645D01*
X170423644Y-93942644D01*
X170422602Y-93945555D01*
X170421281Y-93948349D01*
X170419691Y-93951000D01*
X170417850Y-93953483D01*
X170415774Y-93955774D01*
X170413483Y-93957850D01*
X170411000Y-93959691D01*
X170408349Y-93961281D01*
X170405555Y-93962602D01*
X170402644Y-93963644D01*
X170399645Y-93964395D01*
X170396588Y-93964848D01*
X170393500Y-93965000D01*
X170106500Y-93965000D01*
X170103412Y-93964848D01*
X170100355Y-93964395D01*
X170097356Y-93963644D01*
X170094445Y-93962602D01*
X170091651Y-93961281D01*
X170089000Y-93959691D01*
X170086517Y-93957850D01*
X170084226Y-93955774D01*
X170082150Y-93953483D01*
X170080309Y-93951000D01*
X170078719Y-93948349D01*
X170077398Y-93945555D01*
X170076356Y-93942644D01*
X170075605Y-93939645D01*
X170075152Y-93936588D01*
X170075000Y-93933500D01*
X170075000Y-93596500D01*
X170075152Y-93593412D01*
X170075605Y-93590355D01*
X170076356Y-93587356D01*
X170077398Y-93584445D01*
X170078719Y-93581651D01*
X170080309Y-93579000D01*
X170082150Y-93576517D01*
X170084226Y-93574226D01*
X170086517Y-93572150D01*
X170089000Y-93570309D01*
X170091651Y-93568719D01*
X170094445Y-93567398D01*
X170097356Y-93566356D01*
X170100355Y-93565605D01*
X170103412Y-93565152D01*
X170106500Y-93565000D01*
X170393500Y-93565000D01*
X170396588Y-93565152D01*
G37*
G04 #@! TD.AperFunction*
G04 #@! TA.AperFunction,SMDPad,CuDef*
G36*
X170896588Y-93565152D02*
G01*
X170899645Y-93565605D01*
X170902644Y-93566356D01*
X170905555Y-93567398D01*
X170908349Y-93568719D01*
X170911000Y-93570309D01*
X170913483Y-93572150D01*
X170915774Y-93574226D01*
X170917850Y-93576517D01*
X170919691Y-93579000D01*
X170921281Y-93581651D01*
X170922602Y-93584445D01*
X170923644Y-93587356D01*
X170924395Y-93590355D01*
X170924848Y-93593412D01*
X170925000Y-93596500D01*
X170925000Y-93933500D01*
X170924848Y-93936588D01*
X170924395Y-93939645D01*
X170923644Y-93942644D01*
X170922602Y-93945555D01*
X170921281Y-93948349D01*
X170919691Y-93951000D01*
X170917850Y-93953483D01*
X170915774Y-93955774D01*
X170913483Y-93957850D01*
X170911000Y-93959691D01*
X170908349Y-93961281D01*
X170905555Y-93962602D01*
X170902644Y-93963644D01*
X170899645Y-93964395D01*
X170896588Y-93964848D01*
X170893500Y-93965000D01*
X170606500Y-93965000D01*
X170603412Y-93964848D01*
X170600355Y-93964395D01*
X170597356Y-93963644D01*
X170594445Y-93962602D01*
X170591651Y-93961281D01*
X170589000Y-93959691D01*
X170586517Y-93957850D01*
X170584226Y-93955774D01*
X170582150Y-93953483D01*
X170580309Y-93951000D01*
X170578719Y-93948349D01*
X170577398Y-93945555D01*
X170576356Y-93942644D01*
X170575605Y-93939645D01*
X170575152Y-93936588D01*
X170575000Y-93933500D01*
X170575000Y-93596500D01*
X170575152Y-93593412D01*
X170575605Y-93590355D01*
X170576356Y-93587356D01*
X170577398Y-93584445D01*
X170578719Y-93581651D01*
X170580309Y-93579000D01*
X170582150Y-93576517D01*
X170584226Y-93574226D01*
X170586517Y-93572150D01*
X170589000Y-93570309D01*
X170591651Y-93568719D01*
X170594445Y-93567398D01*
X170597356Y-93566356D01*
X170600355Y-93565605D01*
X170603412Y-93565152D01*
X170606500Y-93565000D01*
X170893500Y-93565000D01*
X170896588Y-93565152D01*
G37*
G04 #@! TD.AperFunction*
G04 #@! TA.AperFunction,SMDPad,CuDef*
G36*
X171396588Y-93575152D02*
G01*
X171399645Y-93575605D01*
X171402644Y-93576356D01*
X171405555Y-93577398D01*
X171408349Y-93578719D01*
X171411000Y-93580309D01*
X171413483Y-93582150D01*
X171415774Y-93584226D01*
X171417850Y-93586517D01*
X171419691Y-93589000D01*
X171421281Y-93591651D01*
X171422602Y-93594445D01*
X171423644Y-93597356D01*
X171424395Y-93600355D01*
X171424848Y-93603412D01*
X171425000Y-93606500D01*
X171425000Y-93943500D01*
X171424848Y-93946588D01*
X171424395Y-93949645D01*
X171423644Y-93952644D01*
X171422602Y-93955555D01*
X171421281Y-93958349D01*
X171419691Y-93961000D01*
X171417850Y-93963483D01*
X171415774Y-93965774D01*
X171413483Y-93967850D01*
X171411000Y-93969691D01*
X171408349Y-93971281D01*
X171405555Y-93972602D01*
X171402644Y-93973644D01*
X171399645Y-93974395D01*
X171396588Y-93974848D01*
X171393500Y-93975000D01*
X171106500Y-93975000D01*
X171103412Y-93974848D01*
X171100355Y-93974395D01*
X171097356Y-93973644D01*
X171094445Y-93972602D01*
X171091651Y-93971281D01*
X171089000Y-93969691D01*
X171086517Y-93967850D01*
X171084226Y-93965774D01*
X171082150Y-93963483D01*
X171080309Y-93961000D01*
X171078719Y-93958349D01*
X171077398Y-93955555D01*
X171076356Y-93952644D01*
X171075605Y-93949645D01*
X171075152Y-93946588D01*
X171075000Y-93943500D01*
X171075000Y-93606500D01*
X171075152Y-93603412D01*
X171075605Y-93600355D01*
X171076356Y-93597356D01*
X171077398Y-93594445D01*
X171078719Y-93591651D01*
X171080309Y-93589000D01*
X171082150Y-93586517D01*
X171084226Y-93584226D01*
X171086517Y-93582150D01*
X171089000Y-93580309D01*
X171091651Y-93578719D01*
X171094445Y-93577398D01*
X171097356Y-93576356D01*
X171100355Y-93575605D01*
X171103412Y-93575152D01*
X171106500Y-93575000D01*
X171393500Y-93575000D01*
X171396588Y-93575152D01*
G37*
G04 #@! TD.AperFunction*
G04 #@! TA.AperFunction,SMDPad,CuDef*
G36*
X171433431Y-93075169D02*
G01*
X171436828Y-93075673D01*
X171440160Y-93076507D01*
X171443394Y-93077664D01*
X171446499Y-93079133D01*
X171449445Y-93080899D01*
X171452204Y-93082945D01*
X171454749Y-93085251D01*
X171457055Y-93087796D01*
X171459101Y-93090555D01*
X171460867Y-93093501D01*
X171462336Y-93096606D01*
X171463493Y-93099840D01*
X171464327Y-93103172D01*
X171464831Y-93106569D01*
X171465000Y-93110000D01*
X171465000Y-93390000D01*
X171464831Y-93393431D01*
X171464327Y-93396828D01*
X171463493Y-93400160D01*
X171462336Y-93403394D01*
X171460867Y-93406499D01*
X171459101Y-93409445D01*
X171457055Y-93412204D01*
X171454749Y-93414749D01*
X171452204Y-93417055D01*
X171449445Y-93419101D01*
X171446499Y-93420867D01*
X171443394Y-93422336D01*
X171440160Y-93423493D01*
X171436828Y-93424327D01*
X171433431Y-93424831D01*
X171430000Y-93425000D01*
X171100000Y-93425000D01*
X171096569Y-93424831D01*
X171093172Y-93424327D01*
X171089840Y-93423493D01*
X171086606Y-93422336D01*
X171083501Y-93420867D01*
X171080555Y-93419101D01*
X171077796Y-93417055D01*
X171075251Y-93414749D01*
X171072945Y-93412204D01*
X171070899Y-93409445D01*
X171069133Y-93406499D01*
X171067664Y-93403394D01*
X171066507Y-93400160D01*
X171065673Y-93396828D01*
X171065169Y-93393431D01*
X171065000Y-93390000D01*
X171065000Y-93110000D01*
X171065169Y-93106569D01*
X171065673Y-93103172D01*
X171066507Y-93099840D01*
X171067664Y-93096606D01*
X171069133Y-93093501D01*
X171070899Y-93090555D01*
X171072945Y-93087796D01*
X171075251Y-93085251D01*
X171077796Y-93082945D01*
X171080555Y-93080899D01*
X171083501Y-93079133D01*
X171086606Y-93077664D01*
X171089840Y-93076507D01*
X171093172Y-93075673D01*
X171096569Y-93075169D01*
X171100000Y-93075000D01*
X171430000Y-93075000D01*
X171433431Y-93075169D01*
G37*
G04 #@! TD.AperFunction*
G04 #@! TA.AperFunction,SMDPad,CuDef*
G36*
X171433431Y-92575169D02*
G01*
X171436828Y-92575673D01*
X171440160Y-92576507D01*
X171443394Y-92577664D01*
X171446499Y-92579133D01*
X171449445Y-92580899D01*
X171452204Y-92582945D01*
X171454749Y-92585251D01*
X171457055Y-92587796D01*
X171459101Y-92590555D01*
X171460867Y-92593501D01*
X171462336Y-92596606D01*
X171463493Y-92599840D01*
X171464327Y-92603172D01*
X171464831Y-92606569D01*
X171465000Y-92610000D01*
X171465000Y-92890000D01*
X171464831Y-92893431D01*
X171464327Y-92896828D01*
X171463493Y-92900160D01*
X171462336Y-92903394D01*
X171460867Y-92906499D01*
X171459101Y-92909445D01*
X171457055Y-92912204D01*
X171454749Y-92914749D01*
X171452204Y-92917055D01*
X171449445Y-92919101D01*
X171446499Y-92920867D01*
X171443394Y-92922336D01*
X171440160Y-92923493D01*
X171436828Y-92924327D01*
X171433431Y-92924831D01*
X171430000Y-92925000D01*
X171100000Y-92925000D01*
X171096569Y-92924831D01*
X171093172Y-92924327D01*
X171089840Y-92923493D01*
X171086606Y-92922336D01*
X171083501Y-92920867D01*
X171080555Y-92919101D01*
X171077796Y-92917055D01*
X171075251Y-92914749D01*
X171072945Y-92912204D01*
X171070899Y-92909445D01*
X171069133Y-92906499D01*
X171067664Y-92903394D01*
X171066507Y-92900160D01*
X171065673Y-92896828D01*
X171065169Y-92893431D01*
X171065000Y-92890000D01*
X171065000Y-92610000D01*
X171065169Y-92606569D01*
X171065673Y-92603172D01*
X171066507Y-92599840D01*
X171067664Y-92596606D01*
X171069133Y-92593501D01*
X171070899Y-92590555D01*
X171072945Y-92587796D01*
X171075251Y-92585251D01*
X171077796Y-92582945D01*
X171080555Y-92580899D01*
X171083501Y-92579133D01*
X171086606Y-92577664D01*
X171089840Y-92576507D01*
X171093172Y-92575673D01*
X171096569Y-92575169D01*
X171100000Y-92575000D01*
X171430000Y-92575000D01*
X171433431Y-92575169D01*
G37*
G04 #@! TD.AperFunction*
G04 #@! TA.AperFunction,SMDPad,CuDef*
G36*
X171396588Y-92025152D02*
G01*
X171399645Y-92025605D01*
X171402644Y-92026356D01*
X171405555Y-92027398D01*
X171408349Y-92028719D01*
X171411000Y-92030309D01*
X171413483Y-92032150D01*
X171415774Y-92034226D01*
X171417850Y-92036517D01*
X171419691Y-92039000D01*
X171421281Y-92041651D01*
X171422602Y-92044445D01*
X171423644Y-92047356D01*
X171424395Y-92050355D01*
X171424848Y-92053412D01*
X171425000Y-92056500D01*
X171425000Y-92393500D01*
X171424848Y-92396588D01*
X171424395Y-92399645D01*
X171423644Y-92402644D01*
X171422602Y-92405555D01*
X171421281Y-92408349D01*
X171419691Y-92411000D01*
X171417850Y-92413483D01*
X171415774Y-92415774D01*
X171413483Y-92417850D01*
X171411000Y-92419691D01*
X171408349Y-92421281D01*
X171405555Y-92422602D01*
X171402644Y-92423644D01*
X171399645Y-92424395D01*
X171396588Y-92424848D01*
X171393500Y-92425000D01*
X171106500Y-92425000D01*
X171103412Y-92424848D01*
X171100355Y-92424395D01*
X171097356Y-92423644D01*
X171094445Y-92422602D01*
X171091651Y-92421281D01*
X171089000Y-92419691D01*
X171086517Y-92417850D01*
X171084226Y-92415774D01*
X171082150Y-92413483D01*
X171080309Y-92411000D01*
X171078719Y-92408349D01*
X171077398Y-92405555D01*
X171076356Y-92402644D01*
X171075605Y-92399645D01*
X171075152Y-92396588D01*
X171075000Y-92393500D01*
X171075000Y-92056500D01*
X171075152Y-92053412D01*
X171075605Y-92050355D01*
X171076356Y-92047356D01*
X171077398Y-92044445D01*
X171078719Y-92041651D01*
X171080309Y-92039000D01*
X171082150Y-92036517D01*
X171084226Y-92034226D01*
X171086517Y-92032150D01*
X171089000Y-92030309D01*
X171091651Y-92028719D01*
X171094445Y-92027398D01*
X171097356Y-92026356D01*
X171100355Y-92025605D01*
X171103412Y-92025152D01*
X171106500Y-92025000D01*
X171393500Y-92025000D01*
X171396588Y-92025152D01*
G37*
G04 #@! TD.AperFunction*
G04 #@! TA.AperFunction,SMDPad,CuDef*
G36*
X170896588Y-92035152D02*
G01*
X170899645Y-92035605D01*
X170902644Y-92036356D01*
X170905555Y-92037398D01*
X170908349Y-92038719D01*
X170911000Y-92040309D01*
X170913483Y-92042150D01*
X170915774Y-92044226D01*
X170917850Y-92046517D01*
X170919691Y-92049000D01*
X170921281Y-92051651D01*
X170922602Y-92054445D01*
X170923644Y-92057356D01*
X170924395Y-92060355D01*
X170924848Y-92063412D01*
X170925000Y-92066500D01*
X170925000Y-92403500D01*
X170924848Y-92406588D01*
X170924395Y-92409645D01*
X170923644Y-92412644D01*
X170922602Y-92415555D01*
X170921281Y-92418349D01*
X170919691Y-92421000D01*
X170917850Y-92423483D01*
X170915774Y-92425774D01*
X170913483Y-92427850D01*
X170911000Y-92429691D01*
X170908349Y-92431281D01*
X170905555Y-92432602D01*
X170902644Y-92433644D01*
X170899645Y-92434395D01*
X170896588Y-92434848D01*
X170893500Y-92435000D01*
X170606500Y-92435000D01*
X170603412Y-92434848D01*
X170600355Y-92434395D01*
X170597356Y-92433644D01*
X170594445Y-92432602D01*
X170591651Y-92431281D01*
X170589000Y-92429691D01*
X170586517Y-92427850D01*
X170584226Y-92425774D01*
X170582150Y-92423483D01*
X170580309Y-92421000D01*
X170578719Y-92418349D01*
X170577398Y-92415555D01*
X170576356Y-92412644D01*
X170575605Y-92409645D01*
X170575152Y-92406588D01*
X170575000Y-92403500D01*
X170575000Y-92066500D01*
X170575152Y-92063412D01*
X170575605Y-92060355D01*
X170576356Y-92057356D01*
X170577398Y-92054445D01*
X170578719Y-92051651D01*
X170580309Y-92049000D01*
X170582150Y-92046517D01*
X170584226Y-92044226D01*
X170586517Y-92042150D01*
X170589000Y-92040309D01*
X170591651Y-92038719D01*
X170594445Y-92037398D01*
X170597356Y-92036356D01*
X170600355Y-92035605D01*
X170603412Y-92035152D01*
X170606500Y-92035000D01*
X170893500Y-92035000D01*
X170896588Y-92035152D01*
G37*
G04 #@! TD.AperFunction*
G04 #@! TA.AperFunction,SMDPad,CuDef*
G36*
X170396588Y-92035152D02*
G01*
X170399645Y-92035605D01*
X170402644Y-92036356D01*
X170405555Y-92037398D01*
X170408349Y-92038719D01*
X170411000Y-92040309D01*
X170413483Y-92042150D01*
X170415774Y-92044226D01*
X170417850Y-92046517D01*
X170419691Y-92049000D01*
X170421281Y-92051651D01*
X170422602Y-92054445D01*
X170423644Y-92057356D01*
X170424395Y-92060355D01*
X170424848Y-92063412D01*
X170425000Y-92066500D01*
X170425000Y-92403500D01*
X170424848Y-92406588D01*
X170424395Y-92409645D01*
X170423644Y-92412644D01*
X170422602Y-92415555D01*
X170421281Y-92418349D01*
X170419691Y-92421000D01*
X170417850Y-92423483D01*
X170415774Y-92425774D01*
X170413483Y-92427850D01*
X170411000Y-92429691D01*
X170408349Y-92431281D01*
X170405555Y-92432602D01*
X170402644Y-92433644D01*
X170399645Y-92434395D01*
X170396588Y-92434848D01*
X170393500Y-92435000D01*
X170106500Y-92435000D01*
X170103412Y-92434848D01*
X170100355Y-92434395D01*
X170097356Y-92433644D01*
X170094445Y-92432602D01*
X170091651Y-92431281D01*
X170089000Y-92429691D01*
X170086517Y-92427850D01*
X170084226Y-92425774D01*
X170082150Y-92423483D01*
X170080309Y-92421000D01*
X170078719Y-92418349D01*
X170077398Y-92415555D01*
X170076356Y-92412644D01*
X170075605Y-92409645D01*
X170075152Y-92406588D01*
X170075000Y-92403500D01*
X170075000Y-92066500D01*
X170075152Y-92063412D01*
X170075605Y-92060355D01*
X170076356Y-92057356D01*
X170077398Y-92054445D01*
X170078719Y-92051651D01*
X170080309Y-92049000D01*
X170082150Y-92046517D01*
X170084226Y-92044226D01*
X170086517Y-92042150D01*
X170089000Y-92040309D01*
X170091651Y-92038719D01*
X170094445Y-92037398D01*
X170097356Y-92036356D01*
X170100355Y-92035605D01*
X170103412Y-92035152D01*
X170106500Y-92035000D01*
X170393500Y-92035000D01*
X170396588Y-92035152D01*
G37*
G04 #@! TD.AperFunction*
G04 #@! TA.AperFunction,SMDPad,CuDef*
G36*
X169896588Y-92025152D02*
G01*
X169899645Y-92025605D01*
X169902644Y-92026356D01*
X169905555Y-92027398D01*
X169908349Y-92028719D01*
X169911000Y-92030309D01*
X169913483Y-92032150D01*
X169915774Y-92034226D01*
X169917850Y-92036517D01*
X169919691Y-92039000D01*
X169921281Y-92041651D01*
X169922602Y-92044445D01*
X169923644Y-92047356D01*
X169924395Y-92050355D01*
X169924848Y-92053412D01*
X169925000Y-92056500D01*
X169925000Y-92393500D01*
X169924848Y-92396588D01*
X169924395Y-92399645D01*
X169923644Y-92402644D01*
X169922602Y-92405555D01*
X169921281Y-92408349D01*
X169919691Y-92411000D01*
X169917850Y-92413483D01*
X169915774Y-92415774D01*
X169913483Y-92417850D01*
X169911000Y-92419691D01*
X169908349Y-92421281D01*
X169905555Y-92422602D01*
X169902644Y-92423644D01*
X169899645Y-92424395D01*
X169896588Y-92424848D01*
X169893500Y-92425000D01*
X169606500Y-92425000D01*
X169603412Y-92424848D01*
X169600355Y-92424395D01*
X169597356Y-92423644D01*
X169594445Y-92422602D01*
X169591651Y-92421281D01*
X169589000Y-92419691D01*
X169586517Y-92417850D01*
X169584226Y-92415774D01*
X169582150Y-92413483D01*
X169580309Y-92411000D01*
X169578719Y-92408349D01*
X169577398Y-92405555D01*
X169576356Y-92402644D01*
X169575605Y-92399645D01*
X169575152Y-92396588D01*
X169575000Y-92393500D01*
X169575000Y-92056500D01*
X169575152Y-92053412D01*
X169575605Y-92050355D01*
X169576356Y-92047356D01*
X169577398Y-92044445D01*
X169578719Y-92041651D01*
X169580309Y-92039000D01*
X169582150Y-92036517D01*
X169584226Y-92034226D01*
X169586517Y-92032150D01*
X169589000Y-92030309D01*
X169591651Y-92028719D01*
X169594445Y-92027398D01*
X169597356Y-92026356D01*
X169600355Y-92025605D01*
X169603412Y-92025152D01*
X169606500Y-92025000D01*
X169893500Y-92025000D01*
X169896588Y-92025152D01*
G37*
G04 #@! TD.AperFunction*
G04 #@! TA.AperFunction,SMDPad,CuDef*
G36*
X169903431Y-92575169D02*
G01*
X169906828Y-92575673D01*
X169910160Y-92576507D01*
X169913394Y-92577664D01*
X169916499Y-92579133D01*
X169919445Y-92580899D01*
X169922204Y-92582945D01*
X169924749Y-92585251D01*
X169927055Y-92587796D01*
X169929101Y-92590555D01*
X169930867Y-92593501D01*
X169932336Y-92596606D01*
X169933493Y-92599840D01*
X169934327Y-92603172D01*
X169934831Y-92606569D01*
X169935000Y-92610000D01*
X169935000Y-92890000D01*
X169934831Y-92893431D01*
X169934327Y-92896828D01*
X169933493Y-92900160D01*
X169932336Y-92903394D01*
X169930867Y-92906499D01*
X169929101Y-92909445D01*
X169927055Y-92912204D01*
X169924749Y-92914749D01*
X169922204Y-92917055D01*
X169919445Y-92919101D01*
X169916499Y-92920867D01*
X169913394Y-92922336D01*
X169910160Y-92923493D01*
X169906828Y-92924327D01*
X169903431Y-92924831D01*
X169900000Y-92925000D01*
X169570000Y-92925000D01*
X169566569Y-92924831D01*
X169563172Y-92924327D01*
X169559840Y-92923493D01*
X169556606Y-92922336D01*
X169553501Y-92920867D01*
X169550555Y-92919101D01*
X169547796Y-92917055D01*
X169545251Y-92914749D01*
X169542945Y-92912204D01*
X169540899Y-92909445D01*
X169539133Y-92906499D01*
X169537664Y-92903394D01*
X169536507Y-92900160D01*
X169535673Y-92896828D01*
X169535169Y-92893431D01*
X169535000Y-92890000D01*
X169535000Y-92610000D01*
X169535169Y-92606569D01*
X169535673Y-92603172D01*
X169536507Y-92599840D01*
X169537664Y-92596606D01*
X169539133Y-92593501D01*
X169540899Y-92590555D01*
X169542945Y-92587796D01*
X169545251Y-92585251D01*
X169547796Y-92582945D01*
X169550555Y-92580899D01*
X169553501Y-92579133D01*
X169556606Y-92577664D01*
X169559840Y-92576507D01*
X169563172Y-92575673D01*
X169566569Y-92575169D01*
X169570000Y-92575000D01*
X169900000Y-92575000D01*
X169903431Y-92575169D01*
G37*
G04 #@! TD.AperFunction*
G04 #@! TA.AperFunction,SMDPad,CuDef*
G36*
X169903431Y-93075169D02*
G01*
X169906828Y-93075673D01*
X169910160Y-93076507D01*
X169913394Y-93077664D01*
X169916499Y-93079133D01*
X169919445Y-93080899D01*
X169922204Y-93082945D01*
X169924749Y-93085251D01*
X169927055Y-93087796D01*
X169929101Y-93090555D01*
X169930867Y-93093501D01*
X169932336Y-93096606D01*
X169933493Y-93099840D01*
X169934327Y-93103172D01*
X169934831Y-93106569D01*
X169935000Y-93110000D01*
X169935000Y-93390000D01*
X169934831Y-93393431D01*
X169934327Y-93396828D01*
X169933493Y-93400160D01*
X169932336Y-93403394D01*
X169930867Y-93406499D01*
X169929101Y-93409445D01*
X169927055Y-93412204D01*
X169924749Y-93414749D01*
X169922204Y-93417055D01*
X169919445Y-93419101D01*
X169916499Y-93420867D01*
X169913394Y-93422336D01*
X169910160Y-93423493D01*
X169906828Y-93424327D01*
X169903431Y-93424831D01*
X169900000Y-93425000D01*
X169570000Y-93425000D01*
X169566569Y-93424831D01*
X169563172Y-93424327D01*
X169559840Y-93423493D01*
X169556606Y-93422336D01*
X169553501Y-93420867D01*
X169550555Y-93419101D01*
X169547796Y-93417055D01*
X169545251Y-93414749D01*
X169542945Y-93412204D01*
X169540899Y-93409445D01*
X169539133Y-93406499D01*
X169537664Y-93403394D01*
X169536507Y-93400160D01*
X169535673Y-93396828D01*
X169535169Y-93393431D01*
X169535000Y-93390000D01*
X169535000Y-93110000D01*
X169535169Y-93106569D01*
X169535673Y-93103172D01*
X169536507Y-93099840D01*
X169537664Y-93096606D01*
X169539133Y-93093501D01*
X169540899Y-93090555D01*
X169542945Y-93087796D01*
X169545251Y-93085251D01*
X169547796Y-93082945D01*
X169550555Y-93080899D01*
X169553501Y-93079133D01*
X169556606Y-93077664D01*
X169559840Y-93076507D01*
X169563172Y-93075673D01*
X169566569Y-93075169D01*
X169570000Y-93075000D01*
X169900000Y-93075000D01*
X169903431Y-93075169D01*
G37*
G04 #@! TD.AperFunction*
G04 #@! TA.AperFunction,SMDPad,CuDef*
G36*
X142786397Y-106057968D02*
G01*
X144342032Y-107613603D01*
X143599569Y-108356066D01*
X142043934Y-106800431D01*
X142786397Y-106057968D01*
G37*
G04 #@! TD.AperFunction*
G04 #@! TA.AperFunction,SMDPad,CuDef*
G36*
X140700431Y-108143934D02*
G01*
X142256066Y-109699569D01*
X141513603Y-110442032D01*
X139957968Y-108886397D01*
X140700431Y-108143934D01*
G37*
G04 #@! TD.AperFunction*
G04 #@! TA.AperFunction,SMDPad,CuDef*
G36*
X143210660Y-108603553D02*
G01*
X143917767Y-109310660D01*
X143210660Y-110017767D01*
X142503553Y-109310660D01*
X143210660Y-108603553D01*
G37*
G04 #@! TD.AperFunction*
G04 #@! TA.AperFunction,SMDPad,CuDef*
G36*
X141089340Y-106482233D02*
G01*
X141796447Y-107189340D01*
X141089340Y-107896447D01*
X140382233Y-107189340D01*
X141089340Y-106482233D01*
G37*
G04 #@! TD.AperFunction*
G04 #@! TA.AperFunction,SMDPad,CuDef*
G36*
X140696958Y-93380710D02*
G01*
X140711276Y-93382834D01*
X140725317Y-93386351D01*
X140738946Y-93391228D01*
X140752031Y-93397417D01*
X140764447Y-93404858D01*
X140776073Y-93413481D01*
X140786798Y-93423202D01*
X140796519Y-93433927D01*
X140805142Y-93445553D01*
X140812583Y-93457969D01*
X140818772Y-93471054D01*
X140823649Y-93484683D01*
X140827166Y-93498724D01*
X140829290Y-93513042D01*
X140830000Y-93527500D01*
X140830000Y-93872500D01*
X140829290Y-93886958D01*
X140827166Y-93901276D01*
X140823649Y-93915317D01*
X140818772Y-93928946D01*
X140812583Y-93942031D01*
X140805142Y-93954447D01*
X140796519Y-93966073D01*
X140786798Y-93976798D01*
X140776073Y-93986519D01*
X140764447Y-93995142D01*
X140752031Y-94002583D01*
X140738946Y-94008772D01*
X140725317Y-94013649D01*
X140711276Y-94017166D01*
X140696958Y-94019290D01*
X140682500Y-94020000D01*
X140387500Y-94020000D01*
X140373042Y-94019290D01*
X140358724Y-94017166D01*
X140344683Y-94013649D01*
X140331054Y-94008772D01*
X140317969Y-94002583D01*
X140305553Y-93995142D01*
X140293927Y-93986519D01*
X140283202Y-93976798D01*
X140273481Y-93966073D01*
X140264858Y-93954447D01*
X140257417Y-93942031D01*
X140251228Y-93928946D01*
X140246351Y-93915317D01*
X140242834Y-93901276D01*
X140240710Y-93886958D01*
X140240000Y-93872500D01*
X140240000Y-93527500D01*
X140240710Y-93513042D01*
X140242834Y-93498724D01*
X140246351Y-93484683D01*
X140251228Y-93471054D01*
X140257417Y-93457969D01*
X140264858Y-93445553D01*
X140273481Y-93433927D01*
X140283202Y-93423202D01*
X140293927Y-93413481D01*
X140305553Y-93404858D01*
X140317969Y-93397417D01*
X140331054Y-93391228D01*
X140344683Y-93386351D01*
X140358724Y-93382834D01*
X140373042Y-93380710D01*
X140387500Y-93380000D01*
X140682500Y-93380000D01*
X140696958Y-93380710D01*
G37*
G04 #@! TD.AperFunction*
G04 #@! TA.AperFunction,SMDPad,CuDef*
G36*
X139726958Y-93380710D02*
G01*
X139741276Y-93382834D01*
X139755317Y-93386351D01*
X139768946Y-93391228D01*
X139782031Y-93397417D01*
X139794447Y-93404858D01*
X139806073Y-93413481D01*
X139816798Y-93423202D01*
X139826519Y-93433927D01*
X139835142Y-93445553D01*
X139842583Y-93457969D01*
X139848772Y-93471054D01*
X139853649Y-93484683D01*
X139857166Y-93498724D01*
X139859290Y-93513042D01*
X139860000Y-93527500D01*
X139860000Y-93872500D01*
X139859290Y-93886958D01*
X139857166Y-93901276D01*
X139853649Y-93915317D01*
X139848772Y-93928946D01*
X139842583Y-93942031D01*
X139835142Y-93954447D01*
X139826519Y-93966073D01*
X139816798Y-93976798D01*
X139806073Y-93986519D01*
X139794447Y-93995142D01*
X139782031Y-94002583D01*
X139768946Y-94008772D01*
X139755317Y-94013649D01*
X139741276Y-94017166D01*
X139726958Y-94019290D01*
X139712500Y-94020000D01*
X139417500Y-94020000D01*
X139403042Y-94019290D01*
X139388724Y-94017166D01*
X139374683Y-94013649D01*
X139361054Y-94008772D01*
X139347969Y-94002583D01*
X139335553Y-93995142D01*
X139323927Y-93986519D01*
X139313202Y-93976798D01*
X139303481Y-93966073D01*
X139294858Y-93954447D01*
X139287417Y-93942031D01*
X139281228Y-93928946D01*
X139276351Y-93915317D01*
X139272834Y-93901276D01*
X139270710Y-93886958D01*
X139270000Y-93872500D01*
X139270000Y-93527500D01*
X139270710Y-93513042D01*
X139272834Y-93498724D01*
X139276351Y-93484683D01*
X139281228Y-93471054D01*
X139287417Y-93457969D01*
X139294858Y-93445553D01*
X139303481Y-93433927D01*
X139313202Y-93423202D01*
X139323927Y-93413481D01*
X139335553Y-93404858D01*
X139347969Y-93397417D01*
X139361054Y-93391228D01*
X139374683Y-93386351D01*
X139388724Y-93382834D01*
X139403042Y-93380710D01*
X139417500Y-93380000D01*
X139712500Y-93380000D01*
X139726958Y-93380710D01*
G37*
G04 #@! TD.AperFunction*
D19*
X139950000Y-92300000D03*
X139950000Y-90400000D03*
X142150000Y-90400000D03*
X142150000Y-91350000D03*
X142150000Y-92300000D03*
D20*
X140850000Y-103750000D03*
X139900000Y-101750000D03*
X141800000Y-101750000D03*
X170550000Y-104300000D03*
X171500000Y-106300000D03*
X169600000Y-106300000D03*
X167050000Y-106300000D03*
X166100000Y-104300000D03*
X168000000Y-104300000D03*
D21*
X129900000Y-105875000D03*
X127900000Y-106825000D03*
X127900000Y-104925000D03*
X134900000Y-106275000D03*
X132900000Y-107225000D03*
X132900000Y-105325000D03*
X134250000Y-109775000D03*
X136250000Y-108825000D03*
X136250000Y-110725000D03*
G04 #@! TA.AperFunction,SMDPad,CuDef*
D10*
G36*
X137661958Y-110615710D02*
G01*
X137676276Y-110617834D01*
X137690317Y-110621351D01*
X137703946Y-110626228D01*
X137717031Y-110632417D01*
X137729447Y-110639858D01*
X137741073Y-110648481D01*
X137751798Y-110658202D01*
X137761519Y-110668927D01*
X137770142Y-110680553D01*
X137777583Y-110692969D01*
X137783772Y-110706054D01*
X137788649Y-110719683D01*
X137792166Y-110733724D01*
X137794290Y-110748042D01*
X137795000Y-110762500D01*
X137795000Y-111057500D01*
X137794290Y-111071958D01*
X137792166Y-111086276D01*
X137788649Y-111100317D01*
X137783772Y-111113946D01*
X137777583Y-111127031D01*
X137770142Y-111139447D01*
X137761519Y-111151073D01*
X137751798Y-111161798D01*
X137741073Y-111171519D01*
X137729447Y-111180142D01*
X137717031Y-111187583D01*
X137703946Y-111193772D01*
X137690317Y-111198649D01*
X137676276Y-111202166D01*
X137661958Y-111204290D01*
X137647500Y-111205000D01*
X137302500Y-111205000D01*
X137288042Y-111204290D01*
X137273724Y-111202166D01*
X137259683Y-111198649D01*
X137246054Y-111193772D01*
X137232969Y-111187583D01*
X137220553Y-111180142D01*
X137208927Y-111171519D01*
X137198202Y-111161798D01*
X137188481Y-111151073D01*
X137179858Y-111139447D01*
X137172417Y-111127031D01*
X137166228Y-111113946D01*
X137161351Y-111100317D01*
X137157834Y-111086276D01*
X137155710Y-111071958D01*
X137155000Y-111057500D01*
X137155000Y-110762500D01*
X137155710Y-110748042D01*
X137157834Y-110733724D01*
X137161351Y-110719683D01*
X137166228Y-110706054D01*
X137172417Y-110692969D01*
X137179858Y-110680553D01*
X137188481Y-110668927D01*
X137198202Y-110658202D01*
X137208927Y-110648481D01*
X137220553Y-110639858D01*
X137232969Y-110632417D01*
X137246054Y-110626228D01*
X137259683Y-110621351D01*
X137273724Y-110617834D01*
X137288042Y-110615710D01*
X137302500Y-110615000D01*
X137647500Y-110615000D01*
X137661958Y-110615710D01*
G37*
G04 #@! TD.AperFunction*
G04 #@! TA.AperFunction,SMDPad,CuDef*
G36*
X137661958Y-109645710D02*
G01*
X137676276Y-109647834D01*
X137690317Y-109651351D01*
X137703946Y-109656228D01*
X137717031Y-109662417D01*
X137729447Y-109669858D01*
X137741073Y-109678481D01*
X137751798Y-109688202D01*
X137761519Y-109698927D01*
X137770142Y-109710553D01*
X137777583Y-109722969D01*
X137783772Y-109736054D01*
X137788649Y-109749683D01*
X137792166Y-109763724D01*
X137794290Y-109778042D01*
X137795000Y-109792500D01*
X137795000Y-110087500D01*
X137794290Y-110101958D01*
X137792166Y-110116276D01*
X137788649Y-110130317D01*
X137783772Y-110143946D01*
X137777583Y-110157031D01*
X137770142Y-110169447D01*
X137761519Y-110181073D01*
X137751798Y-110191798D01*
X137741073Y-110201519D01*
X137729447Y-110210142D01*
X137717031Y-110217583D01*
X137703946Y-110223772D01*
X137690317Y-110228649D01*
X137676276Y-110232166D01*
X137661958Y-110234290D01*
X137647500Y-110235000D01*
X137302500Y-110235000D01*
X137288042Y-110234290D01*
X137273724Y-110232166D01*
X137259683Y-110228649D01*
X137246054Y-110223772D01*
X137232969Y-110217583D01*
X137220553Y-110210142D01*
X137208927Y-110201519D01*
X137198202Y-110191798D01*
X137188481Y-110181073D01*
X137179858Y-110169447D01*
X137172417Y-110157031D01*
X137166228Y-110143946D01*
X137161351Y-110130317D01*
X137157834Y-110116276D01*
X137155710Y-110101958D01*
X137155000Y-110087500D01*
X137155000Y-109792500D01*
X137155710Y-109778042D01*
X137157834Y-109763724D01*
X137161351Y-109749683D01*
X137166228Y-109736054D01*
X137172417Y-109722969D01*
X137179858Y-109710553D01*
X137188481Y-109698927D01*
X137198202Y-109688202D01*
X137208927Y-109678481D01*
X137220553Y-109669858D01*
X137232969Y-109662417D01*
X137246054Y-109656228D01*
X137259683Y-109651351D01*
X137273724Y-109647834D01*
X137288042Y-109645710D01*
X137302500Y-109645000D01*
X137647500Y-109645000D01*
X137661958Y-109645710D01*
G37*
G04 #@! TD.AperFunction*
G04 #@! TA.AperFunction,SMDPad,CuDef*
G36*
X143626958Y-91030710D02*
G01*
X143641276Y-91032834D01*
X143655317Y-91036351D01*
X143668946Y-91041228D01*
X143682031Y-91047417D01*
X143694447Y-91054858D01*
X143706073Y-91063481D01*
X143716798Y-91073202D01*
X143726519Y-91083927D01*
X143735142Y-91095553D01*
X143742583Y-91107969D01*
X143748772Y-91121054D01*
X143753649Y-91134683D01*
X143757166Y-91148724D01*
X143759290Y-91163042D01*
X143760000Y-91177500D01*
X143760000Y-91522500D01*
X143759290Y-91536958D01*
X143757166Y-91551276D01*
X143753649Y-91565317D01*
X143748772Y-91578946D01*
X143742583Y-91592031D01*
X143735142Y-91604447D01*
X143726519Y-91616073D01*
X143716798Y-91626798D01*
X143706073Y-91636519D01*
X143694447Y-91645142D01*
X143682031Y-91652583D01*
X143668946Y-91658772D01*
X143655317Y-91663649D01*
X143641276Y-91667166D01*
X143626958Y-91669290D01*
X143612500Y-91670000D01*
X143317500Y-91670000D01*
X143303042Y-91669290D01*
X143288724Y-91667166D01*
X143274683Y-91663649D01*
X143261054Y-91658772D01*
X143247969Y-91652583D01*
X143235553Y-91645142D01*
X143223927Y-91636519D01*
X143213202Y-91626798D01*
X143203481Y-91616073D01*
X143194858Y-91604447D01*
X143187417Y-91592031D01*
X143181228Y-91578946D01*
X143176351Y-91565317D01*
X143172834Y-91551276D01*
X143170710Y-91536958D01*
X143170000Y-91522500D01*
X143170000Y-91177500D01*
X143170710Y-91163042D01*
X143172834Y-91148724D01*
X143176351Y-91134683D01*
X143181228Y-91121054D01*
X143187417Y-91107969D01*
X143194858Y-91095553D01*
X143203481Y-91083927D01*
X143213202Y-91073202D01*
X143223927Y-91063481D01*
X143235553Y-91054858D01*
X143247969Y-91047417D01*
X143261054Y-91041228D01*
X143274683Y-91036351D01*
X143288724Y-91032834D01*
X143303042Y-91030710D01*
X143317500Y-91030000D01*
X143612500Y-91030000D01*
X143626958Y-91030710D01*
G37*
G04 #@! TD.AperFunction*
G04 #@! TA.AperFunction,SMDPad,CuDef*
G36*
X144596958Y-91030710D02*
G01*
X144611276Y-91032834D01*
X144625317Y-91036351D01*
X144638946Y-91041228D01*
X144652031Y-91047417D01*
X144664447Y-91054858D01*
X144676073Y-91063481D01*
X144686798Y-91073202D01*
X144696519Y-91083927D01*
X144705142Y-91095553D01*
X144712583Y-91107969D01*
X144718772Y-91121054D01*
X144723649Y-91134683D01*
X144727166Y-91148724D01*
X144729290Y-91163042D01*
X144730000Y-91177500D01*
X144730000Y-91522500D01*
X144729290Y-91536958D01*
X144727166Y-91551276D01*
X144723649Y-91565317D01*
X144718772Y-91578946D01*
X144712583Y-91592031D01*
X144705142Y-91604447D01*
X144696519Y-91616073D01*
X144686798Y-91626798D01*
X144676073Y-91636519D01*
X144664447Y-91645142D01*
X144652031Y-91652583D01*
X144638946Y-91658772D01*
X144625317Y-91663649D01*
X144611276Y-91667166D01*
X144596958Y-91669290D01*
X144582500Y-91670000D01*
X144287500Y-91670000D01*
X144273042Y-91669290D01*
X144258724Y-91667166D01*
X144244683Y-91663649D01*
X144231054Y-91658772D01*
X144217969Y-91652583D01*
X144205553Y-91645142D01*
X144193927Y-91636519D01*
X144183202Y-91626798D01*
X144173481Y-91616073D01*
X144164858Y-91604447D01*
X144157417Y-91592031D01*
X144151228Y-91578946D01*
X144146351Y-91565317D01*
X144142834Y-91551276D01*
X144140710Y-91536958D01*
X144140000Y-91522500D01*
X144140000Y-91177500D01*
X144140710Y-91163042D01*
X144142834Y-91148724D01*
X144146351Y-91134683D01*
X144151228Y-91121054D01*
X144157417Y-91107969D01*
X144164858Y-91095553D01*
X144173481Y-91083927D01*
X144183202Y-91073202D01*
X144193927Y-91063481D01*
X144205553Y-91054858D01*
X144217969Y-91047417D01*
X144231054Y-91041228D01*
X144244683Y-91036351D01*
X144258724Y-91032834D01*
X144273042Y-91030710D01*
X144287500Y-91030000D01*
X144582500Y-91030000D01*
X144596958Y-91030710D01*
G37*
G04 #@! TD.AperFunction*
G04 #@! TA.AperFunction,SMDPad,CuDef*
G36*
X143626958Y-91980710D02*
G01*
X143641276Y-91982834D01*
X143655317Y-91986351D01*
X143668946Y-91991228D01*
X143682031Y-91997417D01*
X143694447Y-92004858D01*
X143706073Y-92013481D01*
X143716798Y-92023202D01*
X143726519Y-92033927D01*
X143735142Y-92045553D01*
X143742583Y-92057969D01*
X143748772Y-92071054D01*
X143753649Y-92084683D01*
X143757166Y-92098724D01*
X143759290Y-92113042D01*
X143760000Y-92127500D01*
X143760000Y-92472500D01*
X143759290Y-92486958D01*
X143757166Y-92501276D01*
X143753649Y-92515317D01*
X143748772Y-92528946D01*
X143742583Y-92542031D01*
X143735142Y-92554447D01*
X143726519Y-92566073D01*
X143716798Y-92576798D01*
X143706073Y-92586519D01*
X143694447Y-92595142D01*
X143682031Y-92602583D01*
X143668946Y-92608772D01*
X143655317Y-92613649D01*
X143641276Y-92617166D01*
X143626958Y-92619290D01*
X143612500Y-92620000D01*
X143317500Y-92620000D01*
X143303042Y-92619290D01*
X143288724Y-92617166D01*
X143274683Y-92613649D01*
X143261054Y-92608772D01*
X143247969Y-92602583D01*
X143235553Y-92595142D01*
X143223927Y-92586519D01*
X143213202Y-92576798D01*
X143203481Y-92566073D01*
X143194858Y-92554447D01*
X143187417Y-92542031D01*
X143181228Y-92528946D01*
X143176351Y-92515317D01*
X143172834Y-92501276D01*
X143170710Y-92486958D01*
X143170000Y-92472500D01*
X143170000Y-92127500D01*
X143170710Y-92113042D01*
X143172834Y-92098724D01*
X143176351Y-92084683D01*
X143181228Y-92071054D01*
X143187417Y-92057969D01*
X143194858Y-92045553D01*
X143203481Y-92033927D01*
X143213202Y-92023202D01*
X143223927Y-92013481D01*
X143235553Y-92004858D01*
X143247969Y-91997417D01*
X143261054Y-91991228D01*
X143274683Y-91986351D01*
X143288724Y-91982834D01*
X143303042Y-91980710D01*
X143317500Y-91980000D01*
X143612500Y-91980000D01*
X143626958Y-91980710D01*
G37*
G04 #@! TD.AperFunction*
G04 #@! TA.AperFunction,SMDPad,CuDef*
G36*
X144596958Y-91980710D02*
G01*
X144611276Y-91982834D01*
X144625317Y-91986351D01*
X144638946Y-91991228D01*
X144652031Y-91997417D01*
X144664447Y-92004858D01*
X144676073Y-92013481D01*
X144686798Y-92023202D01*
X144696519Y-92033927D01*
X144705142Y-92045553D01*
X144712583Y-92057969D01*
X144718772Y-92071054D01*
X144723649Y-92084683D01*
X144727166Y-92098724D01*
X144729290Y-92113042D01*
X144730000Y-92127500D01*
X144730000Y-92472500D01*
X144729290Y-92486958D01*
X144727166Y-92501276D01*
X144723649Y-92515317D01*
X144718772Y-92528946D01*
X144712583Y-92542031D01*
X144705142Y-92554447D01*
X144696519Y-92566073D01*
X144686798Y-92576798D01*
X144676073Y-92586519D01*
X144664447Y-92595142D01*
X144652031Y-92602583D01*
X144638946Y-92608772D01*
X144625317Y-92613649D01*
X144611276Y-92617166D01*
X144596958Y-92619290D01*
X144582500Y-92620000D01*
X144287500Y-92620000D01*
X144273042Y-92619290D01*
X144258724Y-92617166D01*
X144244683Y-92613649D01*
X144231054Y-92608772D01*
X144217969Y-92602583D01*
X144205553Y-92595142D01*
X144193927Y-92586519D01*
X144183202Y-92576798D01*
X144173481Y-92566073D01*
X144164858Y-92554447D01*
X144157417Y-92542031D01*
X144151228Y-92528946D01*
X144146351Y-92515317D01*
X144142834Y-92501276D01*
X144140710Y-92486958D01*
X144140000Y-92472500D01*
X144140000Y-92127500D01*
X144140710Y-92113042D01*
X144142834Y-92098724D01*
X144146351Y-92084683D01*
X144151228Y-92071054D01*
X144157417Y-92057969D01*
X144164858Y-92045553D01*
X144173481Y-92033927D01*
X144183202Y-92023202D01*
X144193927Y-92013481D01*
X144205553Y-92004858D01*
X144217969Y-91997417D01*
X144231054Y-91991228D01*
X144244683Y-91986351D01*
X144258724Y-91982834D01*
X144273042Y-91980710D01*
X144287500Y-91980000D01*
X144582500Y-91980000D01*
X144596958Y-91980710D01*
G37*
G04 #@! TD.AperFunction*
G04 #@! TA.AperFunction,SMDPad,CuDef*
G36*
X144596958Y-90080710D02*
G01*
X144611276Y-90082834D01*
X144625317Y-90086351D01*
X144638946Y-90091228D01*
X144652031Y-90097417D01*
X144664447Y-90104858D01*
X144676073Y-90113481D01*
X144686798Y-90123202D01*
X144696519Y-90133927D01*
X144705142Y-90145553D01*
X144712583Y-90157969D01*
X144718772Y-90171054D01*
X144723649Y-90184683D01*
X144727166Y-90198724D01*
X144729290Y-90213042D01*
X144730000Y-90227500D01*
X144730000Y-90572500D01*
X144729290Y-90586958D01*
X144727166Y-90601276D01*
X144723649Y-90615317D01*
X144718772Y-90628946D01*
X144712583Y-90642031D01*
X144705142Y-90654447D01*
X144696519Y-90666073D01*
X144686798Y-90676798D01*
X144676073Y-90686519D01*
X144664447Y-90695142D01*
X144652031Y-90702583D01*
X144638946Y-90708772D01*
X144625317Y-90713649D01*
X144611276Y-90717166D01*
X144596958Y-90719290D01*
X144582500Y-90720000D01*
X144287500Y-90720000D01*
X144273042Y-90719290D01*
X144258724Y-90717166D01*
X144244683Y-90713649D01*
X144231054Y-90708772D01*
X144217969Y-90702583D01*
X144205553Y-90695142D01*
X144193927Y-90686519D01*
X144183202Y-90676798D01*
X144173481Y-90666073D01*
X144164858Y-90654447D01*
X144157417Y-90642031D01*
X144151228Y-90628946D01*
X144146351Y-90615317D01*
X144142834Y-90601276D01*
X144140710Y-90586958D01*
X144140000Y-90572500D01*
X144140000Y-90227500D01*
X144140710Y-90213042D01*
X144142834Y-90198724D01*
X144146351Y-90184683D01*
X144151228Y-90171054D01*
X144157417Y-90157969D01*
X144164858Y-90145553D01*
X144173481Y-90133927D01*
X144183202Y-90123202D01*
X144193927Y-90113481D01*
X144205553Y-90104858D01*
X144217969Y-90097417D01*
X144231054Y-90091228D01*
X144244683Y-90086351D01*
X144258724Y-90082834D01*
X144273042Y-90080710D01*
X144287500Y-90080000D01*
X144582500Y-90080000D01*
X144596958Y-90080710D01*
G37*
G04 #@! TD.AperFunction*
G04 #@! TA.AperFunction,SMDPad,CuDef*
G36*
X143626958Y-90080710D02*
G01*
X143641276Y-90082834D01*
X143655317Y-90086351D01*
X143668946Y-90091228D01*
X143682031Y-90097417D01*
X143694447Y-90104858D01*
X143706073Y-90113481D01*
X143716798Y-90123202D01*
X143726519Y-90133927D01*
X143735142Y-90145553D01*
X143742583Y-90157969D01*
X143748772Y-90171054D01*
X143753649Y-90184683D01*
X143757166Y-90198724D01*
X143759290Y-90213042D01*
X143760000Y-90227500D01*
X143760000Y-90572500D01*
X143759290Y-90586958D01*
X143757166Y-90601276D01*
X143753649Y-90615317D01*
X143748772Y-90628946D01*
X143742583Y-90642031D01*
X143735142Y-90654447D01*
X143726519Y-90666073D01*
X143716798Y-90676798D01*
X143706073Y-90686519D01*
X143694447Y-90695142D01*
X143682031Y-90702583D01*
X143668946Y-90708772D01*
X143655317Y-90713649D01*
X143641276Y-90717166D01*
X143626958Y-90719290D01*
X143612500Y-90720000D01*
X143317500Y-90720000D01*
X143303042Y-90719290D01*
X143288724Y-90717166D01*
X143274683Y-90713649D01*
X143261054Y-90708772D01*
X143247969Y-90702583D01*
X143235553Y-90695142D01*
X143223927Y-90686519D01*
X143213202Y-90676798D01*
X143203481Y-90666073D01*
X143194858Y-90654447D01*
X143187417Y-90642031D01*
X143181228Y-90628946D01*
X143176351Y-90615317D01*
X143172834Y-90601276D01*
X143170710Y-90586958D01*
X143170000Y-90572500D01*
X143170000Y-90227500D01*
X143170710Y-90213042D01*
X143172834Y-90198724D01*
X143176351Y-90184683D01*
X143181228Y-90171054D01*
X143187417Y-90157969D01*
X143194858Y-90145553D01*
X143203481Y-90133927D01*
X143213202Y-90123202D01*
X143223927Y-90113481D01*
X143235553Y-90104858D01*
X143247969Y-90097417D01*
X143261054Y-90091228D01*
X143274683Y-90086351D01*
X143288724Y-90082834D01*
X143303042Y-90080710D01*
X143317500Y-90080000D01*
X143612500Y-90080000D01*
X143626958Y-90080710D01*
G37*
G04 #@! TD.AperFunction*
G04 #@! TA.AperFunction,SMDPad,CuDef*
G36*
X144686958Y-97370710D02*
G01*
X144701276Y-97372834D01*
X144715317Y-97376351D01*
X144728946Y-97381228D01*
X144742031Y-97387417D01*
X144754447Y-97394858D01*
X144766073Y-97403481D01*
X144776798Y-97413202D01*
X144786519Y-97423927D01*
X144795142Y-97435553D01*
X144802583Y-97447969D01*
X144808772Y-97461054D01*
X144813649Y-97474683D01*
X144817166Y-97488724D01*
X144819290Y-97503042D01*
X144820000Y-97517500D01*
X144820000Y-97812500D01*
X144819290Y-97826958D01*
X144817166Y-97841276D01*
X144813649Y-97855317D01*
X144808772Y-97868946D01*
X144802583Y-97882031D01*
X144795142Y-97894447D01*
X144786519Y-97906073D01*
X144776798Y-97916798D01*
X144766073Y-97926519D01*
X144754447Y-97935142D01*
X144742031Y-97942583D01*
X144728946Y-97948772D01*
X144715317Y-97953649D01*
X144701276Y-97957166D01*
X144686958Y-97959290D01*
X144672500Y-97960000D01*
X144327500Y-97960000D01*
X144313042Y-97959290D01*
X144298724Y-97957166D01*
X144284683Y-97953649D01*
X144271054Y-97948772D01*
X144257969Y-97942583D01*
X144245553Y-97935142D01*
X144233927Y-97926519D01*
X144223202Y-97916798D01*
X144213481Y-97906073D01*
X144204858Y-97894447D01*
X144197417Y-97882031D01*
X144191228Y-97868946D01*
X144186351Y-97855317D01*
X144182834Y-97841276D01*
X144180710Y-97826958D01*
X144180000Y-97812500D01*
X144180000Y-97517500D01*
X144180710Y-97503042D01*
X144182834Y-97488724D01*
X144186351Y-97474683D01*
X144191228Y-97461054D01*
X144197417Y-97447969D01*
X144204858Y-97435553D01*
X144213481Y-97423927D01*
X144223202Y-97413202D01*
X144233927Y-97403481D01*
X144245553Y-97394858D01*
X144257969Y-97387417D01*
X144271054Y-97381228D01*
X144284683Y-97376351D01*
X144298724Y-97372834D01*
X144313042Y-97370710D01*
X144327500Y-97370000D01*
X144672500Y-97370000D01*
X144686958Y-97370710D01*
G37*
G04 #@! TD.AperFunction*
G04 #@! TA.AperFunction,SMDPad,CuDef*
G36*
X144686958Y-98340710D02*
G01*
X144701276Y-98342834D01*
X144715317Y-98346351D01*
X144728946Y-98351228D01*
X144742031Y-98357417D01*
X144754447Y-98364858D01*
X144766073Y-98373481D01*
X144776798Y-98383202D01*
X144786519Y-98393927D01*
X144795142Y-98405553D01*
X144802583Y-98417969D01*
X144808772Y-98431054D01*
X144813649Y-98444683D01*
X144817166Y-98458724D01*
X144819290Y-98473042D01*
X144820000Y-98487500D01*
X144820000Y-98782500D01*
X144819290Y-98796958D01*
X144817166Y-98811276D01*
X144813649Y-98825317D01*
X144808772Y-98838946D01*
X144802583Y-98852031D01*
X144795142Y-98864447D01*
X144786519Y-98876073D01*
X144776798Y-98886798D01*
X144766073Y-98896519D01*
X144754447Y-98905142D01*
X144742031Y-98912583D01*
X144728946Y-98918772D01*
X144715317Y-98923649D01*
X144701276Y-98927166D01*
X144686958Y-98929290D01*
X144672500Y-98930000D01*
X144327500Y-98930000D01*
X144313042Y-98929290D01*
X144298724Y-98927166D01*
X144284683Y-98923649D01*
X144271054Y-98918772D01*
X144257969Y-98912583D01*
X144245553Y-98905142D01*
X144233927Y-98896519D01*
X144223202Y-98886798D01*
X144213481Y-98876073D01*
X144204858Y-98864447D01*
X144197417Y-98852031D01*
X144191228Y-98838946D01*
X144186351Y-98825317D01*
X144182834Y-98811276D01*
X144180710Y-98796958D01*
X144180000Y-98782500D01*
X144180000Y-98487500D01*
X144180710Y-98473042D01*
X144182834Y-98458724D01*
X144186351Y-98444683D01*
X144191228Y-98431054D01*
X144197417Y-98417969D01*
X144204858Y-98405553D01*
X144213481Y-98393927D01*
X144223202Y-98383202D01*
X144233927Y-98373481D01*
X144245553Y-98364858D01*
X144257969Y-98357417D01*
X144271054Y-98351228D01*
X144284683Y-98346351D01*
X144298724Y-98342834D01*
X144313042Y-98340710D01*
X144327500Y-98340000D01*
X144672500Y-98340000D01*
X144686958Y-98340710D01*
G37*
G04 #@! TD.AperFunction*
G04 #@! TA.AperFunction,SMDPad,CuDef*
G36*
X144686958Y-95470710D02*
G01*
X144701276Y-95472834D01*
X144715317Y-95476351D01*
X144728946Y-95481228D01*
X144742031Y-95487417D01*
X144754447Y-95494858D01*
X144766073Y-95503481D01*
X144776798Y-95513202D01*
X144786519Y-95523927D01*
X144795142Y-95535553D01*
X144802583Y-95547969D01*
X144808772Y-95561054D01*
X144813649Y-95574683D01*
X144817166Y-95588724D01*
X144819290Y-95603042D01*
X144820000Y-95617500D01*
X144820000Y-95912500D01*
X144819290Y-95926958D01*
X144817166Y-95941276D01*
X144813649Y-95955317D01*
X144808772Y-95968946D01*
X144802583Y-95982031D01*
X144795142Y-95994447D01*
X144786519Y-96006073D01*
X144776798Y-96016798D01*
X144766073Y-96026519D01*
X144754447Y-96035142D01*
X144742031Y-96042583D01*
X144728946Y-96048772D01*
X144715317Y-96053649D01*
X144701276Y-96057166D01*
X144686958Y-96059290D01*
X144672500Y-96060000D01*
X144327500Y-96060000D01*
X144313042Y-96059290D01*
X144298724Y-96057166D01*
X144284683Y-96053649D01*
X144271054Y-96048772D01*
X144257969Y-96042583D01*
X144245553Y-96035142D01*
X144233927Y-96026519D01*
X144223202Y-96016798D01*
X144213481Y-96006073D01*
X144204858Y-95994447D01*
X144197417Y-95982031D01*
X144191228Y-95968946D01*
X144186351Y-95955317D01*
X144182834Y-95941276D01*
X144180710Y-95926958D01*
X144180000Y-95912500D01*
X144180000Y-95617500D01*
X144180710Y-95603042D01*
X144182834Y-95588724D01*
X144186351Y-95574683D01*
X144191228Y-95561054D01*
X144197417Y-95547969D01*
X144204858Y-95535553D01*
X144213481Y-95523927D01*
X144223202Y-95513202D01*
X144233927Y-95503481D01*
X144245553Y-95494858D01*
X144257969Y-95487417D01*
X144271054Y-95481228D01*
X144284683Y-95476351D01*
X144298724Y-95472834D01*
X144313042Y-95470710D01*
X144327500Y-95470000D01*
X144672500Y-95470000D01*
X144686958Y-95470710D01*
G37*
G04 #@! TD.AperFunction*
G04 #@! TA.AperFunction,SMDPad,CuDef*
G36*
X144686958Y-96440710D02*
G01*
X144701276Y-96442834D01*
X144715317Y-96446351D01*
X144728946Y-96451228D01*
X144742031Y-96457417D01*
X144754447Y-96464858D01*
X144766073Y-96473481D01*
X144776798Y-96483202D01*
X144786519Y-96493927D01*
X144795142Y-96505553D01*
X144802583Y-96517969D01*
X144808772Y-96531054D01*
X144813649Y-96544683D01*
X144817166Y-96558724D01*
X144819290Y-96573042D01*
X144820000Y-96587500D01*
X144820000Y-96882500D01*
X144819290Y-96896958D01*
X144817166Y-96911276D01*
X144813649Y-96925317D01*
X144808772Y-96938946D01*
X144802583Y-96952031D01*
X144795142Y-96964447D01*
X144786519Y-96976073D01*
X144776798Y-96986798D01*
X144766073Y-96996519D01*
X144754447Y-97005142D01*
X144742031Y-97012583D01*
X144728946Y-97018772D01*
X144715317Y-97023649D01*
X144701276Y-97027166D01*
X144686958Y-97029290D01*
X144672500Y-97030000D01*
X144327500Y-97030000D01*
X144313042Y-97029290D01*
X144298724Y-97027166D01*
X144284683Y-97023649D01*
X144271054Y-97018772D01*
X144257969Y-97012583D01*
X144245553Y-97005142D01*
X144233927Y-96996519D01*
X144223202Y-96986798D01*
X144213481Y-96976073D01*
X144204858Y-96964447D01*
X144197417Y-96952031D01*
X144191228Y-96938946D01*
X144186351Y-96925317D01*
X144182834Y-96911276D01*
X144180710Y-96896958D01*
X144180000Y-96882500D01*
X144180000Y-96587500D01*
X144180710Y-96573042D01*
X144182834Y-96558724D01*
X144186351Y-96544683D01*
X144191228Y-96531054D01*
X144197417Y-96517969D01*
X144204858Y-96505553D01*
X144213481Y-96493927D01*
X144223202Y-96483202D01*
X144233927Y-96473481D01*
X144245553Y-96464858D01*
X144257969Y-96457417D01*
X144271054Y-96451228D01*
X144284683Y-96446351D01*
X144298724Y-96442834D01*
X144313042Y-96440710D01*
X144327500Y-96440000D01*
X144672500Y-96440000D01*
X144686958Y-96440710D01*
G37*
G04 #@! TD.AperFunction*
G04 #@! TA.AperFunction,SMDPad,CuDef*
G36*
X144399504Y-100176204D02*
G01*
X144423773Y-100179804D01*
X144447571Y-100185765D01*
X144470671Y-100194030D01*
X144492849Y-100204520D01*
X144513893Y-100217133D01*
X144533598Y-100231747D01*
X144551777Y-100248223D01*
X144568253Y-100266402D01*
X144582867Y-100286107D01*
X144595480Y-100307151D01*
X144605970Y-100329329D01*
X144614235Y-100352429D01*
X144620196Y-100376227D01*
X144623796Y-100400496D01*
X144625000Y-100425000D01*
X144625000Y-101175000D01*
X144623796Y-101199504D01*
X144620196Y-101223773D01*
X144614235Y-101247571D01*
X144605970Y-101270671D01*
X144595480Y-101292849D01*
X144582867Y-101313893D01*
X144568253Y-101333598D01*
X144551777Y-101351777D01*
X144533598Y-101368253D01*
X144513893Y-101382867D01*
X144492849Y-101395480D01*
X144470671Y-101405970D01*
X144447571Y-101414235D01*
X144423773Y-101420196D01*
X144399504Y-101423796D01*
X144375000Y-101425000D01*
X143125000Y-101425000D01*
X143100496Y-101423796D01*
X143076227Y-101420196D01*
X143052429Y-101414235D01*
X143029329Y-101405970D01*
X143007151Y-101395480D01*
X142986107Y-101382867D01*
X142966402Y-101368253D01*
X142948223Y-101351777D01*
X142931747Y-101333598D01*
X142917133Y-101313893D01*
X142904520Y-101292849D01*
X142894030Y-101270671D01*
X142885765Y-101247571D01*
X142879804Y-101223773D01*
X142876204Y-101199504D01*
X142875000Y-101175000D01*
X142875000Y-100425000D01*
X142876204Y-100400496D01*
X142879804Y-100376227D01*
X142885765Y-100352429D01*
X142894030Y-100329329D01*
X142904520Y-100307151D01*
X142917133Y-100286107D01*
X142931747Y-100266402D01*
X142948223Y-100248223D01*
X142966402Y-100231747D01*
X142986107Y-100217133D01*
X143007151Y-100204520D01*
X143029329Y-100194030D01*
X143052429Y-100185765D01*
X143076227Y-100179804D01*
X143100496Y-100176204D01*
X143125000Y-100175000D01*
X144375000Y-100175000D01*
X144399504Y-100176204D01*
G37*
G04 #@! TD.AperFunction*
G04 #@! TA.AperFunction,SMDPad,CuDef*
G36*
X144399504Y-102976204D02*
G01*
X144423773Y-102979804D01*
X144447571Y-102985765D01*
X144470671Y-102994030D01*
X144492849Y-103004520D01*
X144513893Y-103017133D01*
X144533598Y-103031747D01*
X144551777Y-103048223D01*
X144568253Y-103066402D01*
X144582867Y-103086107D01*
X144595480Y-103107151D01*
X144605970Y-103129329D01*
X144614235Y-103152429D01*
X144620196Y-103176227D01*
X144623796Y-103200496D01*
X144625000Y-103225000D01*
X144625000Y-103975000D01*
X144623796Y-103999504D01*
X144620196Y-104023773D01*
X144614235Y-104047571D01*
X144605970Y-104070671D01*
X144595480Y-104092849D01*
X144582867Y-104113893D01*
X144568253Y-104133598D01*
X144551777Y-104151777D01*
X144533598Y-104168253D01*
X144513893Y-104182867D01*
X144492849Y-104195480D01*
X144470671Y-104205970D01*
X144447571Y-104214235D01*
X144423773Y-104220196D01*
X144399504Y-104223796D01*
X144375000Y-104225000D01*
X143125000Y-104225000D01*
X143100496Y-104223796D01*
X143076227Y-104220196D01*
X143052429Y-104214235D01*
X143029329Y-104205970D01*
X143007151Y-104195480D01*
X142986107Y-104182867D01*
X142966402Y-104168253D01*
X142948223Y-104151777D01*
X142931747Y-104133598D01*
X142917133Y-104113893D01*
X142904520Y-104092849D01*
X142894030Y-104070671D01*
X142885765Y-104047571D01*
X142879804Y-104023773D01*
X142876204Y-103999504D01*
X142875000Y-103975000D01*
X142875000Y-103225000D01*
X142876204Y-103200496D01*
X142879804Y-103176227D01*
X142885765Y-103152429D01*
X142894030Y-103129329D01*
X142904520Y-103107151D01*
X142917133Y-103086107D01*
X142931747Y-103066402D01*
X142948223Y-103048223D01*
X142966402Y-103031747D01*
X142986107Y-103017133D01*
X143007151Y-103004520D01*
X143029329Y-102994030D01*
X143052429Y-102985765D01*
X143076227Y-102979804D01*
X143100496Y-102976204D01*
X143125000Y-102975000D01*
X144375000Y-102975000D01*
X144399504Y-102976204D01*
G37*
G04 #@! TD.AperFunction*
D22*
X142400000Y-95750000D03*
X142400000Y-96750000D03*
X142400000Y-97750000D03*
X141600000Y-95750000D03*
X141600000Y-96750000D03*
X141600000Y-97750000D03*
X140800000Y-95750000D03*
X140800000Y-96750000D03*
X140800000Y-97750000D03*
G04 #@! TA.AperFunction,SMDPad,CuDef*
D10*
G36*
X145736958Y-98355710D02*
G01*
X145751276Y-98357834D01*
X145765317Y-98361351D01*
X145778946Y-98366228D01*
X145792031Y-98372417D01*
X145804447Y-98379858D01*
X145816073Y-98388481D01*
X145826798Y-98398202D01*
X145836519Y-98408927D01*
X145845142Y-98420553D01*
X145852583Y-98432969D01*
X145858772Y-98446054D01*
X145863649Y-98459683D01*
X145867166Y-98473724D01*
X145869290Y-98488042D01*
X145870000Y-98502500D01*
X145870000Y-98797500D01*
X145869290Y-98811958D01*
X145867166Y-98826276D01*
X145863649Y-98840317D01*
X145858772Y-98853946D01*
X145852583Y-98867031D01*
X145845142Y-98879447D01*
X145836519Y-98891073D01*
X145826798Y-98901798D01*
X145816073Y-98911519D01*
X145804447Y-98920142D01*
X145792031Y-98927583D01*
X145778946Y-98933772D01*
X145765317Y-98938649D01*
X145751276Y-98942166D01*
X145736958Y-98944290D01*
X145722500Y-98945000D01*
X145377500Y-98945000D01*
X145363042Y-98944290D01*
X145348724Y-98942166D01*
X145334683Y-98938649D01*
X145321054Y-98933772D01*
X145307969Y-98927583D01*
X145295553Y-98920142D01*
X145283927Y-98911519D01*
X145273202Y-98901798D01*
X145263481Y-98891073D01*
X145254858Y-98879447D01*
X145247417Y-98867031D01*
X145241228Y-98853946D01*
X145236351Y-98840317D01*
X145232834Y-98826276D01*
X145230710Y-98811958D01*
X145230000Y-98797500D01*
X145230000Y-98502500D01*
X145230710Y-98488042D01*
X145232834Y-98473724D01*
X145236351Y-98459683D01*
X145241228Y-98446054D01*
X145247417Y-98432969D01*
X145254858Y-98420553D01*
X145263481Y-98408927D01*
X145273202Y-98398202D01*
X145283927Y-98388481D01*
X145295553Y-98379858D01*
X145307969Y-98372417D01*
X145321054Y-98366228D01*
X145334683Y-98361351D01*
X145348724Y-98357834D01*
X145363042Y-98355710D01*
X145377500Y-98355000D01*
X145722500Y-98355000D01*
X145736958Y-98355710D01*
G37*
G04 #@! TD.AperFunction*
G04 #@! TA.AperFunction,SMDPad,CuDef*
G36*
X145736958Y-97385710D02*
G01*
X145751276Y-97387834D01*
X145765317Y-97391351D01*
X145778946Y-97396228D01*
X145792031Y-97402417D01*
X145804447Y-97409858D01*
X145816073Y-97418481D01*
X145826798Y-97428202D01*
X145836519Y-97438927D01*
X145845142Y-97450553D01*
X145852583Y-97462969D01*
X145858772Y-97476054D01*
X145863649Y-97489683D01*
X145867166Y-97503724D01*
X145869290Y-97518042D01*
X145870000Y-97532500D01*
X145870000Y-97827500D01*
X145869290Y-97841958D01*
X145867166Y-97856276D01*
X145863649Y-97870317D01*
X145858772Y-97883946D01*
X145852583Y-97897031D01*
X145845142Y-97909447D01*
X145836519Y-97921073D01*
X145826798Y-97931798D01*
X145816073Y-97941519D01*
X145804447Y-97950142D01*
X145792031Y-97957583D01*
X145778946Y-97963772D01*
X145765317Y-97968649D01*
X145751276Y-97972166D01*
X145736958Y-97974290D01*
X145722500Y-97975000D01*
X145377500Y-97975000D01*
X145363042Y-97974290D01*
X145348724Y-97972166D01*
X145334683Y-97968649D01*
X145321054Y-97963772D01*
X145307969Y-97957583D01*
X145295553Y-97950142D01*
X145283927Y-97941519D01*
X145273202Y-97931798D01*
X145263481Y-97921073D01*
X145254858Y-97909447D01*
X145247417Y-97897031D01*
X145241228Y-97883946D01*
X145236351Y-97870317D01*
X145232834Y-97856276D01*
X145230710Y-97841958D01*
X145230000Y-97827500D01*
X145230000Y-97532500D01*
X145230710Y-97518042D01*
X145232834Y-97503724D01*
X145236351Y-97489683D01*
X145241228Y-97476054D01*
X145247417Y-97462969D01*
X145254858Y-97450553D01*
X145263481Y-97438927D01*
X145273202Y-97428202D01*
X145283927Y-97418481D01*
X145295553Y-97409858D01*
X145307969Y-97402417D01*
X145321054Y-97396228D01*
X145334683Y-97391351D01*
X145348724Y-97387834D01*
X145363042Y-97385710D01*
X145377500Y-97385000D01*
X145722500Y-97385000D01*
X145736958Y-97385710D01*
G37*
G04 #@! TD.AperFunction*
G04 #@! TA.AperFunction,SMDPad,CuDef*
G36*
X169926958Y-94955710D02*
G01*
X169941276Y-94957834D01*
X169955317Y-94961351D01*
X169968946Y-94966228D01*
X169982031Y-94972417D01*
X169994447Y-94979858D01*
X170006073Y-94988481D01*
X170016798Y-94998202D01*
X170026519Y-95008927D01*
X170035142Y-95020553D01*
X170042583Y-95032969D01*
X170048772Y-95046054D01*
X170053649Y-95059683D01*
X170057166Y-95073724D01*
X170059290Y-95088042D01*
X170060000Y-95102500D01*
X170060000Y-95447500D01*
X170059290Y-95461958D01*
X170057166Y-95476276D01*
X170053649Y-95490317D01*
X170048772Y-95503946D01*
X170042583Y-95517031D01*
X170035142Y-95529447D01*
X170026519Y-95541073D01*
X170016798Y-95551798D01*
X170006073Y-95561519D01*
X169994447Y-95570142D01*
X169982031Y-95577583D01*
X169968946Y-95583772D01*
X169955317Y-95588649D01*
X169941276Y-95592166D01*
X169926958Y-95594290D01*
X169912500Y-95595000D01*
X169617500Y-95595000D01*
X169603042Y-95594290D01*
X169588724Y-95592166D01*
X169574683Y-95588649D01*
X169561054Y-95583772D01*
X169547969Y-95577583D01*
X169535553Y-95570142D01*
X169523927Y-95561519D01*
X169513202Y-95551798D01*
X169503481Y-95541073D01*
X169494858Y-95529447D01*
X169487417Y-95517031D01*
X169481228Y-95503946D01*
X169476351Y-95490317D01*
X169472834Y-95476276D01*
X169470710Y-95461958D01*
X169470000Y-95447500D01*
X169470000Y-95102500D01*
X169470710Y-95088042D01*
X169472834Y-95073724D01*
X169476351Y-95059683D01*
X169481228Y-95046054D01*
X169487417Y-95032969D01*
X169494858Y-95020553D01*
X169503481Y-95008927D01*
X169513202Y-94998202D01*
X169523927Y-94988481D01*
X169535553Y-94979858D01*
X169547969Y-94972417D01*
X169561054Y-94966228D01*
X169574683Y-94961351D01*
X169588724Y-94957834D01*
X169603042Y-94955710D01*
X169617500Y-94955000D01*
X169912500Y-94955000D01*
X169926958Y-94955710D01*
G37*
G04 #@! TD.AperFunction*
G04 #@! TA.AperFunction,SMDPad,CuDef*
G36*
X170896958Y-94955710D02*
G01*
X170911276Y-94957834D01*
X170925317Y-94961351D01*
X170938946Y-94966228D01*
X170952031Y-94972417D01*
X170964447Y-94979858D01*
X170976073Y-94988481D01*
X170986798Y-94998202D01*
X170996519Y-95008927D01*
X171005142Y-95020553D01*
X171012583Y-95032969D01*
X171018772Y-95046054D01*
X171023649Y-95059683D01*
X171027166Y-95073724D01*
X171029290Y-95088042D01*
X171030000Y-95102500D01*
X171030000Y-95447500D01*
X171029290Y-95461958D01*
X171027166Y-95476276D01*
X171023649Y-95490317D01*
X171018772Y-95503946D01*
X171012583Y-95517031D01*
X171005142Y-95529447D01*
X170996519Y-95541073D01*
X170986798Y-95551798D01*
X170976073Y-95561519D01*
X170964447Y-95570142D01*
X170952031Y-95577583D01*
X170938946Y-95583772D01*
X170925317Y-95588649D01*
X170911276Y-95592166D01*
X170896958Y-95594290D01*
X170882500Y-95595000D01*
X170587500Y-95595000D01*
X170573042Y-95594290D01*
X170558724Y-95592166D01*
X170544683Y-95588649D01*
X170531054Y-95583772D01*
X170517969Y-95577583D01*
X170505553Y-95570142D01*
X170493927Y-95561519D01*
X170483202Y-95551798D01*
X170473481Y-95541073D01*
X170464858Y-95529447D01*
X170457417Y-95517031D01*
X170451228Y-95503946D01*
X170446351Y-95490317D01*
X170442834Y-95476276D01*
X170440710Y-95461958D01*
X170440000Y-95447500D01*
X170440000Y-95102500D01*
X170440710Y-95088042D01*
X170442834Y-95073724D01*
X170446351Y-95059683D01*
X170451228Y-95046054D01*
X170457417Y-95032969D01*
X170464858Y-95020553D01*
X170473481Y-95008927D01*
X170483202Y-94998202D01*
X170493927Y-94988481D01*
X170505553Y-94979858D01*
X170517969Y-94972417D01*
X170531054Y-94966228D01*
X170544683Y-94961351D01*
X170558724Y-94957834D01*
X170573042Y-94955710D01*
X170587500Y-94955000D01*
X170882500Y-94955000D01*
X170896958Y-94955710D01*
G37*
G04 #@! TD.AperFunction*
G04 #@! TA.AperFunction,SMDPad,CuDef*
G36*
X121896958Y-106230710D02*
G01*
X121911276Y-106232834D01*
X121925317Y-106236351D01*
X121938946Y-106241228D01*
X121952031Y-106247417D01*
X121964447Y-106254858D01*
X121976073Y-106263481D01*
X121986798Y-106273202D01*
X121996519Y-106283927D01*
X122005142Y-106295553D01*
X122012583Y-106307969D01*
X122018772Y-106321054D01*
X122023649Y-106334683D01*
X122027166Y-106348724D01*
X122029290Y-106363042D01*
X122030000Y-106377500D01*
X122030000Y-106722500D01*
X122029290Y-106736958D01*
X122027166Y-106751276D01*
X122023649Y-106765317D01*
X122018772Y-106778946D01*
X122012583Y-106792031D01*
X122005142Y-106804447D01*
X121996519Y-106816073D01*
X121986798Y-106826798D01*
X121976073Y-106836519D01*
X121964447Y-106845142D01*
X121952031Y-106852583D01*
X121938946Y-106858772D01*
X121925317Y-106863649D01*
X121911276Y-106867166D01*
X121896958Y-106869290D01*
X121882500Y-106870000D01*
X121587500Y-106870000D01*
X121573042Y-106869290D01*
X121558724Y-106867166D01*
X121544683Y-106863649D01*
X121531054Y-106858772D01*
X121517969Y-106852583D01*
X121505553Y-106845142D01*
X121493927Y-106836519D01*
X121483202Y-106826798D01*
X121473481Y-106816073D01*
X121464858Y-106804447D01*
X121457417Y-106792031D01*
X121451228Y-106778946D01*
X121446351Y-106765317D01*
X121442834Y-106751276D01*
X121440710Y-106736958D01*
X121440000Y-106722500D01*
X121440000Y-106377500D01*
X121440710Y-106363042D01*
X121442834Y-106348724D01*
X121446351Y-106334683D01*
X121451228Y-106321054D01*
X121457417Y-106307969D01*
X121464858Y-106295553D01*
X121473481Y-106283927D01*
X121483202Y-106273202D01*
X121493927Y-106263481D01*
X121505553Y-106254858D01*
X121517969Y-106247417D01*
X121531054Y-106241228D01*
X121544683Y-106236351D01*
X121558724Y-106232834D01*
X121573042Y-106230710D01*
X121587500Y-106230000D01*
X121882500Y-106230000D01*
X121896958Y-106230710D01*
G37*
G04 #@! TD.AperFunction*
G04 #@! TA.AperFunction,SMDPad,CuDef*
G36*
X120926958Y-106230710D02*
G01*
X120941276Y-106232834D01*
X120955317Y-106236351D01*
X120968946Y-106241228D01*
X120982031Y-106247417D01*
X120994447Y-106254858D01*
X121006073Y-106263481D01*
X121016798Y-106273202D01*
X121026519Y-106283927D01*
X121035142Y-106295553D01*
X121042583Y-106307969D01*
X121048772Y-106321054D01*
X121053649Y-106334683D01*
X121057166Y-106348724D01*
X121059290Y-106363042D01*
X121060000Y-106377500D01*
X121060000Y-106722500D01*
X121059290Y-106736958D01*
X121057166Y-106751276D01*
X121053649Y-106765317D01*
X121048772Y-106778946D01*
X121042583Y-106792031D01*
X121035142Y-106804447D01*
X121026519Y-106816073D01*
X121016798Y-106826798D01*
X121006073Y-106836519D01*
X120994447Y-106845142D01*
X120982031Y-106852583D01*
X120968946Y-106858772D01*
X120955317Y-106863649D01*
X120941276Y-106867166D01*
X120926958Y-106869290D01*
X120912500Y-106870000D01*
X120617500Y-106870000D01*
X120603042Y-106869290D01*
X120588724Y-106867166D01*
X120574683Y-106863649D01*
X120561054Y-106858772D01*
X120547969Y-106852583D01*
X120535553Y-106845142D01*
X120523927Y-106836519D01*
X120513202Y-106826798D01*
X120503481Y-106816073D01*
X120494858Y-106804447D01*
X120487417Y-106792031D01*
X120481228Y-106778946D01*
X120476351Y-106765317D01*
X120472834Y-106751276D01*
X120470710Y-106736958D01*
X120470000Y-106722500D01*
X120470000Y-106377500D01*
X120470710Y-106363042D01*
X120472834Y-106348724D01*
X120476351Y-106334683D01*
X120481228Y-106321054D01*
X120487417Y-106307969D01*
X120494858Y-106295553D01*
X120503481Y-106283927D01*
X120513202Y-106273202D01*
X120523927Y-106263481D01*
X120535553Y-106254858D01*
X120547969Y-106247417D01*
X120561054Y-106241228D01*
X120574683Y-106236351D01*
X120588724Y-106232834D01*
X120603042Y-106230710D01*
X120617500Y-106230000D01*
X120912500Y-106230000D01*
X120926958Y-106230710D01*
G37*
G04 #@! TD.AperFunction*
G04 #@! TA.AperFunction,SMDPad,CuDef*
G36*
X166526958Y-95480710D02*
G01*
X166541276Y-95482834D01*
X166555317Y-95486351D01*
X166568946Y-95491228D01*
X166582031Y-95497417D01*
X166594447Y-95504858D01*
X166606073Y-95513481D01*
X166616798Y-95523202D01*
X166626519Y-95533927D01*
X166635142Y-95545553D01*
X166642583Y-95557969D01*
X166648772Y-95571054D01*
X166653649Y-95584683D01*
X166657166Y-95598724D01*
X166659290Y-95613042D01*
X166660000Y-95627500D01*
X166660000Y-95972500D01*
X166659290Y-95986958D01*
X166657166Y-96001276D01*
X166653649Y-96015317D01*
X166648772Y-96028946D01*
X166642583Y-96042031D01*
X166635142Y-96054447D01*
X166626519Y-96066073D01*
X166616798Y-96076798D01*
X166606073Y-96086519D01*
X166594447Y-96095142D01*
X166582031Y-96102583D01*
X166568946Y-96108772D01*
X166555317Y-96113649D01*
X166541276Y-96117166D01*
X166526958Y-96119290D01*
X166512500Y-96120000D01*
X166217500Y-96120000D01*
X166203042Y-96119290D01*
X166188724Y-96117166D01*
X166174683Y-96113649D01*
X166161054Y-96108772D01*
X166147969Y-96102583D01*
X166135553Y-96095142D01*
X166123927Y-96086519D01*
X166113202Y-96076798D01*
X166103481Y-96066073D01*
X166094858Y-96054447D01*
X166087417Y-96042031D01*
X166081228Y-96028946D01*
X166076351Y-96015317D01*
X166072834Y-96001276D01*
X166070710Y-95986958D01*
X166070000Y-95972500D01*
X166070000Y-95627500D01*
X166070710Y-95613042D01*
X166072834Y-95598724D01*
X166076351Y-95584683D01*
X166081228Y-95571054D01*
X166087417Y-95557969D01*
X166094858Y-95545553D01*
X166103481Y-95533927D01*
X166113202Y-95523202D01*
X166123927Y-95513481D01*
X166135553Y-95504858D01*
X166147969Y-95497417D01*
X166161054Y-95491228D01*
X166174683Y-95486351D01*
X166188724Y-95482834D01*
X166203042Y-95480710D01*
X166217500Y-95480000D01*
X166512500Y-95480000D01*
X166526958Y-95480710D01*
G37*
G04 #@! TD.AperFunction*
G04 #@! TA.AperFunction,SMDPad,CuDef*
G36*
X167496958Y-95480710D02*
G01*
X167511276Y-95482834D01*
X167525317Y-95486351D01*
X167538946Y-95491228D01*
X167552031Y-95497417D01*
X167564447Y-95504858D01*
X167576073Y-95513481D01*
X167586798Y-95523202D01*
X167596519Y-95533927D01*
X167605142Y-95545553D01*
X167612583Y-95557969D01*
X167618772Y-95571054D01*
X167623649Y-95584683D01*
X167627166Y-95598724D01*
X167629290Y-95613042D01*
X167630000Y-95627500D01*
X167630000Y-95972500D01*
X167629290Y-95986958D01*
X167627166Y-96001276D01*
X167623649Y-96015317D01*
X167618772Y-96028946D01*
X167612583Y-96042031D01*
X167605142Y-96054447D01*
X167596519Y-96066073D01*
X167586798Y-96076798D01*
X167576073Y-96086519D01*
X167564447Y-96095142D01*
X167552031Y-96102583D01*
X167538946Y-96108772D01*
X167525317Y-96113649D01*
X167511276Y-96117166D01*
X167496958Y-96119290D01*
X167482500Y-96120000D01*
X167187500Y-96120000D01*
X167173042Y-96119290D01*
X167158724Y-96117166D01*
X167144683Y-96113649D01*
X167131054Y-96108772D01*
X167117969Y-96102583D01*
X167105553Y-96095142D01*
X167093927Y-96086519D01*
X167083202Y-96076798D01*
X167073481Y-96066073D01*
X167064858Y-96054447D01*
X167057417Y-96042031D01*
X167051228Y-96028946D01*
X167046351Y-96015317D01*
X167042834Y-96001276D01*
X167040710Y-95986958D01*
X167040000Y-95972500D01*
X167040000Y-95627500D01*
X167040710Y-95613042D01*
X167042834Y-95598724D01*
X167046351Y-95584683D01*
X167051228Y-95571054D01*
X167057417Y-95557969D01*
X167064858Y-95545553D01*
X167073481Y-95533927D01*
X167083202Y-95523202D01*
X167093927Y-95513481D01*
X167105553Y-95504858D01*
X167117969Y-95497417D01*
X167131054Y-95491228D01*
X167144683Y-95486351D01*
X167158724Y-95482834D01*
X167173042Y-95480710D01*
X167187500Y-95480000D01*
X167482500Y-95480000D01*
X167496958Y-95480710D01*
G37*
G04 #@! TD.AperFunction*
G04 #@! TA.AperFunction,SMDPad,CuDef*
G36*
X166036958Y-96620710D02*
G01*
X166051276Y-96622834D01*
X166065317Y-96626351D01*
X166078946Y-96631228D01*
X166092031Y-96637417D01*
X166104447Y-96644858D01*
X166116073Y-96653481D01*
X166126798Y-96663202D01*
X166136519Y-96673927D01*
X166145142Y-96685553D01*
X166152583Y-96697969D01*
X166158772Y-96711054D01*
X166163649Y-96724683D01*
X166167166Y-96738724D01*
X166169290Y-96753042D01*
X166170000Y-96767500D01*
X166170000Y-97062500D01*
X166169290Y-97076958D01*
X166167166Y-97091276D01*
X166163649Y-97105317D01*
X166158772Y-97118946D01*
X166152583Y-97132031D01*
X166145142Y-97144447D01*
X166136519Y-97156073D01*
X166126798Y-97166798D01*
X166116073Y-97176519D01*
X166104447Y-97185142D01*
X166092031Y-97192583D01*
X166078946Y-97198772D01*
X166065317Y-97203649D01*
X166051276Y-97207166D01*
X166036958Y-97209290D01*
X166022500Y-97210000D01*
X165677500Y-97210000D01*
X165663042Y-97209290D01*
X165648724Y-97207166D01*
X165634683Y-97203649D01*
X165621054Y-97198772D01*
X165607969Y-97192583D01*
X165595553Y-97185142D01*
X165583927Y-97176519D01*
X165573202Y-97166798D01*
X165563481Y-97156073D01*
X165554858Y-97144447D01*
X165547417Y-97132031D01*
X165541228Y-97118946D01*
X165536351Y-97105317D01*
X165532834Y-97091276D01*
X165530710Y-97076958D01*
X165530000Y-97062500D01*
X165530000Y-96767500D01*
X165530710Y-96753042D01*
X165532834Y-96738724D01*
X165536351Y-96724683D01*
X165541228Y-96711054D01*
X165547417Y-96697969D01*
X165554858Y-96685553D01*
X165563481Y-96673927D01*
X165573202Y-96663202D01*
X165583927Y-96653481D01*
X165595553Y-96644858D01*
X165607969Y-96637417D01*
X165621054Y-96631228D01*
X165634683Y-96626351D01*
X165648724Y-96622834D01*
X165663042Y-96620710D01*
X165677500Y-96620000D01*
X166022500Y-96620000D01*
X166036958Y-96620710D01*
G37*
G04 #@! TD.AperFunction*
G04 #@! TA.AperFunction,SMDPad,CuDef*
G36*
X166036958Y-97590710D02*
G01*
X166051276Y-97592834D01*
X166065317Y-97596351D01*
X166078946Y-97601228D01*
X166092031Y-97607417D01*
X166104447Y-97614858D01*
X166116073Y-97623481D01*
X166126798Y-97633202D01*
X166136519Y-97643927D01*
X166145142Y-97655553D01*
X166152583Y-97667969D01*
X166158772Y-97681054D01*
X166163649Y-97694683D01*
X166167166Y-97708724D01*
X166169290Y-97723042D01*
X166170000Y-97737500D01*
X166170000Y-98032500D01*
X166169290Y-98046958D01*
X166167166Y-98061276D01*
X166163649Y-98075317D01*
X166158772Y-98088946D01*
X166152583Y-98102031D01*
X166145142Y-98114447D01*
X166136519Y-98126073D01*
X166126798Y-98136798D01*
X166116073Y-98146519D01*
X166104447Y-98155142D01*
X166092031Y-98162583D01*
X166078946Y-98168772D01*
X166065317Y-98173649D01*
X166051276Y-98177166D01*
X166036958Y-98179290D01*
X166022500Y-98180000D01*
X165677500Y-98180000D01*
X165663042Y-98179290D01*
X165648724Y-98177166D01*
X165634683Y-98173649D01*
X165621054Y-98168772D01*
X165607969Y-98162583D01*
X165595553Y-98155142D01*
X165583927Y-98146519D01*
X165573202Y-98136798D01*
X165563481Y-98126073D01*
X165554858Y-98114447D01*
X165547417Y-98102031D01*
X165541228Y-98088946D01*
X165536351Y-98075317D01*
X165532834Y-98061276D01*
X165530710Y-98046958D01*
X165530000Y-98032500D01*
X165530000Y-97737500D01*
X165530710Y-97723042D01*
X165532834Y-97708724D01*
X165536351Y-97694683D01*
X165541228Y-97681054D01*
X165547417Y-97667969D01*
X165554858Y-97655553D01*
X165563481Y-97643927D01*
X165573202Y-97633202D01*
X165583927Y-97623481D01*
X165595553Y-97614858D01*
X165607969Y-97607417D01*
X165621054Y-97601228D01*
X165634683Y-97596351D01*
X165648724Y-97592834D01*
X165663042Y-97590710D01*
X165677500Y-97590000D01*
X166022500Y-97590000D01*
X166036958Y-97590710D01*
G37*
G04 #@! TD.AperFunction*
D23*
X104500000Y-97460000D03*
D24*
X104500000Y-100000000D03*
X104500000Y-102540000D03*
G04 #@! TA.AperFunction,SMDPad,CuDef*
D10*
G36*
X140252691Y-99776053D02*
G01*
X140273926Y-99779203D01*
X140294750Y-99784419D01*
X140314962Y-99791651D01*
X140334368Y-99800830D01*
X140352781Y-99811866D01*
X140370024Y-99824654D01*
X140385930Y-99839070D01*
X140400346Y-99854976D01*
X140413134Y-99872219D01*
X140424170Y-99890632D01*
X140433349Y-99910038D01*
X140440581Y-99930250D01*
X140445797Y-99951074D01*
X140448947Y-99972309D01*
X140450000Y-99993750D01*
X140450000Y-100506250D01*
X140448947Y-100527691D01*
X140445797Y-100548926D01*
X140440581Y-100569750D01*
X140433349Y-100589962D01*
X140424170Y-100609368D01*
X140413134Y-100627781D01*
X140400346Y-100645024D01*
X140385930Y-100660930D01*
X140370024Y-100675346D01*
X140352781Y-100688134D01*
X140334368Y-100699170D01*
X140314962Y-100708349D01*
X140294750Y-100715581D01*
X140273926Y-100720797D01*
X140252691Y-100723947D01*
X140231250Y-100725000D01*
X139793750Y-100725000D01*
X139772309Y-100723947D01*
X139751074Y-100720797D01*
X139730250Y-100715581D01*
X139710038Y-100708349D01*
X139690632Y-100699170D01*
X139672219Y-100688134D01*
X139654976Y-100675346D01*
X139639070Y-100660930D01*
X139624654Y-100645024D01*
X139611866Y-100627781D01*
X139600830Y-100609368D01*
X139591651Y-100589962D01*
X139584419Y-100569750D01*
X139579203Y-100548926D01*
X139576053Y-100527691D01*
X139575000Y-100506250D01*
X139575000Y-99993750D01*
X139576053Y-99972309D01*
X139579203Y-99951074D01*
X139584419Y-99930250D01*
X139591651Y-99910038D01*
X139600830Y-99890632D01*
X139611866Y-99872219D01*
X139624654Y-99854976D01*
X139639070Y-99839070D01*
X139654976Y-99824654D01*
X139672219Y-99811866D01*
X139690632Y-99800830D01*
X139710038Y-99791651D01*
X139730250Y-99784419D01*
X139751074Y-99779203D01*
X139772309Y-99776053D01*
X139793750Y-99775000D01*
X140231250Y-99775000D01*
X140252691Y-99776053D01*
G37*
G04 #@! TD.AperFunction*
G04 #@! TA.AperFunction,SMDPad,CuDef*
G36*
X141827691Y-99776053D02*
G01*
X141848926Y-99779203D01*
X141869750Y-99784419D01*
X141889962Y-99791651D01*
X141909368Y-99800830D01*
X141927781Y-99811866D01*
X141945024Y-99824654D01*
X141960930Y-99839070D01*
X141975346Y-99854976D01*
X141988134Y-99872219D01*
X141999170Y-99890632D01*
X142008349Y-99910038D01*
X142015581Y-99930250D01*
X142020797Y-99951074D01*
X142023947Y-99972309D01*
X142025000Y-99993750D01*
X142025000Y-100506250D01*
X142023947Y-100527691D01*
X142020797Y-100548926D01*
X142015581Y-100569750D01*
X142008349Y-100589962D01*
X141999170Y-100609368D01*
X141988134Y-100627781D01*
X141975346Y-100645024D01*
X141960930Y-100660930D01*
X141945024Y-100675346D01*
X141927781Y-100688134D01*
X141909368Y-100699170D01*
X141889962Y-100708349D01*
X141869750Y-100715581D01*
X141848926Y-100720797D01*
X141827691Y-100723947D01*
X141806250Y-100725000D01*
X141368750Y-100725000D01*
X141347309Y-100723947D01*
X141326074Y-100720797D01*
X141305250Y-100715581D01*
X141285038Y-100708349D01*
X141265632Y-100699170D01*
X141247219Y-100688134D01*
X141229976Y-100675346D01*
X141214070Y-100660930D01*
X141199654Y-100645024D01*
X141186866Y-100627781D01*
X141175830Y-100609368D01*
X141166651Y-100589962D01*
X141159419Y-100569750D01*
X141154203Y-100548926D01*
X141151053Y-100527691D01*
X141150000Y-100506250D01*
X141150000Y-99993750D01*
X141151053Y-99972309D01*
X141154203Y-99951074D01*
X141159419Y-99930250D01*
X141166651Y-99910038D01*
X141175830Y-99890632D01*
X141186866Y-99872219D01*
X141199654Y-99854976D01*
X141214070Y-99839070D01*
X141229976Y-99824654D01*
X141247219Y-99811866D01*
X141265632Y-99800830D01*
X141285038Y-99791651D01*
X141305250Y-99784419D01*
X141326074Y-99779203D01*
X141347309Y-99776053D01*
X141368750Y-99775000D01*
X141806250Y-99775000D01*
X141827691Y-99776053D01*
G37*
G04 #@! TD.AperFunction*
G04 #@! TA.AperFunction,SMDPad,CuDef*
G36*
X131677691Y-106351053D02*
G01*
X131698926Y-106354203D01*
X131719750Y-106359419D01*
X131739962Y-106366651D01*
X131759368Y-106375830D01*
X131777781Y-106386866D01*
X131795024Y-106399654D01*
X131810930Y-106414070D01*
X131825346Y-106429976D01*
X131838134Y-106447219D01*
X131849170Y-106465632D01*
X131858349Y-106485038D01*
X131865581Y-106505250D01*
X131870797Y-106526074D01*
X131873947Y-106547309D01*
X131875000Y-106568750D01*
X131875000Y-107006250D01*
X131873947Y-107027691D01*
X131870797Y-107048926D01*
X131865581Y-107069750D01*
X131858349Y-107089962D01*
X131849170Y-107109368D01*
X131838134Y-107127781D01*
X131825346Y-107145024D01*
X131810930Y-107160930D01*
X131795024Y-107175346D01*
X131777781Y-107188134D01*
X131759368Y-107199170D01*
X131739962Y-107208349D01*
X131719750Y-107215581D01*
X131698926Y-107220797D01*
X131677691Y-107223947D01*
X131656250Y-107225000D01*
X131143750Y-107225000D01*
X131122309Y-107223947D01*
X131101074Y-107220797D01*
X131080250Y-107215581D01*
X131060038Y-107208349D01*
X131040632Y-107199170D01*
X131022219Y-107188134D01*
X131004976Y-107175346D01*
X130989070Y-107160930D01*
X130974654Y-107145024D01*
X130961866Y-107127781D01*
X130950830Y-107109368D01*
X130941651Y-107089962D01*
X130934419Y-107069750D01*
X130929203Y-107048926D01*
X130926053Y-107027691D01*
X130925000Y-107006250D01*
X130925000Y-106568750D01*
X130926053Y-106547309D01*
X130929203Y-106526074D01*
X130934419Y-106505250D01*
X130941651Y-106485038D01*
X130950830Y-106465632D01*
X130961866Y-106447219D01*
X130974654Y-106429976D01*
X130989070Y-106414070D01*
X131004976Y-106399654D01*
X131022219Y-106386866D01*
X131040632Y-106375830D01*
X131060038Y-106366651D01*
X131080250Y-106359419D01*
X131101074Y-106354203D01*
X131122309Y-106351053D01*
X131143750Y-106350000D01*
X131656250Y-106350000D01*
X131677691Y-106351053D01*
G37*
G04 #@! TD.AperFunction*
G04 #@! TA.AperFunction,SMDPad,CuDef*
G36*
X131677691Y-104776053D02*
G01*
X131698926Y-104779203D01*
X131719750Y-104784419D01*
X131739962Y-104791651D01*
X131759368Y-104800830D01*
X131777781Y-104811866D01*
X131795024Y-104824654D01*
X131810930Y-104839070D01*
X131825346Y-104854976D01*
X131838134Y-104872219D01*
X131849170Y-104890632D01*
X131858349Y-104910038D01*
X131865581Y-104930250D01*
X131870797Y-104951074D01*
X131873947Y-104972309D01*
X131875000Y-104993750D01*
X131875000Y-105431250D01*
X131873947Y-105452691D01*
X131870797Y-105473926D01*
X131865581Y-105494750D01*
X131858349Y-105514962D01*
X131849170Y-105534368D01*
X131838134Y-105552781D01*
X131825346Y-105570024D01*
X131810930Y-105585930D01*
X131795024Y-105600346D01*
X131777781Y-105613134D01*
X131759368Y-105624170D01*
X131739962Y-105633349D01*
X131719750Y-105640581D01*
X131698926Y-105645797D01*
X131677691Y-105648947D01*
X131656250Y-105650000D01*
X131143750Y-105650000D01*
X131122309Y-105648947D01*
X131101074Y-105645797D01*
X131080250Y-105640581D01*
X131060038Y-105633349D01*
X131040632Y-105624170D01*
X131022219Y-105613134D01*
X131004976Y-105600346D01*
X130989070Y-105585930D01*
X130974654Y-105570024D01*
X130961866Y-105552781D01*
X130950830Y-105534368D01*
X130941651Y-105514962D01*
X130934419Y-105494750D01*
X130929203Y-105473926D01*
X130926053Y-105452691D01*
X130925000Y-105431250D01*
X130925000Y-104993750D01*
X130926053Y-104972309D01*
X130929203Y-104951074D01*
X130934419Y-104930250D01*
X130941651Y-104910038D01*
X130950830Y-104890632D01*
X130961866Y-104872219D01*
X130974654Y-104854976D01*
X130989070Y-104839070D01*
X131004976Y-104824654D01*
X131022219Y-104811866D01*
X131040632Y-104800830D01*
X131060038Y-104791651D01*
X131080250Y-104784419D01*
X131101074Y-104779203D01*
X131122309Y-104776053D01*
X131143750Y-104775000D01*
X131656250Y-104775000D01*
X131677691Y-104776053D01*
G37*
G04 #@! TD.AperFunction*
G04 #@! TA.AperFunction,SMDPad,CuDef*
G36*
X145736958Y-95470710D02*
G01*
X145751276Y-95472834D01*
X145765317Y-95476351D01*
X145778946Y-95481228D01*
X145792031Y-95487417D01*
X145804447Y-95494858D01*
X145816073Y-95503481D01*
X145826798Y-95513202D01*
X145836519Y-95523927D01*
X145845142Y-95535553D01*
X145852583Y-95547969D01*
X145858772Y-95561054D01*
X145863649Y-95574683D01*
X145867166Y-95588724D01*
X145869290Y-95603042D01*
X145870000Y-95617500D01*
X145870000Y-95912500D01*
X145869290Y-95926958D01*
X145867166Y-95941276D01*
X145863649Y-95955317D01*
X145858772Y-95968946D01*
X145852583Y-95982031D01*
X145845142Y-95994447D01*
X145836519Y-96006073D01*
X145826798Y-96016798D01*
X145816073Y-96026519D01*
X145804447Y-96035142D01*
X145792031Y-96042583D01*
X145778946Y-96048772D01*
X145765317Y-96053649D01*
X145751276Y-96057166D01*
X145736958Y-96059290D01*
X145722500Y-96060000D01*
X145377500Y-96060000D01*
X145363042Y-96059290D01*
X145348724Y-96057166D01*
X145334683Y-96053649D01*
X145321054Y-96048772D01*
X145307969Y-96042583D01*
X145295553Y-96035142D01*
X145283927Y-96026519D01*
X145273202Y-96016798D01*
X145263481Y-96006073D01*
X145254858Y-95994447D01*
X145247417Y-95982031D01*
X145241228Y-95968946D01*
X145236351Y-95955317D01*
X145232834Y-95941276D01*
X145230710Y-95926958D01*
X145230000Y-95912500D01*
X145230000Y-95617500D01*
X145230710Y-95603042D01*
X145232834Y-95588724D01*
X145236351Y-95574683D01*
X145241228Y-95561054D01*
X145247417Y-95547969D01*
X145254858Y-95535553D01*
X145263481Y-95523927D01*
X145273202Y-95513202D01*
X145283927Y-95503481D01*
X145295553Y-95494858D01*
X145307969Y-95487417D01*
X145321054Y-95481228D01*
X145334683Y-95476351D01*
X145348724Y-95472834D01*
X145363042Y-95470710D01*
X145377500Y-95470000D01*
X145722500Y-95470000D01*
X145736958Y-95470710D01*
G37*
G04 #@! TD.AperFunction*
G04 #@! TA.AperFunction,SMDPad,CuDef*
G36*
X145736958Y-96440710D02*
G01*
X145751276Y-96442834D01*
X145765317Y-96446351D01*
X145778946Y-96451228D01*
X145792031Y-96457417D01*
X145804447Y-96464858D01*
X145816073Y-96473481D01*
X145826798Y-96483202D01*
X145836519Y-96493927D01*
X145845142Y-96505553D01*
X145852583Y-96517969D01*
X145858772Y-96531054D01*
X145863649Y-96544683D01*
X145867166Y-96558724D01*
X145869290Y-96573042D01*
X145870000Y-96587500D01*
X145870000Y-96882500D01*
X145869290Y-96896958D01*
X145867166Y-96911276D01*
X145863649Y-96925317D01*
X145858772Y-96938946D01*
X145852583Y-96952031D01*
X145845142Y-96964447D01*
X145836519Y-96976073D01*
X145826798Y-96986798D01*
X145816073Y-96996519D01*
X145804447Y-97005142D01*
X145792031Y-97012583D01*
X145778946Y-97018772D01*
X145765317Y-97023649D01*
X145751276Y-97027166D01*
X145736958Y-97029290D01*
X145722500Y-97030000D01*
X145377500Y-97030000D01*
X145363042Y-97029290D01*
X145348724Y-97027166D01*
X145334683Y-97023649D01*
X145321054Y-97018772D01*
X145307969Y-97012583D01*
X145295553Y-97005142D01*
X145283927Y-96996519D01*
X145273202Y-96986798D01*
X145263481Y-96976073D01*
X145254858Y-96964447D01*
X145247417Y-96952031D01*
X145241228Y-96938946D01*
X145236351Y-96925317D01*
X145232834Y-96911276D01*
X145230710Y-96896958D01*
X145230000Y-96882500D01*
X145230000Y-96587500D01*
X145230710Y-96573042D01*
X145232834Y-96558724D01*
X145236351Y-96544683D01*
X145241228Y-96531054D01*
X145247417Y-96517969D01*
X145254858Y-96505553D01*
X145263481Y-96493927D01*
X145273202Y-96483202D01*
X145283927Y-96473481D01*
X145295553Y-96464858D01*
X145307969Y-96457417D01*
X145321054Y-96451228D01*
X145334683Y-96446351D01*
X145348724Y-96442834D01*
X145363042Y-96440710D01*
X145377500Y-96440000D01*
X145722500Y-96440000D01*
X145736958Y-96440710D01*
G37*
G04 #@! TD.AperFunction*
G04 #@! TA.AperFunction,SMDPad,CuDef*
G36*
X166286958Y-91520710D02*
G01*
X166301276Y-91522834D01*
X166315317Y-91526351D01*
X166328946Y-91531228D01*
X166342031Y-91537417D01*
X166354447Y-91544858D01*
X166366073Y-91553481D01*
X166376798Y-91563202D01*
X166386519Y-91573927D01*
X166395142Y-91585553D01*
X166402583Y-91597969D01*
X166408772Y-91611054D01*
X166413649Y-91624683D01*
X166417166Y-91638724D01*
X166419290Y-91653042D01*
X166420000Y-91667500D01*
X166420000Y-91962500D01*
X166419290Y-91976958D01*
X166417166Y-91991276D01*
X166413649Y-92005317D01*
X166408772Y-92018946D01*
X166402583Y-92032031D01*
X166395142Y-92044447D01*
X166386519Y-92056073D01*
X166376798Y-92066798D01*
X166366073Y-92076519D01*
X166354447Y-92085142D01*
X166342031Y-92092583D01*
X166328946Y-92098772D01*
X166315317Y-92103649D01*
X166301276Y-92107166D01*
X166286958Y-92109290D01*
X166272500Y-92110000D01*
X165927500Y-92110000D01*
X165913042Y-92109290D01*
X165898724Y-92107166D01*
X165884683Y-92103649D01*
X165871054Y-92098772D01*
X165857969Y-92092583D01*
X165845553Y-92085142D01*
X165833927Y-92076519D01*
X165823202Y-92066798D01*
X165813481Y-92056073D01*
X165804858Y-92044447D01*
X165797417Y-92032031D01*
X165791228Y-92018946D01*
X165786351Y-92005317D01*
X165782834Y-91991276D01*
X165780710Y-91976958D01*
X165780000Y-91962500D01*
X165780000Y-91667500D01*
X165780710Y-91653042D01*
X165782834Y-91638724D01*
X165786351Y-91624683D01*
X165791228Y-91611054D01*
X165797417Y-91597969D01*
X165804858Y-91585553D01*
X165813481Y-91573927D01*
X165823202Y-91563202D01*
X165833927Y-91553481D01*
X165845553Y-91544858D01*
X165857969Y-91537417D01*
X165871054Y-91531228D01*
X165884683Y-91526351D01*
X165898724Y-91522834D01*
X165913042Y-91520710D01*
X165927500Y-91520000D01*
X166272500Y-91520000D01*
X166286958Y-91520710D01*
G37*
G04 #@! TD.AperFunction*
G04 #@! TA.AperFunction,SMDPad,CuDef*
G36*
X166286958Y-92490710D02*
G01*
X166301276Y-92492834D01*
X166315317Y-92496351D01*
X166328946Y-92501228D01*
X166342031Y-92507417D01*
X166354447Y-92514858D01*
X166366073Y-92523481D01*
X166376798Y-92533202D01*
X166386519Y-92543927D01*
X166395142Y-92555553D01*
X166402583Y-92567969D01*
X166408772Y-92581054D01*
X166413649Y-92594683D01*
X166417166Y-92608724D01*
X166419290Y-92623042D01*
X166420000Y-92637500D01*
X166420000Y-92932500D01*
X166419290Y-92946958D01*
X166417166Y-92961276D01*
X166413649Y-92975317D01*
X166408772Y-92988946D01*
X166402583Y-93002031D01*
X166395142Y-93014447D01*
X166386519Y-93026073D01*
X166376798Y-93036798D01*
X166366073Y-93046519D01*
X166354447Y-93055142D01*
X166342031Y-93062583D01*
X166328946Y-93068772D01*
X166315317Y-93073649D01*
X166301276Y-93077166D01*
X166286958Y-93079290D01*
X166272500Y-93080000D01*
X165927500Y-93080000D01*
X165913042Y-93079290D01*
X165898724Y-93077166D01*
X165884683Y-93073649D01*
X165871054Y-93068772D01*
X165857969Y-93062583D01*
X165845553Y-93055142D01*
X165833927Y-93046519D01*
X165823202Y-93036798D01*
X165813481Y-93026073D01*
X165804858Y-93014447D01*
X165797417Y-93002031D01*
X165791228Y-92988946D01*
X165786351Y-92975317D01*
X165782834Y-92961276D01*
X165780710Y-92946958D01*
X165780000Y-92932500D01*
X165780000Y-92637500D01*
X165780710Y-92623042D01*
X165782834Y-92608724D01*
X165786351Y-92594683D01*
X165791228Y-92581054D01*
X165797417Y-92567969D01*
X165804858Y-92555553D01*
X165813481Y-92543927D01*
X165823202Y-92533202D01*
X165833927Y-92523481D01*
X165845553Y-92514858D01*
X165857969Y-92507417D01*
X165871054Y-92501228D01*
X165884683Y-92496351D01*
X165898724Y-92492834D01*
X165913042Y-92490710D01*
X165927500Y-92490000D01*
X166272500Y-92490000D01*
X166286958Y-92490710D01*
G37*
G04 #@! TD.AperFunction*
G04 #@! TA.AperFunction,SMDPad,CuDef*
G36*
X167236958Y-91520710D02*
G01*
X167251276Y-91522834D01*
X167265317Y-91526351D01*
X167278946Y-91531228D01*
X167292031Y-91537417D01*
X167304447Y-91544858D01*
X167316073Y-91553481D01*
X167326798Y-91563202D01*
X167336519Y-91573927D01*
X167345142Y-91585553D01*
X167352583Y-91597969D01*
X167358772Y-91611054D01*
X167363649Y-91624683D01*
X167367166Y-91638724D01*
X167369290Y-91653042D01*
X167370000Y-91667500D01*
X167370000Y-91962500D01*
X167369290Y-91976958D01*
X167367166Y-91991276D01*
X167363649Y-92005317D01*
X167358772Y-92018946D01*
X167352583Y-92032031D01*
X167345142Y-92044447D01*
X167336519Y-92056073D01*
X167326798Y-92066798D01*
X167316073Y-92076519D01*
X167304447Y-92085142D01*
X167292031Y-92092583D01*
X167278946Y-92098772D01*
X167265317Y-92103649D01*
X167251276Y-92107166D01*
X167236958Y-92109290D01*
X167222500Y-92110000D01*
X166877500Y-92110000D01*
X166863042Y-92109290D01*
X166848724Y-92107166D01*
X166834683Y-92103649D01*
X166821054Y-92098772D01*
X166807969Y-92092583D01*
X166795553Y-92085142D01*
X166783927Y-92076519D01*
X166773202Y-92066798D01*
X166763481Y-92056073D01*
X166754858Y-92044447D01*
X166747417Y-92032031D01*
X166741228Y-92018946D01*
X166736351Y-92005317D01*
X166732834Y-91991276D01*
X166730710Y-91976958D01*
X166730000Y-91962500D01*
X166730000Y-91667500D01*
X166730710Y-91653042D01*
X166732834Y-91638724D01*
X166736351Y-91624683D01*
X166741228Y-91611054D01*
X166747417Y-91597969D01*
X166754858Y-91585553D01*
X166763481Y-91573927D01*
X166773202Y-91563202D01*
X166783927Y-91553481D01*
X166795553Y-91544858D01*
X166807969Y-91537417D01*
X166821054Y-91531228D01*
X166834683Y-91526351D01*
X166848724Y-91522834D01*
X166863042Y-91520710D01*
X166877500Y-91520000D01*
X167222500Y-91520000D01*
X167236958Y-91520710D01*
G37*
G04 #@! TD.AperFunction*
G04 #@! TA.AperFunction,SMDPad,CuDef*
G36*
X167236958Y-92490710D02*
G01*
X167251276Y-92492834D01*
X167265317Y-92496351D01*
X167278946Y-92501228D01*
X167292031Y-92507417D01*
X167304447Y-92514858D01*
X167316073Y-92523481D01*
X167326798Y-92533202D01*
X167336519Y-92543927D01*
X167345142Y-92555553D01*
X167352583Y-92567969D01*
X167358772Y-92581054D01*
X167363649Y-92594683D01*
X167367166Y-92608724D01*
X167369290Y-92623042D01*
X167370000Y-92637500D01*
X167370000Y-92932500D01*
X167369290Y-92946958D01*
X167367166Y-92961276D01*
X167363649Y-92975317D01*
X167358772Y-92988946D01*
X167352583Y-93002031D01*
X167345142Y-93014447D01*
X167336519Y-93026073D01*
X167326798Y-93036798D01*
X167316073Y-93046519D01*
X167304447Y-93055142D01*
X167292031Y-93062583D01*
X167278946Y-93068772D01*
X167265317Y-93073649D01*
X167251276Y-93077166D01*
X167236958Y-93079290D01*
X167222500Y-93080000D01*
X166877500Y-93080000D01*
X166863042Y-93079290D01*
X166848724Y-93077166D01*
X166834683Y-93073649D01*
X166821054Y-93068772D01*
X166807969Y-93062583D01*
X166795553Y-93055142D01*
X166783927Y-93046519D01*
X166773202Y-93036798D01*
X166763481Y-93026073D01*
X166754858Y-93014447D01*
X166747417Y-93002031D01*
X166741228Y-92988946D01*
X166736351Y-92975317D01*
X166732834Y-92961276D01*
X166730710Y-92946958D01*
X166730000Y-92932500D01*
X166730000Y-92637500D01*
X166730710Y-92623042D01*
X166732834Y-92608724D01*
X166736351Y-92594683D01*
X166741228Y-92581054D01*
X166747417Y-92567969D01*
X166754858Y-92555553D01*
X166763481Y-92543927D01*
X166773202Y-92533202D01*
X166783927Y-92523481D01*
X166795553Y-92514858D01*
X166807969Y-92507417D01*
X166821054Y-92501228D01*
X166834683Y-92496351D01*
X166848724Y-92492834D01*
X166863042Y-92490710D01*
X166877500Y-92490000D01*
X167222500Y-92490000D01*
X167236958Y-92490710D01*
G37*
G04 #@! TD.AperFunction*
G04 #@! TA.AperFunction,SMDPad,CuDef*
G36*
X119371958Y-106230710D02*
G01*
X119386276Y-106232834D01*
X119400317Y-106236351D01*
X119413946Y-106241228D01*
X119427031Y-106247417D01*
X119439447Y-106254858D01*
X119451073Y-106263481D01*
X119461798Y-106273202D01*
X119471519Y-106283927D01*
X119480142Y-106295553D01*
X119487583Y-106307969D01*
X119493772Y-106321054D01*
X119498649Y-106334683D01*
X119502166Y-106348724D01*
X119504290Y-106363042D01*
X119505000Y-106377500D01*
X119505000Y-106722500D01*
X119504290Y-106736958D01*
X119502166Y-106751276D01*
X119498649Y-106765317D01*
X119493772Y-106778946D01*
X119487583Y-106792031D01*
X119480142Y-106804447D01*
X119471519Y-106816073D01*
X119461798Y-106826798D01*
X119451073Y-106836519D01*
X119439447Y-106845142D01*
X119427031Y-106852583D01*
X119413946Y-106858772D01*
X119400317Y-106863649D01*
X119386276Y-106867166D01*
X119371958Y-106869290D01*
X119357500Y-106870000D01*
X119062500Y-106870000D01*
X119048042Y-106869290D01*
X119033724Y-106867166D01*
X119019683Y-106863649D01*
X119006054Y-106858772D01*
X118992969Y-106852583D01*
X118980553Y-106845142D01*
X118968927Y-106836519D01*
X118958202Y-106826798D01*
X118948481Y-106816073D01*
X118939858Y-106804447D01*
X118932417Y-106792031D01*
X118926228Y-106778946D01*
X118921351Y-106765317D01*
X118917834Y-106751276D01*
X118915710Y-106736958D01*
X118915000Y-106722500D01*
X118915000Y-106377500D01*
X118915710Y-106363042D01*
X118917834Y-106348724D01*
X118921351Y-106334683D01*
X118926228Y-106321054D01*
X118932417Y-106307969D01*
X118939858Y-106295553D01*
X118948481Y-106283927D01*
X118958202Y-106273202D01*
X118968927Y-106263481D01*
X118980553Y-106254858D01*
X118992969Y-106247417D01*
X119006054Y-106241228D01*
X119019683Y-106236351D01*
X119033724Y-106232834D01*
X119048042Y-106230710D01*
X119062500Y-106230000D01*
X119357500Y-106230000D01*
X119371958Y-106230710D01*
G37*
G04 #@! TD.AperFunction*
G04 #@! TA.AperFunction,SMDPad,CuDef*
G36*
X118401958Y-106230710D02*
G01*
X118416276Y-106232834D01*
X118430317Y-106236351D01*
X118443946Y-106241228D01*
X118457031Y-106247417D01*
X118469447Y-106254858D01*
X118481073Y-106263481D01*
X118491798Y-106273202D01*
X118501519Y-106283927D01*
X118510142Y-106295553D01*
X118517583Y-106307969D01*
X118523772Y-106321054D01*
X118528649Y-106334683D01*
X118532166Y-106348724D01*
X118534290Y-106363042D01*
X118535000Y-106377500D01*
X118535000Y-106722500D01*
X118534290Y-106736958D01*
X118532166Y-106751276D01*
X118528649Y-106765317D01*
X118523772Y-106778946D01*
X118517583Y-106792031D01*
X118510142Y-106804447D01*
X118501519Y-106816073D01*
X118491798Y-106826798D01*
X118481073Y-106836519D01*
X118469447Y-106845142D01*
X118457031Y-106852583D01*
X118443946Y-106858772D01*
X118430317Y-106863649D01*
X118416276Y-106867166D01*
X118401958Y-106869290D01*
X118387500Y-106870000D01*
X118092500Y-106870000D01*
X118078042Y-106869290D01*
X118063724Y-106867166D01*
X118049683Y-106863649D01*
X118036054Y-106858772D01*
X118022969Y-106852583D01*
X118010553Y-106845142D01*
X117998927Y-106836519D01*
X117988202Y-106826798D01*
X117978481Y-106816073D01*
X117969858Y-106804447D01*
X117962417Y-106792031D01*
X117956228Y-106778946D01*
X117951351Y-106765317D01*
X117947834Y-106751276D01*
X117945710Y-106736958D01*
X117945000Y-106722500D01*
X117945000Y-106377500D01*
X117945710Y-106363042D01*
X117947834Y-106348724D01*
X117951351Y-106334683D01*
X117956228Y-106321054D01*
X117962417Y-106307969D01*
X117969858Y-106295553D01*
X117978481Y-106283927D01*
X117988202Y-106273202D01*
X117998927Y-106263481D01*
X118010553Y-106254858D01*
X118022969Y-106247417D01*
X118036054Y-106241228D01*
X118049683Y-106236351D01*
X118063724Y-106232834D01*
X118078042Y-106230710D01*
X118092500Y-106230000D01*
X118387500Y-106230000D01*
X118401958Y-106230710D01*
G37*
G04 #@! TD.AperFunction*
G04 #@! TA.AperFunction,SMDPad,CuDef*
G36*
X168146958Y-107180710D02*
G01*
X168161276Y-107182834D01*
X168175317Y-107186351D01*
X168188946Y-107191228D01*
X168202031Y-107197417D01*
X168214447Y-107204858D01*
X168226073Y-107213481D01*
X168236798Y-107223202D01*
X168246519Y-107233927D01*
X168255142Y-107245553D01*
X168262583Y-107257969D01*
X168268772Y-107271054D01*
X168273649Y-107284683D01*
X168277166Y-107298724D01*
X168279290Y-107313042D01*
X168280000Y-107327500D01*
X168280000Y-107672500D01*
X168279290Y-107686958D01*
X168277166Y-107701276D01*
X168273649Y-107715317D01*
X168268772Y-107728946D01*
X168262583Y-107742031D01*
X168255142Y-107754447D01*
X168246519Y-107766073D01*
X168236798Y-107776798D01*
X168226073Y-107786519D01*
X168214447Y-107795142D01*
X168202031Y-107802583D01*
X168188946Y-107808772D01*
X168175317Y-107813649D01*
X168161276Y-107817166D01*
X168146958Y-107819290D01*
X168132500Y-107820000D01*
X167837500Y-107820000D01*
X167823042Y-107819290D01*
X167808724Y-107817166D01*
X167794683Y-107813649D01*
X167781054Y-107808772D01*
X167767969Y-107802583D01*
X167755553Y-107795142D01*
X167743927Y-107786519D01*
X167733202Y-107776798D01*
X167723481Y-107766073D01*
X167714858Y-107754447D01*
X167707417Y-107742031D01*
X167701228Y-107728946D01*
X167696351Y-107715317D01*
X167692834Y-107701276D01*
X167690710Y-107686958D01*
X167690000Y-107672500D01*
X167690000Y-107327500D01*
X167690710Y-107313042D01*
X167692834Y-107298724D01*
X167696351Y-107284683D01*
X167701228Y-107271054D01*
X167707417Y-107257969D01*
X167714858Y-107245553D01*
X167723481Y-107233927D01*
X167733202Y-107223202D01*
X167743927Y-107213481D01*
X167755553Y-107204858D01*
X167767969Y-107197417D01*
X167781054Y-107191228D01*
X167794683Y-107186351D01*
X167808724Y-107182834D01*
X167823042Y-107180710D01*
X167837500Y-107180000D01*
X168132500Y-107180000D01*
X168146958Y-107180710D01*
G37*
G04 #@! TD.AperFunction*
G04 #@! TA.AperFunction,SMDPad,CuDef*
G36*
X167176958Y-107180710D02*
G01*
X167191276Y-107182834D01*
X167205317Y-107186351D01*
X167218946Y-107191228D01*
X167232031Y-107197417D01*
X167244447Y-107204858D01*
X167256073Y-107213481D01*
X167266798Y-107223202D01*
X167276519Y-107233927D01*
X167285142Y-107245553D01*
X167292583Y-107257969D01*
X167298772Y-107271054D01*
X167303649Y-107284683D01*
X167307166Y-107298724D01*
X167309290Y-107313042D01*
X167310000Y-107327500D01*
X167310000Y-107672500D01*
X167309290Y-107686958D01*
X167307166Y-107701276D01*
X167303649Y-107715317D01*
X167298772Y-107728946D01*
X167292583Y-107742031D01*
X167285142Y-107754447D01*
X167276519Y-107766073D01*
X167266798Y-107776798D01*
X167256073Y-107786519D01*
X167244447Y-107795142D01*
X167232031Y-107802583D01*
X167218946Y-107808772D01*
X167205317Y-107813649D01*
X167191276Y-107817166D01*
X167176958Y-107819290D01*
X167162500Y-107820000D01*
X166867500Y-107820000D01*
X166853042Y-107819290D01*
X166838724Y-107817166D01*
X166824683Y-107813649D01*
X166811054Y-107808772D01*
X166797969Y-107802583D01*
X166785553Y-107795142D01*
X166773927Y-107786519D01*
X166763202Y-107776798D01*
X166753481Y-107766073D01*
X166744858Y-107754447D01*
X166737417Y-107742031D01*
X166731228Y-107728946D01*
X166726351Y-107715317D01*
X166722834Y-107701276D01*
X166720710Y-107686958D01*
X166720000Y-107672500D01*
X166720000Y-107327500D01*
X166720710Y-107313042D01*
X166722834Y-107298724D01*
X166726351Y-107284683D01*
X166731228Y-107271054D01*
X166737417Y-107257969D01*
X166744858Y-107245553D01*
X166753481Y-107233927D01*
X166763202Y-107223202D01*
X166773927Y-107213481D01*
X166785553Y-107204858D01*
X166797969Y-107197417D01*
X166811054Y-107191228D01*
X166824683Y-107186351D01*
X166838724Y-107182834D01*
X166853042Y-107180710D01*
X166867500Y-107180000D01*
X167162500Y-107180000D01*
X167176958Y-107180710D01*
G37*
G04 #@! TD.AperFunction*
G04 #@! TA.AperFunction,SMDPad,CuDef*
G36*
X170746958Y-107230710D02*
G01*
X170761276Y-107232834D01*
X170775317Y-107236351D01*
X170788946Y-107241228D01*
X170802031Y-107247417D01*
X170814447Y-107254858D01*
X170826073Y-107263481D01*
X170836798Y-107273202D01*
X170846519Y-107283927D01*
X170855142Y-107295553D01*
X170862583Y-107307969D01*
X170868772Y-107321054D01*
X170873649Y-107334683D01*
X170877166Y-107348724D01*
X170879290Y-107363042D01*
X170880000Y-107377500D01*
X170880000Y-107722500D01*
X170879290Y-107736958D01*
X170877166Y-107751276D01*
X170873649Y-107765317D01*
X170868772Y-107778946D01*
X170862583Y-107792031D01*
X170855142Y-107804447D01*
X170846519Y-107816073D01*
X170836798Y-107826798D01*
X170826073Y-107836519D01*
X170814447Y-107845142D01*
X170802031Y-107852583D01*
X170788946Y-107858772D01*
X170775317Y-107863649D01*
X170761276Y-107867166D01*
X170746958Y-107869290D01*
X170732500Y-107870000D01*
X170437500Y-107870000D01*
X170423042Y-107869290D01*
X170408724Y-107867166D01*
X170394683Y-107863649D01*
X170381054Y-107858772D01*
X170367969Y-107852583D01*
X170355553Y-107845142D01*
X170343927Y-107836519D01*
X170333202Y-107826798D01*
X170323481Y-107816073D01*
X170314858Y-107804447D01*
X170307417Y-107792031D01*
X170301228Y-107778946D01*
X170296351Y-107765317D01*
X170292834Y-107751276D01*
X170290710Y-107736958D01*
X170290000Y-107722500D01*
X170290000Y-107377500D01*
X170290710Y-107363042D01*
X170292834Y-107348724D01*
X170296351Y-107334683D01*
X170301228Y-107321054D01*
X170307417Y-107307969D01*
X170314858Y-107295553D01*
X170323481Y-107283927D01*
X170333202Y-107273202D01*
X170343927Y-107263481D01*
X170355553Y-107254858D01*
X170367969Y-107247417D01*
X170381054Y-107241228D01*
X170394683Y-107236351D01*
X170408724Y-107232834D01*
X170423042Y-107230710D01*
X170437500Y-107230000D01*
X170732500Y-107230000D01*
X170746958Y-107230710D01*
G37*
G04 #@! TD.AperFunction*
G04 #@! TA.AperFunction,SMDPad,CuDef*
G36*
X169776958Y-107230710D02*
G01*
X169791276Y-107232834D01*
X169805317Y-107236351D01*
X169818946Y-107241228D01*
X169832031Y-107247417D01*
X169844447Y-107254858D01*
X169856073Y-107263481D01*
X169866798Y-107273202D01*
X169876519Y-107283927D01*
X169885142Y-107295553D01*
X169892583Y-107307969D01*
X169898772Y-107321054D01*
X169903649Y-107334683D01*
X169907166Y-107348724D01*
X169909290Y-107363042D01*
X169910000Y-107377500D01*
X169910000Y-107722500D01*
X169909290Y-107736958D01*
X169907166Y-107751276D01*
X169903649Y-107765317D01*
X169898772Y-107778946D01*
X169892583Y-107792031D01*
X169885142Y-107804447D01*
X169876519Y-107816073D01*
X169866798Y-107826798D01*
X169856073Y-107836519D01*
X169844447Y-107845142D01*
X169832031Y-107852583D01*
X169818946Y-107858772D01*
X169805317Y-107863649D01*
X169791276Y-107867166D01*
X169776958Y-107869290D01*
X169762500Y-107870000D01*
X169467500Y-107870000D01*
X169453042Y-107869290D01*
X169438724Y-107867166D01*
X169424683Y-107863649D01*
X169411054Y-107858772D01*
X169397969Y-107852583D01*
X169385553Y-107845142D01*
X169373927Y-107836519D01*
X169363202Y-107826798D01*
X169353481Y-107816073D01*
X169344858Y-107804447D01*
X169337417Y-107792031D01*
X169331228Y-107778946D01*
X169326351Y-107765317D01*
X169322834Y-107751276D01*
X169320710Y-107736958D01*
X169320000Y-107722500D01*
X169320000Y-107377500D01*
X169320710Y-107363042D01*
X169322834Y-107348724D01*
X169326351Y-107334683D01*
X169331228Y-107321054D01*
X169337417Y-107307969D01*
X169344858Y-107295553D01*
X169353481Y-107283927D01*
X169363202Y-107273202D01*
X169373927Y-107263481D01*
X169385553Y-107254858D01*
X169397969Y-107247417D01*
X169411054Y-107241228D01*
X169424683Y-107236351D01*
X169438724Y-107232834D01*
X169453042Y-107230710D01*
X169467500Y-107230000D01*
X169762500Y-107230000D01*
X169776958Y-107230710D01*
G37*
G04 #@! TD.AperFunction*
D23*
X107610000Y-90900000D03*
D24*
X110150000Y-90900000D03*
X107610000Y-93440000D03*
X110150000Y-93440000D03*
X107610000Y-95980000D03*
X110150000Y-95980000D03*
X107610000Y-98520000D03*
X110150000Y-98520000D03*
X107610000Y-101060000D03*
X110150000Y-101060000D03*
X107610000Y-103600000D03*
X110150000Y-103600000D03*
X107610000Y-106140000D03*
X110150000Y-106140000D03*
D25*
X115200000Y-104100000D03*
X127900000Y-104050000D03*
X134300000Y-104050000D03*
X136850000Y-104050000D03*
X169000000Y-95275000D03*
X170250000Y-91550000D03*
X139900000Y-97150000D03*
X139900000Y-96350000D03*
X129146500Y-88570000D03*
X142150000Y-89450000D03*
X138800000Y-93700000D03*
X144500000Y-95000000D03*
X166750000Y-96600000D03*
X168100000Y-95500000D03*
X146550000Y-105850000D03*
X171500000Y-107300000D03*
X143900000Y-106500000D03*
X140400000Y-110000000D03*
X143900000Y-110000000D03*
X138050000Y-104650000D03*
X114319276Y-89120339D03*
X112300000Y-87500000D03*
X122500000Y-106550000D03*
X126875000Y-106525000D03*
X137475000Y-109200000D03*
X146900000Y-108300000D03*
X164500000Y-108300000D03*
X164400000Y-91800000D03*
X147000000Y-91800000D03*
X164500000Y-101700000D03*
X141200000Y-94650000D03*
X140400000Y-94650000D03*
X116954500Y-87109500D03*
X117780000Y-87300000D03*
X140400000Y-98950000D03*
X141200000Y-98950000D03*
X130300000Y-104600000D03*
X129500000Y-104600000D03*
X116475000Y-87969500D03*
X124100000Y-104050000D03*
X138800000Y-90400000D03*
X168800000Y-107550000D03*
X116475000Y-104075000D03*
X145600000Y-105960000D03*
X119000000Y-87950000D03*
X165450000Y-93350000D03*
X131400000Y-89800000D03*
X170250000Y-94475000D03*
X120300000Y-87950000D03*
X167850000Y-92650000D03*
X131100000Y-88900000D03*
X121550000Y-87950000D03*
X122850000Y-87950000D03*
X146350000Y-97700000D03*
X126600000Y-104050000D03*
X165500000Y-103300000D03*
X142150000Y-93350000D03*
X132900000Y-108550000D03*
X133700000Y-108550000D03*
X117766888Y-104066888D03*
X143700000Y-97650000D03*
X125450000Y-104049999D03*
X145200000Y-92300000D03*
X124100000Y-87950000D03*
X138800000Y-91300000D03*
X167850000Y-91800000D03*
X171525000Y-95275000D03*
X168042169Y-96491213D03*
X146500000Y-95300000D03*
X143750000Y-99500000D03*
X142950000Y-99500000D03*
X136775000Y-107550000D03*
X137075000Y-108225000D03*
X165150000Y-104150000D03*
X165150000Y-104950000D03*
X122825000Y-104075000D03*
X111437598Y-88537598D03*
X138750000Y-96500000D03*
X110925000Y-87675000D03*
X143200000Y-94000000D03*
X120275000Y-104075000D03*
X112200000Y-108300000D03*
X112200000Y-109100000D03*
D26*
X115205000Y-104095000D02*
X115200000Y-104100000D01*
D27*
X115200000Y-102245000D02*
X115205000Y-102250000D01*
X115200000Y-102255000D02*
X115205000Y-102250000D01*
D26*
X115200000Y-104100000D02*
X115200000Y-102255000D01*
D27*
X127905000Y-104045000D02*
X127900000Y-104050000D01*
X127905000Y-102250000D02*
X127905000Y-104045000D01*
X134285000Y-104035000D02*
X134300000Y-104050000D01*
X134285000Y-102250000D02*
X134285000Y-104035000D01*
X136825000Y-104025000D02*
X136850000Y-104050000D01*
X136825000Y-102250000D02*
X136825000Y-104025000D01*
X127905000Y-89750000D02*
X127905000Y-88995000D01*
X169765000Y-95275000D02*
X169000000Y-95275000D01*
D28*
X169750000Y-94146198D02*
X169689999Y-94206199D01*
X169750000Y-93775000D02*
X169750000Y-94146198D01*
X169689999Y-94206199D02*
X169689999Y-94743801D01*
X169765000Y-94818802D02*
X169765000Y-95275000D01*
X169689999Y-94743801D02*
X169765000Y-94818802D01*
X170250000Y-92235000D02*
X170250000Y-91550000D01*
D29*
X140800000Y-96750000D02*
X140800000Y-97050000D01*
X140800000Y-97050000D02*
X140700000Y-97150000D01*
X140800000Y-96750000D02*
X140800000Y-96450000D01*
X140800000Y-96450000D02*
X140700000Y-96350000D01*
X140800000Y-96750000D02*
X140400000Y-96750000D01*
D28*
X140300000Y-97150000D02*
X140700000Y-97150000D01*
X140300000Y-96350000D02*
X140700000Y-96350000D01*
X140300000Y-97150000D02*
X139900000Y-97150000D01*
X140300000Y-96350000D02*
X139900000Y-96350000D01*
X140300000Y-96750000D02*
X139900000Y-97150000D01*
X140300000Y-96750000D02*
X139900000Y-96350000D01*
X140300000Y-96750000D02*
X140400000Y-96750000D01*
D30*
X127905000Y-89750000D02*
X126635000Y-89750000D01*
X127855500Y-88570000D02*
X129146500Y-88570000D01*
D28*
X142150000Y-89350000D02*
X142150000Y-89250000D01*
X139565000Y-93700000D02*
X138800000Y-93700000D01*
X144500000Y-95815000D02*
X144500000Y-95050000D01*
X145550000Y-95815000D02*
X145550000Y-95150000D01*
X145450000Y-95050000D02*
X144500000Y-95050000D01*
X145550000Y-95150000D02*
X145450000Y-95050000D01*
D31*
X166435000Y-96915000D02*
X166750000Y-96600000D01*
X165850000Y-96915000D02*
X166435000Y-96915000D01*
X167335000Y-96015000D02*
X166750000Y-96600000D01*
X167335000Y-95800000D02*
X167335000Y-96015000D01*
X168237500Y-95362500D02*
X168100000Y-95500000D01*
X168237500Y-94350000D02*
X168237500Y-95362500D01*
X167800000Y-95800000D02*
X168100000Y-95500000D01*
X167335000Y-95800000D02*
X167800000Y-95800000D01*
X163750000Y-100770000D02*
X164480000Y-100770000D01*
X164480000Y-100770000D02*
X164600000Y-100650000D01*
X148250000Y-105850000D02*
X146550000Y-105850000D01*
D28*
X171250000Y-107550000D02*
X171500000Y-107300000D01*
X170585000Y-107550000D02*
X171250000Y-107550000D01*
X171500000Y-106300000D02*
X171500000Y-107300000D01*
X143192983Y-107207017D02*
X143900000Y-106500000D01*
X141107017Y-109292983D02*
X140400000Y-110000000D01*
X143210660Y-109310660D02*
X143900000Y-110000000D01*
X137596985Y-105103015D02*
X138050000Y-104650000D01*
D30*
X139900000Y-96350000D02*
X139900000Y-97150000D01*
D28*
X142150000Y-90400000D02*
X142150000Y-89450000D01*
D26*
X115205000Y-89750000D02*
X115205000Y-88905000D01*
D27*
X115205000Y-89750000D02*
X115205000Y-89205000D01*
D26*
X115205000Y-89750000D02*
X115205000Y-89255000D01*
X115205000Y-89750000D02*
X115205000Y-89305000D01*
X115020339Y-89120339D02*
X114319276Y-89120339D01*
X115205000Y-89305000D02*
X115020339Y-89120339D01*
X113362500Y-87500000D02*
X112300000Y-87500000D01*
D28*
X121735000Y-108985000D02*
X122000000Y-109250000D01*
X121735000Y-106550000D02*
X121735000Y-108985000D01*
X121735000Y-106550000D02*
X122500000Y-106550000D01*
D26*
X127175000Y-106825000D02*
X126875000Y-106525000D01*
X127900000Y-106825000D02*
X127175000Y-106825000D01*
D28*
X137475000Y-109940000D02*
X137475000Y-109200000D01*
D26*
X163750000Y-100770000D02*
X164270000Y-100770000D01*
X164500000Y-101000000D02*
X164500000Y-101700000D01*
X164270000Y-100770000D02*
X164500000Y-101000000D01*
D29*
X140800000Y-95750000D02*
X140500000Y-95750000D01*
X140500000Y-95750000D02*
X140400000Y-95650000D01*
X140800000Y-95750000D02*
X141100000Y-95750000D01*
X141100000Y-95750000D02*
X141200000Y-95650000D01*
X140800000Y-95750000D02*
X140800000Y-95350000D01*
D32*
X140800000Y-95350000D02*
X140800000Y-95150000D01*
D28*
X140800000Y-95050000D02*
X140800000Y-95350000D01*
X141200000Y-95650000D02*
X141200000Y-94650000D01*
X140400000Y-95650000D02*
X140400000Y-94650000D01*
X117745000Y-89750000D02*
X117745000Y-88795000D01*
D30*
X117745000Y-87335000D02*
X117780000Y-87300000D01*
X117745000Y-89750000D02*
X117745000Y-87335000D01*
X117126196Y-87300000D02*
X116953103Y-87126907D01*
X117780000Y-87300000D02*
X117126196Y-87300000D01*
D28*
X140800000Y-95050000D02*
X141200000Y-94650000D01*
X140400000Y-94650000D02*
X140800000Y-95050000D01*
D30*
X140400000Y-94650000D02*
X141200000Y-94650000D01*
D33*
X114937500Y-87500000D02*
X115800000Y-87500000D01*
X116190500Y-87109500D02*
X116954500Y-87109500D01*
X115800000Y-87500000D02*
X116190500Y-87109500D01*
X112624990Y-88425010D02*
X110150000Y-90900000D01*
X114012490Y-88425010D02*
X112624990Y-88425010D01*
X114937500Y-87500000D02*
X114012490Y-88425010D01*
D28*
X118000000Y-109250000D02*
X118000000Y-108125000D01*
X119210000Y-106550000D02*
X120025000Y-106550000D01*
X120025000Y-106550000D02*
X120765000Y-106550000D01*
X118000000Y-108325000D02*
X119210000Y-107115000D01*
X119210000Y-107115000D02*
X119210000Y-106550000D01*
X118000000Y-109250000D02*
X118000000Y-108325000D01*
D31*
X163860000Y-95800000D02*
X163750000Y-95690000D01*
X166365000Y-95800000D02*
X163860000Y-95800000D01*
X163750000Y-98230000D02*
X164620000Y-98230000D01*
D30*
X163750000Y-98230000D02*
X163750000Y-95690000D01*
X163750000Y-94390000D02*
X163750000Y-95690000D01*
X163790000Y-94350000D02*
X163750000Y-94390000D01*
X166362500Y-94350000D02*
X163790000Y-94350000D01*
X163750000Y-98230000D02*
X164280000Y-98230000D01*
X167050000Y-103450000D02*
X167050000Y-106300000D01*
X165500000Y-101900000D02*
X167050000Y-103450000D01*
X165500000Y-101254938D02*
X165500000Y-101900000D01*
X165550010Y-101204928D02*
X165500000Y-101254938D01*
X165550010Y-99000010D02*
X165550010Y-101204928D01*
X163750000Y-98230000D02*
X164780000Y-98230000D01*
D31*
X165530000Y-98500000D02*
X165050000Y-98500000D01*
X165850000Y-98180000D02*
X165530000Y-98500000D01*
X165850000Y-97885000D02*
X165850000Y-98180000D01*
D30*
X165050000Y-98500000D02*
X165550010Y-99000010D01*
X164780000Y-98230000D02*
X165050000Y-98500000D01*
D26*
X130112500Y-106787500D02*
X131400000Y-106787500D01*
X128720000Y-108180000D02*
X130112500Y-106787500D01*
X128720000Y-110000000D02*
X128720000Y-108180000D01*
D28*
X135555000Y-102250000D02*
X135555000Y-104245000D01*
X138499340Y-107189340D02*
X141089340Y-107189340D01*
X135555000Y-104245000D02*
X138499340Y-107189340D01*
D29*
X140800000Y-97750000D02*
X140500000Y-97750000D01*
X140500000Y-97750000D02*
X140400000Y-97850000D01*
X140800000Y-97750000D02*
X141100000Y-97750000D01*
X141100000Y-97750000D02*
X141200000Y-97850000D01*
X140800000Y-97750000D02*
X140800000Y-98150000D01*
X141600000Y-97750000D02*
X141100000Y-97750000D01*
X142400000Y-95750000D02*
X142400000Y-96750000D01*
X142400000Y-96750000D02*
X142400000Y-97750000D01*
X142400000Y-97750000D02*
X141600000Y-97750000D01*
D28*
X141200000Y-97850000D02*
X141200000Y-98950000D01*
X140400000Y-98950000D02*
X140400000Y-97850000D01*
X140800000Y-98350000D02*
X140800000Y-98500000D01*
X140800000Y-98500000D02*
X140950000Y-98650000D01*
X140800000Y-98500000D02*
X140650000Y-98650000D01*
X140800000Y-98500000D02*
X140800000Y-98650000D01*
X140800000Y-98350000D02*
X140800000Y-98150000D01*
D30*
X140012500Y-99337500D02*
X140400000Y-98950000D01*
X140012500Y-100250000D02*
X140012500Y-99337500D01*
X140012500Y-101637500D02*
X139900000Y-101750000D01*
X140012500Y-100250000D02*
X140012500Y-101637500D01*
D28*
X141515000Y-98635000D02*
X141200000Y-98950000D01*
X144500000Y-98635000D02*
X141515000Y-98635000D01*
D30*
X140400000Y-98950000D02*
X141200000Y-98950000D01*
D26*
X116475000Y-89750000D02*
X116475000Y-87969500D01*
X121555000Y-104580000D02*
X121555000Y-102250000D01*
X121900000Y-104925000D02*
X127900000Y-104925000D01*
X121555000Y-104580000D02*
X121900000Y-104925000D01*
D10*
X124095000Y-104045000D02*
X124100000Y-104050000D01*
D28*
X139950000Y-90400000D02*
X138800000Y-90400000D01*
X124100000Y-102255000D02*
X124095000Y-102250000D01*
X124100000Y-104050000D02*
X124100000Y-102255000D01*
X169615000Y-106315000D02*
X169600000Y-106300000D01*
X169615000Y-107550000D02*
X169615000Y-106315000D01*
X169615000Y-107550000D02*
X168800000Y-107550000D01*
X116475000Y-102250000D02*
X116475000Y-104075000D01*
X119015000Y-102250000D02*
X119015000Y-104735000D01*
X118240000Y-105510000D02*
X118240000Y-106550000D01*
X119015000Y-104735000D02*
X118240000Y-105510000D01*
D27*
X119015000Y-87965000D02*
X119000000Y-87950000D01*
D26*
X119015000Y-89750000D02*
X119015000Y-87965000D01*
D28*
X167780010Y-93330010D02*
X167860020Y-93250000D01*
X166180010Y-93330010D02*
X167780010Y-93330010D01*
X166100000Y-93250000D02*
X166180010Y-93330010D01*
X166100000Y-92785000D02*
X166100000Y-93250000D01*
X168675000Y-93250000D02*
X168950000Y-93250000D01*
X168950000Y-93250000D02*
X169735000Y-93250000D01*
X167860020Y-93250000D02*
X168250000Y-93250000D01*
X168250000Y-93250000D02*
X168675000Y-93250000D01*
X165469990Y-93330010D02*
X165450000Y-93350000D01*
X166180010Y-93330010D02*
X165469990Y-93330010D01*
X170250000Y-93765000D02*
X170250000Y-94475000D01*
D27*
X120285000Y-87965000D02*
X120300000Y-87950000D01*
D26*
X120285000Y-89750000D02*
X120285000Y-87965000D01*
D28*
X167715000Y-92785000D02*
X167850000Y-92650000D01*
X167050000Y-92785000D02*
X167715000Y-92785000D01*
D27*
X121555000Y-87955000D02*
X121550000Y-87950000D01*
D26*
X121555000Y-89750000D02*
X121555000Y-87955000D01*
D27*
X122825000Y-87975000D02*
X122850000Y-87950000D01*
D26*
X122825000Y-89750000D02*
X122825000Y-87975000D01*
D28*
X145550000Y-96785000D02*
X145550000Y-97680000D01*
X146330000Y-97680000D02*
X146350000Y-97700000D01*
X145550000Y-97680000D02*
X146330000Y-97680000D01*
X126600000Y-102285000D02*
X126635000Y-102250000D01*
X126600000Y-104050000D02*
X126600000Y-102285000D01*
X142150000Y-92300000D02*
X143465000Y-92300000D01*
X165490000Y-103310000D02*
X165500000Y-103300000D01*
X163750000Y-103310000D02*
X165490000Y-103310000D01*
X142150000Y-92300000D02*
X142150000Y-93350000D01*
D30*
X108000000Y-106240000D02*
X107900000Y-106140000D01*
X133800000Y-108650000D02*
X133700000Y-108550000D01*
X133600000Y-109250000D02*
X133800000Y-109250000D01*
X132900000Y-108550000D02*
X133600000Y-109250000D01*
X133800000Y-109250000D02*
X133800000Y-108650000D01*
X133800000Y-109900000D02*
X133800000Y-109250000D01*
X132900000Y-108550000D02*
X133700000Y-108550000D01*
X107610000Y-111140000D02*
X107550000Y-111200000D01*
X107610000Y-108490000D02*
X107620000Y-108500000D01*
X107610000Y-106140000D02*
X107610000Y-108490000D01*
X107620000Y-108500000D02*
X109412500Y-108500000D01*
X107610000Y-108490000D02*
X107610000Y-111140000D01*
D28*
X133700000Y-105475000D02*
X133700000Y-108111594D01*
X133700000Y-108111594D02*
X133700000Y-108550000D01*
X133550000Y-105325000D02*
X133700000Y-105475000D01*
X132900000Y-105325000D02*
X133550000Y-105325000D01*
X117745000Y-104045000D02*
X117766888Y-104066888D01*
X117745000Y-102250000D02*
X117745000Y-104045000D01*
X144500000Y-96785000D02*
X144500000Y-97665000D01*
X143715000Y-97665000D02*
X143700000Y-97650000D01*
X144500000Y-97665000D02*
X143715000Y-97665000D01*
X125450000Y-102335000D02*
X125365000Y-102250000D01*
X125450000Y-104049999D02*
X125450000Y-102335000D01*
X144435000Y-92300000D02*
X145200000Y-92300000D01*
X171800000Y-92225000D02*
X171250000Y-92225000D01*
X172000000Y-92425000D02*
X171800000Y-92225000D01*
X172000000Y-94275000D02*
X172000000Y-92425000D01*
X170750000Y-94146198D02*
X170810001Y-94206199D01*
X170750000Y-93765000D02*
X170750000Y-94146198D01*
X170735000Y-94818802D02*
X170735000Y-95275000D01*
X170810001Y-94743801D02*
X170735000Y-94818802D01*
X171810001Y-94464999D02*
X172000000Y-94275000D01*
X170810001Y-94464999D02*
X171810001Y-94464999D01*
X170810001Y-94206199D02*
X170810001Y-94464999D01*
X170810001Y-94464999D02*
X170810001Y-94743801D01*
D27*
X124095000Y-87955000D02*
X124100000Y-87950000D01*
D26*
X124095000Y-89750000D02*
X124095000Y-87955000D01*
D28*
X139950000Y-92300000D02*
X139950000Y-92825000D01*
X140535000Y-93700000D02*
X140535000Y-93235000D01*
X140535000Y-93235000D02*
X140350000Y-93050000D01*
X140175000Y-93050000D02*
X139950000Y-92825000D01*
X140350000Y-93050000D02*
X140175000Y-93050000D01*
D26*
X138800000Y-91300000D02*
X138800000Y-92250000D01*
X138850000Y-92300000D02*
X139950000Y-92300000D01*
X138800000Y-92250000D02*
X138850000Y-92300000D01*
D28*
X166100000Y-91815000D02*
X167050000Y-91815000D01*
D10*
X144435000Y-92300000D02*
X144435000Y-91350000D01*
D28*
X167050000Y-91815000D02*
X167835000Y-91815000D01*
X167835000Y-91815000D02*
X167850000Y-91800000D01*
D26*
X170735000Y-95275000D02*
X171525000Y-95275000D01*
D30*
X142800000Y-101750000D02*
X143750000Y-100800000D01*
X141800000Y-101750000D02*
X142800000Y-101750000D01*
D28*
X145550000Y-98650000D02*
X145550000Y-99450000D01*
X145500000Y-99500000D02*
X143750000Y-99500000D01*
X145550000Y-99450000D02*
X145500000Y-99500000D01*
D30*
X165300000Y-104300000D02*
X165150000Y-104150000D01*
X166100000Y-104300000D02*
X165300000Y-104300000D01*
D28*
X165459999Y-105259999D02*
X165150000Y-104950000D01*
X165459999Y-106239999D02*
X165459999Y-105259999D01*
X166720000Y-107500000D02*
X165459999Y-106239999D01*
X167015000Y-107500000D02*
X166720000Y-107500000D01*
D26*
X131260000Y-108865000D02*
X131260000Y-110000000D01*
X132900000Y-107225000D02*
X131260000Y-108865000D01*
D30*
X136475000Y-108825000D02*
X137075000Y-108225000D01*
X136250000Y-108825000D02*
X136475000Y-108825000D01*
X136775000Y-107550000D02*
X137200000Y-107550000D01*
X137200000Y-107550000D02*
X137200000Y-108225000D01*
X136775000Y-107550000D02*
X136775000Y-108225000D01*
X143200000Y-100250000D02*
X143750000Y-100800000D01*
X141587500Y-100250000D02*
X143200000Y-100250000D01*
X142950000Y-99500000D02*
X143750000Y-99500000D01*
X143750000Y-99500000D02*
X143750000Y-100800000D01*
X165150000Y-104150000D02*
X165150000Y-104950000D01*
D28*
X122825000Y-102250000D02*
X122825000Y-104075000D01*
X145550000Y-90400000D02*
X144435000Y-90400000D01*
X145900000Y-90750000D02*
X145550000Y-90400000D01*
X145900000Y-92600000D02*
X145900000Y-90750000D01*
X145000000Y-93500000D02*
X145900000Y-92600000D01*
X143700000Y-93500000D02*
X145000000Y-93500000D01*
X143200000Y-94000000D02*
X143700000Y-93500000D01*
X136435000Y-110910000D02*
X136250000Y-110725000D01*
X137475000Y-110910000D02*
X136435000Y-110910000D01*
X134900000Y-106275000D02*
X134900000Y-108525000D01*
X135600000Y-110725000D02*
X135300000Y-110425000D01*
X136250000Y-110725000D02*
X135600000Y-110725000D01*
X135300000Y-108925000D02*
X134900000Y-108525000D01*
X135300000Y-110425000D02*
X135300000Y-108925000D01*
D26*
X130562500Y-105212500D02*
X129900000Y-105875000D01*
X131400000Y-105212500D02*
X130562500Y-105212500D01*
D28*
X167985000Y-104315000D02*
X168000000Y-104300000D01*
X167985000Y-107500000D02*
X167985000Y-104315000D01*
X168000000Y-104300000D02*
X170550000Y-104300000D01*
D30*
X143600000Y-103750000D02*
X143750000Y-103600000D01*
X140850000Y-103750000D02*
X143600000Y-103750000D01*
D10*
X142150000Y-91350000D02*
X143465000Y-91350000D01*
X143465000Y-90400000D02*
X143465000Y-91350000D01*
D28*
X120275000Y-102260000D02*
X120285000Y-102250000D01*
X120275000Y-104075000D02*
X120275000Y-102260000D01*
D30*
X110987500Y-108500000D02*
X112200000Y-108500000D01*
X112200000Y-108500000D02*
X112200000Y-108300000D01*
X112200000Y-108300000D02*
X112200000Y-109100000D01*
M02*
