G04 #@! TF.GenerationSoftware,KiCad,Pcbnew,5.1.5+dfsg1-2build2*
G04 #@! TF.CreationDate,2023-05-02T16:03:32+02:00*
G04 #@! TF.ProjectId,main,6d61696e-2e6b-4696-9361-645f70636258,rev?*
G04 #@! TF.SameCoordinates,Original*
G04 #@! TF.FileFunction,OtherDrawing,Comment*
%FSLAX46Y46*%
G04 Gerber Fmt 4.6, Leading zero omitted, Abs format (unit mm)*
G04 Created by KiCad (PCBNEW 5.1.5+dfsg1-2build2) date 2023-05-02 16:03:32*
%MOMM*%
%LPD*%
G04 APERTURE LIST*
%ADD10C,0.150000*%
%ADD11C,0.100000*%
%ADD12C,0.050000*%
%ADD13C,0.127000*%
G04 APERTURE END LIST*
D10*
X171100000Y-100000000D02*
G75*
G03X171100000Y-100000000I-1100000J0D01*
G01*
X101100000Y-100000000D02*
G75*
G03X101100000Y-100000000I-1100000J0D01*
G01*
X97000000Y-93000000D02*
X97000000Y-107000000D01*
X104500000Y-85500000D02*
X104500000Y-93000000D01*
X104500000Y-114500000D02*
X104500000Y-107000000D01*
X104500000Y-107000000D02*
X97000000Y-107000000D01*
X104500000Y-93000000D02*
X97000000Y-93000000D01*
X104500000Y-114500000D02*
X173000000Y-109000000D01*
X173000000Y-91000000D02*
X173000000Y-109000000D01*
X104500000Y-85500000D02*
X173000000Y-91000000D01*
D11*
X105050000Y-109600000D02*
X105050000Y-113400000D01*
X105050000Y-113400000D02*
X112550000Y-113400000D01*
X112550000Y-113400000D02*
X112550000Y-109600000D01*
X112550000Y-109600000D02*
X105050000Y-109600000D01*
D12*
X132825000Y-100950000D02*
X136825000Y-100950000D01*
X136825000Y-100950000D02*
X136825000Y-96950000D01*
X136825000Y-96950000D02*
X132825000Y-96950000D01*
X132825000Y-96950000D02*
X132825000Y-100950000D01*
X133325000Y-100950000D02*
X132825000Y-100450000D01*
X133825000Y-100950000D02*
X132825000Y-99950000D01*
X134325000Y-100950000D02*
X132825000Y-99450000D01*
X134825000Y-100950000D02*
X132825000Y-98950000D01*
X135325000Y-100950000D02*
X132825000Y-98450000D01*
X135825000Y-100950000D02*
X132825000Y-97950000D01*
X136325000Y-100950000D02*
X132825000Y-97450000D01*
X136825000Y-100950000D02*
X132825000Y-96950000D01*
X136825000Y-100450000D02*
X133325000Y-96950000D01*
X136825000Y-99950000D02*
X133825000Y-96950000D01*
X136825000Y-99450000D02*
X134325000Y-96950000D01*
X136825000Y-98950000D02*
X134825000Y-96950000D01*
X136825000Y-98450000D02*
X135325000Y-96950000D01*
X136825000Y-97950000D02*
X135825000Y-96950000D01*
X136825000Y-97450000D02*
X136325000Y-96950000D01*
D13*
X138065000Y-89650000D02*
X112665000Y-89650000D01*
X138065000Y-89650000D02*
X138065000Y-102350000D01*
X138065000Y-102350000D02*
X112665000Y-102350000D01*
X112665000Y-102350000D02*
X112665000Y-89650000D01*
D10*
X109866666Y-108428571D02*
X109533333Y-108428571D01*
X109533333Y-108952380D02*
X109533333Y-107952380D01*
X110009523Y-107952380D01*
X110914285Y-108952380D02*
X110342857Y-108952380D01*
X110628571Y-108952380D02*
X110628571Y-107952380D01*
X110533333Y-108095238D01*
X110438095Y-108190476D01*
X110342857Y-108238095D01*
X121166666Y-100457142D02*
X121214285Y-100504761D01*
X121357142Y-100552380D01*
X121452380Y-100552380D01*
X121595238Y-100504761D01*
X121690476Y-100409523D01*
X121738095Y-100314285D01*
X121785714Y-100123809D01*
X121785714Y-99980952D01*
X121738095Y-99790476D01*
X121690476Y-99695238D01*
X121595238Y-99600000D01*
X121452380Y-99552380D01*
X121357142Y-99552380D01*
X121214285Y-99600000D01*
X121166666Y-99647619D01*
X120214285Y-100552380D02*
X120785714Y-100552380D01*
X120500000Y-100552380D02*
X120500000Y-99552380D01*
X120595238Y-99695238D01*
X120690476Y-99790476D01*
X120785714Y-99838095D01*
X118666666Y-109604761D02*
X118809523Y-109652380D01*
X119047619Y-109652380D01*
X119142857Y-109604761D01*
X119190476Y-109557142D01*
X119238095Y-109461904D01*
X119238095Y-109366666D01*
X119190476Y-109271428D01*
X119142857Y-109223809D01*
X119047619Y-109176190D01*
X118857142Y-109128571D01*
X118761904Y-109080952D01*
X118714285Y-109033333D01*
X118666666Y-108938095D01*
X118666666Y-108842857D01*
X118714285Y-108747619D01*
X118761904Y-108700000D01*
X118857142Y-108652380D01*
X119095238Y-108652380D01*
X119238095Y-108700000D01*
X119571428Y-108652380D02*
X119809523Y-109652380D01*
X120000000Y-108938095D01*
X120190476Y-109652380D01*
X120428571Y-108652380D01*
X121333333Y-109652380D02*
X120761904Y-109652380D01*
X121047619Y-109652380D02*
X121047619Y-108652380D01*
X120952380Y-108795238D01*
X120857142Y-108890476D01*
X120761904Y-108938095D01*
X167133333Y-94757142D02*
X167085714Y-94804761D01*
X166942857Y-94852380D01*
X166847619Y-94852380D01*
X166704761Y-94804761D01*
X166609523Y-94709523D01*
X166561904Y-94614285D01*
X166514285Y-94423809D01*
X166514285Y-94280952D01*
X166561904Y-94090476D01*
X166609523Y-93995238D01*
X166704761Y-93900000D01*
X166847619Y-93852380D01*
X166942857Y-93852380D01*
X167085714Y-93900000D01*
X167133333Y-93947619D01*
X167990476Y-93852380D02*
X167800000Y-93852380D01*
X167704761Y-93900000D01*
X167657142Y-93947619D01*
X167561904Y-94090476D01*
X167514285Y-94280952D01*
X167514285Y-94661904D01*
X167561904Y-94757142D01*
X167609523Y-94804761D01*
X167704761Y-94852380D01*
X167895238Y-94852380D01*
X167990476Y-94804761D01*
X168038095Y-94757142D01*
X168085714Y-94661904D01*
X168085714Y-94423809D01*
X168038095Y-94328571D01*
X167990476Y-94280952D01*
X167895238Y-94233333D01*
X167704761Y-94233333D01*
X167609523Y-94280952D01*
X167561904Y-94328571D01*
X167514285Y-94423809D01*
X113983333Y-87857142D02*
X113935714Y-87904761D01*
X113792857Y-87952380D01*
X113697619Y-87952380D01*
X113554761Y-87904761D01*
X113459523Y-87809523D01*
X113411904Y-87714285D01*
X113364285Y-87523809D01*
X113364285Y-87380952D01*
X113411904Y-87190476D01*
X113459523Y-87095238D01*
X113554761Y-87000000D01*
X113697619Y-86952380D01*
X113792857Y-86952380D01*
X113935714Y-87000000D01*
X113983333Y-87047619D01*
X114316666Y-86952380D02*
X114935714Y-86952380D01*
X114602380Y-87333333D01*
X114745238Y-87333333D01*
X114840476Y-87380952D01*
X114888095Y-87428571D01*
X114935714Y-87523809D01*
X114935714Y-87761904D01*
X114888095Y-87857142D01*
X114840476Y-87904761D01*
X114745238Y-87952380D01*
X114459523Y-87952380D01*
X114364285Y-87904761D01*
X114316666Y-87857142D01*
X108416666Y-112052380D02*
X108416666Y-112766666D01*
X108369047Y-112909523D01*
X108273809Y-113004761D01*
X108130952Y-113052380D01*
X108035714Y-113052380D01*
X109416666Y-113052380D02*
X108845238Y-113052380D01*
X109130952Y-113052380D02*
X109130952Y-112052380D01*
X109035714Y-112195238D01*
X108940476Y-112290476D01*
X108845238Y-112338095D01*
X125238095Y-95702380D02*
X125238095Y-96511904D01*
X125285714Y-96607142D01*
X125333333Y-96654761D01*
X125428571Y-96702380D01*
X125619047Y-96702380D01*
X125714285Y-96654761D01*
X125761904Y-96607142D01*
X125809523Y-96511904D01*
X125809523Y-95702380D01*
X126476190Y-95702380D02*
X126571428Y-95702380D01*
X126666666Y-95750000D01*
X126714285Y-95797619D01*
X126761904Y-95892857D01*
X126809523Y-96083333D01*
X126809523Y-96321428D01*
X126761904Y-96511904D01*
X126714285Y-96607142D01*
X126666666Y-96654761D01*
X126571428Y-96702380D01*
X126476190Y-96702380D01*
X126380952Y-96654761D01*
X126333333Y-96607142D01*
X126285714Y-96511904D01*
X126238095Y-96321428D01*
X126238095Y-96083333D01*
X126285714Y-95892857D01*
X126333333Y-95797619D01*
X126380952Y-95750000D01*
X126476190Y-95702380D01*
X154938095Y-99202380D02*
X154938095Y-100011904D01*
X154985714Y-100107142D01*
X155033333Y-100154761D01*
X155128571Y-100202380D01*
X155319047Y-100202380D01*
X155414285Y-100154761D01*
X155461904Y-100107142D01*
X155509523Y-100011904D01*
X155509523Y-99202380D01*
X155890476Y-99202380D02*
X156509523Y-99202380D01*
X156176190Y-99583333D01*
X156319047Y-99583333D01*
X156414285Y-99630952D01*
X156461904Y-99678571D01*
X156509523Y-99773809D01*
X156509523Y-100011904D01*
X156461904Y-100107142D01*
X156414285Y-100154761D01*
X156319047Y-100202380D01*
X156033333Y-100202380D01*
X155938095Y-100154761D01*
X155890476Y-100107142D01*
X129261904Y-110452380D02*
X129261904Y-109452380D01*
X129500000Y-109452380D01*
X129642857Y-109500000D01*
X129738095Y-109595238D01*
X129785714Y-109690476D01*
X129833333Y-109880952D01*
X129833333Y-110023809D01*
X129785714Y-110214285D01*
X129738095Y-110309523D01*
X129642857Y-110404761D01*
X129500000Y-110452380D01*
X129261904Y-110452380D01*
X130785714Y-110452380D02*
X130214285Y-110452380D01*
X130500000Y-110452380D02*
X130500000Y-109452380D01*
X130404761Y-109595238D01*
X130309523Y-109690476D01*
X130214285Y-109738095D01*
D11*
X137178781Y-106005076D02*
X136754517Y-105580812D01*
X136855532Y-105479796D01*
X136936345Y-105439390D01*
X137017157Y-105439390D01*
X137077766Y-105459593D01*
X137178781Y-105520203D01*
X137239390Y-105580812D01*
X137300000Y-105681827D01*
X137320203Y-105742436D01*
X137320203Y-105823248D01*
X137279796Y-105904061D01*
X137178781Y-106005076D01*
X137198984Y-105217157D02*
X137198984Y-105176751D01*
X137219187Y-105116142D01*
X137320203Y-105015126D01*
X137380812Y-104994923D01*
X137421218Y-104994923D01*
X137481827Y-105015126D01*
X137522233Y-105055532D01*
X137562639Y-105136345D01*
X137562639Y-105621218D01*
X137825279Y-105358578D01*
D10*
X169638095Y-92452380D02*
X169638095Y-93261904D01*
X169685714Y-93357142D01*
X169733333Y-93404761D01*
X169828571Y-93452380D01*
X170019047Y-93452380D01*
X170114285Y-93404761D01*
X170161904Y-93357142D01*
X170209523Y-93261904D01*
X170209523Y-92452380D01*
X170638095Y-92547619D02*
X170685714Y-92500000D01*
X170780952Y-92452380D01*
X171019047Y-92452380D01*
X171114285Y-92500000D01*
X171161904Y-92547619D01*
X171209523Y-92642857D01*
X171209523Y-92738095D01*
X171161904Y-92880952D01*
X170590476Y-93452380D01*
X171209523Y-93452380D01*
X141477072Y-108248477D02*
X141982148Y-108753553D01*
X142049492Y-108888240D01*
X142049492Y-109022927D01*
X141982148Y-109157614D01*
X141914805Y-109224957D01*
X141746446Y-107979103D02*
X142184179Y-107541370D01*
X142217851Y-108046446D01*
X142318866Y-107945431D01*
X142419881Y-107911759D01*
X142487225Y-107911759D01*
X142588240Y-107945431D01*
X142756599Y-108113790D01*
X142790270Y-108214805D01*
X142790270Y-108282148D01*
X142756599Y-108383164D01*
X142554568Y-108585194D01*
X142453553Y-108618866D01*
X142386209Y-108618866D01*
D11*
X139900000Y-93914285D02*
X139871428Y-93942857D01*
X139785714Y-93971428D01*
X139728571Y-93971428D01*
X139642857Y-93942857D01*
X139585714Y-93885714D01*
X139557142Y-93828571D01*
X139528571Y-93714285D01*
X139528571Y-93628571D01*
X139557142Y-93514285D01*
X139585714Y-93457142D01*
X139642857Y-93400000D01*
X139728571Y-93371428D01*
X139785714Y-93371428D01*
X139871428Y-93400000D01*
X139900000Y-93428571D01*
X140242857Y-93628571D02*
X140185714Y-93600000D01*
X140157142Y-93571428D01*
X140128571Y-93514285D01*
X140128571Y-93485714D01*
X140157142Y-93428571D01*
X140185714Y-93400000D01*
X140242857Y-93371428D01*
X140357142Y-93371428D01*
X140414285Y-93400000D01*
X140442857Y-93428571D01*
X140471428Y-93485714D01*
X140471428Y-93514285D01*
X140442857Y-93571428D01*
X140414285Y-93600000D01*
X140357142Y-93628571D01*
X140242857Y-93628571D01*
X140185714Y-93657142D01*
X140157142Y-93685714D01*
X140128571Y-93742857D01*
X140128571Y-93857142D01*
X140157142Y-93914285D01*
X140185714Y-93942857D01*
X140242857Y-93971428D01*
X140357142Y-93971428D01*
X140414285Y-93942857D01*
X140442857Y-93914285D01*
X140471428Y-93857142D01*
X140471428Y-93742857D01*
X140442857Y-93685714D01*
X140414285Y-93657142D01*
X140357142Y-93628571D01*
D10*
X140238095Y-90752380D02*
X140238095Y-91561904D01*
X140285714Y-91657142D01*
X140333333Y-91704761D01*
X140428571Y-91752380D01*
X140619047Y-91752380D01*
X140714285Y-91704761D01*
X140761904Y-91657142D01*
X140809523Y-91561904D01*
X140809523Y-90752380D01*
X141714285Y-91085714D02*
X141714285Y-91752380D01*
X141476190Y-90704761D02*
X141238095Y-91419047D01*
X141857142Y-91419047D01*
X140804761Y-103147619D02*
X140709523Y-103100000D01*
X140614285Y-103004761D01*
X140471428Y-102861904D01*
X140376190Y-102814285D01*
X140280952Y-102814285D01*
X140328571Y-103052380D02*
X140233333Y-103004761D01*
X140138095Y-102909523D01*
X140090476Y-102719047D01*
X140090476Y-102385714D01*
X140138095Y-102195238D01*
X140233333Y-102100000D01*
X140328571Y-102052380D01*
X140519047Y-102052380D01*
X140614285Y-102100000D01*
X140709523Y-102195238D01*
X140757142Y-102385714D01*
X140757142Y-102719047D01*
X140709523Y-102909523D01*
X140614285Y-103004761D01*
X140519047Y-103052380D01*
X140328571Y-103052380D01*
X141614285Y-102052380D02*
X141423809Y-102052380D01*
X141328571Y-102100000D01*
X141280952Y-102147619D01*
X141185714Y-102290476D01*
X141138095Y-102480952D01*
X141138095Y-102861904D01*
X141185714Y-102957142D01*
X141233333Y-103004761D01*
X141328571Y-103052380D01*
X141519047Y-103052380D01*
X141614285Y-103004761D01*
X141661904Y-102957142D01*
X141709523Y-102861904D01*
X141709523Y-102623809D01*
X141661904Y-102528571D01*
X141614285Y-102480952D01*
X141519047Y-102433333D01*
X141328571Y-102433333D01*
X141233333Y-102480952D01*
X141185714Y-102528571D01*
X141138095Y-102623809D01*
X170404761Y-105847619D02*
X170309523Y-105800000D01*
X170214285Y-105704761D01*
X170071428Y-105561904D01*
X169976190Y-105514285D01*
X169880952Y-105514285D01*
X169928571Y-105752380D02*
X169833333Y-105704761D01*
X169738095Y-105609523D01*
X169690476Y-105419047D01*
X169690476Y-105085714D01*
X169738095Y-104895238D01*
X169833333Y-104800000D01*
X169928571Y-104752380D01*
X170119047Y-104752380D01*
X170214285Y-104800000D01*
X170309523Y-104895238D01*
X170357142Y-105085714D01*
X170357142Y-105419047D01*
X170309523Y-105609523D01*
X170214285Y-105704761D01*
X170119047Y-105752380D01*
X169928571Y-105752380D01*
X171261904Y-104752380D02*
X170785714Y-104752380D01*
X170738095Y-105228571D01*
X170785714Y-105180952D01*
X170880952Y-105133333D01*
X171119047Y-105133333D01*
X171214285Y-105180952D01*
X171261904Y-105228571D01*
X171309523Y-105323809D01*
X171309523Y-105561904D01*
X171261904Y-105657142D01*
X171214285Y-105704761D01*
X171119047Y-105752380D01*
X170880952Y-105752380D01*
X170785714Y-105704761D01*
X170738095Y-105657142D01*
X166904761Y-105747619D02*
X166809523Y-105700000D01*
X166714285Y-105604761D01*
X166571428Y-105461904D01*
X166476190Y-105414285D01*
X166380952Y-105414285D01*
X166428571Y-105652380D02*
X166333333Y-105604761D01*
X166238095Y-105509523D01*
X166190476Y-105319047D01*
X166190476Y-104985714D01*
X166238095Y-104795238D01*
X166333333Y-104700000D01*
X166428571Y-104652380D01*
X166619047Y-104652380D01*
X166714285Y-104700000D01*
X166809523Y-104795238D01*
X166857142Y-104985714D01*
X166857142Y-105319047D01*
X166809523Y-105509523D01*
X166714285Y-105604761D01*
X166619047Y-105652380D01*
X166428571Y-105652380D01*
X167714285Y-104985714D02*
X167714285Y-105652380D01*
X167476190Y-104604761D02*
X167238095Y-105319047D01*
X167857142Y-105319047D01*
X128554761Y-106372619D02*
X128459523Y-106325000D01*
X128364285Y-106229761D01*
X128221428Y-106086904D01*
X128126190Y-106039285D01*
X128030952Y-106039285D01*
X128078571Y-106277380D02*
X127983333Y-106229761D01*
X127888095Y-106134523D01*
X127840476Y-105944047D01*
X127840476Y-105610714D01*
X127888095Y-105420238D01*
X127983333Y-105325000D01*
X128078571Y-105277380D01*
X128269047Y-105277380D01*
X128364285Y-105325000D01*
X128459523Y-105420238D01*
X128507142Y-105610714D01*
X128507142Y-105944047D01*
X128459523Y-106134523D01*
X128364285Y-106229761D01*
X128269047Y-106277380D01*
X128078571Y-106277380D01*
X128840476Y-105277380D02*
X129459523Y-105277380D01*
X129126190Y-105658333D01*
X129269047Y-105658333D01*
X129364285Y-105705952D01*
X129411904Y-105753571D01*
X129459523Y-105848809D01*
X129459523Y-106086904D01*
X129411904Y-106182142D01*
X129364285Y-106229761D01*
X129269047Y-106277380D01*
X128983333Y-106277380D01*
X128888095Y-106229761D01*
X128840476Y-106182142D01*
X133554761Y-106722619D02*
X133459523Y-106675000D01*
X133364285Y-106579761D01*
X133221428Y-106436904D01*
X133126190Y-106389285D01*
X133030952Y-106389285D01*
X133078571Y-106627380D02*
X132983333Y-106579761D01*
X132888095Y-106484523D01*
X132840476Y-106294047D01*
X132840476Y-105960714D01*
X132888095Y-105770238D01*
X132983333Y-105675000D01*
X133078571Y-105627380D01*
X133269047Y-105627380D01*
X133364285Y-105675000D01*
X133459523Y-105770238D01*
X133507142Y-105960714D01*
X133507142Y-106294047D01*
X133459523Y-106484523D01*
X133364285Y-106579761D01*
X133269047Y-106627380D01*
X133078571Y-106627380D01*
X133888095Y-105722619D02*
X133935714Y-105675000D01*
X134030952Y-105627380D01*
X134269047Y-105627380D01*
X134364285Y-105675000D01*
X134411904Y-105722619D01*
X134459523Y-105817857D01*
X134459523Y-105913095D01*
X134411904Y-106055952D01*
X133840476Y-106627380D01*
X134459523Y-106627380D01*
X135354761Y-110322619D02*
X135259523Y-110275000D01*
X135164285Y-110179761D01*
X135021428Y-110036904D01*
X134926190Y-109989285D01*
X134830952Y-109989285D01*
X134878571Y-110227380D02*
X134783333Y-110179761D01*
X134688095Y-110084523D01*
X134640476Y-109894047D01*
X134640476Y-109560714D01*
X134688095Y-109370238D01*
X134783333Y-109275000D01*
X134878571Y-109227380D01*
X135069047Y-109227380D01*
X135164285Y-109275000D01*
X135259523Y-109370238D01*
X135307142Y-109560714D01*
X135307142Y-109894047D01*
X135259523Y-110084523D01*
X135164285Y-110179761D01*
X135069047Y-110227380D01*
X134878571Y-110227380D01*
X136259523Y-110227380D02*
X135688095Y-110227380D01*
X135973809Y-110227380D02*
X135973809Y-109227380D01*
X135878571Y-109370238D01*
X135783333Y-109465476D01*
X135688095Y-109513095D01*
D11*
X137646428Y-110860714D02*
X137360714Y-111060714D01*
X137646428Y-111203571D02*
X137046428Y-111203571D01*
X137046428Y-110975000D01*
X137075000Y-110917857D01*
X137103571Y-110889285D01*
X137160714Y-110860714D01*
X137246428Y-110860714D01*
X137303571Y-110889285D01*
X137332142Y-110917857D01*
X137360714Y-110975000D01*
X137360714Y-111203571D01*
X137646428Y-110289285D02*
X137646428Y-110632142D01*
X137646428Y-110460714D02*
X137046428Y-110460714D01*
X137132142Y-110517857D01*
X137189285Y-110575000D01*
X137217857Y-110632142D01*
X137046428Y-109775000D02*
X137046428Y-109889285D01*
X137075000Y-109946428D01*
X137103571Y-109975000D01*
X137189285Y-110032142D01*
X137303571Y-110060714D01*
X137532142Y-110060714D01*
X137589285Y-110032142D01*
X137617857Y-110003571D01*
X137646428Y-109946428D01*
X137646428Y-109832142D01*
X137617857Y-109775000D01*
X137589285Y-109746428D01*
X137532142Y-109717857D01*
X137389285Y-109717857D01*
X137332142Y-109746428D01*
X137303571Y-109775000D01*
X137275000Y-109832142D01*
X137275000Y-109946428D01*
X137303571Y-110003571D01*
X137332142Y-110032142D01*
X137389285Y-110060714D01*
X143514285Y-91571428D02*
X143314285Y-91285714D01*
X143171428Y-91571428D02*
X143171428Y-90971428D01*
X143400000Y-90971428D01*
X143457142Y-91000000D01*
X143485714Y-91028571D01*
X143514285Y-91085714D01*
X143514285Y-91171428D01*
X143485714Y-91228571D01*
X143457142Y-91257142D01*
X143400000Y-91285714D01*
X143171428Y-91285714D01*
X144085714Y-91571428D02*
X143742857Y-91571428D01*
X143914285Y-91571428D02*
X143914285Y-90971428D01*
X143857142Y-91057142D01*
X143800000Y-91114285D01*
X143742857Y-91142857D01*
X144628571Y-90971428D02*
X144342857Y-90971428D01*
X144314285Y-91257142D01*
X144342857Y-91228571D01*
X144400000Y-91200000D01*
X144542857Y-91200000D01*
X144600000Y-91228571D01*
X144628571Y-91257142D01*
X144657142Y-91314285D01*
X144657142Y-91457142D01*
X144628571Y-91514285D01*
X144600000Y-91542857D01*
X144542857Y-91571428D01*
X144400000Y-91571428D01*
X144342857Y-91542857D01*
X144314285Y-91514285D01*
X143514285Y-92471428D02*
X143314285Y-92185714D01*
X143171428Y-92471428D02*
X143171428Y-91871428D01*
X143400000Y-91871428D01*
X143457142Y-91900000D01*
X143485714Y-91928571D01*
X143514285Y-91985714D01*
X143514285Y-92071428D01*
X143485714Y-92128571D01*
X143457142Y-92157142D01*
X143400000Y-92185714D01*
X143171428Y-92185714D01*
X144085714Y-92471428D02*
X143742857Y-92471428D01*
X143914285Y-92471428D02*
X143914285Y-91871428D01*
X143857142Y-91957142D01*
X143800000Y-92014285D01*
X143742857Y-92042857D01*
X144600000Y-92071428D02*
X144600000Y-92471428D01*
X144457142Y-91842857D02*
X144314285Y-92271428D01*
X144685714Y-92271428D01*
X143900000Y-90721428D02*
X143700000Y-90435714D01*
X143557142Y-90721428D02*
X143557142Y-90121428D01*
X143785714Y-90121428D01*
X143842857Y-90150000D01*
X143871428Y-90178571D01*
X143900000Y-90235714D01*
X143900000Y-90321428D01*
X143871428Y-90378571D01*
X143842857Y-90407142D01*
X143785714Y-90435714D01*
X143557142Y-90435714D01*
X144128571Y-90178571D02*
X144157142Y-90150000D01*
X144214285Y-90121428D01*
X144357142Y-90121428D01*
X144414285Y-90150000D01*
X144442857Y-90178571D01*
X144471428Y-90235714D01*
X144471428Y-90292857D01*
X144442857Y-90378571D01*
X144100000Y-90721428D01*
X144471428Y-90721428D01*
X144771428Y-98585714D02*
X144485714Y-98785714D01*
X144771428Y-98928571D02*
X144171428Y-98928571D01*
X144171428Y-98700000D01*
X144200000Y-98642857D01*
X144228571Y-98614285D01*
X144285714Y-98585714D01*
X144371428Y-98585714D01*
X144428571Y-98614285D01*
X144457142Y-98642857D01*
X144485714Y-98700000D01*
X144485714Y-98928571D01*
X144771428Y-98014285D02*
X144771428Y-98357142D01*
X144771428Y-98185714D02*
X144171428Y-98185714D01*
X144257142Y-98242857D01*
X144314285Y-98300000D01*
X144342857Y-98357142D01*
X144428571Y-97671428D02*
X144400000Y-97728571D01*
X144371428Y-97757142D01*
X144314285Y-97785714D01*
X144285714Y-97785714D01*
X144228571Y-97757142D01*
X144200000Y-97728571D01*
X144171428Y-97671428D01*
X144171428Y-97557142D01*
X144200000Y-97500000D01*
X144228571Y-97471428D01*
X144285714Y-97442857D01*
X144314285Y-97442857D01*
X144371428Y-97471428D01*
X144400000Y-97500000D01*
X144428571Y-97557142D01*
X144428571Y-97671428D01*
X144457142Y-97728571D01*
X144485714Y-97757142D01*
X144542857Y-97785714D01*
X144657142Y-97785714D01*
X144714285Y-97757142D01*
X144742857Y-97728571D01*
X144771428Y-97671428D01*
X144771428Y-97557142D01*
X144742857Y-97500000D01*
X144714285Y-97471428D01*
X144657142Y-97442857D01*
X144542857Y-97442857D01*
X144485714Y-97471428D01*
X144457142Y-97500000D01*
X144428571Y-97557142D01*
X144771428Y-96585714D02*
X144485714Y-96785714D01*
X144771428Y-96928571D02*
X144171428Y-96928571D01*
X144171428Y-96700000D01*
X144200000Y-96642857D01*
X144228571Y-96614285D01*
X144285714Y-96585714D01*
X144371428Y-96585714D01*
X144428571Y-96614285D01*
X144457142Y-96642857D01*
X144485714Y-96700000D01*
X144485714Y-96928571D01*
X144771428Y-96014285D02*
X144771428Y-96357142D01*
X144771428Y-96185714D02*
X144171428Y-96185714D01*
X144257142Y-96242857D01*
X144314285Y-96300000D01*
X144342857Y-96357142D01*
X144171428Y-95814285D02*
X144171428Y-95414285D01*
X144771428Y-95671428D01*
D10*
X144252380Y-102366666D02*
X143776190Y-102700000D01*
X144252380Y-102938095D02*
X143252380Y-102938095D01*
X143252380Y-102557142D01*
X143300000Y-102461904D01*
X143347619Y-102414285D01*
X143442857Y-102366666D01*
X143585714Y-102366666D01*
X143680952Y-102414285D01*
X143728571Y-102461904D01*
X143776190Y-102557142D01*
X143776190Y-102938095D01*
X143252380Y-102033333D02*
X143252380Y-101366666D01*
X144252380Y-101795238D01*
X140938095Y-96052380D02*
X140938095Y-96861904D01*
X140985714Y-96957142D01*
X141033333Y-97004761D01*
X141128571Y-97052380D01*
X141319047Y-97052380D01*
X141414285Y-97004761D01*
X141461904Y-96957142D01*
X141509523Y-96861904D01*
X141509523Y-96052380D01*
X142509523Y-97052380D02*
X141938095Y-97052380D01*
X142223809Y-97052380D02*
X142223809Y-96052380D01*
X142128571Y-96195238D01*
X142033333Y-96290476D01*
X141938095Y-96338095D01*
D11*
X145771428Y-98300000D02*
X145485714Y-98500000D01*
X145771428Y-98642857D02*
X145171428Y-98642857D01*
X145171428Y-98414285D01*
X145200000Y-98357142D01*
X145228571Y-98328571D01*
X145285714Y-98300000D01*
X145371428Y-98300000D01*
X145428571Y-98328571D01*
X145457142Y-98357142D01*
X145485714Y-98414285D01*
X145485714Y-98642857D01*
X145171428Y-97757142D02*
X145171428Y-98042857D01*
X145457142Y-98071428D01*
X145428571Y-98042857D01*
X145400000Y-97985714D01*
X145400000Y-97842857D01*
X145428571Y-97785714D01*
X145457142Y-97757142D01*
X145514285Y-97728571D01*
X145657142Y-97728571D01*
X145714285Y-97757142D01*
X145742857Y-97785714D01*
X145771428Y-97842857D01*
X145771428Y-97985714D01*
X145742857Y-98042857D01*
X145714285Y-98071428D01*
X170100000Y-95514285D02*
X170071428Y-95542857D01*
X169985714Y-95571428D01*
X169928571Y-95571428D01*
X169842857Y-95542857D01*
X169785714Y-95485714D01*
X169757142Y-95428571D01*
X169728571Y-95314285D01*
X169728571Y-95228571D01*
X169757142Y-95114285D01*
X169785714Y-95057142D01*
X169842857Y-95000000D01*
X169928571Y-94971428D01*
X169985714Y-94971428D01*
X170071428Y-95000000D01*
X170100000Y-95028571D01*
X170328571Y-95028571D02*
X170357142Y-95000000D01*
X170414285Y-94971428D01*
X170557142Y-94971428D01*
X170614285Y-95000000D01*
X170642857Y-95028571D01*
X170671428Y-95085714D01*
X170671428Y-95142857D01*
X170642857Y-95228571D01*
X170300000Y-95571428D01*
X170671428Y-95571428D01*
X121065000Y-106764285D02*
X121036428Y-106792857D01*
X120950714Y-106821428D01*
X120893571Y-106821428D01*
X120807857Y-106792857D01*
X120750714Y-106735714D01*
X120722142Y-106678571D01*
X120693571Y-106564285D01*
X120693571Y-106478571D01*
X120722142Y-106364285D01*
X120750714Y-106307142D01*
X120807857Y-106250000D01*
X120893571Y-106221428D01*
X120950714Y-106221428D01*
X121036428Y-106250000D01*
X121065000Y-106278571D01*
X121579285Y-106421428D02*
X121579285Y-106821428D01*
X121436428Y-106192857D02*
X121293571Y-106621428D01*
X121665000Y-106621428D01*
X166700000Y-96014285D02*
X166671428Y-96042857D01*
X166585714Y-96071428D01*
X166528571Y-96071428D01*
X166442857Y-96042857D01*
X166385714Y-95985714D01*
X166357142Y-95928571D01*
X166328571Y-95814285D01*
X166328571Y-95728571D01*
X166357142Y-95614285D01*
X166385714Y-95557142D01*
X166442857Y-95500000D01*
X166528571Y-95471428D01*
X166585714Y-95471428D01*
X166671428Y-95500000D01*
X166700000Y-95528571D01*
X167242857Y-95471428D02*
X166957142Y-95471428D01*
X166928571Y-95757142D01*
X166957142Y-95728571D01*
X167014285Y-95700000D01*
X167157142Y-95700000D01*
X167214285Y-95728571D01*
X167242857Y-95757142D01*
X167271428Y-95814285D01*
X167271428Y-95957142D01*
X167242857Y-96014285D01*
X167214285Y-96042857D01*
X167157142Y-96071428D01*
X167014285Y-96071428D01*
X166957142Y-96042857D01*
X166928571Y-96014285D01*
X166114285Y-97600000D02*
X166142857Y-97628571D01*
X166171428Y-97714285D01*
X166171428Y-97771428D01*
X166142857Y-97857142D01*
X166085714Y-97914285D01*
X166028571Y-97942857D01*
X165914285Y-97971428D01*
X165828571Y-97971428D01*
X165714285Y-97942857D01*
X165657142Y-97914285D01*
X165600000Y-97857142D01*
X165571428Y-97771428D01*
X165571428Y-97714285D01*
X165600000Y-97628571D01*
X165628571Y-97600000D01*
X165571428Y-97400000D02*
X165571428Y-97000000D01*
X166171428Y-97257142D01*
D10*
X104166666Y-99352380D02*
X104166666Y-100066666D01*
X104119047Y-100209523D01*
X104023809Y-100304761D01*
X103880952Y-100352380D01*
X103785714Y-100352380D01*
X104595238Y-99447619D02*
X104642857Y-99400000D01*
X104738095Y-99352380D01*
X104976190Y-99352380D01*
X105071428Y-99400000D01*
X105119047Y-99447619D01*
X105166666Y-99542857D01*
X105166666Y-99638095D01*
X105119047Y-99780952D01*
X104547619Y-100352380D01*
X105166666Y-100352380D01*
D11*
X140800000Y-100471428D02*
X140600000Y-100185714D01*
X140457142Y-100471428D02*
X140457142Y-99871428D01*
X140685714Y-99871428D01*
X140742857Y-99900000D01*
X140771428Y-99928571D01*
X140800000Y-99985714D01*
X140800000Y-100071428D01*
X140771428Y-100128571D01*
X140742857Y-100157142D01*
X140685714Y-100185714D01*
X140457142Y-100185714D01*
X141371428Y-100471428D02*
X141028571Y-100471428D01*
X141200000Y-100471428D02*
X141200000Y-99871428D01*
X141142857Y-99957142D01*
X141085714Y-100014285D01*
X141028571Y-100042857D01*
D10*
X131852380Y-106216666D02*
X131376190Y-106550000D01*
X131852380Y-106788095D02*
X130852380Y-106788095D01*
X130852380Y-106407142D01*
X130900000Y-106311904D01*
X130947619Y-106264285D01*
X131042857Y-106216666D01*
X131185714Y-106216666D01*
X131280952Y-106264285D01*
X131328571Y-106311904D01*
X131376190Y-106407142D01*
X131376190Y-106788095D01*
X130852380Y-105883333D02*
X130852380Y-105264285D01*
X131233333Y-105597619D01*
X131233333Y-105454761D01*
X131280952Y-105359523D01*
X131328571Y-105311904D01*
X131423809Y-105264285D01*
X131661904Y-105264285D01*
X131757142Y-105311904D01*
X131804761Y-105359523D01*
X131852380Y-105454761D01*
X131852380Y-105740476D01*
X131804761Y-105835714D01*
X131757142Y-105883333D01*
D11*
X145871428Y-96400000D02*
X145585714Y-96600000D01*
X145871428Y-96742857D02*
X145271428Y-96742857D01*
X145271428Y-96514285D01*
X145300000Y-96457142D01*
X145328571Y-96428571D01*
X145385714Y-96400000D01*
X145471428Y-96400000D01*
X145528571Y-96428571D01*
X145557142Y-96457142D01*
X145585714Y-96514285D01*
X145585714Y-96742857D01*
X145471428Y-95885714D02*
X145871428Y-95885714D01*
X145242857Y-96028571D02*
X145671428Y-96171428D01*
X145671428Y-95800000D01*
X166371428Y-92400000D02*
X166085714Y-92600000D01*
X166371428Y-92742857D02*
X165771428Y-92742857D01*
X165771428Y-92514285D01*
X165800000Y-92457142D01*
X165828571Y-92428571D01*
X165885714Y-92400000D01*
X165971428Y-92400000D01*
X166028571Y-92428571D01*
X166057142Y-92457142D01*
X166085714Y-92514285D01*
X166085714Y-92742857D01*
X166028571Y-92057142D02*
X166000000Y-92114285D01*
X165971428Y-92142857D01*
X165914285Y-92171428D01*
X165885714Y-92171428D01*
X165828571Y-92142857D01*
X165800000Y-92114285D01*
X165771428Y-92057142D01*
X165771428Y-91942857D01*
X165800000Y-91885714D01*
X165828571Y-91857142D01*
X165885714Y-91828571D01*
X165914285Y-91828571D01*
X165971428Y-91857142D01*
X166000000Y-91885714D01*
X166028571Y-91942857D01*
X166028571Y-92057142D01*
X166057142Y-92114285D01*
X166085714Y-92142857D01*
X166142857Y-92171428D01*
X166257142Y-92171428D01*
X166314285Y-92142857D01*
X166342857Y-92114285D01*
X166371428Y-92057142D01*
X166371428Y-91942857D01*
X166342857Y-91885714D01*
X166314285Y-91857142D01*
X166257142Y-91828571D01*
X166142857Y-91828571D01*
X166085714Y-91857142D01*
X166057142Y-91885714D01*
X166028571Y-91942857D01*
X167371428Y-92400000D02*
X167085714Y-92600000D01*
X167371428Y-92742857D02*
X166771428Y-92742857D01*
X166771428Y-92514285D01*
X166800000Y-92457142D01*
X166828571Y-92428571D01*
X166885714Y-92400000D01*
X166971428Y-92400000D01*
X167028571Y-92428571D01*
X167057142Y-92457142D01*
X167085714Y-92514285D01*
X167085714Y-92742857D01*
X167371428Y-92114285D02*
X167371428Y-92000000D01*
X167342857Y-91942857D01*
X167314285Y-91914285D01*
X167228571Y-91857142D01*
X167114285Y-91828571D01*
X166885714Y-91828571D01*
X166828571Y-91857142D01*
X166800000Y-91885714D01*
X166771428Y-91942857D01*
X166771428Y-92057142D01*
X166800000Y-92114285D01*
X166828571Y-92142857D01*
X166885714Y-92171428D01*
X167028571Y-92171428D01*
X167085714Y-92142857D01*
X167114285Y-92114285D01*
X167142857Y-92057142D01*
X167142857Y-91942857D01*
X167114285Y-91885714D01*
X167085714Y-91857142D01*
X167028571Y-91828571D01*
X118254285Y-106821428D02*
X118054285Y-106535714D01*
X117911428Y-106821428D02*
X117911428Y-106221428D01*
X118140000Y-106221428D01*
X118197142Y-106250000D01*
X118225714Y-106278571D01*
X118254285Y-106335714D01*
X118254285Y-106421428D01*
X118225714Y-106478571D01*
X118197142Y-106507142D01*
X118140000Y-106535714D01*
X117911428Y-106535714D01*
X118825714Y-106821428D02*
X118482857Y-106821428D01*
X118654285Y-106821428D02*
X118654285Y-106221428D01*
X118597142Y-106307142D01*
X118540000Y-106364285D01*
X118482857Y-106392857D01*
X119197142Y-106221428D02*
X119254285Y-106221428D01*
X119311428Y-106250000D01*
X119340000Y-106278571D01*
X119368571Y-106335714D01*
X119397142Y-106450000D01*
X119397142Y-106592857D01*
X119368571Y-106707142D01*
X119340000Y-106764285D01*
X119311428Y-106792857D01*
X119254285Y-106821428D01*
X119197142Y-106821428D01*
X119140000Y-106792857D01*
X119111428Y-106764285D01*
X119082857Y-106707142D01*
X119054285Y-106592857D01*
X119054285Y-106450000D01*
X119082857Y-106335714D01*
X119111428Y-106278571D01*
X119140000Y-106250000D01*
X119197142Y-106221428D01*
X167114285Y-107871428D02*
X166914285Y-107585714D01*
X166771428Y-107871428D02*
X166771428Y-107271428D01*
X167000000Y-107271428D01*
X167057142Y-107300000D01*
X167085714Y-107328571D01*
X167114285Y-107385714D01*
X167114285Y-107471428D01*
X167085714Y-107528571D01*
X167057142Y-107557142D01*
X167000000Y-107585714D01*
X166771428Y-107585714D01*
X167685714Y-107871428D02*
X167342857Y-107871428D01*
X167514285Y-107871428D02*
X167514285Y-107271428D01*
X167457142Y-107357142D01*
X167400000Y-107414285D01*
X167342857Y-107442857D01*
X168257142Y-107871428D02*
X167914285Y-107871428D01*
X168085714Y-107871428D02*
X168085714Y-107271428D01*
X168028571Y-107357142D01*
X167971428Y-107414285D01*
X167914285Y-107442857D01*
X169714285Y-107871428D02*
X169514285Y-107585714D01*
X169371428Y-107871428D02*
X169371428Y-107271428D01*
X169600000Y-107271428D01*
X169657142Y-107300000D01*
X169685714Y-107328571D01*
X169714285Y-107385714D01*
X169714285Y-107471428D01*
X169685714Y-107528571D01*
X169657142Y-107557142D01*
X169600000Y-107585714D01*
X169371428Y-107585714D01*
X170285714Y-107871428D02*
X169942857Y-107871428D01*
X170114285Y-107871428D02*
X170114285Y-107271428D01*
X170057142Y-107357142D01*
X170000000Y-107414285D01*
X169942857Y-107442857D01*
X170514285Y-107328571D02*
X170542857Y-107300000D01*
X170600000Y-107271428D01*
X170742857Y-107271428D01*
X170800000Y-107300000D01*
X170828571Y-107328571D01*
X170857142Y-107385714D01*
X170857142Y-107442857D01*
X170828571Y-107528571D01*
X170485714Y-107871428D01*
X170857142Y-107871428D01*
D10*
X108466666Y-97152380D02*
X108466666Y-97866666D01*
X108419047Y-98009523D01*
X108323809Y-98104761D01*
X108180952Y-98152380D01*
X108085714Y-98152380D01*
X109371428Y-97485714D02*
X109371428Y-98152380D01*
X109133333Y-97104761D02*
X108895238Y-97819047D01*
X109514285Y-97819047D01*
M02*
