G04 #@! TF.GenerationSoftware,KiCad,Pcbnew,5.1.5+dfsg1-2build2*
G04 #@! TF.CreationDate,2023-05-02T16:03:32+02:00*
G04 #@! TF.ProjectId,main,6d61696e-2e6b-4696-9361-645f70636258,rev?*
G04 #@! TF.SameCoordinates,Original*
G04 #@! TF.FileFunction,Legend,Bot*
G04 #@! TF.FilePolarity,Positive*
%FSLAX46Y46*%
G04 Gerber Fmt 4.6, Leading zero omitted, Abs format (unit mm)*
G04 Created by KiCad (PCBNEW 5.1.5+dfsg1-2build2) date 2023-05-02 16:03:32*
%MOMM*%
%LPD*%
G04 APERTURE LIST*
%ADD10C,0.150000*%
%ADD11C,0.100000*%
%ADD12C,0.200000*%
%ADD13C,0.300000*%
%ADD14C,0.750000*%
%ADD15O,1.700000X2.000000*%
%ADD16R,1.800000X1.800000*%
%ADD17C,1.800000*%
%ADD18R,1.700000X1.700000*%
%ADD19O,1.700000X1.700000*%
G04 APERTURE END LIST*
D10*
X108700000Y-89500000D02*
X108600000Y-89500000D01*
X108900000Y-94800000D02*
X108900000Y-89500000D01*
X106300000Y-89500000D02*
X108900000Y-89500000D01*
X106300000Y-94800000D02*
X106300000Y-89500000D01*
D11*
G36*
X108900000Y-97100000D02*
G01*
X106300000Y-97100000D01*
X106300000Y-94800000D01*
X108900000Y-94800000D01*
X108900000Y-97100000D01*
G37*
X108900000Y-97100000D02*
X106300000Y-97100000D01*
X106300000Y-94800000D01*
X108900000Y-94800000D01*
X108900000Y-97100000D01*
D12*
X128242857Y-89278571D02*
X127957142Y-90278571D01*
X127671428Y-89564285D01*
X127385714Y-90278571D01*
X127100000Y-89278571D01*
X126528571Y-90278571D02*
X126528571Y-89278571D01*
X126528571Y-88778571D02*
X126600000Y-88850000D01*
X126528571Y-88921428D01*
X126457142Y-88850000D01*
X126528571Y-88778571D01*
X126528571Y-88921428D01*
X125814285Y-89278571D02*
X125814285Y-90278571D01*
X125814285Y-89421428D02*
X125742857Y-89350000D01*
X125600000Y-89278571D01*
X125385714Y-89278571D01*
X125242857Y-89350000D01*
X125171428Y-89492857D01*
X125171428Y-90278571D01*
X123814285Y-90278571D02*
X123814285Y-88778571D01*
X123814285Y-90207142D02*
X123957142Y-90278571D01*
X124242857Y-90278571D01*
X124385714Y-90207142D01*
X124457142Y-90135714D01*
X124528571Y-89992857D01*
X124528571Y-89564285D01*
X124457142Y-89421428D01*
X124385714Y-89350000D01*
X124242857Y-89278571D01*
X123957142Y-89278571D01*
X123814285Y-89350000D01*
X123100000Y-90278571D02*
X123100000Y-88778571D01*
X123100000Y-89350000D02*
X122957142Y-89278571D01*
X122671428Y-89278571D01*
X122528571Y-89350000D01*
X122457142Y-89421428D01*
X122385714Y-89564285D01*
X122385714Y-89992857D01*
X122457142Y-90135714D01*
X122528571Y-90207142D01*
X122671428Y-90278571D01*
X122957142Y-90278571D01*
X123100000Y-90207142D01*
X121742857Y-90278571D02*
X121742857Y-89278571D01*
X121742857Y-88778571D02*
X121814285Y-88850000D01*
X121742857Y-88921428D01*
X121671428Y-88850000D01*
X121742857Y-88778571D01*
X121742857Y-88921428D01*
X121028571Y-90278571D02*
X121028571Y-89278571D01*
X121028571Y-89564285D02*
X120957142Y-89421428D01*
X120885714Y-89350000D01*
X120742857Y-89278571D01*
X120600000Y-89278571D01*
X119457142Y-90278571D02*
X119457142Y-88778571D01*
X119457142Y-90207142D02*
X119600000Y-90278571D01*
X119885714Y-90278571D01*
X120028571Y-90207142D01*
X120100000Y-90135714D01*
X120171428Y-89992857D01*
X120171428Y-89564285D01*
X120100000Y-89421428D01*
X120028571Y-89350000D01*
X119885714Y-89278571D01*
X119600000Y-89278571D01*
X119457142Y-89350000D01*
X118742857Y-90135714D02*
X118671428Y-90207142D01*
X118742857Y-90278571D01*
X118814285Y-90207142D01*
X118742857Y-90135714D01*
X118742857Y-90278571D01*
X117385714Y-90207142D02*
X117528571Y-90278571D01*
X117814285Y-90278571D01*
X117957142Y-90207142D01*
X118028571Y-90135714D01*
X118100000Y-89992857D01*
X118100000Y-89564285D01*
X118028571Y-89421428D01*
X117957142Y-89350000D01*
X117814285Y-89278571D01*
X117528571Y-89278571D01*
X117385714Y-89350000D01*
X116528571Y-90278571D02*
X116671428Y-90207142D01*
X116742857Y-90135714D01*
X116814285Y-89992857D01*
X116814285Y-89564285D01*
X116742857Y-89421428D01*
X116671428Y-89350000D01*
X116528571Y-89278571D01*
X116314285Y-89278571D01*
X116171428Y-89350000D01*
X116100000Y-89421428D01*
X116028571Y-89564285D01*
X116028571Y-89992857D01*
X116100000Y-90135714D01*
X116171428Y-90207142D01*
X116314285Y-90278571D01*
X116528571Y-90278571D01*
X115385714Y-90278571D02*
X115385714Y-89278571D01*
X115385714Y-89421428D02*
X115314285Y-89350000D01*
X115171428Y-89278571D01*
X114957142Y-89278571D01*
X114814285Y-89350000D01*
X114742857Y-89492857D01*
X114742857Y-90278571D01*
X114742857Y-89492857D02*
X114671428Y-89350000D01*
X114528571Y-89278571D01*
X114314285Y-89278571D01*
X114171428Y-89350000D01*
X114100000Y-89492857D01*
X114100000Y-90278571D01*
D10*
X129500000Y-105950000D02*
X130250000Y-105950000D01*
X129500000Y-94050000D02*
X130250000Y-94050000D01*
X127742857Y-100752380D02*
X128314285Y-100752380D01*
X128028571Y-100752380D02*
X128028571Y-99752380D01*
X128123809Y-99895238D01*
X128219047Y-99990476D01*
X128314285Y-100038095D01*
X126980952Y-100228571D02*
X127314285Y-100228571D01*
X127314285Y-100752380D02*
X127314285Y-99752380D01*
X126838095Y-99752380D01*
X105580952Y-108771428D02*
X104819047Y-108771428D01*
X105200000Y-109152380D02*
X105200000Y-108390476D01*
X112880952Y-108871428D02*
X112119047Y-108871428D01*
X171100000Y-100000000D02*
G75*
G03X171100000Y-100000000I-1100000J0D01*
G01*
X101100000Y-100000000D02*
G75*
G03X101100000Y-100000000I-1100000J0D01*
G01*
X97000000Y-93000000D02*
X97000000Y-107000000D01*
X104500000Y-85500000D02*
X104500000Y-93000000D01*
X104500000Y-114500000D02*
X104500000Y-107000000D01*
X104500000Y-107000000D02*
X97000000Y-107000000D01*
X104500000Y-93000000D02*
X97000000Y-93000000D01*
X104500000Y-114500000D02*
X173000000Y-109000000D01*
X173000000Y-91000000D02*
X173000000Y-109000000D01*
X104500000Y-85500000D02*
X173000000Y-91000000D01*
X148700000Y-91000000D02*
X162700000Y-91000000D01*
X162700000Y-91000000D02*
X162700000Y-109000000D01*
X162700000Y-109000000D02*
X148700000Y-109000000D01*
X148700000Y-109000000D02*
X148700000Y-91000000D01*
D11*
G36*
X129500000Y-93500000D02*
G01*
X129500000Y-91500000D01*
X112500000Y-91500000D01*
X112500000Y-93500000D01*
X129500000Y-93500000D01*
G37*
X129500000Y-93500000D02*
X129500000Y-91500000D01*
X112500000Y-91500000D01*
X112500000Y-93500000D01*
X129500000Y-93500000D01*
D10*
X112500000Y-108500000D02*
X112500000Y-91500000D01*
X129500000Y-108500000D02*
X112500000Y-108500000D01*
X129500000Y-91500000D02*
X129500000Y-108500000D01*
X112500000Y-91500000D02*
X129500000Y-91500000D01*
X159840595Y-92500000D02*
X159935833Y-92452380D01*
X160078690Y-92452380D01*
X160221547Y-92500000D01*
X160316785Y-92595238D01*
X160364404Y-92690476D01*
X160412023Y-92880952D01*
X160412023Y-93023809D01*
X160364404Y-93214285D01*
X160316785Y-93309523D01*
X160221547Y-93404761D01*
X160078690Y-93452380D01*
X159983452Y-93452380D01*
X159840595Y-93404761D01*
X159792976Y-93357142D01*
X159792976Y-93023809D01*
X159983452Y-93023809D01*
X159364404Y-93452380D02*
X159364404Y-92452380D01*
X158792976Y-93452380D01*
X158792976Y-92452380D01*
X158316785Y-93452380D02*
X158316785Y-92452380D01*
X158078690Y-92452380D01*
X157935833Y-92500000D01*
X157840595Y-92595238D01*
X157792976Y-92690476D01*
X157745357Y-92880952D01*
X157745357Y-93023809D01*
X157792976Y-93214285D01*
X157840595Y-93309523D01*
X157935833Y-93404761D01*
X158078690Y-93452380D01*
X158316785Y-93452380D01*
X160412023Y-96904761D02*
X160269166Y-96952380D01*
X160031071Y-96952380D01*
X159935833Y-96904761D01*
X159888214Y-96857142D01*
X159840595Y-96761904D01*
X159840595Y-96666666D01*
X159888214Y-96571428D01*
X159935833Y-96523809D01*
X160031071Y-96476190D01*
X160221547Y-96428571D01*
X160316785Y-96380952D01*
X160364404Y-96333333D01*
X160412023Y-96238095D01*
X160412023Y-96142857D01*
X160364404Y-96047619D01*
X160316785Y-96000000D01*
X160221547Y-95952380D01*
X159983452Y-95952380D01*
X159840595Y-96000000D01*
X158840595Y-96857142D02*
X158888214Y-96904761D01*
X159031071Y-96952380D01*
X159126309Y-96952380D01*
X159269166Y-96904761D01*
X159364404Y-96809523D01*
X159412023Y-96714285D01*
X159459642Y-96523809D01*
X159459642Y-96380952D01*
X159412023Y-96190476D01*
X159364404Y-96095238D01*
X159269166Y-96000000D01*
X159126309Y-95952380D01*
X159031071Y-95952380D01*
X158888214Y-96000000D01*
X158840595Y-96047619D01*
X157935833Y-96952380D02*
X158412023Y-96952380D01*
X158412023Y-95952380D01*
X160412023Y-100404761D02*
X160269166Y-100452380D01*
X160031071Y-100452380D01*
X159935833Y-100404761D01*
X159888214Y-100357142D01*
X159840595Y-100261904D01*
X159840595Y-100166666D01*
X159888214Y-100071428D01*
X159935833Y-100023809D01*
X160031071Y-99976190D01*
X160221547Y-99928571D01*
X160316785Y-99880952D01*
X160364404Y-99833333D01*
X160412023Y-99738095D01*
X160412023Y-99642857D01*
X160364404Y-99547619D01*
X160316785Y-99500000D01*
X160221547Y-99452380D01*
X159983452Y-99452380D01*
X159840595Y-99500000D01*
X159412023Y-100452380D02*
X159412023Y-99452380D01*
X159173928Y-99452380D01*
X159031071Y-99500000D01*
X158935833Y-99595238D01*
X158888214Y-99690476D01*
X158840595Y-99880952D01*
X158840595Y-100023809D01*
X158888214Y-100214285D01*
X158935833Y-100309523D01*
X159031071Y-100404761D01*
X159173928Y-100452380D01*
X159412023Y-100452380D01*
X158459642Y-100166666D02*
X157983452Y-100166666D01*
X158554880Y-100452380D02*
X158221547Y-99452380D01*
X157888214Y-100452380D01*
X159840595Y-106500000D02*
X159935833Y-106452380D01*
X160078690Y-106452380D01*
X160221547Y-106500000D01*
X160316785Y-106595238D01*
X160364404Y-106690476D01*
X160412023Y-106880952D01*
X160412023Y-107023809D01*
X160364404Y-107214285D01*
X160316785Y-107309523D01*
X160221547Y-107404761D01*
X160078690Y-107452380D01*
X159983452Y-107452380D01*
X159840595Y-107404761D01*
X159792976Y-107357142D01*
X159792976Y-107023809D01*
X159983452Y-107023809D01*
X159364404Y-107452380D02*
X159364404Y-106452380D01*
X158792976Y-107452380D01*
X158792976Y-106452380D01*
X158316785Y-107452380D02*
X158316785Y-106452380D01*
X158078690Y-106452380D01*
X157935833Y-106500000D01*
X157840595Y-106595238D01*
X157792976Y-106690476D01*
X157745357Y-106880952D01*
X157745357Y-107023809D01*
X157792976Y-107214285D01*
X157840595Y-107309523D01*
X157935833Y-107404761D01*
X158078690Y-107452380D01*
X158316785Y-107452380D01*
X153083214Y-92500000D02*
X153178452Y-92452380D01*
X153321309Y-92452380D01*
X153464166Y-92500000D01*
X153559404Y-92595238D01*
X153607023Y-92690476D01*
X153654642Y-92880952D01*
X153654642Y-93023809D01*
X153607023Y-93214285D01*
X153559404Y-93309523D01*
X153464166Y-93404761D01*
X153321309Y-93452380D01*
X153226071Y-93452380D01*
X153083214Y-93404761D01*
X153035595Y-93357142D01*
X153035595Y-93023809D01*
X153226071Y-93023809D01*
X152607023Y-93452380D02*
X152607023Y-92452380D01*
X152035595Y-93452380D01*
X152035595Y-92452380D01*
X151559404Y-93452380D02*
X151559404Y-92452380D01*
X151321309Y-92452380D01*
X151178452Y-92500000D01*
X151083214Y-92595238D01*
X151035595Y-92690476D01*
X150987976Y-92880952D01*
X150987976Y-93023809D01*
X151035595Y-93214285D01*
X151083214Y-93309523D01*
X151178452Y-93404761D01*
X151321309Y-93452380D01*
X151559404Y-93452380D01*
X153083214Y-106500000D02*
X153178452Y-106452380D01*
X153321309Y-106452380D01*
X153464166Y-106500000D01*
X153559404Y-106595238D01*
X153607023Y-106690476D01*
X153654642Y-106880952D01*
X153654642Y-107023809D01*
X153607023Y-107214285D01*
X153559404Y-107309523D01*
X153464166Y-107404761D01*
X153321309Y-107452380D01*
X153226071Y-107452380D01*
X153083214Y-107404761D01*
X153035595Y-107357142D01*
X153035595Y-107023809D01*
X153226071Y-107023809D01*
X152607023Y-107452380D02*
X152607023Y-106452380D01*
X152035595Y-107452380D01*
X152035595Y-106452380D01*
X151559404Y-107452380D02*
X151559404Y-106452380D01*
X151321309Y-106452380D01*
X151178452Y-106500000D01*
X151083214Y-106595238D01*
X151035595Y-106690476D01*
X150987976Y-106880952D01*
X150987976Y-107023809D01*
X151035595Y-107214285D01*
X151083214Y-107309523D01*
X151178452Y-107404761D01*
X151321309Y-107452380D01*
X151559404Y-107452380D01*
X153559404Y-99500000D02*
X153654642Y-99452380D01*
X153797500Y-99452380D01*
X153940357Y-99500000D01*
X154035595Y-99595238D01*
X154083214Y-99690476D01*
X154130833Y-99880952D01*
X154130833Y-100023809D01*
X154083214Y-100214285D01*
X154035595Y-100309523D01*
X153940357Y-100404761D01*
X153797500Y-100452380D01*
X153702261Y-100452380D01*
X153559404Y-100404761D01*
X153511785Y-100357142D01*
X153511785Y-100023809D01*
X153702261Y-100023809D01*
X153083214Y-100452380D02*
X153083214Y-99452380D01*
X152702261Y-99452380D01*
X152607023Y-99500000D01*
X152559404Y-99547619D01*
X152511785Y-99642857D01*
X152511785Y-99785714D01*
X152559404Y-99880952D01*
X152607023Y-99928571D01*
X152702261Y-99976190D01*
X153083214Y-99976190D01*
X152083214Y-100452380D02*
X152083214Y-99452380D01*
X151416547Y-99452380D02*
X151226071Y-99452380D01*
X151130833Y-99500000D01*
X151035595Y-99595238D01*
X150987976Y-99785714D01*
X150987976Y-100119047D01*
X151035595Y-100309523D01*
X151130833Y-100404761D01*
X151226071Y-100452380D01*
X151416547Y-100452380D01*
X151511785Y-100404761D01*
X151607023Y-100309523D01*
X151654642Y-100119047D01*
X151654642Y-99785714D01*
X151607023Y-99595238D01*
X151511785Y-99500000D01*
X151416547Y-99452380D01*
X153368928Y-96047619D02*
X153321309Y-96000000D01*
X153226071Y-95952380D01*
X152987976Y-95952380D01*
X152892738Y-96000000D01*
X152845119Y-96047619D01*
X152797500Y-96142857D01*
X152797500Y-96238095D01*
X152845119Y-96380952D01*
X153416547Y-96952380D01*
X152797500Y-96952380D01*
X152511785Y-95952380D02*
X152178452Y-96952380D01*
X151845119Y-95952380D01*
X151035595Y-95952380D02*
X151511785Y-95952380D01*
X151559404Y-96428571D01*
X151511785Y-96380952D01*
X151416547Y-96333333D01*
X151178452Y-96333333D01*
X151083214Y-96380952D01*
X151035595Y-96428571D01*
X150987976Y-96523809D01*
X150987976Y-96761904D01*
X151035595Y-96857142D01*
X151083214Y-96904761D01*
X151178452Y-96952380D01*
X151416547Y-96952380D01*
X151511785Y-96904761D01*
X151559404Y-96857142D01*
D13*
X127642857Y-105238095D02*
X127642857Y-106761904D01*
X128404761Y-106000000D02*
X126880952Y-106000000D01*
X127642857Y-94238095D02*
X127642857Y-95761904D01*
%LPC*%
D10*
G36*
X163749009Y-92002408D02*
G01*
X163797545Y-92009607D01*
X163845142Y-92021530D01*
X163891342Y-92038060D01*
X163935698Y-92059039D01*
X163977785Y-92084265D01*
X164017197Y-92113495D01*
X164053553Y-92146447D01*
X164086505Y-92182803D01*
X164115735Y-92222215D01*
X164140961Y-92264302D01*
X164161940Y-92308658D01*
X164178470Y-92354858D01*
X164190393Y-92402455D01*
X164197592Y-92450991D01*
X164200000Y-92500000D01*
X164200000Y-93500000D01*
X164197592Y-93549009D01*
X164190393Y-93597545D01*
X164178470Y-93645142D01*
X164161940Y-93691342D01*
X164140961Y-93735698D01*
X164115735Y-93777785D01*
X164086505Y-93817197D01*
X164053553Y-93853553D01*
X164017197Y-93886505D01*
X163977785Y-93915735D01*
X163935698Y-93940961D01*
X163891342Y-93961940D01*
X163845142Y-93978470D01*
X163797545Y-93990393D01*
X163749009Y-93997592D01*
X163700000Y-94000000D01*
X161700000Y-94000000D01*
X161650991Y-93997592D01*
X161602455Y-93990393D01*
X161554858Y-93978470D01*
X161508658Y-93961940D01*
X161464302Y-93940961D01*
X161422215Y-93915735D01*
X161382803Y-93886505D01*
X161346447Y-93853553D01*
X161313495Y-93817197D01*
X161284265Y-93777785D01*
X161259039Y-93735698D01*
X161238060Y-93691342D01*
X161221530Y-93645142D01*
X161209607Y-93597545D01*
X161202408Y-93549009D01*
X161200000Y-93500000D01*
X161200000Y-92500000D01*
X161202408Y-92450991D01*
X161209607Y-92402455D01*
X161221530Y-92354858D01*
X161238060Y-92308658D01*
X161259039Y-92264302D01*
X161284265Y-92222215D01*
X161313495Y-92182803D01*
X161346447Y-92146447D01*
X161382803Y-92113495D01*
X161422215Y-92084265D01*
X161464302Y-92059039D01*
X161508658Y-92038060D01*
X161554858Y-92021530D01*
X161602455Y-92009607D01*
X161650991Y-92002408D01*
X161700000Y-92000000D01*
X163700000Y-92000000D01*
X163749009Y-92002408D01*
G37*
G36*
X163749009Y-95502408D02*
G01*
X163797545Y-95509607D01*
X163845142Y-95521530D01*
X163891342Y-95538060D01*
X163935698Y-95559039D01*
X163977785Y-95584265D01*
X164017197Y-95613495D01*
X164053553Y-95646447D01*
X164086505Y-95682803D01*
X164115735Y-95722215D01*
X164140961Y-95764302D01*
X164161940Y-95808658D01*
X164178470Y-95854858D01*
X164190393Y-95902455D01*
X164197592Y-95950991D01*
X164200000Y-96000000D01*
X164200000Y-97000000D01*
X164197592Y-97049009D01*
X164190393Y-97097545D01*
X164178470Y-97145142D01*
X164161940Y-97191342D01*
X164140961Y-97235698D01*
X164115735Y-97277785D01*
X164086505Y-97317197D01*
X164053553Y-97353553D01*
X164017197Y-97386505D01*
X163977785Y-97415735D01*
X163935698Y-97440961D01*
X163891342Y-97461940D01*
X163845142Y-97478470D01*
X163797545Y-97490393D01*
X163749009Y-97497592D01*
X163700000Y-97500000D01*
X161700000Y-97500000D01*
X161650991Y-97497592D01*
X161602455Y-97490393D01*
X161554858Y-97478470D01*
X161508658Y-97461940D01*
X161464302Y-97440961D01*
X161422215Y-97415735D01*
X161382803Y-97386505D01*
X161346447Y-97353553D01*
X161313495Y-97317197D01*
X161284265Y-97277785D01*
X161259039Y-97235698D01*
X161238060Y-97191342D01*
X161221530Y-97145142D01*
X161209607Y-97097545D01*
X161202408Y-97049009D01*
X161200000Y-97000000D01*
X161200000Y-96000000D01*
X161202408Y-95950991D01*
X161209607Y-95902455D01*
X161221530Y-95854858D01*
X161238060Y-95808658D01*
X161259039Y-95764302D01*
X161284265Y-95722215D01*
X161313495Y-95682803D01*
X161346447Y-95646447D01*
X161382803Y-95613495D01*
X161422215Y-95584265D01*
X161464302Y-95559039D01*
X161508658Y-95538060D01*
X161554858Y-95521530D01*
X161602455Y-95509607D01*
X161650991Y-95502408D01*
X161700000Y-95500000D01*
X163700000Y-95500000D01*
X163749009Y-95502408D01*
G37*
G36*
X163749009Y-99002408D02*
G01*
X163797545Y-99009607D01*
X163845142Y-99021530D01*
X163891342Y-99038060D01*
X163935698Y-99059039D01*
X163977785Y-99084265D01*
X164017197Y-99113495D01*
X164053553Y-99146447D01*
X164086505Y-99182803D01*
X164115735Y-99222215D01*
X164140961Y-99264302D01*
X164161940Y-99308658D01*
X164178470Y-99354858D01*
X164190393Y-99402455D01*
X164197592Y-99450991D01*
X164200000Y-99500000D01*
X164200000Y-100500000D01*
X164197592Y-100549009D01*
X164190393Y-100597545D01*
X164178470Y-100645142D01*
X164161940Y-100691342D01*
X164140961Y-100735698D01*
X164115735Y-100777785D01*
X164086505Y-100817197D01*
X164053553Y-100853553D01*
X164017197Y-100886505D01*
X163977785Y-100915735D01*
X163935698Y-100940961D01*
X163891342Y-100961940D01*
X163845142Y-100978470D01*
X163797545Y-100990393D01*
X163749009Y-100997592D01*
X163700000Y-101000000D01*
X161700000Y-101000000D01*
X161650991Y-100997592D01*
X161602455Y-100990393D01*
X161554858Y-100978470D01*
X161508658Y-100961940D01*
X161464302Y-100940961D01*
X161422215Y-100915735D01*
X161382803Y-100886505D01*
X161346447Y-100853553D01*
X161313495Y-100817197D01*
X161284265Y-100777785D01*
X161259039Y-100735698D01*
X161238060Y-100691342D01*
X161221530Y-100645142D01*
X161209607Y-100597545D01*
X161202408Y-100549009D01*
X161200000Y-100500000D01*
X161200000Y-99500000D01*
X161202408Y-99450991D01*
X161209607Y-99402455D01*
X161221530Y-99354858D01*
X161238060Y-99308658D01*
X161259039Y-99264302D01*
X161284265Y-99222215D01*
X161313495Y-99182803D01*
X161346447Y-99146447D01*
X161382803Y-99113495D01*
X161422215Y-99084265D01*
X161464302Y-99059039D01*
X161508658Y-99038060D01*
X161554858Y-99021530D01*
X161602455Y-99009607D01*
X161650991Y-99002408D01*
X161700000Y-99000000D01*
X163700000Y-99000000D01*
X163749009Y-99002408D01*
G37*
G36*
X163749009Y-106002408D02*
G01*
X163797545Y-106009607D01*
X163845142Y-106021530D01*
X163891342Y-106038060D01*
X163935698Y-106059039D01*
X163977785Y-106084265D01*
X164017197Y-106113495D01*
X164053553Y-106146447D01*
X164086505Y-106182803D01*
X164115735Y-106222215D01*
X164140961Y-106264302D01*
X164161940Y-106308658D01*
X164178470Y-106354858D01*
X164190393Y-106402455D01*
X164197592Y-106450991D01*
X164200000Y-106500000D01*
X164200000Y-107500000D01*
X164197592Y-107549009D01*
X164190393Y-107597545D01*
X164178470Y-107645142D01*
X164161940Y-107691342D01*
X164140961Y-107735698D01*
X164115735Y-107777785D01*
X164086505Y-107817197D01*
X164053553Y-107853553D01*
X164017197Y-107886505D01*
X163977785Y-107915735D01*
X163935698Y-107940961D01*
X163891342Y-107961940D01*
X163845142Y-107978470D01*
X163797545Y-107990393D01*
X163749009Y-107997592D01*
X163700000Y-108000000D01*
X161700000Y-108000000D01*
X161650991Y-107997592D01*
X161602455Y-107990393D01*
X161554858Y-107978470D01*
X161508658Y-107961940D01*
X161464302Y-107940961D01*
X161422215Y-107915735D01*
X161382803Y-107886505D01*
X161346447Y-107853553D01*
X161313495Y-107817197D01*
X161284265Y-107777785D01*
X161259039Y-107735698D01*
X161238060Y-107691342D01*
X161221530Y-107645142D01*
X161209607Y-107597545D01*
X161202408Y-107549009D01*
X161200000Y-107500000D01*
X161200000Y-106500000D01*
X161202408Y-106450991D01*
X161209607Y-106402455D01*
X161221530Y-106354858D01*
X161238060Y-106308658D01*
X161259039Y-106264302D01*
X161284265Y-106222215D01*
X161313495Y-106182803D01*
X161346447Y-106146447D01*
X161382803Y-106113495D01*
X161422215Y-106084265D01*
X161464302Y-106059039D01*
X161508658Y-106038060D01*
X161554858Y-106021530D01*
X161602455Y-106009607D01*
X161650991Y-106002408D01*
X161700000Y-106000000D01*
X163700000Y-106000000D01*
X163749009Y-106002408D01*
G37*
G36*
X149749009Y-92002408D02*
G01*
X149797545Y-92009607D01*
X149845142Y-92021530D01*
X149891342Y-92038060D01*
X149935698Y-92059039D01*
X149977785Y-92084265D01*
X150017197Y-92113495D01*
X150053553Y-92146447D01*
X150086505Y-92182803D01*
X150115735Y-92222215D01*
X150140961Y-92264302D01*
X150161940Y-92308658D01*
X150178470Y-92354858D01*
X150190393Y-92402455D01*
X150197592Y-92450991D01*
X150200000Y-92500000D01*
X150200000Y-93500000D01*
X150197592Y-93549009D01*
X150190393Y-93597545D01*
X150178470Y-93645142D01*
X150161940Y-93691342D01*
X150140961Y-93735698D01*
X150115735Y-93777785D01*
X150086505Y-93817197D01*
X150053553Y-93853553D01*
X150017197Y-93886505D01*
X149977785Y-93915735D01*
X149935698Y-93940961D01*
X149891342Y-93961940D01*
X149845142Y-93978470D01*
X149797545Y-93990393D01*
X149749009Y-93997592D01*
X149700000Y-94000000D01*
X147700000Y-94000000D01*
X147650991Y-93997592D01*
X147602455Y-93990393D01*
X147554858Y-93978470D01*
X147508658Y-93961940D01*
X147464302Y-93940961D01*
X147422215Y-93915735D01*
X147382803Y-93886505D01*
X147346447Y-93853553D01*
X147313495Y-93817197D01*
X147284265Y-93777785D01*
X147259039Y-93735698D01*
X147238060Y-93691342D01*
X147221530Y-93645142D01*
X147209607Y-93597545D01*
X147202408Y-93549009D01*
X147200000Y-93500000D01*
X147200000Y-92500000D01*
X147202408Y-92450991D01*
X147209607Y-92402455D01*
X147221530Y-92354858D01*
X147238060Y-92308658D01*
X147259039Y-92264302D01*
X147284265Y-92222215D01*
X147313495Y-92182803D01*
X147346447Y-92146447D01*
X147382803Y-92113495D01*
X147422215Y-92084265D01*
X147464302Y-92059039D01*
X147508658Y-92038060D01*
X147554858Y-92021530D01*
X147602455Y-92009607D01*
X147650991Y-92002408D01*
X147700000Y-92000000D01*
X149700000Y-92000000D01*
X149749009Y-92002408D01*
G37*
G36*
X149749009Y-95502408D02*
G01*
X149797545Y-95509607D01*
X149845142Y-95521530D01*
X149891342Y-95538060D01*
X149935698Y-95559039D01*
X149977785Y-95584265D01*
X150017197Y-95613495D01*
X150053553Y-95646447D01*
X150086505Y-95682803D01*
X150115735Y-95722215D01*
X150140961Y-95764302D01*
X150161940Y-95808658D01*
X150178470Y-95854858D01*
X150190393Y-95902455D01*
X150197592Y-95950991D01*
X150200000Y-96000000D01*
X150200000Y-97000000D01*
X150197592Y-97049009D01*
X150190393Y-97097545D01*
X150178470Y-97145142D01*
X150161940Y-97191342D01*
X150140961Y-97235698D01*
X150115735Y-97277785D01*
X150086505Y-97317197D01*
X150053553Y-97353553D01*
X150017197Y-97386505D01*
X149977785Y-97415735D01*
X149935698Y-97440961D01*
X149891342Y-97461940D01*
X149845142Y-97478470D01*
X149797545Y-97490393D01*
X149749009Y-97497592D01*
X149700000Y-97500000D01*
X147700000Y-97500000D01*
X147650991Y-97497592D01*
X147602455Y-97490393D01*
X147554858Y-97478470D01*
X147508658Y-97461940D01*
X147464302Y-97440961D01*
X147422215Y-97415735D01*
X147382803Y-97386505D01*
X147346447Y-97353553D01*
X147313495Y-97317197D01*
X147284265Y-97277785D01*
X147259039Y-97235698D01*
X147238060Y-97191342D01*
X147221530Y-97145142D01*
X147209607Y-97097545D01*
X147202408Y-97049009D01*
X147200000Y-97000000D01*
X147200000Y-96000000D01*
X147202408Y-95950991D01*
X147209607Y-95902455D01*
X147221530Y-95854858D01*
X147238060Y-95808658D01*
X147259039Y-95764302D01*
X147284265Y-95722215D01*
X147313495Y-95682803D01*
X147346447Y-95646447D01*
X147382803Y-95613495D01*
X147422215Y-95584265D01*
X147464302Y-95559039D01*
X147508658Y-95538060D01*
X147554858Y-95521530D01*
X147602455Y-95509607D01*
X147650991Y-95502408D01*
X147700000Y-95500000D01*
X149700000Y-95500000D01*
X149749009Y-95502408D01*
G37*
G36*
X149749009Y-99002408D02*
G01*
X149797545Y-99009607D01*
X149845142Y-99021530D01*
X149891342Y-99038060D01*
X149935698Y-99059039D01*
X149977785Y-99084265D01*
X150017197Y-99113495D01*
X150053553Y-99146447D01*
X150086505Y-99182803D01*
X150115735Y-99222215D01*
X150140961Y-99264302D01*
X150161940Y-99308658D01*
X150178470Y-99354858D01*
X150190393Y-99402455D01*
X150197592Y-99450991D01*
X150200000Y-99500000D01*
X150200000Y-100500000D01*
X150197592Y-100549009D01*
X150190393Y-100597545D01*
X150178470Y-100645142D01*
X150161940Y-100691342D01*
X150140961Y-100735698D01*
X150115735Y-100777785D01*
X150086505Y-100817197D01*
X150053553Y-100853553D01*
X150017197Y-100886505D01*
X149977785Y-100915735D01*
X149935698Y-100940961D01*
X149891342Y-100961940D01*
X149845142Y-100978470D01*
X149797545Y-100990393D01*
X149749009Y-100997592D01*
X149700000Y-101000000D01*
X147700000Y-101000000D01*
X147650991Y-100997592D01*
X147602455Y-100990393D01*
X147554858Y-100978470D01*
X147508658Y-100961940D01*
X147464302Y-100940961D01*
X147422215Y-100915735D01*
X147382803Y-100886505D01*
X147346447Y-100853553D01*
X147313495Y-100817197D01*
X147284265Y-100777785D01*
X147259039Y-100735698D01*
X147238060Y-100691342D01*
X147221530Y-100645142D01*
X147209607Y-100597545D01*
X147202408Y-100549009D01*
X147200000Y-100500000D01*
X147200000Y-99500000D01*
X147202408Y-99450991D01*
X147209607Y-99402455D01*
X147221530Y-99354858D01*
X147238060Y-99308658D01*
X147259039Y-99264302D01*
X147284265Y-99222215D01*
X147313495Y-99182803D01*
X147346447Y-99146447D01*
X147382803Y-99113495D01*
X147422215Y-99084265D01*
X147464302Y-99059039D01*
X147508658Y-99038060D01*
X147554858Y-99021530D01*
X147602455Y-99009607D01*
X147650991Y-99002408D01*
X147700000Y-99000000D01*
X149700000Y-99000000D01*
X149749009Y-99002408D01*
G37*
G36*
X149749009Y-106002408D02*
G01*
X149797545Y-106009607D01*
X149845142Y-106021530D01*
X149891342Y-106038060D01*
X149935698Y-106059039D01*
X149977785Y-106084265D01*
X150017197Y-106113495D01*
X150053553Y-106146447D01*
X150086505Y-106182803D01*
X150115735Y-106222215D01*
X150140961Y-106264302D01*
X150161940Y-106308658D01*
X150178470Y-106354858D01*
X150190393Y-106402455D01*
X150197592Y-106450991D01*
X150200000Y-106500000D01*
X150200000Y-107500000D01*
X150197592Y-107549009D01*
X150190393Y-107597545D01*
X150178470Y-107645142D01*
X150161940Y-107691342D01*
X150140961Y-107735698D01*
X150115735Y-107777785D01*
X150086505Y-107817197D01*
X150053553Y-107853553D01*
X150017197Y-107886505D01*
X149977785Y-107915735D01*
X149935698Y-107940961D01*
X149891342Y-107961940D01*
X149845142Y-107978470D01*
X149797545Y-107990393D01*
X149749009Y-107997592D01*
X149700000Y-108000000D01*
X147700000Y-108000000D01*
X147650991Y-107997592D01*
X147602455Y-107990393D01*
X147554858Y-107978470D01*
X147508658Y-107961940D01*
X147464302Y-107940961D01*
X147422215Y-107915735D01*
X147382803Y-107886505D01*
X147346447Y-107853553D01*
X147313495Y-107817197D01*
X147284265Y-107777785D01*
X147259039Y-107735698D01*
X147238060Y-107691342D01*
X147221530Y-107645142D01*
X147209607Y-107597545D01*
X147202408Y-107549009D01*
X147200000Y-107500000D01*
X147200000Y-106500000D01*
X147202408Y-106450991D01*
X147209607Y-106402455D01*
X147221530Y-106354858D01*
X147238060Y-106308658D01*
X147259039Y-106264302D01*
X147284265Y-106222215D01*
X147313495Y-106182803D01*
X147346447Y-106146447D01*
X147382803Y-106113495D01*
X147422215Y-106084265D01*
X147464302Y-106059039D01*
X147508658Y-106038060D01*
X147554858Y-106021530D01*
X147602455Y-106009607D01*
X147650991Y-106002408D01*
X147700000Y-106000000D01*
X149700000Y-106000000D01*
X149749009Y-106002408D01*
G37*
G36*
X135868612Y-104603371D02*
G01*
X135936563Y-104613450D01*
X136003199Y-104630142D01*
X136067878Y-104653284D01*
X136129978Y-104682655D01*
X136188899Y-104717971D01*
X136244075Y-104758893D01*
X136294975Y-104805025D01*
X136341107Y-104855925D01*
X136382029Y-104911101D01*
X136417345Y-104970022D01*
X136446716Y-105032122D01*
X136469858Y-105096801D01*
X136486550Y-105163437D01*
X136496629Y-105231388D01*
X136500000Y-105300000D01*
X136500000Y-106700000D01*
X136496629Y-106768612D01*
X136486550Y-106836563D01*
X136469858Y-106903199D01*
X136446716Y-106967878D01*
X136417345Y-107029978D01*
X136382029Y-107088899D01*
X136341107Y-107144075D01*
X136294975Y-107194975D01*
X136244075Y-107241107D01*
X136188899Y-107282029D01*
X136129978Y-107317345D01*
X136067878Y-107346716D01*
X136003199Y-107369858D01*
X135936563Y-107386550D01*
X135868612Y-107396629D01*
X135800000Y-107400000D01*
X131200000Y-107400000D01*
X131131388Y-107396629D01*
X131063437Y-107386550D01*
X130996801Y-107369858D01*
X130932122Y-107346716D01*
X130870022Y-107317345D01*
X130811101Y-107282029D01*
X130755925Y-107241107D01*
X130705025Y-107194975D01*
X130658893Y-107144075D01*
X130617971Y-107088899D01*
X130582655Y-107029978D01*
X130553284Y-106967878D01*
X130530142Y-106903199D01*
X130513450Y-106836563D01*
X130503371Y-106768612D01*
X130500000Y-106700000D01*
X130500000Y-105300000D01*
X130503371Y-105231388D01*
X130513450Y-105163437D01*
X130530142Y-105096801D01*
X130553284Y-105032122D01*
X130582655Y-104970022D01*
X130617971Y-104911101D01*
X130658893Y-104855925D01*
X130705025Y-104805025D01*
X130755925Y-104758893D01*
X130811101Y-104717971D01*
X130870022Y-104682655D01*
X130932122Y-104653284D01*
X130996801Y-104630142D01*
X131063437Y-104613450D01*
X131131388Y-104603371D01*
X131200000Y-104600000D01*
X135800000Y-104600000D01*
X135868612Y-104603371D01*
G37*
G36*
X135868612Y-92603371D02*
G01*
X135936563Y-92613450D01*
X136003199Y-92630142D01*
X136067878Y-92653284D01*
X136129978Y-92682655D01*
X136188899Y-92717971D01*
X136244075Y-92758893D01*
X136294975Y-92805025D01*
X136341107Y-92855925D01*
X136382029Y-92911101D01*
X136417345Y-92970022D01*
X136446716Y-93032122D01*
X136469858Y-93096801D01*
X136486550Y-93163437D01*
X136496629Y-93231388D01*
X136500000Y-93300000D01*
X136500000Y-94700000D01*
X136496629Y-94768612D01*
X136486550Y-94836563D01*
X136469858Y-94903199D01*
X136446716Y-94967878D01*
X136417345Y-95029978D01*
X136382029Y-95088899D01*
X136341107Y-95144075D01*
X136294975Y-95194975D01*
X136244075Y-95241107D01*
X136188899Y-95282029D01*
X136129978Y-95317345D01*
X136067878Y-95346716D01*
X136003199Y-95369858D01*
X135936563Y-95386550D01*
X135868612Y-95396629D01*
X135800000Y-95400000D01*
X131200000Y-95400000D01*
X131131388Y-95396629D01*
X131063437Y-95386550D01*
X130996801Y-95369858D01*
X130932122Y-95346716D01*
X130870022Y-95317345D01*
X130811101Y-95282029D01*
X130755925Y-95241107D01*
X130705025Y-95194975D01*
X130658893Y-95144075D01*
X130617971Y-95088899D01*
X130582655Y-95029978D01*
X130553284Y-94967878D01*
X130530142Y-94903199D01*
X130513450Y-94836563D01*
X130503371Y-94768612D01*
X130500000Y-94700000D01*
X130500000Y-93300000D01*
X130503371Y-93231388D01*
X130513450Y-93163437D01*
X130530142Y-93096801D01*
X130553284Y-93032122D01*
X130582655Y-92970022D01*
X130617971Y-92911101D01*
X130658893Y-92855925D01*
X130705025Y-92805025D01*
X130755925Y-92758893D01*
X130811101Y-92717971D01*
X130870022Y-92682655D01*
X130932122Y-92653284D01*
X130996801Y-92630142D01*
X131063437Y-92613450D01*
X131131388Y-92603371D01*
X131200000Y-92600000D01*
X135800000Y-92600000D01*
X135868612Y-92603371D01*
G37*
D14*
X115600000Y-108500000D03*
X124400000Y-108500000D03*
D15*
X107550000Y-111200000D03*
D10*
G36*
X110674594Y-110201203D02*
G01*
X110698853Y-110204802D01*
X110722642Y-110210761D01*
X110745733Y-110219023D01*
X110767902Y-110229508D01*
X110788937Y-110242116D01*
X110808635Y-110256725D01*
X110826806Y-110273194D01*
X110843275Y-110291365D01*
X110857884Y-110311063D01*
X110870492Y-110332098D01*
X110880977Y-110354267D01*
X110889239Y-110377358D01*
X110895198Y-110401147D01*
X110898797Y-110425406D01*
X110900000Y-110449900D01*
X110900000Y-111950100D01*
X110898797Y-111974594D01*
X110895198Y-111998853D01*
X110889239Y-112022642D01*
X110880977Y-112045733D01*
X110870492Y-112067902D01*
X110857884Y-112088937D01*
X110843275Y-112108635D01*
X110826806Y-112126806D01*
X110808635Y-112143275D01*
X110788937Y-112157884D01*
X110767902Y-112170492D01*
X110745733Y-112180977D01*
X110722642Y-112189239D01*
X110698853Y-112195198D01*
X110674594Y-112198797D01*
X110650100Y-112200000D01*
X109449900Y-112200000D01*
X109425406Y-112198797D01*
X109401147Y-112195198D01*
X109377358Y-112189239D01*
X109354267Y-112180977D01*
X109332098Y-112170492D01*
X109311063Y-112157884D01*
X109291365Y-112143275D01*
X109273194Y-112126806D01*
X109256725Y-112108635D01*
X109242116Y-112088937D01*
X109229508Y-112067902D01*
X109219023Y-112045733D01*
X109210761Y-112022642D01*
X109204802Y-111998853D01*
X109201203Y-111974594D01*
X109200000Y-111950100D01*
X109200000Y-110449900D01*
X109201203Y-110425406D01*
X109204802Y-110401147D01*
X109210761Y-110377358D01*
X109219023Y-110354267D01*
X109229508Y-110332098D01*
X109242116Y-110311063D01*
X109256725Y-110291365D01*
X109273194Y-110273194D01*
X109291365Y-110256725D01*
X109311063Y-110242116D01*
X109332098Y-110229508D01*
X109354267Y-110219023D01*
X109377358Y-110210761D01*
X109401147Y-110204802D01*
X109425406Y-110201203D01*
X109449900Y-110200000D01*
X110650100Y-110200000D01*
X110674594Y-110201203D01*
G37*
D16*
X128720000Y-110000000D03*
D17*
X131260000Y-110000000D03*
D18*
X104500000Y-97460000D03*
D19*
X104500000Y-100000000D03*
X104500000Y-102540000D03*
D18*
X107610000Y-90900000D03*
D19*
X110150000Y-90900000D03*
X107610000Y-93440000D03*
X110150000Y-93440000D03*
X107610000Y-95980000D03*
X110150000Y-95980000D03*
X107610000Y-98520000D03*
X110150000Y-98520000D03*
X107610000Y-101060000D03*
X110150000Y-101060000D03*
X107610000Y-103600000D03*
X110150000Y-103600000D03*
X107610000Y-106140000D03*
X110150000Y-106140000D03*
M02*
