G04 #@! TF.GenerationSoftware,KiCad,Pcbnew,5.1.5+dfsg1-2build2*
G04 #@! TF.CreationDate,2023-01-25T20:05:03+01:00*
G04 #@! TF.ProjectId,main,6d61696e-2e6b-4696-9361-645f70636258,rev?*
G04 #@! TF.SameCoordinates,Original*
G04 #@! TF.FileFunction,Copper,L2,Inr*
G04 #@! TF.FilePolarity,Positive*
%FSLAX46Y46*%
G04 Gerber Fmt 4.6, Leading zero omitted, Abs format (unit mm)*
G04 Created by KiCad (PCBNEW 5.1.5+dfsg1-2build2) date 2023-01-25 20:05:03*
%MOMM*%
%LPD*%
G04 APERTURE LIST*
%ADD10C,0.150000*%
%ADD11R,1.800000X1.800000*%
%ADD12C,1.800000*%
%ADD13O,1.200000X1.750000*%
%ADD14R,1.700000X1.700000*%
%ADD15O,1.700000X1.700000*%
%ADD16C,0.620000*%
%ADD17C,0.400000*%
%ADD18C,0.254000*%
G04 APERTURE END LIST*
D10*
X171100000Y-100000000D02*
G75*
G03X171100000Y-100000000I-1100000J0D01*
G01*
X101100000Y-100000000D02*
G75*
G03X101100000Y-100000000I-1100000J0D01*
G01*
X97000000Y-93000000D02*
X97000000Y-107000000D01*
X104500000Y-85500000D02*
X104500000Y-93000000D01*
X104500000Y-114500000D02*
X104500000Y-107000000D01*
X104500000Y-107000000D02*
X97000000Y-107000000D01*
X104500000Y-93000000D02*
X97000000Y-93000000D01*
X104500000Y-114500000D02*
X173000000Y-109000000D01*
X173000000Y-91000000D02*
X173000000Y-109000000D01*
X104500000Y-85500000D02*
X173000000Y-91000000D01*
D11*
X128720000Y-110000000D03*
D12*
X131260000Y-110000000D03*
G04 #@! TA.AperFunction,ViaPad*
D10*
G36*
X110374505Y-110526204D02*
G01*
X110398773Y-110529804D01*
X110422572Y-110535765D01*
X110445671Y-110544030D01*
X110467850Y-110554520D01*
X110488893Y-110567132D01*
X110508599Y-110581747D01*
X110526777Y-110598223D01*
X110543253Y-110616401D01*
X110557868Y-110636107D01*
X110570480Y-110657150D01*
X110580970Y-110679329D01*
X110589235Y-110702428D01*
X110595196Y-110726227D01*
X110598796Y-110750495D01*
X110600000Y-110774999D01*
X110600000Y-112025001D01*
X110598796Y-112049505D01*
X110595196Y-112073773D01*
X110589235Y-112097572D01*
X110580970Y-112120671D01*
X110570480Y-112142850D01*
X110557868Y-112163893D01*
X110543253Y-112183599D01*
X110526777Y-112201777D01*
X110508599Y-112218253D01*
X110488893Y-112232868D01*
X110467850Y-112245480D01*
X110445671Y-112255970D01*
X110422572Y-112264235D01*
X110398773Y-112270196D01*
X110374505Y-112273796D01*
X110350001Y-112275000D01*
X109649999Y-112275000D01*
X109625495Y-112273796D01*
X109601227Y-112270196D01*
X109577428Y-112264235D01*
X109554329Y-112255970D01*
X109532150Y-112245480D01*
X109511107Y-112232868D01*
X109491401Y-112218253D01*
X109473223Y-112201777D01*
X109456747Y-112183599D01*
X109442132Y-112163893D01*
X109429520Y-112142850D01*
X109419030Y-112120671D01*
X109410765Y-112097572D01*
X109404804Y-112073773D01*
X109401204Y-112049505D01*
X109400000Y-112025001D01*
X109400000Y-110774999D01*
X109401204Y-110750495D01*
X109404804Y-110726227D01*
X109410765Y-110702428D01*
X109419030Y-110679329D01*
X109429520Y-110657150D01*
X109442132Y-110636107D01*
X109456747Y-110616401D01*
X109473223Y-110598223D01*
X109491401Y-110581747D01*
X109511107Y-110567132D01*
X109532150Y-110554520D01*
X109554329Y-110544030D01*
X109577428Y-110535765D01*
X109601227Y-110529804D01*
X109625495Y-110526204D01*
X109649999Y-110525000D01*
X110350001Y-110525000D01*
X110374505Y-110526204D01*
G37*
G04 #@! TD.AperFunction*
D13*
X108000000Y-111400000D03*
D14*
X104500000Y-97460000D03*
D15*
X104500000Y-100000000D03*
X104500000Y-102540000D03*
D14*
X107610000Y-90900000D03*
D15*
X110150000Y-90900000D03*
X107610000Y-93440000D03*
X110150000Y-93440000D03*
X107610000Y-95980000D03*
X110150000Y-95980000D03*
X107610000Y-98520000D03*
X110150000Y-98520000D03*
X107610000Y-101060000D03*
X110150000Y-101060000D03*
X107610000Y-103600000D03*
X110150000Y-103600000D03*
X107610000Y-106140000D03*
X110150000Y-106140000D03*
D16*
X115200000Y-104100000D03*
X127900000Y-104050000D03*
X134300000Y-104050000D03*
X136850000Y-104050000D03*
X115200000Y-87950000D03*
X108400000Y-87800000D03*
X122000000Y-107000000D03*
X121750000Y-105000000D03*
X169000000Y-95275000D03*
X170250000Y-91550000D03*
X139900000Y-97150000D03*
X139900000Y-96350000D03*
X129146500Y-88570000D03*
X145200000Y-92300000D03*
X142150000Y-89250000D03*
X138800000Y-93700000D03*
X127100000Y-108300000D03*
X144500000Y-95000000D03*
X137900000Y-109900000D03*
X166750000Y-96600000D03*
X168100000Y-95500000D03*
X164600000Y-99800000D03*
X146550000Y-105850000D03*
X171500000Y-107300000D03*
X143900000Y-106500000D03*
X140400000Y-110000000D03*
X143900000Y-110000000D03*
X138050000Y-104650000D03*
X141200000Y-94650000D03*
X140400000Y-94650000D03*
X116954500Y-87109500D03*
X117780000Y-87300000D03*
X140400000Y-98950000D03*
X141200000Y-98950000D03*
X129500000Y-104600000D03*
X130300000Y-104600000D03*
X116475000Y-87969500D03*
X124100000Y-104050000D03*
X138800000Y-90400000D03*
X116450000Y-104550000D03*
X168800000Y-107550000D03*
X119000000Y-87950000D03*
X165450000Y-93350000D03*
X170250000Y-94475000D03*
X120300000Y-87950000D03*
X167850000Y-92650000D03*
X121550000Y-87950000D03*
X122850000Y-87950000D03*
X146350000Y-97700000D03*
X126600000Y-104050000D03*
X165500000Y-103300000D03*
X142150000Y-93350000D03*
X132900000Y-108550000D03*
X133700000Y-108550000D03*
X117272000Y-104191000D03*
X143700000Y-97650000D03*
X125450000Y-104049999D03*
X171525000Y-95275000D03*
X124100000Y-87950000D03*
X138800000Y-91300000D03*
X167850000Y-91800000D03*
X143750000Y-99500000D03*
X142950000Y-99500000D03*
X136450000Y-108100000D03*
X136650000Y-108850000D03*
X165150000Y-104150000D03*
X165150000Y-104950000D03*
X125200000Y-104900000D03*
X144200000Y-93500000D03*
X138750000Y-96500000D03*
D17*
X170250000Y-91550000D02*
X169200000Y-91550000D01*
X169000000Y-91750000D02*
X169000000Y-95275000D01*
X169200000Y-91550000D02*
X169000000Y-91750000D01*
X168325000Y-95275000D02*
X168100000Y-95500000D01*
X169000000Y-95275000D02*
X168325000Y-95275000D01*
X167000000Y-96600000D02*
X168100000Y-95500000D01*
X166750000Y-96600000D02*
X167000000Y-96600000D01*
X166750000Y-96600000D02*
X165400000Y-96600000D01*
X171089999Y-106889999D02*
X165960001Y-106889999D01*
X171500000Y-107300000D02*
X171089999Y-106889999D01*
D18*
G36*
X116009500Y-87136405D02*
G01*
X116009500Y-87143996D01*
X115872598Y-87235471D01*
X115740971Y-87367098D01*
X115637552Y-87521875D01*
X115566316Y-87693854D01*
X115530000Y-87876426D01*
X115530000Y-88062574D01*
X115566316Y-88245146D01*
X115637552Y-88417125D01*
X115740971Y-88571902D01*
X115872598Y-88703529D01*
X116027375Y-88806948D01*
X116199354Y-88878184D01*
X116381926Y-88914500D01*
X116568074Y-88914500D01*
X116750646Y-88878184D01*
X116922625Y-88806948D01*
X117077402Y-88703529D01*
X117209029Y-88571902D01*
X117312448Y-88417125D01*
X117383684Y-88245146D01*
X117399570Y-88165281D01*
X117504354Y-88208684D01*
X117686926Y-88245000D01*
X117873074Y-88245000D01*
X118055646Y-88208684D01*
X118085484Y-88196325D01*
X118091316Y-88225646D01*
X118162552Y-88397625D01*
X118265971Y-88552402D01*
X118397598Y-88684029D01*
X118552375Y-88787448D01*
X118724354Y-88858684D01*
X118906926Y-88895000D01*
X119093074Y-88895000D01*
X119275646Y-88858684D01*
X119447625Y-88787448D01*
X119602402Y-88684029D01*
X119650000Y-88636431D01*
X119697598Y-88684029D01*
X119852375Y-88787448D01*
X120024354Y-88858684D01*
X120206926Y-88895000D01*
X120393074Y-88895000D01*
X120575646Y-88858684D01*
X120747625Y-88787448D01*
X120902402Y-88684029D01*
X120925000Y-88661431D01*
X120947598Y-88684029D01*
X121102375Y-88787448D01*
X121274354Y-88858684D01*
X121456926Y-88895000D01*
X121643074Y-88895000D01*
X121825646Y-88858684D01*
X121997625Y-88787448D01*
X122152402Y-88684029D01*
X122200000Y-88636431D01*
X122247598Y-88684029D01*
X122402375Y-88787448D01*
X122574354Y-88858684D01*
X122756926Y-88895000D01*
X122943074Y-88895000D01*
X123125646Y-88858684D01*
X123297625Y-88787448D01*
X123452402Y-88684029D01*
X123475000Y-88661431D01*
X123497598Y-88684029D01*
X123652375Y-88787448D01*
X123824354Y-88858684D01*
X124006926Y-88895000D01*
X124193074Y-88895000D01*
X124375646Y-88858684D01*
X124547625Y-88787448D01*
X124702402Y-88684029D01*
X124834029Y-88552402D01*
X124937448Y-88397625D01*
X125008684Y-88225646D01*
X125045000Y-88043074D01*
X125045000Y-87861883D01*
X166823000Y-91216321D01*
X166823000Y-108783679D01*
X105210000Y-113730708D01*
X105210000Y-111064335D01*
X106765000Y-111064335D01*
X106765000Y-111735664D01*
X106782870Y-111917101D01*
X106853489Y-112149900D01*
X106968167Y-112364448D01*
X107122498Y-112552502D01*
X107310551Y-112706833D01*
X107525099Y-112821511D01*
X107757898Y-112892130D01*
X108000000Y-112915975D01*
X108242101Y-112892130D01*
X108474900Y-112821511D01*
X108689448Y-112706833D01*
X108843309Y-112580564D01*
X108869463Y-112629494D01*
X108948815Y-112726185D01*
X109045506Y-112805537D01*
X109155820Y-112864502D01*
X109275518Y-112900812D01*
X109400000Y-112913072D01*
X109714250Y-112910000D01*
X109873000Y-112751250D01*
X109873000Y-111527000D01*
X110127000Y-111527000D01*
X110127000Y-112751250D01*
X110285750Y-112910000D01*
X110600000Y-112913072D01*
X110724482Y-112900812D01*
X110844180Y-112864502D01*
X110954494Y-112805537D01*
X111051185Y-112726185D01*
X111130537Y-112629494D01*
X111189502Y-112519180D01*
X111225812Y-112399482D01*
X111238072Y-112275000D01*
X111235000Y-111685750D01*
X111076250Y-111527000D01*
X110127000Y-111527000D01*
X109873000Y-111527000D01*
X109853000Y-111527000D01*
X109853000Y-111273000D01*
X109873000Y-111273000D01*
X109873000Y-110048750D01*
X110127000Y-110048750D01*
X110127000Y-111273000D01*
X111076250Y-111273000D01*
X111235000Y-111114250D01*
X111238072Y-110525000D01*
X111225812Y-110400518D01*
X111189502Y-110280820D01*
X111130537Y-110170506D01*
X111051185Y-110073815D01*
X110954494Y-109994463D01*
X110844180Y-109935498D01*
X110724482Y-109899188D01*
X110600000Y-109886928D01*
X110285750Y-109890000D01*
X110127000Y-110048750D01*
X109873000Y-110048750D01*
X109714250Y-109890000D01*
X109400000Y-109886928D01*
X109275518Y-109899188D01*
X109155820Y-109935498D01*
X109045506Y-109994463D01*
X108948815Y-110073815D01*
X108869463Y-110170506D01*
X108843309Y-110219436D01*
X108689449Y-110093167D01*
X108474901Y-109978489D01*
X108242102Y-109907870D01*
X108000000Y-109884025D01*
X107757899Y-109907870D01*
X107525100Y-109978489D01*
X107310552Y-110093167D01*
X107122499Y-110247498D01*
X106968168Y-110435551D01*
X106853489Y-110650099D01*
X106782870Y-110882898D01*
X106765000Y-111064335D01*
X105210000Y-111064335D01*
X105210000Y-108400524D01*
X114590000Y-108400524D01*
X114590000Y-108599476D01*
X114628814Y-108794606D01*
X114704950Y-108978414D01*
X114815482Y-109143837D01*
X114956163Y-109284518D01*
X115121586Y-109395050D01*
X115305394Y-109471186D01*
X115500524Y-109510000D01*
X115699476Y-109510000D01*
X115894606Y-109471186D01*
X116078414Y-109395050D01*
X116243837Y-109284518D01*
X116384518Y-109143837D01*
X116495050Y-108978414D01*
X116571186Y-108794606D01*
X116610000Y-108599476D01*
X116610000Y-108400524D01*
X123390000Y-108400524D01*
X123390000Y-108599476D01*
X123428814Y-108794606D01*
X123504950Y-108978414D01*
X123615482Y-109143837D01*
X123756163Y-109284518D01*
X123921586Y-109395050D01*
X124105394Y-109471186D01*
X124300524Y-109510000D01*
X124499476Y-109510000D01*
X124694606Y-109471186D01*
X124878414Y-109395050D01*
X125043837Y-109284518D01*
X125184518Y-109143837D01*
X125213808Y-109100000D01*
X127181928Y-109100000D01*
X127181928Y-110900000D01*
X127194188Y-111024482D01*
X127230498Y-111144180D01*
X127289463Y-111254494D01*
X127368815Y-111351185D01*
X127465506Y-111430537D01*
X127575820Y-111489502D01*
X127695518Y-111525812D01*
X127820000Y-111538072D01*
X129620000Y-111538072D01*
X129744482Y-111525812D01*
X129864180Y-111489502D01*
X129974494Y-111430537D01*
X130071185Y-111351185D01*
X130150537Y-111254494D01*
X130209502Y-111144180D01*
X130215056Y-111125873D01*
X130281495Y-111192312D01*
X130532905Y-111360299D01*
X130812257Y-111476011D01*
X131108816Y-111535000D01*
X131411184Y-111535000D01*
X131707743Y-111476011D01*
X131987095Y-111360299D01*
X132238505Y-111192312D01*
X132452312Y-110978505D01*
X132620299Y-110727095D01*
X132736011Y-110447743D01*
X132795000Y-110151184D01*
X132795000Y-109848816D01*
X132736011Y-109552257D01*
X132703797Y-109474486D01*
X132806926Y-109495000D01*
X132993074Y-109495000D01*
X133175646Y-109458684D01*
X133300000Y-109407175D01*
X133424354Y-109458684D01*
X133606926Y-109495000D01*
X133793074Y-109495000D01*
X133975646Y-109458684D01*
X134147625Y-109387448D01*
X134302402Y-109284029D01*
X134434029Y-109152402D01*
X134537448Y-108997625D01*
X134608684Y-108825646D01*
X134645000Y-108643074D01*
X134645000Y-108456926D01*
X134608684Y-108274354D01*
X134537448Y-108102375D01*
X134473671Y-108006926D01*
X135505000Y-108006926D01*
X135505000Y-108193074D01*
X135541316Y-108375646D01*
X135612552Y-108547625D01*
X135715874Y-108702257D01*
X135705000Y-108756926D01*
X135705000Y-108943074D01*
X135741316Y-109125646D01*
X135812552Y-109297625D01*
X135915971Y-109452402D01*
X136047598Y-109584029D01*
X136202375Y-109687448D01*
X136374354Y-109758684D01*
X136556926Y-109795000D01*
X136743074Y-109795000D01*
X136925646Y-109758684D01*
X137097625Y-109687448D01*
X137252402Y-109584029D01*
X137384029Y-109452402D01*
X137487448Y-109297625D01*
X137558684Y-109125646D01*
X137595000Y-108943074D01*
X137595000Y-108756926D01*
X137558684Y-108574354D01*
X137487448Y-108402375D01*
X137384126Y-108247743D01*
X137395000Y-108193074D01*
X137395000Y-108006926D01*
X137358684Y-107824354D01*
X137287448Y-107652375D01*
X137184029Y-107497598D01*
X137052402Y-107365971D01*
X136897625Y-107262552D01*
X136725646Y-107191316D01*
X136543074Y-107155000D01*
X136356926Y-107155000D01*
X136174354Y-107191316D01*
X136002375Y-107262552D01*
X135847598Y-107365971D01*
X135715971Y-107497598D01*
X135612552Y-107652375D01*
X135541316Y-107824354D01*
X135505000Y-108006926D01*
X134473671Y-108006926D01*
X134434029Y-107947598D01*
X134302402Y-107815971D01*
X134147625Y-107712552D01*
X133975646Y-107641316D01*
X133793074Y-107605000D01*
X133606926Y-107605000D01*
X133424354Y-107641316D01*
X133300000Y-107692825D01*
X133175646Y-107641316D01*
X132993074Y-107605000D01*
X132806926Y-107605000D01*
X132624354Y-107641316D01*
X132452375Y-107712552D01*
X132297598Y-107815971D01*
X132165971Y-107947598D01*
X132062552Y-108102375D01*
X131991316Y-108274354D01*
X131955000Y-108456926D01*
X131955000Y-108626407D01*
X131707743Y-108523989D01*
X131411184Y-108465000D01*
X131108816Y-108465000D01*
X130812257Y-108523989D01*
X130532905Y-108639701D01*
X130281495Y-108807688D01*
X130215056Y-108874127D01*
X130209502Y-108855820D01*
X130150537Y-108745506D01*
X130071185Y-108648815D01*
X129974494Y-108569463D01*
X129864180Y-108510498D01*
X129744482Y-108474188D01*
X129620000Y-108461928D01*
X127820000Y-108461928D01*
X127695518Y-108474188D01*
X127575820Y-108510498D01*
X127465506Y-108569463D01*
X127368815Y-108648815D01*
X127289463Y-108745506D01*
X127230498Y-108855820D01*
X127194188Y-108975518D01*
X127181928Y-109100000D01*
X125213808Y-109100000D01*
X125295050Y-108978414D01*
X125371186Y-108794606D01*
X125410000Y-108599476D01*
X125410000Y-108400524D01*
X125371186Y-108205394D01*
X125295050Y-108021586D01*
X125184518Y-107856163D01*
X125043837Y-107715482D01*
X124878414Y-107604950D01*
X124694606Y-107528814D01*
X124499476Y-107490000D01*
X124300524Y-107490000D01*
X124105394Y-107528814D01*
X123921586Y-107604950D01*
X123756163Y-107715482D01*
X123615482Y-107856163D01*
X123504950Y-108021586D01*
X123428814Y-108205394D01*
X123390000Y-108400524D01*
X116610000Y-108400524D01*
X116571186Y-108205394D01*
X116495050Y-108021586D01*
X116384518Y-107856163D01*
X116243837Y-107715482D01*
X116078414Y-107604950D01*
X115894606Y-107528814D01*
X115699476Y-107490000D01*
X115500524Y-107490000D01*
X115305394Y-107528814D01*
X115121586Y-107604950D01*
X114956163Y-107715482D01*
X114815482Y-107856163D01*
X114704950Y-108021586D01*
X114628814Y-108205394D01*
X114590000Y-108400524D01*
X105210000Y-108400524D01*
X105210000Y-107034877D01*
X105213435Y-107000000D01*
X105199727Y-106860816D01*
X105159128Y-106726980D01*
X105093200Y-106603637D01*
X105004475Y-106495525D01*
X104896363Y-106406800D01*
X104773020Y-106340872D01*
X104639184Y-106300273D01*
X104534877Y-106290000D01*
X104500000Y-106286565D01*
X104465123Y-106290000D01*
X97710000Y-106290000D01*
X97710000Y-99820629D01*
X98178812Y-99820629D01*
X98178812Y-100179371D01*
X98248799Y-100531221D01*
X98386084Y-100862656D01*
X98585391Y-101160940D01*
X98839060Y-101414609D01*
X99137344Y-101613916D01*
X99468779Y-101751201D01*
X99820629Y-101821188D01*
X100179371Y-101821188D01*
X100531221Y-101751201D01*
X100862656Y-101613916D01*
X101160940Y-101414609D01*
X101414609Y-101160940D01*
X101613916Y-100862656D01*
X101751201Y-100531221D01*
X101821188Y-100179371D01*
X101821188Y-99820629D01*
X101751201Y-99468779D01*
X101613916Y-99137344D01*
X101414609Y-98839060D01*
X101160940Y-98585391D01*
X100862656Y-98386084D01*
X100678974Y-98310000D01*
X103011928Y-98310000D01*
X103024188Y-98434482D01*
X103060498Y-98554180D01*
X103119463Y-98664494D01*
X103198815Y-98761185D01*
X103295506Y-98840537D01*
X103405820Y-98899502D01*
X103478380Y-98921513D01*
X103346525Y-99053368D01*
X103184010Y-99296589D01*
X103072068Y-99566842D01*
X103015000Y-99853740D01*
X103015000Y-100146260D01*
X103072068Y-100433158D01*
X103184010Y-100703411D01*
X103346525Y-100946632D01*
X103553368Y-101153475D01*
X103727760Y-101270000D01*
X103553368Y-101386525D01*
X103346525Y-101593368D01*
X103184010Y-101836589D01*
X103072068Y-102106842D01*
X103015000Y-102393740D01*
X103015000Y-102686260D01*
X103072068Y-102973158D01*
X103184010Y-103243411D01*
X103346525Y-103486632D01*
X103553368Y-103693475D01*
X103796589Y-103855990D01*
X104066842Y-103967932D01*
X104353740Y-104025000D01*
X104646260Y-104025000D01*
X104933158Y-103967932D01*
X105203411Y-103855990D01*
X105446632Y-103693475D01*
X105653475Y-103486632D01*
X105815990Y-103243411D01*
X105927932Y-102973158D01*
X105985000Y-102686260D01*
X105985000Y-102393740D01*
X105927932Y-102106842D01*
X105815990Y-101836589D01*
X105653475Y-101593368D01*
X105446632Y-101386525D01*
X105272240Y-101270000D01*
X105446632Y-101153475D01*
X105653475Y-100946632D01*
X105815990Y-100703411D01*
X105927932Y-100433158D01*
X105985000Y-100146260D01*
X105985000Y-99853740D01*
X105927932Y-99566842D01*
X105815990Y-99296589D01*
X105653475Y-99053368D01*
X105521620Y-98921513D01*
X105594180Y-98899502D01*
X105636483Y-98876890D01*
X106168524Y-98876890D01*
X106213175Y-99024099D01*
X106338359Y-99286920D01*
X106512412Y-99520269D01*
X106728645Y-99715178D01*
X106854255Y-99790000D01*
X106728645Y-99864822D01*
X106512412Y-100059731D01*
X106338359Y-100293080D01*
X106213175Y-100555901D01*
X106168524Y-100703110D01*
X106289845Y-100933000D01*
X107483000Y-100933000D01*
X107483000Y-98647000D01*
X106289845Y-98647000D01*
X106168524Y-98876890D01*
X105636483Y-98876890D01*
X105704494Y-98840537D01*
X105801185Y-98761185D01*
X105880537Y-98664494D01*
X105939502Y-98554180D01*
X105975812Y-98434482D01*
X105988072Y-98310000D01*
X105985000Y-97745750D01*
X105826250Y-97587000D01*
X104627000Y-97587000D01*
X104627000Y-97607000D01*
X104373000Y-97607000D01*
X104373000Y-97587000D01*
X103173750Y-97587000D01*
X103015000Y-97745750D01*
X103011928Y-98310000D01*
X100678974Y-98310000D01*
X100531221Y-98248799D01*
X100179371Y-98178812D01*
X99820629Y-98178812D01*
X99468779Y-98248799D01*
X99137344Y-98386084D01*
X98839060Y-98585391D01*
X98585391Y-98839060D01*
X98386084Y-99137344D01*
X98248799Y-99468779D01*
X98178812Y-99820629D01*
X97710000Y-99820629D01*
X97710000Y-96610000D01*
X103011928Y-96610000D01*
X103015000Y-97174250D01*
X103173750Y-97333000D01*
X104373000Y-97333000D01*
X104373000Y-96133750D01*
X104627000Y-96133750D01*
X104627000Y-97333000D01*
X105826250Y-97333000D01*
X105985000Y-97174250D01*
X105988072Y-96610000D01*
X105975812Y-96485518D01*
X105939502Y-96365820D01*
X105924039Y-96336890D01*
X106168524Y-96336890D01*
X106213175Y-96484099D01*
X106338359Y-96746920D01*
X106512412Y-96980269D01*
X106728645Y-97175178D01*
X106854255Y-97250000D01*
X106728645Y-97324822D01*
X106512412Y-97519731D01*
X106338359Y-97753080D01*
X106213175Y-98015901D01*
X106168524Y-98163110D01*
X106289845Y-98393000D01*
X107483000Y-98393000D01*
X107483000Y-96107000D01*
X106289845Y-96107000D01*
X106168524Y-96336890D01*
X105924039Y-96336890D01*
X105880537Y-96255506D01*
X105801185Y-96158815D01*
X105704494Y-96079463D01*
X105594180Y-96020498D01*
X105474482Y-95984188D01*
X105350000Y-95971928D01*
X104785750Y-95975000D01*
X104627000Y-96133750D01*
X104373000Y-96133750D01*
X104214250Y-95975000D01*
X103650000Y-95971928D01*
X103525518Y-95984188D01*
X103405820Y-96020498D01*
X103295506Y-96079463D01*
X103198815Y-96158815D01*
X103119463Y-96255506D01*
X103060498Y-96365820D01*
X103024188Y-96485518D01*
X103011928Y-96610000D01*
X97710000Y-96610000D01*
X97710000Y-93710000D01*
X104465123Y-93710000D01*
X104500000Y-93713435D01*
X104534877Y-93710000D01*
X104639184Y-93699727D01*
X104773020Y-93659128D01*
X104896363Y-93593200D01*
X105004475Y-93504475D01*
X105093200Y-93396363D01*
X105159128Y-93273020D01*
X105199727Y-93139184D01*
X105213435Y-93000000D01*
X105210000Y-92965123D01*
X105210000Y-90050000D01*
X106121928Y-90050000D01*
X106121928Y-91750000D01*
X106134188Y-91874482D01*
X106170498Y-91994180D01*
X106229463Y-92104494D01*
X106308815Y-92201185D01*
X106405506Y-92280537D01*
X106515820Y-92339502D01*
X106588380Y-92361513D01*
X106456525Y-92493368D01*
X106294010Y-92736589D01*
X106182068Y-93006842D01*
X106125000Y-93293740D01*
X106125000Y-93586260D01*
X106182068Y-93873158D01*
X106294010Y-94143411D01*
X106456525Y-94386632D01*
X106663368Y-94593475D01*
X106845534Y-94715195D01*
X106728645Y-94784822D01*
X106512412Y-94979731D01*
X106338359Y-95213080D01*
X106213175Y-95475901D01*
X106168524Y-95623110D01*
X106289845Y-95853000D01*
X107483000Y-95853000D01*
X107483000Y-95833000D01*
X107737000Y-95833000D01*
X107737000Y-95853000D01*
X107757000Y-95853000D01*
X107757000Y-96107000D01*
X107737000Y-96107000D01*
X107737000Y-98393000D01*
X107757000Y-98393000D01*
X107757000Y-98647000D01*
X107737000Y-98647000D01*
X107737000Y-100933000D01*
X107757000Y-100933000D01*
X107757000Y-101187000D01*
X107737000Y-101187000D01*
X107737000Y-101207000D01*
X107483000Y-101207000D01*
X107483000Y-101187000D01*
X106289845Y-101187000D01*
X106168524Y-101416890D01*
X106213175Y-101564099D01*
X106338359Y-101826920D01*
X106512412Y-102060269D01*
X106728645Y-102255178D01*
X106845534Y-102324805D01*
X106663368Y-102446525D01*
X106456525Y-102653368D01*
X106294010Y-102896589D01*
X106182068Y-103166842D01*
X106125000Y-103453740D01*
X106125000Y-103746260D01*
X106182068Y-104033158D01*
X106294010Y-104303411D01*
X106456525Y-104546632D01*
X106663368Y-104753475D01*
X106837760Y-104870000D01*
X106663368Y-104986525D01*
X106456525Y-105193368D01*
X106294010Y-105436589D01*
X106182068Y-105706842D01*
X106125000Y-105993740D01*
X106125000Y-106286260D01*
X106182068Y-106573158D01*
X106294010Y-106843411D01*
X106456525Y-107086632D01*
X106663368Y-107293475D01*
X106906589Y-107455990D01*
X107176842Y-107567932D01*
X107463740Y-107625000D01*
X107756260Y-107625000D01*
X108043158Y-107567932D01*
X108313411Y-107455990D01*
X108556632Y-107293475D01*
X108763475Y-107086632D01*
X108880000Y-106912240D01*
X108996525Y-107086632D01*
X109203368Y-107293475D01*
X109446589Y-107455990D01*
X109716842Y-107567932D01*
X110003740Y-107625000D01*
X110296260Y-107625000D01*
X110583158Y-107567932D01*
X110853411Y-107455990D01*
X111096632Y-107293475D01*
X111303475Y-107086632D01*
X111465990Y-106843411D01*
X111577932Y-106573158D01*
X111635000Y-106286260D01*
X111635000Y-105993740D01*
X111577932Y-105706842D01*
X111465990Y-105436589D01*
X111303475Y-105193368D01*
X111096632Y-104986525D01*
X110922240Y-104870000D01*
X111096632Y-104753475D01*
X111303475Y-104546632D01*
X111363414Y-104456926D01*
X115505000Y-104456926D01*
X115505000Y-104643074D01*
X115541316Y-104825646D01*
X115612552Y-104997625D01*
X115715971Y-105152402D01*
X115847598Y-105284029D01*
X116002375Y-105387448D01*
X116174354Y-105458684D01*
X116356926Y-105495000D01*
X116543074Y-105495000D01*
X116725646Y-105458684D01*
X116897625Y-105387448D01*
X117052402Y-105284029D01*
X117184029Y-105152402D01*
X117194988Y-105136000D01*
X117365074Y-105136000D01*
X117547646Y-105099684D01*
X117719625Y-105028448D01*
X117874402Y-104925029D01*
X118006029Y-104793402D01*
X118109448Y-104638625D01*
X118180684Y-104466646D01*
X118217000Y-104284074D01*
X118217000Y-104097926D01*
X118188954Y-103956926D01*
X123155000Y-103956926D01*
X123155000Y-104143074D01*
X123191316Y-104325646D01*
X123262552Y-104497625D01*
X123365971Y-104652402D01*
X123497598Y-104784029D01*
X123652375Y-104887448D01*
X123824354Y-104958684D01*
X124006926Y-104995000D01*
X124193074Y-104995000D01*
X124255000Y-104982682D01*
X124255000Y-104993074D01*
X124291316Y-105175646D01*
X124362552Y-105347625D01*
X124465971Y-105502402D01*
X124597598Y-105634029D01*
X124752375Y-105737448D01*
X124924354Y-105808684D01*
X125106926Y-105845000D01*
X125293074Y-105845000D01*
X125475646Y-105808684D01*
X125647625Y-105737448D01*
X125802402Y-105634029D01*
X125934029Y-105502402D01*
X126037448Y-105347625D01*
X126108684Y-105175646D01*
X126145000Y-104993074D01*
X126145000Y-104882520D01*
X126152375Y-104887448D01*
X126324354Y-104958684D01*
X126506926Y-104995000D01*
X126693074Y-104995000D01*
X126875646Y-104958684D01*
X127047625Y-104887448D01*
X127202402Y-104784029D01*
X127334029Y-104652402D01*
X127431233Y-104506926D01*
X128555000Y-104506926D01*
X128555000Y-104693074D01*
X128591316Y-104875646D01*
X128662552Y-105047625D01*
X128765971Y-105202402D01*
X128897598Y-105334029D01*
X129052375Y-105437448D01*
X129224354Y-105508684D01*
X129406926Y-105545000D01*
X129593074Y-105545000D01*
X129775646Y-105508684D01*
X129900000Y-105457175D01*
X130024354Y-105508684D01*
X130206926Y-105545000D01*
X130393074Y-105545000D01*
X130575646Y-105508684D01*
X130747625Y-105437448D01*
X130902402Y-105334029D01*
X131034029Y-105202402D01*
X131137448Y-105047625D01*
X131208684Y-104875646D01*
X131245000Y-104693074D01*
X131245000Y-104506926D01*
X131208684Y-104324354D01*
X131137448Y-104152375D01*
X131073671Y-104056926D01*
X164205000Y-104056926D01*
X164205000Y-104243074D01*
X164241316Y-104425646D01*
X164292825Y-104550000D01*
X164241316Y-104674354D01*
X164205000Y-104856926D01*
X164205000Y-105043074D01*
X164241316Y-105225646D01*
X164312552Y-105397625D01*
X164415971Y-105552402D01*
X164547598Y-105684029D01*
X164702375Y-105787448D01*
X164874354Y-105858684D01*
X165056926Y-105895000D01*
X165243074Y-105895000D01*
X165425646Y-105858684D01*
X165597625Y-105787448D01*
X165752402Y-105684029D01*
X165884029Y-105552402D01*
X165987448Y-105397625D01*
X166058684Y-105225646D01*
X166095000Y-105043074D01*
X166095000Y-104856926D01*
X166058684Y-104674354D01*
X166007175Y-104550000D01*
X166058684Y-104425646D01*
X166095000Y-104243074D01*
X166095000Y-104056926D01*
X166091848Y-104041081D01*
X166102402Y-104034029D01*
X166234029Y-103902402D01*
X166337448Y-103747625D01*
X166408684Y-103575646D01*
X166445000Y-103393074D01*
X166445000Y-103206926D01*
X166408684Y-103024354D01*
X166337448Y-102852375D01*
X166234029Y-102697598D01*
X166102402Y-102565971D01*
X165947625Y-102462552D01*
X165775646Y-102391316D01*
X165593074Y-102355000D01*
X165406926Y-102355000D01*
X165224354Y-102391316D01*
X165052375Y-102462552D01*
X164897598Y-102565971D01*
X164765971Y-102697598D01*
X164662552Y-102852375D01*
X164591316Y-103024354D01*
X164555000Y-103206926D01*
X164555000Y-103393074D01*
X164558152Y-103408919D01*
X164547598Y-103415971D01*
X164415971Y-103547598D01*
X164312552Y-103702375D01*
X164241316Y-103874354D01*
X164205000Y-104056926D01*
X131073671Y-104056926D01*
X131034029Y-103997598D01*
X130902402Y-103865971D01*
X130747625Y-103762552D01*
X130575646Y-103691316D01*
X130393074Y-103655000D01*
X130206926Y-103655000D01*
X130024354Y-103691316D01*
X129900000Y-103742825D01*
X129775646Y-103691316D01*
X129593074Y-103655000D01*
X129406926Y-103655000D01*
X129224354Y-103691316D01*
X129052375Y-103762552D01*
X128897598Y-103865971D01*
X128765971Y-103997598D01*
X128662552Y-104152375D01*
X128591316Y-104324354D01*
X128555000Y-104506926D01*
X127431233Y-104506926D01*
X127437448Y-104497625D01*
X127508684Y-104325646D01*
X127545000Y-104143074D01*
X127545000Y-103956926D01*
X127508684Y-103774354D01*
X127437448Y-103602375D01*
X127334029Y-103447598D01*
X127202402Y-103315971D01*
X127047625Y-103212552D01*
X126875646Y-103141316D01*
X126693074Y-103105000D01*
X126506926Y-103105000D01*
X126324354Y-103141316D01*
X126152375Y-103212552D01*
X126025001Y-103297661D01*
X125897625Y-103212551D01*
X125725646Y-103141315D01*
X125543074Y-103104999D01*
X125356926Y-103104999D01*
X125174354Y-103141315D01*
X125002375Y-103212551D01*
X124847598Y-103315970D01*
X124775000Y-103388569D01*
X124702402Y-103315971D01*
X124547625Y-103212552D01*
X124375646Y-103141316D01*
X124193074Y-103105000D01*
X124006926Y-103105000D01*
X123824354Y-103141316D01*
X123652375Y-103212552D01*
X123497598Y-103315971D01*
X123365971Y-103447598D01*
X123262552Y-103602375D01*
X123191316Y-103774354D01*
X123155000Y-103956926D01*
X118188954Y-103956926D01*
X118180684Y-103915354D01*
X118109448Y-103743375D01*
X118006029Y-103588598D01*
X117874402Y-103456971D01*
X117719625Y-103353552D01*
X117547646Y-103282316D01*
X117365074Y-103246000D01*
X117178926Y-103246000D01*
X116996354Y-103282316D01*
X116824375Y-103353552D01*
X116669598Y-103456971D01*
X116537971Y-103588598D01*
X116527012Y-103605000D01*
X116356926Y-103605000D01*
X116174354Y-103641316D01*
X116002375Y-103712552D01*
X115847598Y-103815971D01*
X115715971Y-103947598D01*
X115612552Y-104102375D01*
X115541316Y-104274354D01*
X115505000Y-104456926D01*
X111363414Y-104456926D01*
X111465990Y-104303411D01*
X111577932Y-104033158D01*
X111635000Y-103746260D01*
X111635000Y-103453740D01*
X111577932Y-103166842D01*
X111465990Y-102896589D01*
X111303475Y-102653368D01*
X111096632Y-102446525D01*
X110922240Y-102330000D01*
X111096632Y-102213475D01*
X111303475Y-102006632D01*
X111465990Y-101763411D01*
X111577932Y-101493158D01*
X111635000Y-101206260D01*
X111635000Y-100913740D01*
X111577932Y-100626842D01*
X111465990Y-100356589D01*
X111303475Y-100113368D01*
X111096632Y-99906525D01*
X110922240Y-99790000D01*
X111096632Y-99673475D01*
X111303475Y-99466632D01*
X111465990Y-99223411D01*
X111577932Y-98953158D01*
X111597073Y-98856926D01*
X139455000Y-98856926D01*
X139455000Y-99043074D01*
X139491316Y-99225646D01*
X139562552Y-99397625D01*
X139665971Y-99552402D01*
X139797598Y-99684029D01*
X139952375Y-99787448D01*
X140124354Y-99858684D01*
X140306926Y-99895000D01*
X140493074Y-99895000D01*
X140675646Y-99858684D01*
X140800000Y-99807175D01*
X140924354Y-99858684D01*
X141106926Y-99895000D01*
X141293074Y-99895000D01*
X141475646Y-99858684D01*
X141647625Y-99787448D01*
X141802402Y-99684029D01*
X141934029Y-99552402D01*
X142005000Y-99446187D01*
X142005000Y-99593074D01*
X142041316Y-99775646D01*
X142112552Y-99947625D01*
X142215971Y-100102402D01*
X142347598Y-100234029D01*
X142502375Y-100337448D01*
X142674354Y-100408684D01*
X142856926Y-100445000D01*
X143043074Y-100445000D01*
X143225646Y-100408684D01*
X143350000Y-100357175D01*
X143474354Y-100408684D01*
X143656926Y-100445000D01*
X143843074Y-100445000D01*
X144025646Y-100408684D01*
X144197625Y-100337448D01*
X144352402Y-100234029D01*
X144484029Y-100102402D01*
X144587448Y-99947625D01*
X144658684Y-99775646D01*
X144695000Y-99593074D01*
X144695000Y-99406926D01*
X144658684Y-99224354D01*
X144587448Y-99052375D01*
X144484029Y-98897598D01*
X144352402Y-98765971D01*
X144197625Y-98662552D01*
X144025646Y-98591316D01*
X143918620Y-98570027D01*
X143975646Y-98558684D01*
X144147625Y-98487448D01*
X144302402Y-98384029D01*
X144434029Y-98252402D01*
X144537448Y-98097625D01*
X144608684Y-97925646D01*
X144645000Y-97743074D01*
X144645000Y-97606926D01*
X145405000Y-97606926D01*
X145405000Y-97793074D01*
X145441316Y-97975646D01*
X145512552Y-98147625D01*
X145615971Y-98302402D01*
X145747598Y-98434029D01*
X145902375Y-98537448D01*
X146074354Y-98608684D01*
X146256926Y-98645000D01*
X146443074Y-98645000D01*
X146625646Y-98608684D01*
X146797625Y-98537448D01*
X146952402Y-98434029D01*
X147084029Y-98302402D01*
X147187448Y-98147625D01*
X147258684Y-97975646D01*
X147295000Y-97793074D01*
X147295000Y-97606926D01*
X147258684Y-97424354D01*
X147187448Y-97252375D01*
X147084029Y-97097598D01*
X146952402Y-96965971D01*
X146797625Y-96862552D01*
X146625646Y-96791316D01*
X146443074Y-96755000D01*
X146256926Y-96755000D01*
X146074354Y-96791316D01*
X145902375Y-96862552D01*
X145747598Y-96965971D01*
X145615971Y-97097598D01*
X145512552Y-97252375D01*
X145441316Y-97424354D01*
X145405000Y-97606926D01*
X144645000Y-97606926D01*
X144645000Y-97556926D01*
X144608684Y-97374354D01*
X144537448Y-97202375D01*
X144434029Y-97047598D01*
X144302402Y-96915971D01*
X144147625Y-96812552D01*
X143975646Y-96741316D01*
X143793074Y-96705000D01*
X143606926Y-96705000D01*
X143424354Y-96741316D01*
X143252375Y-96812552D01*
X143097598Y-96915971D01*
X142965971Y-97047598D01*
X142862552Y-97202375D01*
X142791316Y-97374354D01*
X142755000Y-97556926D01*
X142755000Y-97743074D01*
X142791316Y-97925646D01*
X142862552Y-98097625D01*
X142965971Y-98252402D01*
X143097598Y-98384029D01*
X143252375Y-98487448D01*
X143424354Y-98558684D01*
X143531380Y-98579973D01*
X143474354Y-98591316D01*
X143350000Y-98642825D01*
X143225646Y-98591316D01*
X143043074Y-98555000D01*
X142856926Y-98555000D01*
X142674354Y-98591316D01*
X142502375Y-98662552D01*
X142347598Y-98765971D01*
X142215971Y-98897598D01*
X142145000Y-99003813D01*
X142145000Y-98856926D01*
X142108684Y-98674354D01*
X142037448Y-98502375D01*
X141934029Y-98347598D01*
X141802402Y-98215971D01*
X141647625Y-98112552D01*
X141475646Y-98041316D01*
X141293074Y-98005000D01*
X141106926Y-98005000D01*
X140924354Y-98041316D01*
X140800000Y-98092825D01*
X140675646Y-98041316D01*
X140493074Y-98005000D01*
X140306926Y-98005000D01*
X140124354Y-98041316D01*
X139952375Y-98112552D01*
X139797598Y-98215971D01*
X139665971Y-98347598D01*
X139562552Y-98502375D01*
X139491316Y-98674354D01*
X139455000Y-98856926D01*
X111597073Y-98856926D01*
X111635000Y-98666260D01*
X111635000Y-98373740D01*
X111577932Y-98086842D01*
X111465990Y-97816589D01*
X111303475Y-97573368D01*
X111096632Y-97366525D01*
X110922240Y-97250000D01*
X111096632Y-97133475D01*
X111303475Y-96926632D01*
X111465990Y-96683411D01*
X111577932Y-96413158D01*
X111579171Y-96406926D01*
X137805000Y-96406926D01*
X137805000Y-96593074D01*
X137841316Y-96775646D01*
X137912552Y-96947625D01*
X138015971Y-97102402D01*
X138147598Y-97234029D01*
X138302375Y-97337448D01*
X138474354Y-97408684D01*
X138656926Y-97445000D01*
X138843074Y-97445000D01*
X139025646Y-97408684D01*
X139197625Y-97337448D01*
X139352402Y-97234029D01*
X139484029Y-97102402D01*
X139587448Y-96947625D01*
X139658684Y-96775646D01*
X139695000Y-96593074D01*
X139695000Y-96406926D01*
X139658684Y-96224354D01*
X139587448Y-96052375D01*
X139484029Y-95897598D01*
X139352402Y-95765971D01*
X139197625Y-95662552D01*
X139025646Y-95591316D01*
X138843074Y-95555000D01*
X138656926Y-95555000D01*
X138474354Y-95591316D01*
X138302375Y-95662552D01*
X138147598Y-95765971D01*
X138015971Y-95897598D01*
X137912552Y-96052375D01*
X137841316Y-96224354D01*
X137805000Y-96406926D01*
X111579171Y-96406926D01*
X111635000Y-96126260D01*
X111635000Y-95833740D01*
X111577932Y-95546842D01*
X111465990Y-95276589D01*
X111303475Y-95033368D01*
X111096632Y-94826525D01*
X110914466Y-94704805D01*
X111031355Y-94635178D01*
X111118168Y-94556926D01*
X139455000Y-94556926D01*
X139455000Y-94743074D01*
X139491316Y-94925646D01*
X139562552Y-95097625D01*
X139665971Y-95252402D01*
X139797598Y-95384029D01*
X139952375Y-95487448D01*
X140124354Y-95558684D01*
X140306926Y-95595000D01*
X140493074Y-95595000D01*
X140675646Y-95558684D01*
X140800000Y-95507175D01*
X140924354Y-95558684D01*
X141106926Y-95595000D01*
X141293074Y-95595000D01*
X141475646Y-95558684D01*
X141647625Y-95487448D01*
X141802402Y-95384029D01*
X141934029Y-95252402D01*
X142037448Y-95097625D01*
X142108684Y-94925646D01*
X142145000Y-94743074D01*
X142145000Y-94556926D01*
X142108684Y-94374354D01*
X142075815Y-94295000D01*
X142243074Y-94295000D01*
X142425646Y-94258684D01*
X142597625Y-94187448D01*
X142752402Y-94084029D01*
X142884029Y-93952402D01*
X142987448Y-93797625D01*
X143058684Y-93625646D01*
X143095000Y-93443074D01*
X143095000Y-93406926D01*
X143255000Y-93406926D01*
X143255000Y-93593074D01*
X143291316Y-93775646D01*
X143362552Y-93947625D01*
X143465971Y-94102402D01*
X143597598Y-94234029D01*
X143752375Y-94337448D01*
X143924354Y-94408684D01*
X144106926Y-94445000D01*
X144293074Y-94445000D01*
X144475646Y-94408684D01*
X144647625Y-94337448D01*
X144802402Y-94234029D01*
X144934029Y-94102402D01*
X145037448Y-93947625D01*
X145108684Y-93775646D01*
X145145000Y-93593074D01*
X145145000Y-93406926D01*
X145115164Y-93256926D01*
X164505000Y-93256926D01*
X164505000Y-93443074D01*
X164541316Y-93625646D01*
X164612552Y-93797625D01*
X164715971Y-93952402D01*
X164847598Y-94084029D01*
X165002375Y-94187448D01*
X165174354Y-94258684D01*
X165356926Y-94295000D01*
X165543074Y-94295000D01*
X165725646Y-94258684D01*
X165897625Y-94187448D01*
X166052402Y-94084029D01*
X166184029Y-93952402D01*
X166287448Y-93797625D01*
X166358684Y-93625646D01*
X166395000Y-93443074D01*
X166395000Y-93256926D01*
X166358684Y-93074354D01*
X166287448Y-92902375D01*
X166184029Y-92747598D01*
X166052402Y-92615971D01*
X165897625Y-92512552D01*
X165725646Y-92441316D01*
X165543074Y-92405000D01*
X165356926Y-92405000D01*
X165174354Y-92441316D01*
X165002375Y-92512552D01*
X164847598Y-92615971D01*
X164715971Y-92747598D01*
X164612552Y-92902375D01*
X164541316Y-93074354D01*
X164505000Y-93256926D01*
X145115164Y-93256926D01*
X145108684Y-93224354D01*
X145037448Y-93052375D01*
X144934029Y-92897598D01*
X144802402Y-92765971D01*
X144647625Y-92662552D01*
X144475646Y-92591316D01*
X144293074Y-92555000D01*
X144106926Y-92555000D01*
X143924354Y-92591316D01*
X143752375Y-92662552D01*
X143597598Y-92765971D01*
X143465971Y-92897598D01*
X143362552Y-93052375D01*
X143291316Y-93224354D01*
X143255000Y-93406926D01*
X143095000Y-93406926D01*
X143095000Y-93256926D01*
X143058684Y-93074354D01*
X142987448Y-92902375D01*
X142884029Y-92747598D01*
X142752402Y-92615971D01*
X142597625Y-92512552D01*
X142425646Y-92441316D01*
X142243074Y-92405000D01*
X142056926Y-92405000D01*
X141874354Y-92441316D01*
X141702375Y-92512552D01*
X141547598Y-92615971D01*
X141415971Y-92747598D01*
X141312552Y-92902375D01*
X141241316Y-93074354D01*
X141205000Y-93256926D01*
X141205000Y-93443074D01*
X141241316Y-93625646D01*
X141274185Y-93705000D01*
X141106926Y-93705000D01*
X140924354Y-93741316D01*
X140800000Y-93792825D01*
X140675646Y-93741316D01*
X140493074Y-93705000D01*
X140306926Y-93705000D01*
X140124354Y-93741316D01*
X139952375Y-93812552D01*
X139797598Y-93915971D01*
X139665971Y-94047598D01*
X139562552Y-94202375D01*
X139491316Y-94374354D01*
X139455000Y-94556926D01*
X111118168Y-94556926D01*
X111247588Y-94440269D01*
X111421641Y-94206920D01*
X111546825Y-93944099D01*
X111591476Y-93796890D01*
X111470155Y-93567000D01*
X110277000Y-93567000D01*
X110277000Y-93587000D01*
X110023000Y-93587000D01*
X110023000Y-93567000D01*
X110003000Y-93567000D01*
X110003000Y-93313000D01*
X110023000Y-93313000D01*
X110023000Y-93293000D01*
X110277000Y-93293000D01*
X110277000Y-93313000D01*
X111470155Y-93313000D01*
X111591476Y-93083110D01*
X111546825Y-92935901D01*
X111421641Y-92673080D01*
X111247588Y-92439731D01*
X111031355Y-92244822D01*
X110914466Y-92175195D01*
X111096632Y-92053475D01*
X111303475Y-91846632D01*
X111465990Y-91603411D01*
X111577932Y-91333158D01*
X111635000Y-91046260D01*
X111635000Y-90753740D01*
X111577932Y-90466842D01*
X111511693Y-90306926D01*
X137855000Y-90306926D01*
X137855000Y-90493074D01*
X137891316Y-90675646D01*
X137962552Y-90847625D01*
X137964139Y-90850000D01*
X137962552Y-90852375D01*
X137891316Y-91024354D01*
X137855000Y-91206926D01*
X137855000Y-91393074D01*
X137891316Y-91575646D01*
X137962552Y-91747625D01*
X138065971Y-91902402D01*
X138197598Y-92034029D01*
X138352375Y-92137448D01*
X138524354Y-92208684D01*
X138706926Y-92245000D01*
X138893074Y-92245000D01*
X139075646Y-92208684D01*
X139247625Y-92137448D01*
X139402402Y-92034029D01*
X139534029Y-91902402D01*
X139637448Y-91747625D01*
X139708684Y-91575646D01*
X139745000Y-91393074D01*
X139745000Y-91206926D01*
X139708684Y-91024354D01*
X139637448Y-90852375D01*
X139635861Y-90850000D01*
X139637448Y-90847625D01*
X139708684Y-90675646D01*
X139745000Y-90493074D01*
X139745000Y-90306926D01*
X139708684Y-90124354D01*
X139637448Y-89952375D01*
X139534029Y-89797598D01*
X139402402Y-89665971D01*
X139247625Y-89562552D01*
X139075646Y-89491316D01*
X138893074Y-89455000D01*
X138706926Y-89455000D01*
X138524354Y-89491316D01*
X138352375Y-89562552D01*
X138197598Y-89665971D01*
X138065971Y-89797598D01*
X137962552Y-89952375D01*
X137891316Y-90124354D01*
X137855000Y-90306926D01*
X111511693Y-90306926D01*
X111465990Y-90196589D01*
X111303475Y-89953368D01*
X111096632Y-89746525D01*
X110853411Y-89584010D01*
X110583158Y-89472068D01*
X110296260Y-89415000D01*
X110003740Y-89415000D01*
X109716842Y-89472068D01*
X109446589Y-89584010D01*
X109203368Y-89746525D01*
X109071513Y-89878380D01*
X109049502Y-89805820D01*
X108990537Y-89695506D01*
X108911185Y-89598815D01*
X108814494Y-89519463D01*
X108704180Y-89460498D01*
X108584482Y-89424188D01*
X108460000Y-89411928D01*
X106760000Y-89411928D01*
X106635518Y-89424188D01*
X106515820Y-89460498D01*
X106405506Y-89519463D01*
X106308815Y-89598815D01*
X106229463Y-89695506D01*
X106170498Y-89805820D01*
X106134188Y-89925518D01*
X106121928Y-90050000D01*
X105210000Y-90050000D01*
X105210000Y-86269292D01*
X116009500Y-87136405D01*
G37*
X116009500Y-87136405D02*
X116009500Y-87143996D01*
X115872598Y-87235471D01*
X115740971Y-87367098D01*
X115637552Y-87521875D01*
X115566316Y-87693854D01*
X115530000Y-87876426D01*
X115530000Y-88062574D01*
X115566316Y-88245146D01*
X115637552Y-88417125D01*
X115740971Y-88571902D01*
X115872598Y-88703529D01*
X116027375Y-88806948D01*
X116199354Y-88878184D01*
X116381926Y-88914500D01*
X116568074Y-88914500D01*
X116750646Y-88878184D01*
X116922625Y-88806948D01*
X117077402Y-88703529D01*
X117209029Y-88571902D01*
X117312448Y-88417125D01*
X117383684Y-88245146D01*
X117399570Y-88165281D01*
X117504354Y-88208684D01*
X117686926Y-88245000D01*
X117873074Y-88245000D01*
X118055646Y-88208684D01*
X118085484Y-88196325D01*
X118091316Y-88225646D01*
X118162552Y-88397625D01*
X118265971Y-88552402D01*
X118397598Y-88684029D01*
X118552375Y-88787448D01*
X118724354Y-88858684D01*
X118906926Y-88895000D01*
X119093074Y-88895000D01*
X119275646Y-88858684D01*
X119447625Y-88787448D01*
X119602402Y-88684029D01*
X119650000Y-88636431D01*
X119697598Y-88684029D01*
X119852375Y-88787448D01*
X120024354Y-88858684D01*
X120206926Y-88895000D01*
X120393074Y-88895000D01*
X120575646Y-88858684D01*
X120747625Y-88787448D01*
X120902402Y-88684029D01*
X120925000Y-88661431D01*
X120947598Y-88684029D01*
X121102375Y-88787448D01*
X121274354Y-88858684D01*
X121456926Y-88895000D01*
X121643074Y-88895000D01*
X121825646Y-88858684D01*
X121997625Y-88787448D01*
X122152402Y-88684029D01*
X122200000Y-88636431D01*
X122247598Y-88684029D01*
X122402375Y-88787448D01*
X122574354Y-88858684D01*
X122756926Y-88895000D01*
X122943074Y-88895000D01*
X123125646Y-88858684D01*
X123297625Y-88787448D01*
X123452402Y-88684029D01*
X123475000Y-88661431D01*
X123497598Y-88684029D01*
X123652375Y-88787448D01*
X123824354Y-88858684D01*
X124006926Y-88895000D01*
X124193074Y-88895000D01*
X124375646Y-88858684D01*
X124547625Y-88787448D01*
X124702402Y-88684029D01*
X124834029Y-88552402D01*
X124937448Y-88397625D01*
X125008684Y-88225646D01*
X125045000Y-88043074D01*
X125045000Y-87861883D01*
X166823000Y-91216321D01*
X166823000Y-108783679D01*
X105210000Y-113730708D01*
X105210000Y-111064335D01*
X106765000Y-111064335D01*
X106765000Y-111735664D01*
X106782870Y-111917101D01*
X106853489Y-112149900D01*
X106968167Y-112364448D01*
X107122498Y-112552502D01*
X107310551Y-112706833D01*
X107525099Y-112821511D01*
X107757898Y-112892130D01*
X108000000Y-112915975D01*
X108242101Y-112892130D01*
X108474900Y-112821511D01*
X108689448Y-112706833D01*
X108843309Y-112580564D01*
X108869463Y-112629494D01*
X108948815Y-112726185D01*
X109045506Y-112805537D01*
X109155820Y-112864502D01*
X109275518Y-112900812D01*
X109400000Y-112913072D01*
X109714250Y-112910000D01*
X109873000Y-112751250D01*
X109873000Y-111527000D01*
X110127000Y-111527000D01*
X110127000Y-112751250D01*
X110285750Y-112910000D01*
X110600000Y-112913072D01*
X110724482Y-112900812D01*
X110844180Y-112864502D01*
X110954494Y-112805537D01*
X111051185Y-112726185D01*
X111130537Y-112629494D01*
X111189502Y-112519180D01*
X111225812Y-112399482D01*
X111238072Y-112275000D01*
X111235000Y-111685750D01*
X111076250Y-111527000D01*
X110127000Y-111527000D01*
X109873000Y-111527000D01*
X109853000Y-111527000D01*
X109853000Y-111273000D01*
X109873000Y-111273000D01*
X109873000Y-110048750D01*
X110127000Y-110048750D01*
X110127000Y-111273000D01*
X111076250Y-111273000D01*
X111235000Y-111114250D01*
X111238072Y-110525000D01*
X111225812Y-110400518D01*
X111189502Y-110280820D01*
X111130537Y-110170506D01*
X111051185Y-110073815D01*
X110954494Y-109994463D01*
X110844180Y-109935498D01*
X110724482Y-109899188D01*
X110600000Y-109886928D01*
X110285750Y-109890000D01*
X110127000Y-110048750D01*
X109873000Y-110048750D01*
X109714250Y-109890000D01*
X109400000Y-109886928D01*
X109275518Y-109899188D01*
X109155820Y-109935498D01*
X109045506Y-109994463D01*
X108948815Y-110073815D01*
X108869463Y-110170506D01*
X108843309Y-110219436D01*
X108689449Y-110093167D01*
X108474901Y-109978489D01*
X108242102Y-109907870D01*
X108000000Y-109884025D01*
X107757899Y-109907870D01*
X107525100Y-109978489D01*
X107310552Y-110093167D01*
X107122499Y-110247498D01*
X106968168Y-110435551D01*
X106853489Y-110650099D01*
X106782870Y-110882898D01*
X106765000Y-111064335D01*
X105210000Y-111064335D01*
X105210000Y-108400524D01*
X114590000Y-108400524D01*
X114590000Y-108599476D01*
X114628814Y-108794606D01*
X114704950Y-108978414D01*
X114815482Y-109143837D01*
X114956163Y-109284518D01*
X115121586Y-109395050D01*
X115305394Y-109471186D01*
X115500524Y-109510000D01*
X115699476Y-109510000D01*
X115894606Y-109471186D01*
X116078414Y-109395050D01*
X116243837Y-109284518D01*
X116384518Y-109143837D01*
X116495050Y-108978414D01*
X116571186Y-108794606D01*
X116610000Y-108599476D01*
X116610000Y-108400524D01*
X123390000Y-108400524D01*
X123390000Y-108599476D01*
X123428814Y-108794606D01*
X123504950Y-108978414D01*
X123615482Y-109143837D01*
X123756163Y-109284518D01*
X123921586Y-109395050D01*
X124105394Y-109471186D01*
X124300524Y-109510000D01*
X124499476Y-109510000D01*
X124694606Y-109471186D01*
X124878414Y-109395050D01*
X125043837Y-109284518D01*
X125184518Y-109143837D01*
X125213808Y-109100000D01*
X127181928Y-109100000D01*
X127181928Y-110900000D01*
X127194188Y-111024482D01*
X127230498Y-111144180D01*
X127289463Y-111254494D01*
X127368815Y-111351185D01*
X127465506Y-111430537D01*
X127575820Y-111489502D01*
X127695518Y-111525812D01*
X127820000Y-111538072D01*
X129620000Y-111538072D01*
X129744482Y-111525812D01*
X129864180Y-111489502D01*
X129974494Y-111430537D01*
X130071185Y-111351185D01*
X130150537Y-111254494D01*
X130209502Y-111144180D01*
X130215056Y-111125873D01*
X130281495Y-111192312D01*
X130532905Y-111360299D01*
X130812257Y-111476011D01*
X131108816Y-111535000D01*
X131411184Y-111535000D01*
X131707743Y-111476011D01*
X131987095Y-111360299D01*
X132238505Y-111192312D01*
X132452312Y-110978505D01*
X132620299Y-110727095D01*
X132736011Y-110447743D01*
X132795000Y-110151184D01*
X132795000Y-109848816D01*
X132736011Y-109552257D01*
X132703797Y-109474486D01*
X132806926Y-109495000D01*
X132993074Y-109495000D01*
X133175646Y-109458684D01*
X133300000Y-109407175D01*
X133424354Y-109458684D01*
X133606926Y-109495000D01*
X133793074Y-109495000D01*
X133975646Y-109458684D01*
X134147625Y-109387448D01*
X134302402Y-109284029D01*
X134434029Y-109152402D01*
X134537448Y-108997625D01*
X134608684Y-108825646D01*
X134645000Y-108643074D01*
X134645000Y-108456926D01*
X134608684Y-108274354D01*
X134537448Y-108102375D01*
X134473671Y-108006926D01*
X135505000Y-108006926D01*
X135505000Y-108193074D01*
X135541316Y-108375646D01*
X135612552Y-108547625D01*
X135715874Y-108702257D01*
X135705000Y-108756926D01*
X135705000Y-108943074D01*
X135741316Y-109125646D01*
X135812552Y-109297625D01*
X135915971Y-109452402D01*
X136047598Y-109584029D01*
X136202375Y-109687448D01*
X136374354Y-109758684D01*
X136556926Y-109795000D01*
X136743074Y-109795000D01*
X136925646Y-109758684D01*
X137097625Y-109687448D01*
X137252402Y-109584029D01*
X137384029Y-109452402D01*
X137487448Y-109297625D01*
X137558684Y-109125646D01*
X137595000Y-108943074D01*
X137595000Y-108756926D01*
X137558684Y-108574354D01*
X137487448Y-108402375D01*
X137384126Y-108247743D01*
X137395000Y-108193074D01*
X137395000Y-108006926D01*
X137358684Y-107824354D01*
X137287448Y-107652375D01*
X137184029Y-107497598D01*
X137052402Y-107365971D01*
X136897625Y-107262552D01*
X136725646Y-107191316D01*
X136543074Y-107155000D01*
X136356926Y-107155000D01*
X136174354Y-107191316D01*
X136002375Y-107262552D01*
X135847598Y-107365971D01*
X135715971Y-107497598D01*
X135612552Y-107652375D01*
X135541316Y-107824354D01*
X135505000Y-108006926D01*
X134473671Y-108006926D01*
X134434029Y-107947598D01*
X134302402Y-107815971D01*
X134147625Y-107712552D01*
X133975646Y-107641316D01*
X133793074Y-107605000D01*
X133606926Y-107605000D01*
X133424354Y-107641316D01*
X133300000Y-107692825D01*
X133175646Y-107641316D01*
X132993074Y-107605000D01*
X132806926Y-107605000D01*
X132624354Y-107641316D01*
X132452375Y-107712552D01*
X132297598Y-107815971D01*
X132165971Y-107947598D01*
X132062552Y-108102375D01*
X131991316Y-108274354D01*
X131955000Y-108456926D01*
X131955000Y-108626407D01*
X131707743Y-108523989D01*
X131411184Y-108465000D01*
X131108816Y-108465000D01*
X130812257Y-108523989D01*
X130532905Y-108639701D01*
X130281495Y-108807688D01*
X130215056Y-108874127D01*
X130209502Y-108855820D01*
X130150537Y-108745506D01*
X130071185Y-108648815D01*
X129974494Y-108569463D01*
X129864180Y-108510498D01*
X129744482Y-108474188D01*
X129620000Y-108461928D01*
X127820000Y-108461928D01*
X127695518Y-108474188D01*
X127575820Y-108510498D01*
X127465506Y-108569463D01*
X127368815Y-108648815D01*
X127289463Y-108745506D01*
X127230498Y-108855820D01*
X127194188Y-108975518D01*
X127181928Y-109100000D01*
X125213808Y-109100000D01*
X125295050Y-108978414D01*
X125371186Y-108794606D01*
X125410000Y-108599476D01*
X125410000Y-108400524D01*
X125371186Y-108205394D01*
X125295050Y-108021586D01*
X125184518Y-107856163D01*
X125043837Y-107715482D01*
X124878414Y-107604950D01*
X124694606Y-107528814D01*
X124499476Y-107490000D01*
X124300524Y-107490000D01*
X124105394Y-107528814D01*
X123921586Y-107604950D01*
X123756163Y-107715482D01*
X123615482Y-107856163D01*
X123504950Y-108021586D01*
X123428814Y-108205394D01*
X123390000Y-108400524D01*
X116610000Y-108400524D01*
X116571186Y-108205394D01*
X116495050Y-108021586D01*
X116384518Y-107856163D01*
X116243837Y-107715482D01*
X116078414Y-107604950D01*
X115894606Y-107528814D01*
X115699476Y-107490000D01*
X115500524Y-107490000D01*
X115305394Y-107528814D01*
X115121586Y-107604950D01*
X114956163Y-107715482D01*
X114815482Y-107856163D01*
X114704950Y-108021586D01*
X114628814Y-108205394D01*
X114590000Y-108400524D01*
X105210000Y-108400524D01*
X105210000Y-107034877D01*
X105213435Y-107000000D01*
X105199727Y-106860816D01*
X105159128Y-106726980D01*
X105093200Y-106603637D01*
X105004475Y-106495525D01*
X104896363Y-106406800D01*
X104773020Y-106340872D01*
X104639184Y-106300273D01*
X104534877Y-106290000D01*
X104500000Y-106286565D01*
X104465123Y-106290000D01*
X97710000Y-106290000D01*
X97710000Y-99820629D01*
X98178812Y-99820629D01*
X98178812Y-100179371D01*
X98248799Y-100531221D01*
X98386084Y-100862656D01*
X98585391Y-101160940D01*
X98839060Y-101414609D01*
X99137344Y-101613916D01*
X99468779Y-101751201D01*
X99820629Y-101821188D01*
X100179371Y-101821188D01*
X100531221Y-101751201D01*
X100862656Y-101613916D01*
X101160940Y-101414609D01*
X101414609Y-101160940D01*
X101613916Y-100862656D01*
X101751201Y-100531221D01*
X101821188Y-100179371D01*
X101821188Y-99820629D01*
X101751201Y-99468779D01*
X101613916Y-99137344D01*
X101414609Y-98839060D01*
X101160940Y-98585391D01*
X100862656Y-98386084D01*
X100678974Y-98310000D01*
X103011928Y-98310000D01*
X103024188Y-98434482D01*
X103060498Y-98554180D01*
X103119463Y-98664494D01*
X103198815Y-98761185D01*
X103295506Y-98840537D01*
X103405820Y-98899502D01*
X103478380Y-98921513D01*
X103346525Y-99053368D01*
X103184010Y-99296589D01*
X103072068Y-99566842D01*
X103015000Y-99853740D01*
X103015000Y-100146260D01*
X103072068Y-100433158D01*
X103184010Y-100703411D01*
X103346525Y-100946632D01*
X103553368Y-101153475D01*
X103727760Y-101270000D01*
X103553368Y-101386525D01*
X103346525Y-101593368D01*
X103184010Y-101836589D01*
X103072068Y-102106842D01*
X103015000Y-102393740D01*
X103015000Y-102686260D01*
X103072068Y-102973158D01*
X103184010Y-103243411D01*
X103346525Y-103486632D01*
X103553368Y-103693475D01*
X103796589Y-103855990D01*
X104066842Y-103967932D01*
X104353740Y-104025000D01*
X104646260Y-104025000D01*
X104933158Y-103967932D01*
X105203411Y-103855990D01*
X105446632Y-103693475D01*
X105653475Y-103486632D01*
X105815990Y-103243411D01*
X105927932Y-102973158D01*
X105985000Y-102686260D01*
X105985000Y-102393740D01*
X105927932Y-102106842D01*
X105815990Y-101836589D01*
X105653475Y-101593368D01*
X105446632Y-101386525D01*
X105272240Y-101270000D01*
X105446632Y-101153475D01*
X105653475Y-100946632D01*
X105815990Y-100703411D01*
X105927932Y-100433158D01*
X105985000Y-100146260D01*
X105985000Y-99853740D01*
X105927932Y-99566842D01*
X105815990Y-99296589D01*
X105653475Y-99053368D01*
X105521620Y-98921513D01*
X105594180Y-98899502D01*
X105636483Y-98876890D01*
X106168524Y-98876890D01*
X106213175Y-99024099D01*
X106338359Y-99286920D01*
X106512412Y-99520269D01*
X106728645Y-99715178D01*
X106854255Y-99790000D01*
X106728645Y-99864822D01*
X106512412Y-100059731D01*
X106338359Y-100293080D01*
X106213175Y-100555901D01*
X106168524Y-100703110D01*
X106289845Y-100933000D01*
X107483000Y-100933000D01*
X107483000Y-98647000D01*
X106289845Y-98647000D01*
X106168524Y-98876890D01*
X105636483Y-98876890D01*
X105704494Y-98840537D01*
X105801185Y-98761185D01*
X105880537Y-98664494D01*
X105939502Y-98554180D01*
X105975812Y-98434482D01*
X105988072Y-98310000D01*
X105985000Y-97745750D01*
X105826250Y-97587000D01*
X104627000Y-97587000D01*
X104627000Y-97607000D01*
X104373000Y-97607000D01*
X104373000Y-97587000D01*
X103173750Y-97587000D01*
X103015000Y-97745750D01*
X103011928Y-98310000D01*
X100678974Y-98310000D01*
X100531221Y-98248799D01*
X100179371Y-98178812D01*
X99820629Y-98178812D01*
X99468779Y-98248799D01*
X99137344Y-98386084D01*
X98839060Y-98585391D01*
X98585391Y-98839060D01*
X98386084Y-99137344D01*
X98248799Y-99468779D01*
X98178812Y-99820629D01*
X97710000Y-99820629D01*
X97710000Y-96610000D01*
X103011928Y-96610000D01*
X103015000Y-97174250D01*
X103173750Y-97333000D01*
X104373000Y-97333000D01*
X104373000Y-96133750D01*
X104627000Y-96133750D01*
X104627000Y-97333000D01*
X105826250Y-97333000D01*
X105985000Y-97174250D01*
X105988072Y-96610000D01*
X105975812Y-96485518D01*
X105939502Y-96365820D01*
X105924039Y-96336890D01*
X106168524Y-96336890D01*
X106213175Y-96484099D01*
X106338359Y-96746920D01*
X106512412Y-96980269D01*
X106728645Y-97175178D01*
X106854255Y-97250000D01*
X106728645Y-97324822D01*
X106512412Y-97519731D01*
X106338359Y-97753080D01*
X106213175Y-98015901D01*
X106168524Y-98163110D01*
X106289845Y-98393000D01*
X107483000Y-98393000D01*
X107483000Y-96107000D01*
X106289845Y-96107000D01*
X106168524Y-96336890D01*
X105924039Y-96336890D01*
X105880537Y-96255506D01*
X105801185Y-96158815D01*
X105704494Y-96079463D01*
X105594180Y-96020498D01*
X105474482Y-95984188D01*
X105350000Y-95971928D01*
X104785750Y-95975000D01*
X104627000Y-96133750D01*
X104373000Y-96133750D01*
X104214250Y-95975000D01*
X103650000Y-95971928D01*
X103525518Y-95984188D01*
X103405820Y-96020498D01*
X103295506Y-96079463D01*
X103198815Y-96158815D01*
X103119463Y-96255506D01*
X103060498Y-96365820D01*
X103024188Y-96485518D01*
X103011928Y-96610000D01*
X97710000Y-96610000D01*
X97710000Y-93710000D01*
X104465123Y-93710000D01*
X104500000Y-93713435D01*
X104534877Y-93710000D01*
X104639184Y-93699727D01*
X104773020Y-93659128D01*
X104896363Y-93593200D01*
X105004475Y-93504475D01*
X105093200Y-93396363D01*
X105159128Y-93273020D01*
X105199727Y-93139184D01*
X105213435Y-93000000D01*
X105210000Y-92965123D01*
X105210000Y-90050000D01*
X106121928Y-90050000D01*
X106121928Y-91750000D01*
X106134188Y-91874482D01*
X106170498Y-91994180D01*
X106229463Y-92104494D01*
X106308815Y-92201185D01*
X106405506Y-92280537D01*
X106515820Y-92339502D01*
X106588380Y-92361513D01*
X106456525Y-92493368D01*
X106294010Y-92736589D01*
X106182068Y-93006842D01*
X106125000Y-93293740D01*
X106125000Y-93586260D01*
X106182068Y-93873158D01*
X106294010Y-94143411D01*
X106456525Y-94386632D01*
X106663368Y-94593475D01*
X106845534Y-94715195D01*
X106728645Y-94784822D01*
X106512412Y-94979731D01*
X106338359Y-95213080D01*
X106213175Y-95475901D01*
X106168524Y-95623110D01*
X106289845Y-95853000D01*
X107483000Y-95853000D01*
X107483000Y-95833000D01*
X107737000Y-95833000D01*
X107737000Y-95853000D01*
X107757000Y-95853000D01*
X107757000Y-96107000D01*
X107737000Y-96107000D01*
X107737000Y-98393000D01*
X107757000Y-98393000D01*
X107757000Y-98647000D01*
X107737000Y-98647000D01*
X107737000Y-100933000D01*
X107757000Y-100933000D01*
X107757000Y-101187000D01*
X107737000Y-101187000D01*
X107737000Y-101207000D01*
X107483000Y-101207000D01*
X107483000Y-101187000D01*
X106289845Y-101187000D01*
X106168524Y-101416890D01*
X106213175Y-101564099D01*
X106338359Y-101826920D01*
X106512412Y-102060269D01*
X106728645Y-102255178D01*
X106845534Y-102324805D01*
X106663368Y-102446525D01*
X106456525Y-102653368D01*
X106294010Y-102896589D01*
X106182068Y-103166842D01*
X106125000Y-103453740D01*
X106125000Y-103746260D01*
X106182068Y-104033158D01*
X106294010Y-104303411D01*
X106456525Y-104546632D01*
X106663368Y-104753475D01*
X106837760Y-104870000D01*
X106663368Y-104986525D01*
X106456525Y-105193368D01*
X106294010Y-105436589D01*
X106182068Y-105706842D01*
X106125000Y-105993740D01*
X106125000Y-106286260D01*
X106182068Y-106573158D01*
X106294010Y-106843411D01*
X106456525Y-107086632D01*
X106663368Y-107293475D01*
X106906589Y-107455990D01*
X107176842Y-107567932D01*
X107463740Y-107625000D01*
X107756260Y-107625000D01*
X108043158Y-107567932D01*
X108313411Y-107455990D01*
X108556632Y-107293475D01*
X108763475Y-107086632D01*
X108880000Y-106912240D01*
X108996525Y-107086632D01*
X109203368Y-107293475D01*
X109446589Y-107455990D01*
X109716842Y-107567932D01*
X110003740Y-107625000D01*
X110296260Y-107625000D01*
X110583158Y-107567932D01*
X110853411Y-107455990D01*
X111096632Y-107293475D01*
X111303475Y-107086632D01*
X111465990Y-106843411D01*
X111577932Y-106573158D01*
X111635000Y-106286260D01*
X111635000Y-105993740D01*
X111577932Y-105706842D01*
X111465990Y-105436589D01*
X111303475Y-105193368D01*
X111096632Y-104986525D01*
X110922240Y-104870000D01*
X111096632Y-104753475D01*
X111303475Y-104546632D01*
X111363414Y-104456926D01*
X115505000Y-104456926D01*
X115505000Y-104643074D01*
X115541316Y-104825646D01*
X115612552Y-104997625D01*
X115715971Y-105152402D01*
X115847598Y-105284029D01*
X116002375Y-105387448D01*
X116174354Y-105458684D01*
X116356926Y-105495000D01*
X116543074Y-105495000D01*
X116725646Y-105458684D01*
X116897625Y-105387448D01*
X117052402Y-105284029D01*
X117184029Y-105152402D01*
X117194988Y-105136000D01*
X117365074Y-105136000D01*
X117547646Y-105099684D01*
X117719625Y-105028448D01*
X117874402Y-104925029D01*
X118006029Y-104793402D01*
X118109448Y-104638625D01*
X118180684Y-104466646D01*
X118217000Y-104284074D01*
X118217000Y-104097926D01*
X118188954Y-103956926D01*
X123155000Y-103956926D01*
X123155000Y-104143074D01*
X123191316Y-104325646D01*
X123262552Y-104497625D01*
X123365971Y-104652402D01*
X123497598Y-104784029D01*
X123652375Y-104887448D01*
X123824354Y-104958684D01*
X124006926Y-104995000D01*
X124193074Y-104995000D01*
X124255000Y-104982682D01*
X124255000Y-104993074D01*
X124291316Y-105175646D01*
X124362552Y-105347625D01*
X124465971Y-105502402D01*
X124597598Y-105634029D01*
X124752375Y-105737448D01*
X124924354Y-105808684D01*
X125106926Y-105845000D01*
X125293074Y-105845000D01*
X125475646Y-105808684D01*
X125647625Y-105737448D01*
X125802402Y-105634029D01*
X125934029Y-105502402D01*
X126037448Y-105347625D01*
X126108684Y-105175646D01*
X126145000Y-104993074D01*
X126145000Y-104882520D01*
X126152375Y-104887448D01*
X126324354Y-104958684D01*
X126506926Y-104995000D01*
X126693074Y-104995000D01*
X126875646Y-104958684D01*
X127047625Y-104887448D01*
X127202402Y-104784029D01*
X127334029Y-104652402D01*
X127431233Y-104506926D01*
X128555000Y-104506926D01*
X128555000Y-104693074D01*
X128591316Y-104875646D01*
X128662552Y-105047625D01*
X128765971Y-105202402D01*
X128897598Y-105334029D01*
X129052375Y-105437448D01*
X129224354Y-105508684D01*
X129406926Y-105545000D01*
X129593074Y-105545000D01*
X129775646Y-105508684D01*
X129900000Y-105457175D01*
X130024354Y-105508684D01*
X130206926Y-105545000D01*
X130393074Y-105545000D01*
X130575646Y-105508684D01*
X130747625Y-105437448D01*
X130902402Y-105334029D01*
X131034029Y-105202402D01*
X131137448Y-105047625D01*
X131208684Y-104875646D01*
X131245000Y-104693074D01*
X131245000Y-104506926D01*
X131208684Y-104324354D01*
X131137448Y-104152375D01*
X131073671Y-104056926D01*
X164205000Y-104056926D01*
X164205000Y-104243074D01*
X164241316Y-104425646D01*
X164292825Y-104550000D01*
X164241316Y-104674354D01*
X164205000Y-104856926D01*
X164205000Y-105043074D01*
X164241316Y-105225646D01*
X164312552Y-105397625D01*
X164415971Y-105552402D01*
X164547598Y-105684029D01*
X164702375Y-105787448D01*
X164874354Y-105858684D01*
X165056926Y-105895000D01*
X165243074Y-105895000D01*
X165425646Y-105858684D01*
X165597625Y-105787448D01*
X165752402Y-105684029D01*
X165884029Y-105552402D01*
X165987448Y-105397625D01*
X166058684Y-105225646D01*
X166095000Y-105043074D01*
X166095000Y-104856926D01*
X166058684Y-104674354D01*
X166007175Y-104550000D01*
X166058684Y-104425646D01*
X166095000Y-104243074D01*
X166095000Y-104056926D01*
X166091848Y-104041081D01*
X166102402Y-104034029D01*
X166234029Y-103902402D01*
X166337448Y-103747625D01*
X166408684Y-103575646D01*
X166445000Y-103393074D01*
X166445000Y-103206926D01*
X166408684Y-103024354D01*
X166337448Y-102852375D01*
X166234029Y-102697598D01*
X166102402Y-102565971D01*
X165947625Y-102462552D01*
X165775646Y-102391316D01*
X165593074Y-102355000D01*
X165406926Y-102355000D01*
X165224354Y-102391316D01*
X165052375Y-102462552D01*
X164897598Y-102565971D01*
X164765971Y-102697598D01*
X164662552Y-102852375D01*
X164591316Y-103024354D01*
X164555000Y-103206926D01*
X164555000Y-103393074D01*
X164558152Y-103408919D01*
X164547598Y-103415971D01*
X164415971Y-103547598D01*
X164312552Y-103702375D01*
X164241316Y-103874354D01*
X164205000Y-104056926D01*
X131073671Y-104056926D01*
X131034029Y-103997598D01*
X130902402Y-103865971D01*
X130747625Y-103762552D01*
X130575646Y-103691316D01*
X130393074Y-103655000D01*
X130206926Y-103655000D01*
X130024354Y-103691316D01*
X129900000Y-103742825D01*
X129775646Y-103691316D01*
X129593074Y-103655000D01*
X129406926Y-103655000D01*
X129224354Y-103691316D01*
X129052375Y-103762552D01*
X128897598Y-103865971D01*
X128765971Y-103997598D01*
X128662552Y-104152375D01*
X128591316Y-104324354D01*
X128555000Y-104506926D01*
X127431233Y-104506926D01*
X127437448Y-104497625D01*
X127508684Y-104325646D01*
X127545000Y-104143074D01*
X127545000Y-103956926D01*
X127508684Y-103774354D01*
X127437448Y-103602375D01*
X127334029Y-103447598D01*
X127202402Y-103315971D01*
X127047625Y-103212552D01*
X126875646Y-103141316D01*
X126693074Y-103105000D01*
X126506926Y-103105000D01*
X126324354Y-103141316D01*
X126152375Y-103212552D01*
X126025001Y-103297661D01*
X125897625Y-103212551D01*
X125725646Y-103141315D01*
X125543074Y-103104999D01*
X125356926Y-103104999D01*
X125174354Y-103141315D01*
X125002375Y-103212551D01*
X124847598Y-103315970D01*
X124775000Y-103388569D01*
X124702402Y-103315971D01*
X124547625Y-103212552D01*
X124375646Y-103141316D01*
X124193074Y-103105000D01*
X124006926Y-103105000D01*
X123824354Y-103141316D01*
X123652375Y-103212552D01*
X123497598Y-103315971D01*
X123365971Y-103447598D01*
X123262552Y-103602375D01*
X123191316Y-103774354D01*
X123155000Y-103956926D01*
X118188954Y-103956926D01*
X118180684Y-103915354D01*
X118109448Y-103743375D01*
X118006029Y-103588598D01*
X117874402Y-103456971D01*
X117719625Y-103353552D01*
X117547646Y-103282316D01*
X117365074Y-103246000D01*
X117178926Y-103246000D01*
X116996354Y-103282316D01*
X116824375Y-103353552D01*
X116669598Y-103456971D01*
X116537971Y-103588598D01*
X116527012Y-103605000D01*
X116356926Y-103605000D01*
X116174354Y-103641316D01*
X116002375Y-103712552D01*
X115847598Y-103815971D01*
X115715971Y-103947598D01*
X115612552Y-104102375D01*
X115541316Y-104274354D01*
X115505000Y-104456926D01*
X111363414Y-104456926D01*
X111465990Y-104303411D01*
X111577932Y-104033158D01*
X111635000Y-103746260D01*
X111635000Y-103453740D01*
X111577932Y-103166842D01*
X111465990Y-102896589D01*
X111303475Y-102653368D01*
X111096632Y-102446525D01*
X110922240Y-102330000D01*
X111096632Y-102213475D01*
X111303475Y-102006632D01*
X111465990Y-101763411D01*
X111577932Y-101493158D01*
X111635000Y-101206260D01*
X111635000Y-100913740D01*
X111577932Y-100626842D01*
X111465990Y-100356589D01*
X111303475Y-100113368D01*
X111096632Y-99906525D01*
X110922240Y-99790000D01*
X111096632Y-99673475D01*
X111303475Y-99466632D01*
X111465990Y-99223411D01*
X111577932Y-98953158D01*
X111597073Y-98856926D01*
X139455000Y-98856926D01*
X139455000Y-99043074D01*
X139491316Y-99225646D01*
X139562552Y-99397625D01*
X139665971Y-99552402D01*
X139797598Y-99684029D01*
X139952375Y-99787448D01*
X140124354Y-99858684D01*
X140306926Y-99895000D01*
X140493074Y-99895000D01*
X140675646Y-99858684D01*
X140800000Y-99807175D01*
X140924354Y-99858684D01*
X141106926Y-99895000D01*
X141293074Y-99895000D01*
X141475646Y-99858684D01*
X141647625Y-99787448D01*
X141802402Y-99684029D01*
X141934029Y-99552402D01*
X142005000Y-99446187D01*
X142005000Y-99593074D01*
X142041316Y-99775646D01*
X142112552Y-99947625D01*
X142215971Y-100102402D01*
X142347598Y-100234029D01*
X142502375Y-100337448D01*
X142674354Y-100408684D01*
X142856926Y-100445000D01*
X143043074Y-100445000D01*
X143225646Y-100408684D01*
X143350000Y-100357175D01*
X143474354Y-100408684D01*
X143656926Y-100445000D01*
X143843074Y-100445000D01*
X144025646Y-100408684D01*
X144197625Y-100337448D01*
X144352402Y-100234029D01*
X144484029Y-100102402D01*
X144587448Y-99947625D01*
X144658684Y-99775646D01*
X144695000Y-99593074D01*
X144695000Y-99406926D01*
X144658684Y-99224354D01*
X144587448Y-99052375D01*
X144484029Y-98897598D01*
X144352402Y-98765971D01*
X144197625Y-98662552D01*
X144025646Y-98591316D01*
X143918620Y-98570027D01*
X143975646Y-98558684D01*
X144147625Y-98487448D01*
X144302402Y-98384029D01*
X144434029Y-98252402D01*
X144537448Y-98097625D01*
X144608684Y-97925646D01*
X144645000Y-97743074D01*
X144645000Y-97606926D01*
X145405000Y-97606926D01*
X145405000Y-97793074D01*
X145441316Y-97975646D01*
X145512552Y-98147625D01*
X145615971Y-98302402D01*
X145747598Y-98434029D01*
X145902375Y-98537448D01*
X146074354Y-98608684D01*
X146256926Y-98645000D01*
X146443074Y-98645000D01*
X146625646Y-98608684D01*
X146797625Y-98537448D01*
X146952402Y-98434029D01*
X147084029Y-98302402D01*
X147187448Y-98147625D01*
X147258684Y-97975646D01*
X147295000Y-97793074D01*
X147295000Y-97606926D01*
X147258684Y-97424354D01*
X147187448Y-97252375D01*
X147084029Y-97097598D01*
X146952402Y-96965971D01*
X146797625Y-96862552D01*
X146625646Y-96791316D01*
X146443074Y-96755000D01*
X146256926Y-96755000D01*
X146074354Y-96791316D01*
X145902375Y-96862552D01*
X145747598Y-96965971D01*
X145615971Y-97097598D01*
X145512552Y-97252375D01*
X145441316Y-97424354D01*
X145405000Y-97606926D01*
X144645000Y-97606926D01*
X144645000Y-97556926D01*
X144608684Y-97374354D01*
X144537448Y-97202375D01*
X144434029Y-97047598D01*
X144302402Y-96915971D01*
X144147625Y-96812552D01*
X143975646Y-96741316D01*
X143793074Y-96705000D01*
X143606926Y-96705000D01*
X143424354Y-96741316D01*
X143252375Y-96812552D01*
X143097598Y-96915971D01*
X142965971Y-97047598D01*
X142862552Y-97202375D01*
X142791316Y-97374354D01*
X142755000Y-97556926D01*
X142755000Y-97743074D01*
X142791316Y-97925646D01*
X142862552Y-98097625D01*
X142965971Y-98252402D01*
X143097598Y-98384029D01*
X143252375Y-98487448D01*
X143424354Y-98558684D01*
X143531380Y-98579973D01*
X143474354Y-98591316D01*
X143350000Y-98642825D01*
X143225646Y-98591316D01*
X143043074Y-98555000D01*
X142856926Y-98555000D01*
X142674354Y-98591316D01*
X142502375Y-98662552D01*
X142347598Y-98765971D01*
X142215971Y-98897598D01*
X142145000Y-99003813D01*
X142145000Y-98856926D01*
X142108684Y-98674354D01*
X142037448Y-98502375D01*
X141934029Y-98347598D01*
X141802402Y-98215971D01*
X141647625Y-98112552D01*
X141475646Y-98041316D01*
X141293074Y-98005000D01*
X141106926Y-98005000D01*
X140924354Y-98041316D01*
X140800000Y-98092825D01*
X140675646Y-98041316D01*
X140493074Y-98005000D01*
X140306926Y-98005000D01*
X140124354Y-98041316D01*
X139952375Y-98112552D01*
X139797598Y-98215971D01*
X139665971Y-98347598D01*
X139562552Y-98502375D01*
X139491316Y-98674354D01*
X139455000Y-98856926D01*
X111597073Y-98856926D01*
X111635000Y-98666260D01*
X111635000Y-98373740D01*
X111577932Y-98086842D01*
X111465990Y-97816589D01*
X111303475Y-97573368D01*
X111096632Y-97366525D01*
X110922240Y-97250000D01*
X111096632Y-97133475D01*
X111303475Y-96926632D01*
X111465990Y-96683411D01*
X111577932Y-96413158D01*
X111579171Y-96406926D01*
X137805000Y-96406926D01*
X137805000Y-96593074D01*
X137841316Y-96775646D01*
X137912552Y-96947625D01*
X138015971Y-97102402D01*
X138147598Y-97234029D01*
X138302375Y-97337448D01*
X138474354Y-97408684D01*
X138656926Y-97445000D01*
X138843074Y-97445000D01*
X139025646Y-97408684D01*
X139197625Y-97337448D01*
X139352402Y-97234029D01*
X139484029Y-97102402D01*
X139587448Y-96947625D01*
X139658684Y-96775646D01*
X139695000Y-96593074D01*
X139695000Y-96406926D01*
X139658684Y-96224354D01*
X139587448Y-96052375D01*
X139484029Y-95897598D01*
X139352402Y-95765971D01*
X139197625Y-95662552D01*
X139025646Y-95591316D01*
X138843074Y-95555000D01*
X138656926Y-95555000D01*
X138474354Y-95591316D01*
X138302375Y-95662552D01*
X138147598Y-95765971D01*
X138015971Y-95897598D01*
X137912552Y-96052375D01*
X137841316Y-96224354D01*
X137805000Y-96406926D01*
X111579171Y-96406926D01*
X111635000Y-96126260D01*
X111635000Y-95833740D01*
X111577932Y-95546842D01*
X111465990Y-95276589D01*
X111303475Y-95033368D01*
X111096632Y-94826525D01*
X110914466Y-94704805D01*
X111031355Y-94635178D01*
X111118168Y-94556926D01*
X139455000Y-94556926D01*
X139455000Y-94743074D01*
X139491316Y-94925646D01*
X139562552Y-95097625D01*
X139665971Y-95252402D01*
X139797598Y-95384029D01*
X139952375Y-95487448D01*
X140124354Y-95558684D01*
X140306926Y-95595000D01*
X140493074Y-95595000D01*
X140675646Y-95558684D01*
X140800000Y-95507175D01*
X140924354Y-95558684D01*
X141106926Y-95595000D01*
X141293074Y-95595000D01*
X141475646Y-95558684D01*
X141647625Y-95487448D01*
X141802402Y-95384029D01*
X141934029Y-95252402D01*
X142037448Y-95097625D01*
X142108684Y-94925646D01*
X142145000Y-94743074D01*
X142145000Y-94556926D01*
X142108684Y-94374354D01*
X142075815Y-94295000D01*
X142243074Y-94295000D01*
X142425646Y-94258684D01*
X142597625Y-94187448D01*
X142752402Y-94084029D01*
X142884029Y-93952402D01*
X142987448Y-93797625D01*
X143058684Y-93625646D01*
X143095000Y-93443074D01*
X143095000Y-93406926D01*
X143255000Y-93406926D01*
X143255000Y-93593074D01*
X143291316Y-93775646D01*
X143362552Y-93947625D01*
X143465971Y-94102402D01*
X143597598Y-94234029D01*
X143752375Y-94337448D01*
X143924354Y-94408684D01*
X144106926Y-94445000D01*
X144293074Y-94445000D01*
X144475646Y-94408684D01*
X144647625Y-94337448D01*
X144802402Y-94234029D01*
X144934029Y-94102402D01*
X145037448Y-93947625D01*
X145108684Y-93775646D01*
X145145000Y-93593074D01*
X145145000Y-93406926D01*
X145115164Y-93256926D01*
X164505000Y-93256926D01*
X164505000Y-93443074D01*
X164541316Y-93625646D01*
X164612552Y-93797625D01*
X164715971Y-93952402D01*
X164847598Y-94084029D01*
X165002375Y-94187448D01*
X165174354Y-94258684D01*
X165356926Y-94295000D01*
X165543074Y-94295000D01*
X165725646Y-94258684D01*
X165897625Y-94187448D01*
X166052402Y-94084029D01*
X166184029Y-93952402D01*
X166287448Y-93797625D01*
X166358684Y-93625646D01*
X166395000Y-93443074D01*
X166395000Y-93256926D01*
X166358684Y-93074354D01*
X166287448Y-92902375D01*
X166184029Y-92747598D01*
X166052402Y-92615971D01*
X165897625Y-92512552D01*
X165725646Y-92441316D01*
X165543074Y-92405000D01*
X165356926Y-92405000D01*
X165174354Y-92441316D01*
X165002375Y-92512552D01*
X164847598Y-92615971D01*
X164715971Y-92747598D01*
X164612552Y-92902375D01*
X164541316Y-93074354D01*
X164505000Y-93256926D01*
X145115164Y-93256926D01*
X145108684Y-93224354D01*
X145037448Y-93052375D01*
X144934029Y-92897598D01*
X144802402Y-92765971D01*
X144647625Y-92662552D01*
X144475646Y-92591316D01*
X144293074Y-92555000D01*
X144106926Y-92555000D01*
X143924354Y-92591316D01*
X143752375Y-92662552D01*
X143597598Y-92765971D01*
X143465971Y-92897598D01*
X143362552Y-93052375D01*
X143291316Y-93224354D01*
X143255000Y-93406926D01*
X143095000Y-93406926D01*
X143095000Y-93256926D01*
X143058684Y-93074354D01*
X142987448Y-92902375D01*
X142884029Y-92747598D01*
X142752402Y-92615971D01*
X142597625Y-92512552D01*
X142425646Y-92441316D01*
X142243074Y-92405000D01*
X142056926Y-92405000D01*
X141874354Y-92441316D01*
X141702375Y-92512552D01*
X141547598Y-92615971D01*
X141415971Y-92747598D01*
X141312552Y-92902375D01*
X141241316Y-93074354D01*
X141205000Y-93256926D01*
X141205000Y-93443074D01*
X141241316Y-93625646D01*
X141274185Y-93705000D01*
X141106926Y-93705000D01*
X140924354Y-93741316D01*
X140800000Y-93792825D01*
X140675646Y-93741316D01*
X140493074Y-93705000D01*
X140306926Y-93705000D01*
X140124354Y-93741316D01*
X139952375Y-93812552D01*
X139797598Y-93915971D01*
X139665971Y-94047598D01*
X139562552Y-94202375D01*
X139491316Y-94374354D01*
X139455000Y-94556926D01*
X111118168Y-94556926D01*
X111247588Y-94440269D01*
X111421641Y-94206920D01*
X111546825Y-93944099D01*
X111591476Y-93796890D01*
X111470155Y-93567000D01*
X110277000Y-93567000D01*
X110277000Y-93587000D01*
X110023000Y-93587000D01*
X110023000Y-93567000D01*
X110003000Y-93567000D01*
X110003000Y-93313000D01*
X110023000Y-93313000D01*
X110023000Y-93293000D01*
X110277000Y-93293000D01*
X110277000Y-93313000D01*
X111470155Y-93313000D01*
X111591476Y-93083110D01*
X111546825Y-92935901D01*
X111421641Y-92673080D01*
X111247588Y-92439731D01*
X111031355Y-92244822D01*
X110914466Y-92175195D01*
X111096632Y-92053475D01*
X111303475Y-91846632D01*
X111465990Y-91603411D01*
X111577932Y-91333158D01*
X111635000Y-91046260D01*
X111635000Y-90753740D01*
X111577932Y-90466842D01*
X111511693Y-90306926D01*
X137855000Y-90306926D01*
X137855000Y-90493074D01*
X137891316Y-90675646D01*
X137962552Y-90847625D01*
X137964139Y-90850000D01*
X137962552Y-90852375D01*
X137891316Y-91024354D01*
X137855000Y-91206926D01*
X137855000Y-91393074D01*
X137891316Y-91575646D01*
X137962552Y-91747625D01*
X138065971Y-91902402D01*
X138197598Y-92034029D01*
X138352375Y-92137448D01*
X138524354Y-92208684D01*
X138706926Y-92245000D01*
X138893074Y-92245000D01*
X139075646Y-92208684D01*
X139247625Y-92137448D01*
X139402402Y-92034029D01*
X139534029Y-91902402D01*
X139637448Y-91747625D01*
X139708684Y-91575646D01*
X139745000Y-91393074D01*
X139745000Y-91206926D01*
X139708684Y-91024354D01*
X139637448Y-90852375D01*
X139635861Y-90850000D01*
X139637448Y-90847625D01*
X139708684Y-90675646D01*
X139745000Y-90493074D01*
X139745000Y-90306926D01*
X139708684Y-90124354D01*
X139637448Y-89952375D01*
X139534029Y-89797598D01*
X139402402Y-89665971D01*
X139247625Y-89562552D01*
X139075646Y-89491316D01*
X138893074Y-89455000D01*
X138706926Y-89455000D01*
X138524354Y-89491316D01*
X138352375Y-89562552D01*
X138197598Y-89665971D01*
X138065971Y-89797598D01*
X137962552Y-89952375D01*
X137891316Y-90124354D01*
X137855000Y-90306926D01*
X111511693Y-90306926D01*
X111465990Y-90196589D01*
X111303475Y-89953368D01*
X111096632Y-89746525D01*
X110853411Y-89584010D01*
X110583158Y-89472068D01*
X110296260Y-89415000D01*
X110003740Y-89415000D01*
X109716842Y-89472068D01*
X109446589Y-89584010D01*
X109203368Y-89746525D01*
X109071513Y-89878380D01*
X109049502Y-89805820D01*
X108990537Y-89695506D01*
X108911185Y-89598815D01*
X108814494Y-89519463D01*
X108704180Y-89460498D01*
X108584482Y-89424188D01*
X108460000Y-89411928D01*
X106760000Y-89411928D01*
X106635518Y-89424188D01*
X106515820Y-89460498D01*
X106405506Y-89519463D01*
X106308815Y-89598815D01*
X106229463Y-89695506D01*
X106170498Y-89805820D01*
X106134188Y-89925518D01*
X106121928Y-90050000D01*
X105210000Y-90050000D01*
X105210000Y-86269292D01*
X116009500Y-87136405D01*
M02*
