M48
; DRILL file {KiCad 5.1.5+dfsg1-2build2} date mar. 02 mai 2023 16:04:21
; FORMAT={-:-/ absolute / metric / decimal}
; #@! TF.CreationDate,2023-05-02T16:04:21+02:00
; #@! TF.GenerationSoftware,Kicad,Pcbnew,5.1.5+dfsg1-2build2
; #@! TF.FileFunction,Plated,1,4,PTH
FMAT,2
METRIC
T1C0.250
T2C0.900
T3C1.000
%
G90
G05
T1
X110.925Y-87.675
X111.438Y-88.538
X112.2Y-108.3
X112.2Y-109.1
X112.3Y-87.5
X114.319Y-89.12
X115.2Y-104.1
X116.475Y-87.969
X116.475Y-104.075
X116.954Y-87.109
X117.767Y-104.067
X117.78Y-87.3
X119.0Y-87.95
X120.275Y-104.075
X120.3Y-87.95
X121.55Y-87.95
X122.5Y-106.55
X122.825Y-104.075
X122.85Y-87.95
X124.1Y-87.95
X124.1Y-104.05
X125.45Y-104.05
X126.6Y-104.05
X126.875Y-106.525
X127.9Y-104.05
X129.147Y-88.57
X129.5Y-104.6
X130.3Y-104.6
X131.1Y-88.9
X131.4Y-89.8
X132.9Y-108.55
X133.7Y-108.55
X134.3Y-104.05
X136.775Y-107.55
X136.85Y-104.05
X137.075Y-108.225
X137.475Y-109.2
X138.05Y-104.65
X138.75Y-96.5
X138.8Y-90.4
X138.8Y-91.3
X138.8Y-93.7
X139.9Y-96.35
X139.9Y-97.15
X140.4Y-94.65
X140.4Y-98.95
X140.4Y-110.0
X141.2Y-94.65
X141.2Y-98.95
X142.15Y-89.45
X142.15Y-93.35
X142.95Y-99.5
X143.2Y-94.0
X143.7Y-97.65
X143.75Y-99.5
X143.9Y-106.5
X143.9Y-110.0
X144.5Y-95.0
X145.2Y-92.3
X145.6Y-105.96
X146.35Y-97.7
X146.5Y-95.3
X146.55Y-105.85
X146.9Y-108.3
X147.0Y-91.8
X164.4Y-91.8
X164.5Y-101.7
X164.5Y-108.3
X165.15Y-104.15
X165.15Y-104.95
X165.45Y-93.35
X165.5Y-103.3
X166.75Y-96.6
X167.85Y-91.8
X167.85Y-92.65
X168.042Y-96.491
X168.1Y-95.5
X168.8Y-107.55
X169.0Y-95.275
X170.25Y-91.55
X170.25Y-94.475
X171.5Y-107.3
X171.525Y-95.275
T2
X128.72Y-110.0
X131.26Y-110.0
T3
X107.55Y-111.2
X110.05Y-111.2
X107.61Y-90.9
X107.61Y-93.44
X107.61Y-95.98
X107.61Y-98.52
X107.61Y-101.06
X107.61Y-103.6
X107.61Y-106.14
X110.15Y-90.9
X110.15Y-93.44
X110.15Y-95.98
X110.15Y-98.52
X110.15Y-101.06
X110.15Y-103.6
X110.15Y-106.14
X104.5Y-97.46
X104.5Y-100.0
X104.5Y-102.54
T0
M30
