G04 #@! TF.GenerationSoftware,KiCad,Pcbnew,5.1.5+dfsg1-2build2*
G04 #@! TF.CreationDate,2023-01-25T20:05:03+01:00*
G04 #@! TF.ProjectId,main,6d61696e-2e6b-4696-9361-645f70636258,rev?*
G04 #@! TF.SameCoordinates,Original*
G04 #@! TF.FileFunction,Legend,Bot*
G04 #@! TF.FilePolarity,Positive*
%FSLAX46Y46*%
G04 Gerber Fmt 4.6, Leading zero omitted, Abs format (unit mm)*
G04 Created by KiCad (PCBNEW 5.1.5+dfsg1-2build2) date 2023-01-25 20:05:03*
%MOMM*%
%LPD*%
G04 APERTURE LIST*
%ADD10C,0.200000*%
%ADD11C,0.150000*%
%ADD12C,0.100000*%
%ADD13C,0.300000*%
%ADD14R,1.800000X1.800000*%
%ADD15C,1.800000*%
%ADD16O,1.200000X1.750000*%
%ADD17R,1.700000X1.700000*%
%ADD18O,1.700000X1.700000*%
%ADD19C,0.750000*%
G04 APERTURE END LIST*
D10*
X128242857Y-89278571D02*
X127957142Y-90278571D01*
X127671428Y-89564285D01*
X127385714Y-90278571D01*
X127100000Y-89278571D01*
X126528571Y-90278571D02*
X126528571Y-89278571D01*
X126528571Y-88778571D02*
X126600000Y-88850000D01*
X126528571Y-88921428D01*
X126457142Y-88850000D01*
X126528571Y-88778571D01*
X126528571Y-88921428D01*
X125814285Y-89278571D02*
X125814285Y-90278571D01*
X125814285Y-89421428D02*
X125742857Y-89350000D01*
X125600000Y-89278571D01*
X125385714Y-89278571D01*
X125242857Y-89350000D01*
X125171428Y-89492857D01*
X125171428Y-90278571D01*
X123814285Y-90278571D02*
X123814285Y-88778571D01*
X123814285Y-90207142D02*
X123957142Y-90278571D01*
X124242857Y-90278571D01*
X124385714Y-90207142D01*
X124457142Y-90135714D01*
X124528571Y-89992857D01*
X124528571Y-89564285D01*
X124457142Y-89421428D01*
X124385714Y-89350000D01*
X124242857Y-89278571D01*
X123957142Y-89278571D01*
X123814285Y-89350000D01*
X123100000Y-90278571D02*
X123100000Y-88778571D01*
X123100000Y-89350000D02*
X122957142Y-89278571D01*
X122671428Y-89278571D01*
X122528571Y-89350000D01*
X122457142Y-89421428D01*
X122385714Y-89564285D01*
X122385714Y-89992857D01*
X122457142Y-90135714D01*
X122528571Y-90207142D01*
X122671428Y-90278571D01*
X122957142Y-90278571D01*
X123100000Y-90207142D01*
X121742857Y-90278571D02*
X121742857Y-89278571D01*
X121742857Y-88778571D02*
X121814285Y-88850000D01*
X121742857Y-88921428D01*
X121671428Y-88850000D01*
X121742857Y-88778571D01*
X121742857Y-88921428D01*
X121028571Y-90278571D02*
X121028571Y-89278571D01*
X121028571Y-89564285D02*
X120957142Y-89421428D01*
X120885714Y-89350000D01*
X120742857Y-89278571D01*
X120600000Y-89278571D01*
X119457142Y-90278571D02*
X119457142Y-88778571D01*
X119457142Y-90207142D02*
X119600000Y-90278571D01*
X119885714Y-90278571D01*
X120028571Y-90207142D01*
X120100000Y-90135714D01*
X120171428Y-89992857D01*
X120171428Y-89564285D01*
X120100000Y-89421428D01*
X120028571Y-89350000D01*
X119885714Y-89278571D01*
X119600000Y-89278571D01*
X119457142Y-89350000D01*
X118742857Y-90135714D02*
X118671428Y-90207142D01*
X118742857Y-90278571D01*
X118814285Y-90207142D01*
X118742857Y-90135714D01*
X118742857Y-90278571D01*
X117385714Y-90207142D02*
X117528571Y-90278571D01*
X117814285Y-90278571D01*
X117957142Y-90207142D01*
X118028571Y-90135714D01*
X118100000Y-89992857D01*
X118100000Y-89564285D01*
X118028571Y-89421428D01*
X117957142Y-89350000D01*
X117814285Y-89278571D01*
X117528571Y-89278571D01*
X117385714Y-89350000D01*
X116528571Y-90278571D02*
X116671428Y-90207142D01*
X116742857Y-90135714D01*
X116814285Y-89992857D01*
X116814285Y-89564285D01*
X116742857Y-89421428D01*
X116671428Y-89350000D01*
X116528571Y-89278571D01*
X116314285Y-89278571D01*
X116171428Y-89350000D01*
X116100000Y-89421428D01*
X116028571Y-89564285D01*
X116028571Y-89992857D01*
X116100000Y-90135714D01*
X116171428Y-90207142D01*
X116314285Y-90278571D01*
X116528571Y-90278571D01*
X115385714Y-90278571D02*
X115385714Y-89278571D01*
X115385714Y-89421428D02*
X115314285Y-89350000D01*
X115171428Y-89278571D01*
X114957142Y-89278571D01*
X114814285Y-89350000D01*
X114742857Y-89492857D01*
X114742857Y-90278571D01*
X114742857Y-89492857D02*
X114671428Y-89350000D01*
X114528571Y-89278571D01*
X114314285Y-89278571D01*
X114171428Y-89350000D01*
X114100000Y-89492857D01*
X114100000Y-90278571D01*
D11*
X150100000Y-98800000D02*
X144800000Y-98800000D01*
X150100000Y-101400000D02*
X144800000Y-101400000D01*
X150100000Y-96500000D02*
X150100000Y-103800000D01*
X144800000Y-103850000D02*
X144800000Y-96500000D01*
X150100000Y-103850000D02*
X144800000Y-103850000D01*
X150100000Y-96500000D02*
X144800000Y-96500000D01*
X150900000Y-94150000D02*
X164800000Y-94150000D01*
X164800000Y-96500000D02*
X150950000Y-96500000D01*
X164800000Y-98800000D02*
X150900000Y-98800000D01*
X164800000Y-101400000D02*
X150950000Y-101400000D01*
X164800000Y-103850000D02*
X150900000Y-103850000D01*
X164800000Y-106300000D02*
X150900000Y-106300000D01*
X158000000Y-91300000D02*
X158000000Y-108900000D01*
X150900000Y-91250000D02*
X164800000Y-91250000D01*
X150900000Y-108900000D02*
X150900000Y-91250000D01*
X164800000Y-108900000D02*
X150900000Y-108900000D01*
X164800000Y-91250000D02*
X164800000Y-108900000D01*
X164204761Y-107152380D02*
X163871428Y-108152380D01*
X163538095Y-107152380D01*
X162871428Y-107628571D02*
X162728571Y-107676190D01*
X162680952Y-107723809D01*
X162633333Y-107819047D01*
X162633333Y-107961904D01*
X162680952Y-108057142D01*
X162728571Y-108104761D01*
X162823809Y-108152380D01*
X163204761Y-108152380D01*
X163204761Y-107152380D01*
X162871428Y-107152380D01*
X162776190Y-107200000D01*
X162728571Y-107247619D01*
X162680952Y-107342857D01*
X162680952Y-107438095D01*
X162728571Y-107533333D01*
X162776190Y-107580952D01*
X162871428Y-107628571D01*
X163204761Y-107628571D01*
X162252380Y-107866666D02*
X161776190Y-107866666D01*
X162347619Y-108152380D02*
X162014285Y-107152380D01*
X161680952Y-108152380D01*
X161490476Y-107152380D02*
X160919047Y-107152380D01*
X161204761Y-108152380D02*
X161204761Y-107152380D01*
X160823809Y-108247619D02*
X160061904Y-108247619D01*
X159823809Y-108152380D02*
X159823809Y-107152380D01*
X159442857Y-107152380D01*
X159347619Y-107200000D01*
X159300000Y-107247619D01*
X159252380Y-107342857D01*
X159252380Y-107485714D01*
X159300000Y-107580952D01*
X159347619Y-107628571D01*
X159442857Y-107676190D01*
X159823809Y-107676190D01*
X158966666Y-107152380D02*
X158395238Y-107152380D01*
X158680952Y-108152380D02*
X158680952Y-107152380D01*
X157342857Y-107152380D02*
X157009523Y-108152380D01*
X156676190Y-107152380D01*
X156009523Y-107628571D02*
X155866666Y-107676190D01*
X155819047Y-107723809D01*
X155771428Y-107819047D01*
X155771428Y-107961904D01*
X155819047Y-108057142D01*
X155866666Y-108104761D01*
X155961904Y-108152380D01*
X156342857Y-108152380D01*
X156342857Y-107152380D01*
X156009523Y-107152380D01*
X155914285Y-107200000D01*
X155866666Y-107247619D01*
X155819047Y-107342857D01*
X155819047Y-107438095D01*
X155866666Y-107533333D01*
X155914285Y-107580952D01*
X156009523Y-107628571D01*
X156342857Y-107628571D01*
X155390476Y-107866666D02*
X154914285Y-107866666D01*
X155485714Y-108152380D02*
X155152380Y-107152380D01*
X154819047Y-108152380D01*
X154628571Y-107152380D02*
X154057142Y-107152380D01*
X154342857Y-108152380D02*
X154342857Y-107152380D01*
X164211904Y-104552380D02*
X163878571Y-105552380D01*
X163545238Y-104552380D01*
X162640476Y-105457142D02*
X162688095Y-105504761D01*
X162830952Y-105552380D01*
X162926190Y-105552380D01*
X163069047Y-105504761D01*
X163164285Y-105409523D01*
X163211904Y-105314285D01*
X163259523Y-105123809D01*
X163259523Y-104980952D01*
X163211904Y-104790476D01*
X163164285Y-104695238D01*
X163069047Y-104600000D01*
X162926190Y-104552380D01*
X162830952Y-104552380D01*
X162688095Y-104600000D01*
X162640476Y-104647619D01*
X162259523Y-105266666D02*
X161783333Y-105266666D01*
X162354761Y-105552380D02*
X162021428Y-104552380D01*
X161688095Y-105552380D01*
X161354761Y-105552380D02*
X161354761Y-104552380D01*
X160973809Y-104552380D01*
X160878571Y-104600000D01*
X160830952Y-104647619D01*
X160783333Y-104742857D01*
X160783333Y-104885714D01*
X160830952Y-104980952D01*
X160878571Y-105028571D01*
X160973809Y-105076190D01*
X161354761Y-105076190D01*
X163611904Y-99750000D02*
X163707142Y-99702380D01*
X163850000Y-99702380D01*
X163992857Y-99750000D01*
X164088095Y-99845238D01*
X164135714Y-99940476D01*
X164183333Y-100130952D01*
X164183333Y-100273809D01*
X164135714Y-100464285D01*
X164088095Y-100559523D01*
X163992857Y-100654761D01*
X163850000Y-100702380D01*
X163754761Y-100702380D01*
X163611904Y-100654761D01*
X163564285Y-100607142D01*
X163564285Y-100273809D01*
X163754761Y-100273809D01*
X163135714Y-100702380D02*
X163135714Y-99702380D01*
X162564285Y-100702380D01*
X162564285Y-99702380D01*
X162088095Y-100702380D02*
X162088095Y-99702380D01*
X161850000Y-99702380D01*
X161707142Y-99750000D01*
X161611904Y-99845238D01*
X161564285Y-99940476D01*
X161516666Y-100130952D01*
X161516666Y-100273809D01*
X161564285Y-100464285D01*
X161611904Y-100559523D01*
X161707142Y-100654761D01*
X161850000Y-100702380D01*
X162088095Y-100702380D01*
X157421428Y-102435714D02*
X157421428Y-103102380D01*
X157421428Y-102530952D02*
X157373809Y-102483333D01*
X157278571Y-102435714D01*
X157135714Y-102435714D01*
X157040476Y-102483333D01*
X156992857Y-102578571D01*
X156992857Y-103102380D01*
X155945238Y-103102380D02*
X156278571Y-102626190D01*
X156516666Y-103102380D02*
X156516666Y-102102380D01*
X156135714Y-102102380D01*
X156040476Y-102150000D01*
X155992857Y-102197619D01*
X155945238Y-102292857D01*
X155945238Y-102435714D01*
X155992857Y-102530952D01*
X156040476Y-102578571D01*
X156135714Y-102626190D01*
X156516666Y-102626190D01*
X155564285Y-103054761D02*
X155421428Y-103102380D01*
X155183333Y-103102380D01*
X155088095Y-103054761D01*
X155040476Y-103007142D01*
X154992857Y-102911904D01*
X154992857Y-102816666D01*
X155040476Y-102721428D01*
X155088095Y-102673809D01*
X155183333Y-102626190D01*
X155373809Y-102578571D01*
X155469047Y-102530952D01*
X155516666Y-102483333D01*
X155564285Y-102388095D01*
X155564285Y-102292857D01*
X155516666Y-102197619D01*
X155469047Y-102150000D01*
X155373809Y-102102380D01*
X155135714Y-102102380D01*
X154992857Y-102150000D01*
X154707142Y-102102380D02*
X154135714Y-102102380D01*
X154421428Y-103102380D02*
X154421428Y-102102380D01*
X157511904Y-100654761D02*
X157369047Y-100702380D01*
X157130952Y-100702380D01*
X157035714Y-100654761D01*
X156988095Y-100607142D01*
X156940476Y-100511904D01*
X156940476Y-100416666D01*
X156988095Y-100321428D01*
X157035714Y-100273809D01*
X157130952Y-100226190D01*
X157321428Y-100178571D01*
X157416666Y-100130952D01*
X157464285Y-100083333D01*
X157511904Y-99988095D01*
X157511904Y-99892857D01*
X157464285Y-99797619D01*
X157416666Y-99750000D01*
X157321428Y-99702380D01*
X157083333Y-99702380D01*
X156940476Y-99750000D01*
X156607142Y-99702380D02*
X156369047Y-100702380D01*
X156178571Y-99988095D01*
X155988095Y-100702380D01*
X155750000Y-99702380D01*
X155369047Y-100702380D02*
X155369047Y-99702380D01*
X155130952Y-99702380D01*
X154988095Y-99750000D01*
X154892857Y-99845238D01*
X154845238Y-99940476D01*
X154797619Y-100130952D01*
X154797619Y-100273809D01*
X154845238Y-100464285D01*
X154892857Y-100559523D01*
X154988095Y-100654761D01*
X155130952Y-100702380D01*
X155369047Y-100702380D01*
X153797619Y-100607142D02*
X153845238Y-100654761D01*
X153988095Y-100702380D01*
X154083333Y-100702380D01*
X154226190Y-100654761D01*
X154321428Y-100559523D01*
X154369047Y-100464285D01*
X154416666Y-100273809D01*
X154416666Y-100130952D01*
X154369047Y-99940476D01*
X154321428Y-99845238D01*
X154226190Y-99750000D01*
X154083333Y-99702380D01*
X153988095Y-99702380D01*
X153845238Y-99750000D01*
X153797619Y-99797619D01*
X152892857Y-100702380D02*
X153369047Y-100702380D01*
X153369047Y-99702380D01*
X152559523Y-100702380D02*
X152559523Y-99702380D01*
X151988095Y-100702380D02*
X152416666Y-100130952D01*
X151988095Y-99702380D02*
X152559523Y-100273809D01*
X163611904Y-97360000D02*
X163707142Y-97312380D01*
X163850000Y-97312380D01*
X163992857Y-97360000D01*
X164088095Y-97455238D01*
X164135714Y-97550476D01*
X164183333Y-97740952D01*
X164183333Y-97883809D01*
X164135714Y-98074285D01*
X164088095Y-98169523D01*
X163992857Y-98264761D01*
X163850000Y-98312380D01*
X163754761Y-98312380D01*
X163611904Y-98264761D01*
X163564285Y-98217142D01*
X163564285Y-97883809D01*
X163754761Y-97883809D01*
X163135714Y-98312380D02*
X163135714Y-97312380D01*
X162564285Y-98312380D01*
X162564285Y-97312380D01*
X162088095Y-98312380D02*
X162088095Y-97312380D01*
X161850000Y-97312380D01*
X161707142Y-97360000D01*
X161611904Y-97455238D01*
X161564285Y-97550476D01*
X161516666Y-97740952D01*
X161516666Y-97883809D01*
X161564285Y-98074285D01*
X161611904Y-98169523D01*
X161707142Y-98264761D01*
X161850000Y-98312380D01*
X162088095Y-98312380D01*
X157469047Y-98264761D02*
X157326190Y-98312380D01*
X157088095Y-98312380D01*
X156992857Y-98264761D01*
X156945238Y-98217142D01*
X156897619Y-98121904D01*
X156897619Y-98026666D01*
X156945238Y-97931428D01*
X156992857Y-97883809D01*
X157088095Y-97836190D01*
X157278571Y-97788571D01*
X157373809Y-97740952D01*
X157421428Y-97693333D01*
X157469047Y-97598095D01*
X157469047Y-97502857D01*
X157421428Y-97407619D01*
X157373809Y-97360000D01*
X157278571Y-97312380D01*
X157040476Y-97312380D01*
X156897619Y-97360000D01*
X156564285Y-97312380D02*
X156326190Y-98312380D01*
X156135714Y-97598095D01*
X155945238Y-98312380D01*
X155707142Y-97312380D01*
X155326190Y-98312380D02*
X155326190Y-97312380D01*
X155088095Y-97312380D01*
X154945238Y-97360000D01*
X154850000Y-97455238D01*
X154802380Y-97550476D01*
X154754761Y-97740952D01*
X154754761Y-97883809D01*
X154802380Y-98074285D01*
X154850000Y-98169523D01*
X154945238Y-98264761D01*
X155088095Y-98312380D01*
X155326190Y-98312380D01*
X154326190Y-98312380D02*
X154326190Y-97312380D01*
X153659523Y-97312380D02*
X153469047Y-97312380D01*
X153373809Y-97360000D01*
X153278571Y-97455238D01*
X153230952Y-97645714D01*
X153230952Y-97979047D01*
X153278571Y-98169523D01*
X153373809Y-98264761D01*
X153469047Y-98312380D01*
X153659523Y-98312380D01*
X153754761Y-98264761D01*
X153850000Y-98169523D01*
X153897619Y-97979047D01*
X153897619Y-97645714D01*
X153850000Y-97455238D01*
X153754761Y-97360000D01*
X153659523Y-97312380D01*
X163833333Y-95248571D02*
X164166666Y-95248571D01*
X164166666Y-95772380D02*
X164166666Y-94772380D01*
X163690476Y-94772380D01*
X163452380Y-94772380D02*
X162880952Y-94772380D01*
X163166666Y-95772380D02*
X163166666Y-94772380D01*
X162547619Y-95772380D02*
X162547619Y-94772380D01*
X162309523Y-94772380D01*
X162166666Y-94820000D01*
X162071428Y-94915238D01*
X162023809Y-95010476D01*
X161976190Y-95200952D01*
X161976190Y-95343809D01*
X162023809Y-95534285D01*
X162071428Y-95629523D01*
X162166666Y-95724761D01*
X162309523Y-95772380D01*
X162547619Y-95772380D01*
X161547619Y-95772380D02*
X161547619Y-94772380D01*
X161309523Y-95867619D02*
X160547619Y-95867619D01*
X159738095Y-95772380D02*
X160071428Y-95296190D01*
X160309523Y-95772380D02*
X160309523Y-94772380D01*
X159928571Y-94772380D01*
X159833333Y-94820000D01*
X159785714Y-94867619D01*
X159738095Y-94962857D01*
X159738095Y-95105714D01*
X159785714Y-95200952D01*
X159833333Y-95248571D01*
X159928571Y-95296190D01*
X160309523Y-95296190D01*
X159404761Y-94772380D02*
X158738095Y-95772380D01*
X158738095Y-94772380D02*
X159404761Y-95772380D01*
X156961904Y-94820000D02*
X157057142Y-94772380D01*
X157200000Y-94772380D01*
X157342857Y-94820000D01*
X157438095Y-94915238D01*
X157485714Y-95010476D01*
X157533333Y-95200952D01*
X157533333Y-95343809D01*
X157485714Y-95534285D01*
X157438095Y-95629523D01*
X157342857Y-95724761D01*
X157200000Y-95772380D01*
X157104761Y-95772380D01*
X156961904Y-95724761D01*
X156914285Y-95677142D01*
X156914285Y-95343809D01*
X157104761Y-95343809D01*
X156485714Y-95772380D02*
X156485714Y-94772380D01*
X155914285Y-95772380D01*
X155914285Y-94772380D01*
X155438095Y-95772380D02*
X155438095Y-94772380D01*
X155200000Y-94772380D01*
X155057142Y-94820000D01*
X154961904Y-94915238D01*
X154914285Y-95010476D01*
X154866666Y-95200952D01*
X154866666Y-95343809D01*
X154914285Y-95534285D01*
X154961904Y-95629523D01*
X155057142Y-95724761D01*
X155200000Y-95772380D01*
X155438095Y-95772380D01*
X163814285Y-92708571D02*
X164147619Y-92708571D01*
X164147619Y-93232380D02*
X164147619Y-92232380D01*
X163671428Y-92232380D01*
X163433333Y-92232380D02*
X162861904Y-92232380D01*
X163147619Y-93232380D02*
X163147619Y-92232380D01*
X162528571Y-93232380D02*
X162528571Y-92232380D01*
X162290476Y-92232380D01*
X162147619Y-92280000D01*
X162052380Y-92375238D01*
X162004761Y-92470476D01*
X161957142Y-92660952D01*
X161957142Y-92803809D01*
X162004761Y-92994285D01*
X162052380Y-93089523D01*
X162147619Y-93184761D01*
X162290476Y-93232380D01*
X162528571Y-93232380D01*
X161528571Y-93232380D02*
X161528571Y-92232380D01*
X161290476Y-93327619D02*
X160528571Y-93327619D01*
X160433333Y-92232380D02*
X159861904Y-92232380D01*
X160147619Y-93232380D02*
X160147619Y-92232380D01*
X159623809Y-92232380D02*
X158957142Y-93232380D01*
X158957142Y-92232380D02*
X159623809Y-93232380D01*
X157545238Y-92232380D02*
X157211904Y-93232380D01*
X156878571Y-92232380D01*
X156545238Y-93232380D02*
X156545238Y-92232380D01*
X156211904Y-92946666D01*
X155878571Y-92232380D01*
X155878571Y-93232380D01*
X155450000Y-92946666D02*
X154973809Y-92946666D01*
X155545238Y-93232380D02*
X155211904Y-92232380D01*
X154878571Y-93232380D01*
X154545238Y-93232380D02*
X154545238Y-92232380D01*
X154069047Y-93232380D02*
X154069047Y-92232380D01*
X153497619Y-93232380D01*
X153497619Y-92232380D01*
X129500000Y-105950000D02*
X130250000Y-105950000D01*
X129500000Y-94050000D02*
X130250000Y-94050000D01*
X127742857Y-100752380D02*
X128314285Y-100752380D01*
X128028571Y-100752380D02*
X128028571Y-99752380D01*
X128123809Y-99895238D01*
X128219047Y-99990476D01*
X128314285Y-100038095D01*
X126980952Y-100228571D02*
X127314285Y-100228571D01*
X127314285Y-100752380D02*
X127314285Y-99752380D01*
X126838095Y-99752380D01*
X149571904Y-99752380D02*
X149238571Y-100752380D01*
X148905238Y-99752380D01*
X148619523Y-100466666D02*
X148143333Y-100466666D01*
X148714761Y-100752380D02*
X148381428Y-99752380D01*
X148048095Y-100752380D01*
X147714761Y-99752380D02*
X147714761Y-100561904D01*
X147667142Y-100657142D01*
X147619523Y-100704761D01*
X147524285Y-100752380D01*
X147333809Y-100752380D01*
X147238571Y-100704761D01*
X147190952Y-100657142D01*
X147143333Y-100561904D01*
X147143333Y-99752380D01*
X146762380Y-99752380D02*
X146095714Y-100752380D01*
X146095714Y-99752380D02*
X146762380Y-100752380D01*
X149021904Y-97260000D02*
X149117142Y-97212380D01*
X149260000Y-97212380D01*
X149402857Y-97260000D01*
X149498095Y-97355238D01*
X149545714Y-97450476D01*
X149593333Y-97640952D01*
X149593333Y-97783809D01*
X149545714Y-97974285D01*
X149498095Y-98069523D01*
X149402857Y-98164761D01*
X149260000Y-98212380D01*
X149164761Y-98212380D01*
X149021904Y-98164761D01*
X148974285Y-98117142D01*
X148974285Y-97783809D01*
X149164761Y-97783809D01*
X148545714Y-98212380D02*
X148545714Y-97212380D01*
X147974285Y-98212380D01*
X147974285Y-97212380D01*
X147498095Y-98212380D02*
X147498095Y-97212380D01*
X147260000Y-97212380D01*
X147117142Y-97260000D01*
X147021904Y-97355238D01*
X146974285Y-97450476D01*
X146926666Y-97640952D01*
X146926666Y-97783809D01*
X146974285Y-97974285D01*
X147021904Y-98069523D01*
X147117142Y-98164761D01*
X147260000Y-98212380D01*
X147498095Y-98212380D01*
X149579047Y-103292380D02*
X149579047Y-102292380D01*
X149198095Y-102292380D01*
X149102857Y-102340000D01*
X149055238Y-102387619D01*
X149007619Y-102482857D01*
X149007619Y-102625714D01*
X149055238Y-102720952D01*
X149102857Y-102768571D01*
X149198095Y-102816190D01*
X149579047Y-102816190D01*
X148579047Y-102292380D02*
X148579047Y-103101904D01*
X148531428Y-103197142D01*
X148483809Y-103244761D01*
X148388571Y-103292380D01*
X148198095Y-103292380D01*
X148102857Y-103244761D01*
X148055238Y-103197142D01*
X148007619Y-103101904D01*
X148007619Y-102292380D01*
X147055238Y-103292380D02*
X147531428Y-103292380D01*
X147531428Y-102292380D01*
X146769523Y-103244761D02*
X146626666Y-103292380D01*
X146388571Y-103292380D01*
X146293333Y-103244761D01*
X146245714Y-103197142D01*
X146198095Y-103101904D01*
X146198095Y-103006666D01*
X146245714Y-102911428D01*
X146293333Y-102863809D01*
X146388571Y-102816190D01*
X146579047Y-102768571D01*
X146674285Y-102720952D01*
X146721904Y-102673333D01*
X146769523Y-102578095D01*
X146769523Y-102482857D01*
X146721904Y-102387619D01*
X146674285Y-102340000D01*
X146579047Y-102292380D01*
X146340952Y-102292380D01*
X146198095Y-102340000D01*
X145769523Y-102768571D02*
X145436190Y-102768571D01*
X145293333Y-103292380D02*
X145769523Y-103292380D01*
X145769523Y-102292380D01*
X145293333Y-102292380D01*
X109838095Y-109228571D02*
X109695238Y-109276190D01*
X109647619Y-109323809D01*
X109600000Y-109419047D01*
X109600000Y-109561904D01*
X109647619Y-109657142D01*
X109695238Y-109704761D01*
X109790476Y-109752380D01*
X110171428Y-109752380D01*
X110171428Y-108752380D01*
X109838095Y-108752380D01*
X109742857Y-108800000D01*
X109695238Y-108847619D01*
X109647619Y-108942857D01*
X109647619Y-109038095D01*
X109695238Y-109133333D01*
X109742857Y-109180952D01*
X109838095Y-109228571D01*
X110171428Y-109228571D01*
X109219047Y-109466666D02*
X108742857Y-109466666D01*
X109314285Y-109752380D02*
X108980952Y-108752380D01*
X108647619Y-109752380D01*
X108457142Y-108752380D02*
X107885714Y-108752380D01*
X108171428Y-109752380D02*
X108171428Y-108752380D01*
X106680952Y-111471428D02*
X105919047Y-111471428D01*
X106300000Y-111852380D02*
X106300000Y-111090476D01*
X111930952Y-111421428D02*
X111169047Y-111421428D01*
X171100000Y-100000000D02*
G75*
G03X171100000Y-100000000I-1100000J0D01*
G01*
X101100000Y-100000000D02*
G75*
G03X101100000Y-100000000I-1100000J0D01*
G01*
X97000000Y-93000000D02*
X97000000Y-107000000D01*
X104500000Y-85500000D02*
X104500000Y-93000000D01*
X104500000Y-114500000D02*
X104500000Y-107000000D01*
X104500000Y-107000000D02*
X97000000Y-107000000D01*
X104500000Y-93000000D02*
X97000000Y-93000000D01*
X104500000Y-114500000D02*
X173000000Y-109000000D01*
X173000000Y-91000000D02*
X173000000Y-109000000D01*
X104500000Y-85500000D02*
X173000000Y-91000000D01*
D12*
G36*
X129500000Y-93500000D02*
G01*
X129500000Y-91500000D01*
X112500000Y-91500000D01*
X112500000Y-93500000D01*
X129500000Y-93500000D01*
G37*
X129500000Y-93500000D02*
X129500000Y-91500000D01*
X112500000Y-91500000D01*
X112500000Y-93500000D01*
X129500000Y-93500000D01*
D11*
X112500000Y-108500000D02*
X112500000Y-91500000D01*
X129500000Y-108500000D02*
X112500000Y-108500000D01*
X129500000Y-91500000D02*
X129500000Y-108500000D01*
X112500000Y-91500000D02*
X129500000Y-91500000D01*
D13*
X127642857Y-105238095D02*
X127642857Y-106761904D01*
X128404761Y-106000000D02*
X126880952Y-106000000D01*
X127642857Y-94238095D02*
X127642857Y-95761904D01*
%LPC*%
D14*
X128720000Y-110000000D03*
D15*
X131260000Y-110000000D03*
D11*
G36*
X135868612Y-104603371D02*
G01*
X135936563Y-104613450D01*
X136003199Y-104630142D01*
X136067878Y-104653284D01*
X136129978Y-104682655D01*
X136188899Y-104717971D01*
X136244075Y-104758893D01*
X136294975Y-104805025D01*
X136341107Y-104855925D01*
X136382029Y-104911101D01*
X136417345Y-104970022D01*
X136446716Y-105032122D01*
X136469858Y-105096801D01*
X136486550Y-105163437D01*
X136496629Y-105231388D01*
X136500000Y-105300000D01*
X136500000Y-106700000D01*
X136496629Y-106768612D01*
X136486550Y-106836563D01*
X136469858Y-106903199D01*
X136446716Y-106967878D01*
X136417345Y-107029978D01*
X136382029Y-107088899D01*
X136341107Y-107144075D01*
X136294975Y-107194975D01*
X136244075Y-107241107D01*
X136188899Y-107282029D01*
X136129978Y-107317345D01*
X136067878Y-107346716D01*
X136003199Y-107369858D01*
X135936563Y-107386550D01*
X135868612Y-107396629D01*
X135800000Y-107400000D01*
X131200000Y-107400000D01*
X131131388Y-107396629D01*
X131063437Y-107386550D01*
X130996801Y-107369858D01*
X130932122Y-107346716D01*
X130870022Y-107317345D01*
X130811101Y-107282029D01*
X130755925Y-107241107D01*
X130705025Y-107194975D01*
X130658893Y-107144075D01*
X130617971Y-107088899D01*
X130582655Y-107029978D01*
X130553284Y-106967878D01*
X130530142Y-106903199D01*
X130513450Y-106836563D01*
X130503371Y-106768612D01*
X130500000Y-106700000D01*
X130500000Y-105300000D01*
X130503371Y-105231388D01*
X130513450Y-105163437D01*
X130530142Y-105096801D01*
X130553284Y-105032122D01*
X130582655Y-104970022D01*
X130617971Y-104911101D01*
X130658893Y-104855925D01*
X130705025Y-104805025D01*
X130755925Y-104758893D01*
X130811101Y-104717971D01*
X130870022Y-104682655D01*
X130932122Y-104653284D01*
X130996801Y-104630142D01*
X131063437Y-104613450D01*
X131131388Y-104603371D01*
X131200000Y-104600000D01*
X135800000Y-104600000D01*
X135868612Y-104603371D01*
G37*
G36*
X135868612Y-92603371D02*
G01*
X135936563Y-92613450D01*
X136003199Y-92630142D01*
X136067878Y-92653284D01*
X136129978Y-92682655D01*
X136188899Y-92717971D01*
X136244075Y-92758893D01*
X136294975Y-92805025D01*
X136341107Y-92855925D01*
X136382029Y-92911101D01*
X136417345Y-92970022D01*
X136446716Y-93032122D01*
X136469858Y-93096801D01*
X136486550Y-93163437D01*
X136496629Y-93231388D01*
X136500000Y-93300000D01*
X136500000Y-94700000D01*
X136496629Y-94768612D01*
X136486550Y-94836563D01*
X136469858Y-94903199D01*
X136446716Y-94967878D01*
X136417345Y-95029978D01*
X136382029Y-95088899D01*
X136341107Y-95144075D01*
X136294975Y-95194975D01*
X136244075Y-95241107D01*
X136188899Y-95282029D01*
X136129978Y-95317345D01*
X136067878Y-95346716D01*
X136003199Y-95369858D01*
X135936563Y-95386550D01*
X135868612Y-95396629D01*
X135800000Y-95400000D01*
X131200000Y-95400000D01*
X131131388Y-95396629D01*
X131063437Y-95386550D01*
X130996801Y-95369858D01*
X130932122Y-95346716D01*
X130870022Y-95317345D01*
X130811101Y-95282029D01*
X130755925Y-95241107D01*
X130705025Y-95194975D01*
X130658893Y-95144075D01*
X130617971Y-95088899D01*
X130582655Y-95029978D01*
X130553284Y-94967878D01*
X130530142Y-94903199D01*
X130513450Y-94836563D01*
X130503371Y-94768612D01*
X130500000Y-94700000D01*
X130500000Y-93300000D01*
X130503371Y-93231388D01*
X130513450Y-93163437D01*
X130530142Y-93096801D01*
X130553284Y-93032122D01*
X130582655Y-92970022D01*
X130617971Y-92911101D01*
X130658893Y-92855925D01*
X130705025Y-92805025D01*
X130755925Y-92758893D01*
X130811101Y-92717971D01*
X130870022Y-92682655D01*
X130932122Y-92653284D01*
X130996801Y-92630142D01*
X131063437Y-92613450D01*
X131131388Y-92603371D01*
X131200000Y-92600000D01*
X135800000Y-92600000D01*
X135868612Y-92603371D01*
G37*
G36*
X110374505Y-110526204D02*
G01*
X110398773Y-110529804D01*
X110422572Y-110535765D01*
X110445671Y-110544030D01*
X110467850Y-110554520D01*
X110488893Y-110567132D01*
X110508599Y-110581747D01*
X110526777Y-110598223D01*
X110543253Y-110616401D01*
X110557868Y-110636107D01*
X110570480Y-110657150D01*
X110580970Y-110679329D01*
X110589235Y-110702428D01*
X110595196Y-110726227D01*
X110598796Y-110750495D01*
X110600000Y-110774999D01*
X110600000Y-112025001D01*
X110598796Y-112049505D01*
X110595196Y-112073773D01*
X110589235Y-112097572D01*
X110580970Y-112120671D01*
X110570480Y-112142850D01*
X110557868Y-112163893D01*
X110543253Y-112183599D01*
X110526777Y-112201777D01*
X110508599Y-112218253D01*
X110488893Y-112232868D01*
X110467850Y-112245480D01*
X110445671Y-112255970D01*
X110422572Y-112264235D01*
X110398773Y-112270196D01*
X110374505Y-112273796D01*
X110350001Y-112275000D01*
X109649999Y-112275000D01*
X109625495Y-112273796D01*
X109601227Y-112270196D01*
X109577428Y-112264235D01*
X109554329Y-112255970D01*
X109532150Y-112245480D01*
X109511107Y-112232868D01*
X109491401Y-112218253D01*
X109473223Y-112201777D01*
X109456747Y-112183599D01*
X109442132Y-112163893D01*
X109429520Y-112142850D01*
X109419030Y-112120671D01*
X109410765Y-112097572D01*
X109404804Y-112073773D01*
X109401204Y-112049505D01*
X109400000Y-112025001D01*
X109400000Y-110774999D01*
X109401204Y-110750495D01*
X109404804Y-110726227D01*
X109410765Y-110702428D01*
X109419030Y-110679329D01*
X109429520Y-110657150D01*
X109442132Y-110636107D01*
X109456747Y-110616401D01*
X109473223Y-110598223D01*
X109491401Y-110581747D01*
X109511107Y-110567132D01*
X109532150Y-110554520D01*
X109554329Y-110544030D01*
X109577428Y-110535765D01*
X109601227Y-110529804D01*
X109625495Y-110526204D01*
X109649999Y-110525000D01*
X110350001Y-110525000D01*
X110374505Y-110526204D01*
G37*
D16*
X108000000Y-111400000D03*
D17*
X104500000Y-97460000D03*
D18*
X104500000Y-100000000D03*
X104500000Y-102540000D03*
D19*
X124400000Y-108500000D03*
X115600000Y-108500000D03*
D17*
X107610000Y-90900000D03*
D18*
X110150000Y-90900000D03*
X107610000Y-93440000D03*
X110150000Y-93440000D03*
X107610000Y-95980000D03*
X110150000Y-95980000D03*
X107610000Y-98520000D03*
X110150000Y-98520000D03*
X107610000Y-101060000D03*
X110150000Y-101060000D03*
X107610000Y-103600000D03*
X110150000Y-103600000D03*
X107610000Y-106140000D03*
X110150000Y-106140000D03*
M02*
